<svg xmlns="http://www.w3.org/2000/svg" xmlns:xlink="http://www.w3.org/1999/xlink" id="Layer_1" x="0" y="0" enable-background="new 0 0 466.5 148.5" version="1.1" viewBox="0 0 466.5 148.5" xml:space="preserve"><style type="text/css">.st52{fill:#f1df36}.st52,.st53,.st54,.st55,.st56{clip-path:url(#SVGID_2_)}.st53{fill:#faaf42}.st54{fill:#9ad7ec}.st55{fill:#07b1d5}.st56{fill:#f69421}.st57{fill:#1280c4}.st57,.st58{clip-path:url(#SVGID_2_)}.st59{clip-path:url(#SVGID_4_);fill:#464547}</style><g><g><defs><rect id="SVGID_1_" width="490.4" height="176" x="-7" y="-14.6"/></defs><clipPath id="SVGID_2_"><use overflow="visible" xlink:href="#SVGID_1_"/></clipPath><polygon points="78.6 5.4 43.8 39.4 113.4 39.4 113.4 5.4" class="st52"/><polygon points="113.4 107.4 148.2 73.4 148.2 39.4 113.4 39.4" class="st53"/><polygon points="43.8 107.4 43.8 141.4 78.6 141.4 113.4 107.4" class="st54"/><polygon points="9 73.4 9 107.4 43.8 107.4 43.8 39.4" class="st55"/><rect width="34.8" height="34" x="113.4" y="5.4" class="st56"/><rect width="34.8" height="34" x="9" y="107.4" class="st57"/><g class="st58"><defs><rect id="SVGID_3_" width="490.4" height="176" x="-7" y="-14.6"/></defs><clipPath id="SVGID_4_"><use overflow="visible" xlink:href="#SVGID_3_"/></clipPath><path d="M232.9,36.9c-2.9-2.2-6.2-3.7-9.8-4.5c-3.5-0.8-7.9-1.2-12.9-1.2c-4.2,0-8.5,0.4-12.7,1.2 c-4.2,0.8-7.5,1.5-9.8,2.2l-1.1,0.3v15h2.5l0.3-0.1c3.7-1.6,7.5-2.8,11.2-3.6c3.7-0.8,6.9-1.2,9.6-1.2c2.3,0,4.6,0.2,6.7,0.5 c2,0.3,3.8,0.9,5.1,1.8c1.3,0.8,2.3,1.9,3.1,3.4c0.8,1.5,1.1,3.6,1.1,6.3v0.9c-5.9,0.3-11.5,0.9-16.6,1.5 c-5.7,0.7-10.7,2.1-14.8,4c-4.9,2.2-8.5,5.2-10.7,9c-2.3,3.7-3.4,8.3-3.4,13.6c0,3.4,0.6,6.7,1.9,9.8c1.2,3.1,2.9,5.7,5,7.9 c2.2,2.2,4.7,3.9,7.6,5.1c2.9,1.2,5.9,1.8,9.1,1.8c3.8,0,6.7-0.3,8.9-1c2.1-0.6,4.3-1.5,6.5-2.7c1.6-0.8,3.4-1.9,5.1-3.3 c0.6-0.4,1.1-0.9,1.6-1.2v6.2h15.1V57.3c0-4.7-0.7-8.8-2.1-12.1C237.9,41.8,235.8,39,232.9,36.9 M226.2,70.6v17.8 c-2.5,2.1-5.2,4-8,5.5c-2.9,1.5-6.2,2.3-9.7,2.3c-4.1,0-7.2-0.9-9.3-2.8c-2-1.8-3-4.6-3-8.3c0-3.3,0.9-5.7,2.7-7.5 c1.9-1.9,4.4-3.3,7.4-4.2c2.6-0.8,6.2-1.4,10.5-1.9C220.5,71.2,223.6,70.9,226.2,70.6" class="st59"/><path d="M299.7,35.3c-2.3-1.3-4.7-2.3-6.9-3c-2.9-0.9-6.3-1.4-10.1-1.4c-4.2,0-8.3,0.9-12.3,2.7 c-3.9,1.8-7.3,4.4-10.1,7.7c-2.9,3.4-5.3,7.6-7.1,12.5c-1.8,4.9-2.7,10.7-2.7,17c0,12.1,2.6,21.6,7.6,28.5 c5.2,7,12.2,10.5,20.9,10.5c4.3,0,8.3-0.8,11.8-2.4c2.7-1.2,5.5-2.9,8.3-5.2v32.9h15.2V32.9h-14.1L299.7,35.3z M292,45.8 c2.1,0.5,4.5,1.4,7.1,2.7v39.7c-2.5,2.1-5.2,3.8-8.1,5.1c-3,1.4-6.2,2.1-9.4,2.1c-5.3,0-9.1-2-11.6-6.1 c-2.6-4.3-3.9-10.6-3.9-18.8c0-8.3,1.6-14.8,4.9-19.1c3.2-4.3,7.6-6.3,13.6-6.3C287.3,44.9,289.8,45.2,292,45.8" class="st59"/><path d="M373.3,87.9c-2.6,2.2-5.4,4.1-8.5,5.6c-3.1,1.6-6.1,2.4-8.9,2.4c-3,0-5.2-0.4-6.7-1.1 c-1.4-0.7-2.6-1.9-3.4-3.4c-0.9-1.7-1.5-3.8-1.8-6.1c-0.3-2.5-0.4-5.6-0.4-9.4V32.9h-15.2v48.6c0,5,0.6,9.4,1.8,12.9 c1.2,3.6,2.9,6.7,5.2,9c2.2,2.4,4.9,4.2,7.9,5.3c2.9,1.1,6.1,1.7,9.5,1.7c4.4,0,8.4-0.9,12-2.7c2.7-1.4,5.6-3.3,8.5-5.6v6.3h15.2 V32.9h-15.2V87.9z" class="st59"/><path d="M456.8,45.2c-1.4-3.4-3.5-6.2-6.4-8.4c-2.9-2.2-6.2-3.7-9.8-4.5c-3.5-0.8-7.9-1.2-12.9-1.2 c-4.2,0-8.5,0.4-12.7,1.2c-4.2,0.8-7.5,1.5-9.8,2.2l-1.1,0.3v15h2.5l0.3-0.1c3.7-1.6,7.5-2.8,11.2-3.6c3.7-0.8,6.9-1.2,9.6-1.2 c2.3,0,4.6,0.2,6.7,0.5c2,0.3,3.8,0.9,5.1,1.8c1.3,0.8,2.3,1.9,3.1,3.4c0.8,1.5,1.1,3.6,1.1,6.3v0.9c-5.9,0.3-11.5,0.9-16.6,1.5 c-5.7,0.7-10.7,2.1-14.8,4c-4.9,2.2-8.5,5.2-10.7,9c-2.3,3.7-3.4,8.3-3.4,13.6c0,3.4,0.6,6.7,1.9,9.8c1.2,3.1,2.9,5.7,5,7.9 c2.2,2.2,4.7,3.9,7.6,5.1c2.9,1.2,5.9,1.8,9.1,1.8c3.8,0,6.7-0.3,8.9-1c2.1-0.6,4.3-1.5,6.5-2.7c1.6-0.8,3.4-1.9,5.1-3.3 c0.6-0.4,1.1-0.9,1.6-1.2v6.2h15.1V57.3C458.9,52.6,458.2,48.6,456.8,45.2 M443.7,70.6v17.8c-2.5,2.1-5.2,4-8,5.5 c-2.9,1.5-6.2,2.3-9.7,2.3c-4.1,0-7.2-0.9-9.3-2.8c-2-1.8-3-4.6-3-8.3c0-3.3,0.9-5.7,2.7-7.5c1.9-1.9,4.4-3.3,7.4-4.2 c2.6-0.8,6.2-1.4,10.5-1.9C437.9,71.2,441.1,70.9,443.7,70.6" class="st59"/></g></g></g></svg>