<svg xmlns="http://www.w3.org/2000/svg" xmlns:xlink="http://www.w3.org/1999/xlink" width="412" height="156" version="1.1" viewBox="0 0 412 156"><title>编组 16@3x</title><desc>Created with Sketch.</desc><g id="页面1" fill="none" fill-rule="evenodd" stroke="none" stroke-width="1"><g id="编组-16" transform="translate(1.000000, 0.500000)"><g id="编组-14" transform="translate(293.000000, 0.500000)"><path id="路径" stroke="#4E88EB" stroke-width="22.5" d="M118,143.064777 L51,143.064777 C27.8040405,143.064777 9,124.260737 9,101.064777 L9,7.38964445e-13 L9,7.38964445e-13"/><rect id="矩形" width="118" height="23" x="0" y="0" fill="#4E88EB"/><rect id="矩形备份-19" width="114" height="23" x="0" y="63" fill="#4E88EB"/></g><rect id="矩形" width="24" height="153" x="0" y=".5" fill="#4E88EB"/><path id="矩形备份-15" stroke="#4E88EB" stroke-width="22.5" d="M11.6825453,11.7268334 L90.4364505,11.7268334 C107.693192,11.7268334 121.682545,25.7161866 121.682545,42.9729283 C121.682545,60.2296699 107.693192,74.2190231 90.4364505,74.2190231 L11.6825453,74.2190231 L11.6825453,74.2190231 L11.6825453,11.7268334 Z"/><path id="矩形备份-16" stroke="#4E88EB" stroke-width="22.5" d="M11.2431351,74.6345024 L93.7711769,74.6345024 C112.548858,74.6345024 127.771177,89.8568209 127.771177,108.634502 C127.771177,127.412184 112.548858,142.634502 93.7711769,142.634502 L11.2431351,142.634502 L11.2431351,142.634502 L11.2431351,74.6345024 Z"/><rect id="矩形" width="22" height="154" x="154" y=".5" fill="#4E88EB"/><rect id="矩形备份-17" width="22" height="121" x="203.5" y="-49" fill="#4E88EB" transform="translate(214.500000, 11.500000) rotate(90.000000) translate(-214.500000, -11.500000)"/><rect id="矩形备份-18" width="22" height="102" x="204.5" y="21" fill="#4E88EB" transform="translate(215.500000, 72.000000) rotate(90.000000) translate(-215.500000, -72.000000)"/></g></g></svg>