<svg xmlns="http://www.w3.org/2000/svg" xmlns:xlink="http://www.w3.org/1999/xlink" id="Layer_1" x="0" y="0" enable-background="new 0 0 813 187.5" version="1.1" viewBox="0 0 813 187.5" xml:space="preserve"><style type="text/css">.st415{fill:#074354}.st416{fill:#04c594}</style><g><path d="M654.7,16.1c0-1.8-0.4-2.4-2.3-2.4c-6.1,0.1-12.2,0.1-18.3,0c-2.2-0.1-2.7,0.6-2.7,2.7 c0.1,30.3,0.1,60.6,0.1,91c0,1,0,2,0,2.9c-0.7,0.1-0.8-0.3-0.9-0.6c-1.6-4.5-3.2-8.9-4.8-13.4C616.2,69.7,606.6,43,597,16.2 c-0.6-1.6-1.2-2.5-3.2-2.5c-5.9,0.2-11.9,0.1-17.8,0c-1.7,0-2.3,0.5-2.2,2.2c0.1,4.2,0,8.4,0,12.7c0,48,0,96,0,143.9 c0,2.1,0.4,2.8,2.7,2.8c5.9-0.2,11.9-0.2,17.8,0c2.4,0.1,2.8-0.7,2.8-2.9c-0.1-30.3,0-60.6,0-91c0-0.8,0-1.7,0-2.5 c0.2,0,0.4-0.1,0.6-0.1c0.3,0.8,0.6,1.6,0.9,2.4c11.2,30.6,22.4,61.3,33.5,91.9c0.6,1.7,1.3,2.2,3.1,2.2c5.8-0.1,11.5-0.1,17.3,0 c1.8,0,2.3-0.5,2.3-2.3C654.7,120.7,654.7,68.4,654.7,16.1z" class="st415"/><path d="M68,90.7c-0.1-0.1-0.2-0.3-0.2-0.4c1.6-1.2,3.3-2.3,4.8-3.5c5.4-4.2,8.6-9.8,9.7-16.5 c1.2-7.2,1-14.5,0.4-21.7C82,40,79.3,31.8,72.9,25.4C65.6,17.9,56.5,14.6,46.2,14C33.6,14,21,14,8.4,14l0,0h0l0,0 c1.3,1.4,0.9,3.1,0.9,4.7c0,25,0,50,0,74.9c0,24.5,0,48.9,0,73.4c0,2.8,0.1,5.5,0.3,8.2c12.7-0.2,25.5,0.5,38.2-0.5 c18.7-1.4,30.5-11.8,34-29.8c2-10.3,1.6-20.8,0.7-31.1C81.7,103.8,77.3,95.7,68,90.7z M60.4,138.2c-1.5,9-7.2,13.5-16.9,13.8 c-3.4,0.1-6.7-0.1-10.1,0.1c-1.8,0.1-2.1-0.6-2.1-2.2c0.1-7.9,0-15.8,0-23.8c0-7.8,0.1-15.5,0-23.3c0-1.9,0.4-2.5,2.4-2.5 c4.1,0.1,4.1,0,4.1-4c0-4.7-0.1-9.3,0-14c0-1.7-0.3-2.4-2.2-2.4c-4.2,0.1-4.2,0-4.2-4.2c0-12.6,0-25.1,0-37.7 c0-1.9,0.4-2.6,2.4-2.5c4.6,0.3,9.3-0.2,13.9,0.6c6.5,1.1,10.7,4.9,12.4,11.2c1.9,7.3,1.7,14.7-0.4,21.9c-1.6,5.5-5.3,9-11.1,9.9 c-1.8,0.3-2.4,1-2.3,2.8c0.1,5.5,0.1,11,0,16.5c0,1.4,0.2,2.1,1.8,2.4c7,1.2,11.2,5.5,12.3,12.5C61.8,121.8,61.8,130.1,60.4,138.2z" class="st415"/><path d="M227.2,88.3c0-1.4-0.2-2-1.8-2c-12.7,0.1-25.3,0.1-38,0c-1.3,0-1.8,0.4-1.8,1.7c0.1,5.6,0.1,11.2,0,16.8 c0,1.5,0.4,1.9,1.9,1.9c4.7-0.1,9.5,0.1,14.2-0.1c1.8,0,2.3,0.5,2.3,2.3c-0.1,9.6-0.1,19.1,0,28.7c0.1,13-11,17.3-19.8,15.2 c-7.1-1.7-11.2-6.8-11.3-14.4c-0.1-14.6,0-29.3,0-43.9c0,0,0,0,0,0c0-13.6,0-27.2,0-40.8c0-1.3,0-2.6,0.1-3.9 c0.4-7.9,6-13.6,13.8-14.1c8.8-0.6,15.3,3.8,16.9,11.7c0.8,3.6,0.3,7.2,0.4,10.8c0,1.2,0.1,1.9,1.6,1.9c6.7-0.1,13.4,0,20.2,0 c0.9,0,1.5-0.1,1.5-1.2c0-7.3,0.2-14.6-2.4-21.7c-6.4-17.4-24.5-27.4-43.7-24.1c-18.4,3.2-31.4,18.4-31.5,37.1 c-0.1,29.5-0.1,59.1,0,88.6c0,2.4,0.3,4.8,0.8,7.2c3.8,19.5,21,32,41.8,30.4c19.5-1.5,34.4-17,34.8-36.7 C227.4,122.6,227.2,105.5,227.2,88.3z" class="st415"/><path d="M507.4,131.2c-8.6-38.4-17.2-76.7-25.7-115.1c-0.4-1.7-0.9-2.3-2.7-2.2c-5,0.1-10,0.1-15,0 c-1.7,0-2.3,0.5-2.7,2.2c-11.6,52.3-23.3,104.6-35,156.9c-0.4,1.8-0.2,2.4,1.8,2.4c6.2-0.1,12.4-0.1,18.6,0c1.9,0,2.4-0.7,2.8-2.4 c1.9-10,3.9-19.9,5.8-29.9c0.4-1.9,1.1-2.4,3-2.4c8.8,0.1,17.6,0.1,26.4,0c2,0,2.8,0.5,3.2,2.5c1.8,9.9,3.8,19.8,5.7,29.7 c0.4,2,1.2,2.7,3.2,2.5c2.9-0.2,5.9-0.1,8.8-0.1c3.2,0,6.4-0.1,9.6,0c1.7,0.1,2.2-0.2,1.8-2.1C513.7,159.2,510.6,145.2,507.4,131.2 z M480.3,118.8c-6.1-0.2-12.2-0.1-18.3,0c-1.3,0-2-0.1-1.7-1.8c3.6-18.4,7.2-36.8,10.7-55.2c0.1-0.3,0.2-0.6,0.3-1 c0.1,0,0.3,0.1,0.4,0.1c1.5,7.8,3.1,15.7,4.6,23.5c2.1,10.5,4.1,21.1,6.2,31.6C482.9,118.1,482.7,118.8,480.3,118.8z" class="st415"/><path d="M319.3,129.2c-6.5,0-13.1,0-19.6,0c-1.4,0-1.8,0.5-1.7,1.8c0.1,3.4,0.1,6.9-0.4,10.3 c-0.9,6.1-4.7,10.3-10.5,11.7c-6.8,1.6-12.8-0.6-15.4-5.8c-1.8-3.4-2.2-7-2.2-10.8c0-27.2,0-54.5,0-81.7c0-4.3,0.5-8.6,2.2-12.6 c1.4-3.2,3.7-5.1,7-5.9c9.4-2.4,17.4,2.8,18.9,12.4c0.5,3.3,0.4,6.5,0.4,9.8c0,1.2,0.3,1.7,1.6,1.7c6.6-0.1,13.3-0.1,19.9,0 c1.2,0,1.6-0.4,1.6-1.6c-0.1-3,0-6,0-9c-0.6-21.9-16.4-37.3-38.1-37c-21.5,0.3-36.6,15.9-36.6,37.8c0,14.8,0,29.6,0,44.5 c0,0,0,0,0.1,0c0,15.9-0.3,31.7,0.1,47.6c0.4,17.6,11.2,30,28.4,33.4c18.1,3.6,34.5-4.2,42.4-20c4.1-8.1,3.8-16.6,3.8-25.3 C321,129.1,320.2,129.2,319.3,129.2z" class="st415"/><path d="M373.5,83.9c0-1.1-0.4-1.5-1.5-1.5c-2,0.1-4-0.2-5.9,0.1c-2.4,0.3-3.2-0.4-3.1-3c0.1-21,0-42,0.1-63.1 c0-2-0.5-2.7-2.6-2.6c-6,0.1-12.1,0.2-18.1,0c-2.2-0.1-2.6,0.7-2.6,2.7c0.1,26,0,52,0,78.1c0,26,0,52,0,78.1c0,2.2,0.6,2.8,2.7,2.7 c5.8-0.1,11.5-0.2,17.3,0c2.6,0.1,3.3-0.5,3.3-3.2c-0.1-22.3,0-44.6-0.1-67c0-2.2,0.4-3.3,2.9-3c2,0.2,4,0,5.9,0.1 c1.1,0,1.8-0.2,1.7-1.5C373.5,95.1,373.5,89.5,373.5,83.9z" class="st415"/><path d="M414.6,94.4c0-26,0-52,0-78c0-1.9-0.3-2.7-2.5-2.6c-6,0.2-12.1,0.2-18.1,0c-2.2-0.1-2.7,0.6-2.7,2.7 c0.1,19.5,0.1,38.9,0,58.4c0,2.4,0.8,5.5-0.4,7c-1.3,1.6-4.5,0.5-6.9,0.5c-2,0-2.3,0.7-2.2,2.4c0.1,3.6,0,7.2,0,10.9 c0,6.6,0,6.7,6.5,6.5c2.3-0.1,3,0.5,3,3c-0.1,22.4,0,44.8-0.1,67.2c0,2.2,0.4,3.1,2.9,3.1c5.8-0.2,11.7-0.2,17.6,0 c2.4,0.1,2.8-0.7,2.8-2.9C414.6,146.5,414.6,120.4,414.6,94.4z" class="st415"/><path d="M788.2,64.5c0.8-0.6,1.4-1.1,2.1-1.5c4.3-2.9,6.9-6.9,7.8-12c0.7-4.4,0.8-9,0.4-13.4 c-1.4-15.4-10.8-23.9-26.2-24.1c-7-0.1-14,0.1-20.9-0.1c-2.2,0-2.7,0.6-2.7,2.7c0.1,18.4,0.1,36.7,0.1,55.1c0,15.8,0,31.5,0,47.3 c0,1.3-0.3,2.6,1.8,2.5c8.4-0.2,16.9,0.3,25.3-0.4c11.6-1,19.3-7.7,21.8-19.1c1.2-5.5,1.1-11.1,1-16.7 C798.3,76.5,796.6,68.8,788.2,64.5z M764,55.4c0-4.2,0-8.4,0-12.6c0-4.3,0-8.6,0-12.9c0-1.4,0.4-2,1.9-1.9c2.4,0.1,4.8,0,7.2,0.1 c5.8,0.4,9.2,3.3,10.4,9c0.8,3.8,0.7,7.5-0.1,11.3c-1.2,6.1-4.1,8.6-10.5,9.1c-2.4,0.2-4.8,0-7.2,0.1c-1.4,0.1-1.9-0.5-1.7-1.8 C764,55.6,764,55.5,764,55.4z M783.4,96c-0.9,6-4.6,9.1-11.3,9.5c-2.1,0.1-4.1,0-6.2,0.1c-1.6,0.1-2-0.5-2-2.1 c0.1-5.1,0-10.1,0-15.2c0-4.9,0.1-9.8-0.1-14.7c-0.1-2.1,0.7-2.7,2.6-2.5c2.7,0.2,5.3-0.1,8,0.4c5.1,0.8,8.1,3.5,8.9,8.6 C784.2,85.3,784.2,90.7,783.4,96z" class="st416"/><path d="M549.2,13.8c-5.6,0.2-11.2,0.2-16.8,0c-2.5-0.1-3.3,0.4-3.3,3.2c0.1,25.8,0.1,51.7,0.1,77.5 c0,26.1,0,52.2,0,78.3c0,1.9,0.4,2.7,2.5,2.6c6.1-0.2,12.2-0.1,18.3,0c1.9,0,2.5-0.4,2.5-2.4c-0.1-5.7-0.1-11.4-0.1-17 c0-46.3,0-92.7,0.1-139C552.5,14.2,551.7,13.7,549.2,13.8z" class="st415"/><path d="M128.6,16.5c0-2.1-0.5-2.8-2.7-2.7c-5.9,0.2-11.7,0.2-17.6,0c-2.3-0.1-3,0.5-3,2.9 c0.1,25.9,0.1,51.8,0.1,77.8c0,25.9,0,51.8,0,77.8c0,0.5,0,1,0,1.5c-0.1,1.1,0.4,1.5,1.5,1.5c6.7,0,13.4,0,20.2,0 c1.1,0,1.5-0.4,1.5-1.5c0-1.5,0-3.1,0-4.6C128.6,118.3,128.6,67.4,128.6,16.5z" class="st415"/><path d="M733.9,37.2C733.1,23,723.8,14,709.8,13.5c-7.7-0.3-15.3,0-23-0.2c-2,0-2.6,0.5-2.6,2.5 c0.1,17.1,0,34.1,0,51.2c0,17.1,0,34.3,0,51.4c0,1.3-0.2,2.5,1.9,2.5c8.3-0.2,16.7,0.3,25.1-0.4c12.1-1,20.2-8.5,22.2-20.5 c1.3-8,0.7-16.2,0.7-24.2C734.1,63,734.6,50.1,733.9,37.2z M718.7,91.9c0,2.6-0.2,5.2-0.9,7.7c-1,3.6-3.4,5.7-7,6.5 c-3.2,0.6-6.5,0.4-9.8,0.4c-1.9,0-1.3-1.5-1.3-2.5c0-12.3,0-24.6,0-36.9c0-12.1,0.1-24.3-0.1-36.4c0-2.2,0.6-2.8,2.7-2.6 c1.9,0.2,3.8,0,5.7,0.1c6.1,0.2,9.4,3.1,10.3,9.1c0.2,1.7,0.4,3.4,0.4,5.1C718.7,58.8,718.7,75.3,718.7,91.9z" class="st416"/></g></svg>