<svg xmlns="http://www.w3.org/2000/svg" xmlns:xlink="http://www.w3.org/1999/xlink" id="Layer_1" x="0" y="0" enable-background="new 0 0 502.5 265" version="1.1" viewBox="0 0 502.5 265" xml:space="preserve"><style type="text/css">.st1{fill:#010101}.st60{fill:#00adee}</style><g><path d="M233.6,189.8c-23-1-49.5,0-75.8-3.8c-4.7-0.7-8.6-2.3-11.8-5.7c-5.4-5.8-9.6-12.4-12.2-19.8 c-5.9-16.4-9.8-33.2-9.2-50.7c0.2-4.7-0.2-10.2,4.7-12.9c5-2.7,9.6,0.3,13.9,3c1,0.6,2,1.2,2.9,1.9c12.2,10.6,26.1,11.8,41.2,7.7 c7.4-2,15.1-2.4,22.8-0.7c2.7,0.6,5,0.2,6.6-2.2c1.6-2.5,0.4-4.9-1.1-6.9c-0.8-1.2-2.1-2.2-3.3-2.9c-24.7-15.9-27-56.1-13.9-75.8 c13.8-20.8,41.3-24.2,59.1-6.7c3.2,3.1,6.3,6.4,9.3,9.8c3.2,3.5,6.8,3.8,10.9,1.8c3.6-1.8,6.9-4,9.9-6.7c1.8-1.7,3.7-3.4,5.6-4.9 c1.4-1.1,3-2.9,4.8-1.8c1.5,0.9,1.4,3.2,1.6,5c0.5,8.2-3,15.6-5.2,23.2c-1.4,4.7-0.4,6.8,4.4,7.5c3.1,0.4,6.2,1.2,9.2,2.1 c1.8,0.5,4.1,0.8,4.6,3.3c0.5,2.5-1.3,4-3,5.3c-4.4,3.5-8.9,7-13.3,10.5c-7.2,5.9-10.7,13.9-12.4,22.7c-0.9,4.7,0.9,8.5,5,11.1 c3.8,2.4,7.6,4.7,11.5,7c23.2,13.6,27.4,36.8,23,57.8c-2.5,12.3-12.2,19.4-24.7,20.1C278,189.1,257.5,190,233.6,189.8z" class="st1"/><g><path d="M298.4,201.7h-19.3v58.9h19.3c18.5,0,29.9-11.3,29.9-29.4C328.3,213,316.9,201.7,298.4,201.7z M322.3,231.1 c0,15-9.1,23.9-24.4,23.9H285v-47.8h12.8C313.1,207.3,322.3,216.2,322.3,231.1z" class="st60"/><path d="M378.8,239.1c0,9.8-6.5,16-16.9,16c-10.3,0-16.8-6.1-16.8-15.8v-37.6h-5.9v37.7c0,12.7,9.1,21.2,22.8,21.2 c13.6,0,22.7-8.5,22.7-21.2v-37.7h-5.9V239.1z" class="st60"/><path d="M441.5,248.6c-0.1,0.1-7,7.3-18.7,7.3c-13.7,0-24-10.8-24-25.2c0-13.9,10.2-24.4,23.8-24.4 c10.9,0,17.5,6,17.6,6.1l0.9,0.9l3.6-4.3l-0.7-0.7c-0.3-0.3-7.4-7.5-21.4-7.5c-17,0-29.8,12.9-29.8,30c0,17.6,12.9,30.8,30.1,30.8 c14.4,0,22.3-8.6,22.6-9l0.7-0.8l-3.8-4.1L441.5,248.6z" class="st60"/><polygon points="470.9 229.6 500.1 201.7 492.5 201.7 465.8 226.9 462.2 226.9 462.2 201.7 456.3 201.7 456.3 260.6 462.2 260.6 462.2 232.5 465.8 232.5 493.6 260.6 501.1 260.6" class="st60"/><path d="M3.7,201.7h23.8c11.8,0,20,5.3,20,15.4c0,4.9-2.4,10-6.8,12.5v0.2c6.8,2.1,9.2,8.1,9.2,13.3c0,12.8-10.7,17.5-22.4,17.5 H3.7V201.7z M27.6,224.5c3.6,0,5.2-2.6,5.2-5.4c0-2.7-1.6-5-5.4-5h-9.3v10.5H27.6z M28.8,248.2c4.2,0,6.3-2.9,6.3-6.2s-2-6-6.2-6 H18.1v12.2H28.8z"/><path d="M57.2,201.7h14.4v46.5h24v12.4H57.2V201.7z"/><path d="M137.8,248.2h-18.4l-3.5,12.4H101l20-58.9h15.2l20,58.9h-14.8L137.8,248.2z M128.5,215.1c0,0-1.3,6.4-2.4,10.1l-3.4,11.4 h11.6l-3.3-11.4c-1.1-3.7-2.4-10.1-2.4-10.1H128.5z"/><path d="M188.9,200.7c14.6,0,22.1,8.3,22.1,8.3l-6.7,10.9c0,0-6.6-6-14.7-6c-11.3,0-16.6,8.3-16.6,16.8c0,8.7,5.8,17.7,16.6,17.7 c8.9,0,15.6-7.2,15.6-7.2l7.4,10.5c0,0-8.3,9.9-23.7,9.9c-18.4,0-30.9-13.1-30.9-30.6C158,213.9,171.2,200.7,188.9,200.7z"/><path d="M221.3,201.7h14.4v22.7h2l15.1-22.7h15.5l-18.8,28.2v0.2l19.8,30.6h-16.1l-15.4-23.9h-2v23.9h-14.4V201.7z"/></g></g></svg>