<svg xmlns="http://www.w3.org/2000/svg" xmlns:xlink="http://www.w3.org/1999/xlink" id="Layer_1" x="0" y="0" enable-background="new 0 0 2032 2328" version="1.1" viewBox="0 0 2032 2328" xml:space="preserve"><style type="text/css">.st33{fill:#006eba}.st34{fill:#0078c2}.st35{fill:#0084cc}.st36{fill:#0085cd}.st37{fill:#0090d6}.st38{fill:#00a1e5}.st39{fill:#09aef3}.st40{fill:#27bfff}.st41{fill:#64cffd}.st42{fill:#81d9ff}</style><g id="logos-_x26_-marks"><g id="catchpoint"><circle id="Oval" cx="1844.4" cy="1139.8" r="49.6" class="st33"/><circle id="Oval_1_" cx="1866.5" cy="886" r="49.6" class="st33"/><circle id="Oval_2_" cx="1811.4" cy="621.3" r="49.6" class="st33"/><circle id="Oval_3_" cx="1679" cy="400.6" r="49.6" class="st33"/><circle id="Oval_4_" cx="1491.4" cy="224.1" r="49.6" class="st33"/><circle id="Oval_5_" cx="1259.7" cy="113.8" r="49.6" class="st33"/><circle id="Oval_6_" cx="995" cy="69.6" r="49.6" class="st33"/><circle id="Oval_7_" cx="741.2" cy="113.8" r="49.6" class="st33"/><circle id="Oval_8_" cx="1745.2" cy="1382.5" r="49.6" class="st33"/><circle id="Oval_9_" cx="1590.7" cy="1592.1" r="49.6" class="st33"/><circle id="Oval_10_" cx="1370.1" cy="1735.5" r="49.6" class="st33"/><circle id="Oval_11_" cx="1127.4" cy="1812.7" r="49.6" class="st33"/><circle id="Oval_12_" cx="862.6" cy="1801.7" r="49.6" class="st33"/><circle id="Oval_13_" cx="619.9" cy="1724.5" r="49.6" class="st33"/><circle id="Oval_14_" cx="410.3" cy="1581.1" r="49.6" class="st33"/><circle id="Oval_15_" cx="244.8" cy="1371.5" r="49.6" class="st33"/><circle id="Oval_16_" cx="145.5" cy="1128.7" r="49.6" class="st33"/><circle id="Oval_17_" cx="134.4" cy="864" r="49.6" class="st33"/><circle id="Oval_18_" cx="189.6" cy="610.2" r="49.6" class="st33"/><circle id="Oval_19_" cx="322" cy="400.6" r="49.6" class="st33"/><circle id="Oval_20_" cx="509.5" cy="224.1" r="49.6" class="st33"/><g id="Group" transform="translate(50.000000, 49.719101) rotate(9.000000) translate(-50.000000, -49.719101) translate(8.426966, 7.865169)"><ellipse id="Oval_21_" cx="1870" cy="944.7" class="st34" rx="44.1" ry="44.1" transform="matrix(0.1564 -0.9877 0.9877 0.1564 644.4339 2643.8684)"/><ellipse id="Oval_22_" cx="1892.1" cy="724" class="st34" rx="44.1" ry="44.1" transform="matrix(0.1564 -0.9877 0.9877 0.1564 880.9756 2479.5325)"/><ellipse id="Oval_23_" cx="1847.9" cy="492.3" class="st34" rx="44.1" ry="44.1" transform="matrix(0.1564 -0.9877 0.9877 0.1564 1072.5753 2240.5115)"/><ellipse id="Oval_24_" cx="1726.6" cy="282.7" class="st34" rx="44.1" ry="44.1" transform="matrix(0.1564 -0.9877 0.9877 0.1564 1177.2368 1943.8282)"/><ellipse id="Oval_25_" cx="1550.1" cy="128.3" class="st34" rx="44.1" ry="44.1" transform="matrix(0.1564 -0.9877 0.9877 0.1564 1180.8842 1639.1951)"/><ellipse id="Oval_26_" cx="1351.5" cy="40" class="st34" rx="44.1" ry="44.1" transform="matrix(0.1564 -0.9877 0.9877 0.1564 1100.5398 1368.6075)"/><ellipse id="Oval_27_" cx="1119.8" cy="-4.1" class="st34" rx="44.1" ry="44.1" transform="matrix(0.1564 -0.9877 0.9877 0.1564 948.6905 1102.5564)"/><ellipse id="Oval_28_" cx="888.1" cy="40" class="st34" rx="44.1" ry="44.1" transform="matrix(0.1564 -0.9877 0.9877 0.1564 709.6696 910.9568)"/><ellipse id="Oval_29_" cx="1781.7" cy="1165.3" class="st34" rx="44.1" ry="44.1" transform="matrix(0.1564 -0.9877 0.9877 0.1564 352.0535 2742.8254)"/><ellipse id="Oval_30_" cx="1649.4" cy="1352.9" class="st34" rx="44.1" ry="44.1" transform="matrix(0.1564 -0.9877 0.9877 0.1564 55.1368 2770.2776)"/><ellipse id="Oval_31_" cx="1450.8" cy="1485.2" class="st34" rx="44.1" ry="44.1" transform="matrix(0.1564 -0.9877 0.9877 0.1564 -243.1366 2685.8188)"/><ellipse id="Oval_32_" cx="1230.1" cy="1551.4" class="st34" rx="44.1" ry="44.1" transform="matrix(0.1564 -0.9877 0.9877 0.1564 -494.6439 2523.7283)"/><ellipse id="Oval_33_" cx="998.5" cy="1540.4" class="st34" rx="44.1" ry="44.1" transform="matrix(0.1564 -0.9877 0.9877 0.1564 -679.1827 2285.5967)"/><ellipse id="Oval_34_" cx="788.8" cy="1474.2" class="st34" rx="44.1" ry="44.1" transform="matrix(0.1564 -0.9877 0.9877 0.1564 -790.6263 2022.7256)"/><ellipse id="Oval_35_" cx="590.3" cy="1352.9" class="st34" rx="44.1" ry="44.1" transform="matrix(0.1564 -0.9877 0.9877 0.1564 -838.2812 1724.2186)"/><ellipse id="Oval_36_" cx="446.8" cy="1154.3" class="st34" rx="44.1" ry="44.1" transform="matrix(0.1564 -0.9877 0.9877 0.1564 -763.1288 1415.0491)"/><ellipse id="Oval_37_" cx="358.6" cy="944.7" class="st34" rx="44.1" ry="44.1" transform="matrix(0.1564 -0.9877 0.9877 0.1564 -630.5479 1151.0552)"/><ellipse id="Oval_38_" cx="347.6" cy="702" class="st34" rx="44.1" ry="44.1" transform="matrix(0.1564 -0.9877 0.9877 0.1564 -400.1325 935.4172)"/><ellipse id="Oval_39_" cx="391.7" cy="481.3" class="st34" rx="44.1" ry="44.1" transform="matrix(0.1564 -0.9877 0.9877 0.1564 -144.9779 792.8742)"/><ellipse id="Oval_40_" cx="513" cy="282.7" class="st34" rx="44.1" ry="44.1" transform="matrix(0.1564 -0.9877 0.9877 0.1564 153.5289 745.2193)"/><ellipse id="Oval_41_" cx="678.5" cy="128.3" class="st34" rx="44.1" ry="44.1" transform="matrix(0.1564 -0.9877 0.9877 0.1564 445.6757 778.3759)"/></g><g id="Group_1_" transform="translate(50.244314, 49.691469) rotate(18.000000) translate(-50.244314, -49.691469) translate(12.322966, 11.208323)"><ellipse id="Oval_42_" cx="1906.5" cy="747.2" class="st35" rx="33.4" ry="33.4" transform="matrix(2.390582e-06 1 -1 2.390582e-06 2653.7747 -1159.3036)"/><ellipse id="Oval_43_" cx="1926.8" cy="544.9" class="st35" rx="33.4" ry="33.4" transform="matrix(2.390582e-06 1 -1 2.390582e-06 2471.6863 -1381.8556)"/><ellipse id="Oval_44_" cx="1886.3" cy="332.5" class="st35" rx="33.4" ry="33.4" transform="matrix(2.390582e-06 1 -1 2.390582e-06 2218.7859 -1553.8275)"/><ellipse id="Oval_45_" cx="1775" cy="140.3" class="st35" rx="33.4" ry="33.4" transform="matrix(2.390582e-06 1 -1 2.390582e-06 1915.3054 -1634.7551)"/><ellipse id="Oval_46_" cx="1613.2" cy="-1.3" class="st35" rx="33.4" ry="33.4" transform="matrix(2.390582e-06 1 -1 2.390582e-06 1611.8252 -1614.5229)"/><ellipse id="Oval_47_" cx="1431.1" cy="-82.3" class="st35" rx="33.4" ry="33.4" transform="matrix(2.390582e-06 1 -1 2.390582e-06 1348.8091 -1513.3625)"/><ellipse id="Oval_48_" cx="1218.7" cy="-122.7" class="st35" rx="33.4" ry="33.4" transform="matrix(2.390581e-06 1 -1 2.390581e-06 1095.9091 -1341.3901)"/><ellipse id="Oval_49_" cx="1006.2" cy="-82.3" class="st35" rx="33.4" ry="33.4" transform="matrix(2.390582e-06 1 -1 2.390582e-06 923.9372 -1088.4897)"/><ellipse id="Oval_50_" cx="1825.6" cy="949.6" class="st35" rx="33.4" ry="33.4" transform="matrix(2.390582e-06 1 -1 2.390582e-06 2775.167 -876.0555)"/><ellipse id="Oval_51_" cx="1704.2" cy="1121.5" class="st35" rx="33.4" ry="33.4" transform="matrix(2.390581e-06 1 -1 2.390581e-06 2825.7473 -582.6913)"/><ellipse id="Oval_52_" cx="1522.1" cy="1242.9" class="st35" rx="33.4" ry="33.4" transform="matrix(2.390582e-06 1 -1 2.390582e-06 2765.0515 -279.211)"/><ellipse id="Oval_53_" cx="1319.8" cy="1303.6" class="st35" rx="33.4" ry="33.4" transform="matrix(2.390582e-06 1 -1 2.390582e-06 2623.4277 -16.1945)"/><ellipse id="Oval_54_" cx="1107.4" cy="1293.5" class="st35" rx="33.4" ry="33.4" transform="matrix(2.390581e-06 1 -1 2.390581e-06 2400.8757 186.1258)"/><ellipse id="Oval_55_" cx="915.2" cy="1232.8" class="st35" rx="33.4" ry="33.4" transform="matrix(2.390582e-06 1 -1 2.390582e-06 2147.9758 317.6342)"/><ellipse id="Oval_56_" cx="733.1" cy="1121.5" class="st35" rx="33.4" ry="33.4" transform="matrix(2.390582e-06 1 -1 2.390582e-06 1854.6116 388.4466)"/><ellipse id="Oval_57_" cx="601.6" cy="939.4" class="st35" rx="33.4" ry="33.4" transform="matrix(2.390582e-06 1 -1 2.390582e-06 1541.0151 337.8669)"/><ellipse id="Oval_58_" cx="520.6" cy="747.2" class="st35" rx="33.4" ry="33.4" transform="matrix(2.390582e-06 1 -1 2.390582e-06 1267.8828 226.591)"/><ellipse id="Oval_59_" cx="510.5" cy="524.7" class="st35" rx="33.4" ry="33.4" transform="matrix(2.390581e-06 1 -1 2.390581e-06 1035.2144 14.1551)"/><ellipse id="Oval_60_" cx="551" cy="322.4" class="st35" rx="33.4" ry="33.4" transform="matrix(2.390582e-06 1 -1 2.390582e-06 873.358 -228.6289)"/><ellipse id="Oval_61_" cx="662.3" cy="140.3" class="st35" rx="33.4" ry="33.4" transform="matrix(2.390581e-06 1 -1 2.390581e-06 802.5457 -521.9931)"/><ellipse id="Oval_62_" cx="814" cy="-1.3" class="st35" rx="33.4" ry="33.4" transform="matrix(2.390582e-06 1 -1 2.390582e-06 812.6614 -815.3574)"/></g><g id="Group_2_" transform="translate(50.141057, 49.569943) rotate(26.000000) translate(-50.141057, -49.569943) translate(15.309596, 14.738482)"><ellipse id="Oval_63_" cx="1910.1" cy="554.6" class="st36" rx="27.6" ry="27.7" transform="matrix(2.422951e-06 1 -1 2.422951e-06 2464.6108 -1355.4944)"/><ellipse id="Oval_64_" cx="1932.2" cy="377.2" class="st36" rx="27.6" ry="27.7" transform="matrix(2.422951e-06 1 -1 2.422951e-06 2309.3843 -1555.071)"/><ellipse id="Oval_65_" cx="1887.9" cy="177.6" class="st36" rx="27.6" ry="27.7" transform="matrix(2.422952e-06 1 -1 2.422952e-06 2065.4568 -1710.2972)"/><ellipse id="Oval_66_" cx="1788.1" cy=".2" class="st36" rx="27.6" ry="27.7" transform="matrix(2.422951e-06 1 -1 2.422951e-06 1788.2665 -1787.91)"/><ellipse id="Oval_67_" cx="1644" cy="-121.8" class="st36" rx="27.6" ry="27.7" transform="matrix(2.422951e-06 1 -1 2.422951e-06 1522.1641 -1765.7346)"/><ellipse id="Oval_68_" cx="1477.6" cy="-199.4" class="st36" rx="27.6" ry="27.7" transform="matrix(2.422951e-06 1 -1 2.422951e-06 1278.2368 -1677.0336)"/><ellipse id="Oval_69_" cx="1278.1" cy="-232.7" class="st36" rx="27.6" ry="27.7" transform="matrix(2.422951e-06 1 -1 2.422951e-06 1045.3973 -1510.7192)"/><ellipse id="Oval_70_" cx="1089.6" cy="-199.4" class="st36" rx="27.6" ry="27.7" transform="matrix(2.422951e-06 1 -1 2.422951e-06 890.1711 -1288.9669)"/><ellipse id="Oval_71_" cx="1832.4" cy="743.1" class="st36" rx="27.6" ry="27.7" transform="matrix(2.422952e-06 1 -1 2.422952e-06 2575.4871 -1089.3921)"/><ellipse id="Oval_72_" cx="1721.6" cy="898.3" class="st36" rx="27.6" ry="27.7" transform="matrix(2.422951e-06 1 -1 2.422951e-06 2619.8379 -823.2895)"/><ellipse id="Oval_73_" cx="1555.3" cy="1009.2" class="st36" rx="27.6" ry="27.7" transform="matrix(2.422952e-06 1 -1 2.422952e-06 2564.4001 -546.0994)"/><ellipse id="Oval_74_" cx="1377.8" cy="1064.6" class="st36" rx="27.6" ry="27.7" transform="matrix(2.422952e-06 1 -1 2.422952e-06 2442.4368 -313.2596)"/><ellipse id="Oval_75_" cx="1178.3" cy="1053.5" class="st36" rx="27.6" ry="27.7" transform="matrix(2.422952e-06 1 -1 2.422952e-06 2231.7725 -124.7701)"/><ellipse id="Oval_76_" cx="1012" cy="998.1" class="st36" rx="27.6" ry="27.7" transform="matrix(2.422951e-06 1 -1 2.422951e-06 2010.0205 -13.8938)"/><ellipse id="Oval_77_" cx="845.6" cy="898.3" class="st36" rx="27.6" ry="27.7" transform="matrix(2.422951e-06 1 -1 2.422951e-06 1743.9181 52.6321)"/><ellipse id="Oval_78_" cx="723.7" cy="732" class="st36" rx="27.6" ry="27.7" transform="matrix(2.422951e-06 1 -1 2.422951e-06 1455.6404 8.282)"/><ellipse id="Oval_79_" cx="646.1" cy="554.6" class="st36" rx="27.6" ry="27.7" transform="matrix(2.422951e-06 1 -1 2.422951e-06 1200.6254 -91.5062)"/><ellipse id="Oval_80_" cx="635" cy="355" class="st36" rx="27.6" ry="27.7" transform="matrix(2.422951e-06 1 -1 2.422951e-06 989.9607 -279.9952)"/><ellipse id="Oval_81_" cx="679.3" cy="166.5" class="st36" rx="27.6" ry="27.7" transform="matrix(2.422952e-06 1 -1 2.422952e-06 845.8216 -512.8347)"/><ellipse id="Oval_82_" cx="779.1" cy=".2" class="st36" rx="27.6" ry="27.7" transform="matrix(2.422952e-06 1 -1 2.422952e-06 779.2957 -778.9371)"/><ellipse id="Oval_83_" cx="912.2" cy="-121.8" class="st36" rx="27.6" ry="27.7" transform="matrix(2.422951e-06 1 -1 2.422951e-06 790.383 -1033.952)"/></g><g id="Group_3_" transform="translate(49.788605, 49.699854) rotate(17.000000) translate(-49.788605, -49.699854) translate(18.327930, 18.239180)"><ellipse id="Oval_84_" cx="1766.7" cy="733.1" class="st33" rx="25" ry="25.1" transform="matrix(2.752137e-06 1 -1 2.752137e-06 2499.8628 -1033.578)"/><ellipse id="Oval_85_" cx="1786.8" cy="572.7" class="st33" rx="25" ry="25.1" transform="matrix(2.752138e-06 1 -1 2.752138e-06 2359.4905 -1214.0563)"/><ellipse id="Oval_86_" cx="1746.7" cy="392.2" class="st33" rx="25" ry="25.1" transform="matrix(2.752138e-06 1 -1 2.752138e-06 2138.9053 -1354.428)"/><ellipse id="Oval_87_" cx="1656.4" cy="231.8" class="st33" rx="25" ry="25.1" transform="matrix(2.752138e-06 1 -1 2.752138e-06 1888.2406 -1424.6136)"/><ellipse id="Oval_88_" cx="1526.1" cy="121.5" class="st33" rx="25" ry="25.1" transform="matrix(2.752138e-06 1 -1 2.752138e-06 1647.6028 -1404.5602)"/><ellipse id="Oval_89_" cx="1375.7" cy="51.3" class="st33" rx="25" ry="25.1" transform="matrix(2.752138e-06 1 -1 2.752138e-06 1427.0182 -1324.3472)"/><ellipse id="Oval_90_" cx="1195.2" cy="21.3" class="st33" rx="25" ry="25.1" transform="matrix(2.752137e-06 1 -1 2.752137e-06 1216.4602 -1173.9481)"/><ellipse id="Oval_91_" cx="1024.8" cy="51.3" class="st33" rx="25" ry="25.1" transform="matrix(2.752138e-06 1 -1 2.752138e-06 1076.0884 -973.4163)"/><ellipse id="Oval_92_" cx="1696.5" cy="903.6" class="st33" rx="25" ry="25.1" transform="matrix(2.752138e-06 1 -1 2.752138e-06 2600.1289 -792.9402)"/><ellipse id="Oval_93_" cx="1596.3" cy="1044" class="st33" rx="25" ry="25.1" transform="matrix(2.752137e-06 1 -1 2.752137e-06 2640.2356 -552.3024)"/><ellipse id="Oval_94_" cx="1445.9" cy="1144.2" class="st33" rx="25" ry="25.1" transform="matrix(2.752138e-06 1 -1 2.752138e-06 2590.103 -301.6377)"/><ellipse id="Oval_95_" cx="1285.4" cy="1194.4" class="st33" rx="25" ry="25.1" transform="matrix(2.752138e-06 1 -1 2.752138e-06 2479.811 -91.0794)"/><ellipse id="Oval_96_" cx="1105" cy="1184.3" class="st33" rx="25" ry="25.1" transform="matrix(2.752137e-06 1 -1 2.752137e-06 2289.3062 79.3728)"/><ellipse id="Oval_97_" cx="954.6" cy="1134.2" class="st33" rx="25" ry="25.1" transform="matrix(2.752137e-06 1 -1 2.752137e-06 2088.7749 179.6389)"/><ellipse id="Oval_98_" cx="804.2" cy="1044" class="st33" rx="25" ry="25.1" transform="matrix(2.752137e-06 1 -1 2.752137e-06 1848.137 239.7988)"/><ellipse id="Oval_99_" cx="693.9" cy="893.6" class="st33" rx="25" ry="25.1" transform="matrix(2.752137e-06 1 -1 2.752137e-06 1587.4458 199.6929)"/><ellipse id="Oval_100_" cx="623.7" cy="733.1" class="st33" rx="25" ry="25.1" transform="matrix(2.752137e-06 1 -1 2.752137e-06 1356.8344 109.454)"/><ellipse id="Oval_101_" cx="613.7" cy="552.7" class="st33" rx="25" ry="25.1" transform="matrix(2.752138e-06 1 -1 2.752138e-06 1166.329 -60.9975)"/><ellipse id="Oval_102_" cx="653.8" cy="382.2" class="st33" rx="25" ry="25.1" transform="matrix(2.752138e-06 1 -1 2.752138e-06 1035.9832 -271.5555)"/><ellipse id="Oval_103_" cx="744" cy="231.8" class="st33" rx="25" ry="25.1" transform="matrix(2.752137e-06 1 -1 2.752137e-06 975.8232 -512.1934)"/><ellipse id="Oval_104_" cx="864.3" cy="121.5" class="st33" rx="25" ry="25.1" transform="matrix(2.752137e-06 1 -1 2.752137e-06 985.8495 -742.8047)"/></g><g id="Group_4_" transform="translate(49.788605, 49.699854) rotate(17.000000) translate(-49.788605, -49.699854) translate(18.327930, 18.239180)"><ellipse id="Oval_105_" cx="1766.7" cy="733.1" class="st37" rx="25" ry="25.1" transform="matrix(2.752137e-06 1 -1 2.752137e-06 2499.8628 -1033.578)"/><ellipse id="Oval_106_" cx="1786.8" cy="572.7" class="st37" rx="25" ry="25.1" transform="matrix(2.752138e-06 1 -1 2.752138e-06 2359.4905 -1214.0563)"/><ellipse id="Oval_107_" cx="1746.7" cy="392.2" class="st37" rx="25" ry="25.1" transform="matrix(2.752138e-06 1 -1 2.752138e-06 2138.9053 -1354.428)"/><ellipse id="Oval_108_" cx="1656.4" cy="231.8" class="st37" rx="25" ry="25.1" transform="matrix(2.752138e-06 1 -1 2.752138e-06 1888.2406 -1424.6136)"/><ellipse id="Oval_109_" cx="1526.1" cy="121.5" class="st37" rx="25" ry="25.1" transform="matrix(2.752138e-06 1 -1 2.752138e-06 1647.6028 -1404.5602)"/><ellipse id="Oval_110_" cx="1375.7" cy="51.3" class="st37" rx="25" ry="25.1" transform="matrix(2.752138e-06 1 -1 2.752138e-06 1427.0182 -1324.3472)"/><ellipse id="Oval_111_" cx="1195.2" cy="21.3" class="st37" rx="25" ry="25.1" transform="matrix(2.752137e-06 1 -1 2.752137e-06 1216.4602 -1173.9481)"/><ellipse id="Oval_112_" cx="1024.8" cy="51.3" class="st37" rx="25" ry="25.1" transform="matrix(2.752138e-06 1 -1 2.752138e-06 1076.0884 -973.4163)"/><ellipse id="Oval_113_" cx="1696.5" cy="903.6" class="st37" rx="25" ry="25.1" transform="matrix(2.752138e-06 1 -1 2.752138e-06 2600.1289 -792.9402)"/><ellipse id="Oval_114_" cx="1596.3" cy="1044" class="st37" rx="25" ry="25.1" transform="matrix(2.752137e-06 1 -1 2.752137e-06 2640.2356 -552.3024)"/><ellipse id="Oval_115_" cx="1445.9" cy="1144.2" class="st37" rx="25" ry="25.1" transform="matrix(2.752138e-06 1 -1 2.752138e-06 2590.103 -301.6377)"/><ellipse id="Oval_116_" cx="1285.4" cy="1194.4" class="st37" rx="25" ry="25.1" transform="matrix(2.752138e-06 1 -1 2.752138e-06 2479.811 -91.0794)"/><ellipse id="Oval_117_" cx="1105" cy="1184.3" class="st37" rx="25" ry="25.1" transform="matrix(2.752137e-06 1 -1 2.752137e-06 2289.3062 79.3728)"/><ellipse id="Oval_118_" cx="954.6" cy="1134.2" class="st37" rx="25" ry="25.1" transform="matrix(2.752137e-06 1 -1 2.752137e-06 2088.7749 179.6389)"/><ellipse id="Oval_119_" cx="804.2" cy="1044" class="st37" rx="25" ry="25.1" transform="matrix(2.752137e-06 1 -1 2.752137e-06 1848.137 239.7988)"/><ellipse id="Oval_120_" cx="693.9" cy="893.6" class="st37" rx="25" ry="25.1" transform="matrix(2.752137e-06 1 -1 2.752137e-06 1587.4458 199.6929)"/><ellipse id="Oval_121_" cx="623.7" cy="733.1" class="st37" rx="25" ry="25.1" transform="matrix(2.752137e-06 1 -1 2.752137e-06 1356.8344 109.454)"/><ellipse id="Oval_122_" cx="613.7" cy="552.7" class="st37" rx="25" ry="25.1" transform="matrix(2.752138e-06 1 -1 2.752138e-06 1166.329 -60.9975)"/><ellipse id="Oval_123_" cx="653.8" cy="382.2" class="st37" rx="25" ry="25.1" transform="matrix(2.752138e-06 1 -1 2.752138e-06 1035.9832 -271.5555)"/><ellipse id="Oval_124_" cx="744" cy="231.8" class="st37" rx="25" ry="25.1" transform="matrix(2.752137e-06 1 -1 2.752137e-06 975.8232 -512.1934)"/><ellipse id="Oval_125_" cx="864.3" cy="121.5" class="st37" rx="25" ry="25.1" transform="matrix(2.752137e-06 1 -1 2.752137e-06 985.8495 -742.8047)"/></g><g id="Group_5_" transform="translate(49.842089, 49.800444) rotate(26.000000) translate(-49.842089, -49.800444) translate(21.471303, 21.429658)"><ellipse id="Oval_126_" cx="1782" cy="527.6" class="st33" rx="22.4" ry="22.5" transform="matrix(2.422950e-06 1 -1 2.422950e-06 2309.5918 -1254.4833)"/><ellipse id="Oval_127_" cx="1800.1" cy="383.3" class="st33" rx="22.4" ry="22.5" transform="matrix(2.422951e-06 1 -1 2.422951e-06 2183.3652 -1416.7739)"/><ellipse id="Oval_128_" cx="1764" cy="221" class="st33" rx="22.4" ry="22.5" transform="matrix(2.422951e-06 1 -1 2.422951e-06 1985.0098 -1543)"/><ellipse id="Oval_129_" cx="1682.9" cy="76.7" class="st33" rx="22.4" ry="22.5" transform="matrix(2.422951e-06 1 -1 2.422951e-06 1759.6057 -1606.1128)"/><ellipse id="Oval_130_" cx="1565.7" cy="-22.4" class="st33" rx="22.4" ry="22.5" transform="matrix(2.422951e-06 1 -1 2.422951e-06 1543.2179 -1588.0803)"/><ellipse id="Oval_131_" cx="1430.4" cy="-85.5" class="st33" rx="22.4" ry="22.5" transform="matrix(2.422951e-06 1 -1 2.422951e-06 1344.8624 -1515.9508)"/><ellipse id="Oval_132_" cx="1268.1" cy="-112.6" class="st33" rx="22.4" ry="22.5" transform="matrix(2.422951e-06 1 -1 2.422951e-06 1155.5232 -1380.7081)"/><ellipse id="Oval_133_" cx="1114.8" cy="-85.5" class="st33" rx="22.4" ry="22.5" transform="matrix(2.422951e-06 1 -1 2.422951e-06 1029.2972 -1200.3849)"/><ellipse id="Oval_134_" cx="1718.9" cy="680.8" class="st33" rx="22.4" ry="22.5" transform="matrix(2.422952e-06 1 -1 2.422952e-06 2399.7537 -1038.0955)"/><ellipse id="Oval_135_" cx="1628.8" cy="807.1" class="st33" rx="22.4" ry="22.5" transform="matrix(2.422951e-06 1 -1 2.422951e-06 2435.8184 -821.7078)"/><ellipse id="Oval_136_" cx="1493.5" cy="897.2" class="st33" rx="22.4" ry="22.5" transform="matrix(2.422952e-06 1 -1 2.422952e-06 2390.7378 -596.3036)"/><ellipse id="Oval_137_" cx="1349.3" cy="942.3" class="st33" rx="22.4" ry="22.5" transform="matrix(2.422951e-06 1 -1 2.422951e-06 2291.5603 -406.9643)"/><ellipse id="Oval_138_" cx="1187" cy="933.3" class="st33" rx="22.4" ry="22.5" transform="matrix(2.422951e-06 1 -1 2.422951e-06 2120.2534 -253.6893)"/><ellipse id="Oval_139_" cx="1051.7" cy="888.2" class="st33" rx="22.4" ry="22.5" transform="matrix(2.422951e-06 1 -1 2.422951e-06 1939.9304 -163.5275)"/><ellipse id="Oval_140_" cx="916.5" cy="807.1" class="st33" rx="22.4" ry="22.5" transform="matrix(2.422951e-06 1 -1 2.422951e-06 1723.5426 -109.4303)"/><ellipse id="Oval_141_" cx="817.3" cy="671.8" class="st33" rx="22.4" ry="22.5" transform="matrix(2.422951e-06 1 -1 2.422951e-06 1489.1224 -145.4947)"/><ellipse id="Oval_142_" cx="754.2" cy="527.6" class="st33" rx="22.4" ry="22.5" transform="matrix(2.422951e-06 1 -1 2.422951e-06 1281.7507 -226.6399)"/><ellipse id="Oval_143_" cx="745.2" cy="365.3" class="st33" rx="22.4" ry="22.5" transform="matrix(2.422951e-06 1 -1 2.422951e-06 1110.4435 -379.9145)"/><ellipse id="Oval_144_" cx="781.2" cy="212" class="st33" rx="22.4" ry="22.5" transform="matrix(2.422951e-06 1 -1 2.422951e-06 993.2332 -569.2537)"/><ellipse id="Oval_145_" cx="862.4" cy="76.7" class="st33" rx="22.4" ry="22.5" transform="matrix(2.422951e-06 1 -1 2.422951e-06 939.136 -785.6414)"/><ellipse id="Oval_146_" cx="970.6" cy="-22.4" class="st33" rx="22.4" ry="22.5" transform="matrix(2.422951e-06 1 -1 2.422951e-06 948.152 -993.0131)"/></g><g id="Group_6_" transform="translate(49.842089, 49.800444) rotate(26.000000) translate(-49.842089, -49.800444) translate(21.471303, 21.429658)"><ellipse id="Oval_147_" cx="1782" cy="527.6" class="st38" rx="22.4" ry="22.5" transform="matrix(2.422950e-06 1 -1 2.422950e-06 2309.5918 -1254.4833)"/><ellipse id="Oval_148_" cx="1800.1" cy="383.3" class="st38" rx="22.4" ry="22.5" transform="matrix(2.422951e-06 1 -1 2.422951e-06 2183.3652 -1416.7739)"/><ellipse id="Oval_149_" cx="1764" cy="221" class="st38" rx="22.4" ry="22.5" transform="matrix(2.422951e-06 1 -1 2.422951e-06 1985.0098 -1543)"/><ellipse id="Oval_150_" cx="1682.9" cy="76.7" class="st38" rx="22.4" ry="22.5" transform="matrix(2.422951e-06 1 -1 2.422951e-06 1759.6057 -1606.1128)"/><ellipse id="Oval_151_" cx="1565.7" cy="-22.4" class="st38" rx="22.4" ry="22.5" transform="matrix(2.422951e-06 1 -1 2.422951e-06 1543.2179 -1588.0803)"/><ellipse id="Oval_152_" cx="1430.4" cy="-85.5" class="st38" rx="22.4" ry="22.5" transform="matrix(2.422951e-06 1 -1 2.422951e-06 1344.8624 -1515.9508)"/><ellipse id="Oval_153_" cx="1268.1" cy="-112.6" class="st38" rx="22.4" ry="22.5" transform="matrix(2.422951e-06 1 -1 2.422951e-06 1155.5232 -1380.7081)"/><ellipse id="Oval_154_" cx="1114.8" cy="-85.5" class="st38" rx="22.4" ry="22.5" transform="matrix(2.422951e-06 1 -1 2.422951e-06 1029.2972 -1200.3849)"/><ellipse id="Oval_155_" cx="1718.9" cy="680.8" class="st38" rx="22.4" ry="22.5" transform="matrix(2.422952e-06 1 -1 2.422952e-06 2399.7537 -1038.0955)"/><ellipse id="Oval_156_" cx="1628.8" cy="807.1" class="st38" rx="22.4" ry="22.5" transform="matrix(2.422951e-06 1 -1 2.422951e-06 2435.8184 -821.7078)"/><ellipse id="Oval_157_" cx="1493.5" cy="897.2" class="st38" rx="22.4" ry="22.5" transform="matrix(2.422952e-06 1 -1 2.422952e-06 2390.7378 -596.3036)"/><ellipse id="Oval_158_" cx="1349.3" cy="942.3" class="st38" rx="22.4" ry="22.5" transform="matrix(2.422951e-06 1 -1 2.422951e-06 2291.5603 -406.9643)"/><ellipse id="Oval_159_" cx="1187" cy="933.3" class="st38" rx="22.4" ry="22.5" transform="matrix(2.422951e-06 1 -1 2.422951e-06 2120.2534 -253.6893)"/><ellipse id="Oval_160_" cx="1051.7" cy="888.2" class="st38" rx="22.4" ry="22.5" transform="matrix(2.422951e-06 1 -1 2.422951e-06 1939.9304 -163.5275)"/><ellipse id="Oval_161_" cx="916.5" cy="807.1" class="st38" rx="22.4" ry="22.5" transform="matrix(2.422951e-06 1 -1 2.422951e-06 1723.5426 -109.4303)"/><ellipse id="Oval_162_" cx="817.3" cy="671.8" class="st38" rx="22.4" ry="22.5" transform="matrix(2.422951e-06 1 -1 2.422951e-06 1489.1224 -145.4947)"/><ellipse id="Oval_163_" cx="754.2" cy="527.6" class="st38" rx="22.4" ry="22.5" transform="matrix(2.422951e-06 1 -1 2.422951e-06 1281.7507 -226.6399)"/><ellipse id="Oval_164_" cx="745.2" cy="365.3" class="st38" rx="22.4" ry="22.5" transform="matrix(2.422951e-06 1 -1 2.422951e-06 1110.4435 -379.9145)"/><ellipse id="Oval_165_" cx="781.2" cy="212" class="st38" rx="22.4" ry="22.5" transform="matrix(2.422951e-06 1 -1 2.422951e-06 993.2332 -569.2537)"/><ellipse id="Oval_166_" cx="862.4" cy="76.7" class="st38" rx="22.4" ry="22.5" transform="matrix(2.422951e-06 1 -1 2.422951e-06 939.136 -785.6414)"/><ellipse id="Oval_167_" cx="970.6" cy="-22.4" class="st38" rx="22.4" ry="22.5" transform="matrix(2.422951e-06 1 -1 2.422951e-06 948.152 -993.0131)"/></g><g id="Group_7_" transform="translate(49.824471, 49.749277) rotate(35.000000) translate(-49.824471, -49.749277) translate(24.262673, 24.187479)"><ellipse id="Oval_168_" cx="1774.6" cy="314.7" class="st39" rx="20.3" ry="20.3" transform="matrix(2.199070e-06 1 -1 2.199070e-06 2089.3157 -1459.8345)"/><ellipse id="Oval_169_" cx="1790.8" cy="184.6" class="st39" rx="20.3" ry="20.3" transform="matrix(2.199070e-06 1 -1 2.199070e-06 1975.4166 -1606.2756)"/><ellipse id="Oval_170_" cx="1758.3" cy="38.1" class="st39" rx="20.3" ry="20.3" transform="matrix(2.199070e-06 1 -1 2.199070e-06 1796.4326 -1720.1744)"/><ellipse id="Oval_171_" cx="1685.1" cy="-92" class="st39" rx="20.3" ry="20.3" transform="matrix(2.199070e-06 1 -1 2.199070e-06 1593.0417 -1777.1237)"/><ellipse id="Oval_172_" cx="1579.3" cy="-181.5" class="st39" rx="20.3" ry="20.3" transform="matrix(2.199071e-06 1 -1 2.199071e-06 1397.7866 -1760.8523)"/><ellipse id="Oval_173_" cx="1457.3" cy="-238.5" class="st39" rx="20.3" ry="20.3" transform="matrix(2.199070e-06 1 -1 2.199070e-06 1218.8027 -1695.7671)"/><ellipse id="Oval_174_" cx="1310.8" cy="-262.9" class="st39" rx="20.3" ry="20.3" transform="matrix(2.199071e-06 1 -1 2.199071e-06 1047.9546 -1573.7325)"/><ellipse id="Oval_175_" cx="1172.5" cy="-238.5" class="st39" rx="20.3" ry="20.3" transform="matrix(2.199069e-06 1 -1 2.199069e-06 934.0558 -1411.0198)"/><ellipse id="Oval_176_" cx="1717.6" cy="453" class="st39" rx="20.3" ry="20.3" transform="matrix(2.199070e-06 1 -1 2.199070e-06 2170.6721 -1264.5792)"/><ellipse id="Oval_177_" cx="1636.3" cy="566.9" class="st39" rx="20.3" ry="20.3" transform="matrix(2.199070e-06 1 -1 2.199070e-06 2203.2148 -1069.3241)"/><ellipse id="Oval_178_" cx="1514.2" cy="648.3" class="st39" rx="20.3" ry="20.3" transform="matrix(2.199070e-06 1 -1 2.199070e-06 2162.5369 -865.9332)"/><ellipse id="Oval_179_" cx="1384.1" cy="689" class="st39" rx="20.3" ry="20.3" transform="matrix(2.199070e-06 1 -1 2.199070e-06 2073.0449 -695.0848)"/><ellipse id="Oval_180_" cx="1237.6" cy="680.8" class="st39" rx="20.3" ry="20.3" transform="matrix(2.199070e-06 1 -1 2.199070e-06 1918.468 -556.779)"/><ellipse id="Oval_181_" cx="1115.6" cy="640.2" class="st39" rx="20.3" ry="20.3" transform="matrix(2.199070e-06 1 -1 2.199070e-06 1755.7555 -475.4225)"/><ellipse id="Oval_182_" cx="993.6" cy="566.9" class="st39" rx="20.3" ry="20.3" transform="matrix(2.199070e-06 1 -1 2.199070e-06 1560.5002 -426.6086)"/><ellipse id="Oval_183_" cx="904.1" cy="444.9" class="st39" rx="20.3" ry="20.3" transform="matrix(2.199070e-06 1 -1 2.199070e-06 1348.9738 -459.1509)"/><ellipse id="Oval_184_" cx="847.1" cy="314.7" class="st39" rx="20.3" ry="20.3" transform="matrix(2.199070e-06 1 -1 2.199070e-06 1161.8542 -532.3715)"/><ellipse id="Oval_185_" cx="839" cy="168.3" class="st39" rx="20.3" ry="20.3" transform="matrix(2.199070e-06 1 -1 2.199070e-06 1007.277 -670.6771)"/><ellipse id="Oval_186_" cx="871.5" cy="30" class="st39" rx="20.3" ry="20.3" transform="matrix(2.199070e-06 1 -1 2.199070e-06 901.5137 -841.5254)"/><ellipse id="Oval_187_" cx="944.7" cy="-92" class="st39" rx="20.3" ry="20.3" transform="matrix(2.199070e-06 1 -1 2.199070e-06 852.6997 -1036.7805)"/><ellipse id="Oval_188_" cx="1042.4" cy="-181.5" class="st39" rx="20.3" ry="20.3" transform="matrix(2.199070e-06 1 -1 2.199070e-06 860.8352 -1223.9001)"/></g><g id="Group_8_" transform="translate(49.847985, 49.882631) rotate(43.000000) translate(-49.847985, -49.882631) translate(26.252479, 26.287126)"><ellipse id="Oval_189_" cx="1749.1" cy="123.2" class="st40" rx="19.6" ry="19.6" transform="matrix(2.058571e-06 1 -1 2.058571e-06 1872.2581 -1625.8846)"/><ellipse id="Oval_190_" cx="1764" cy="3.5" class="st40" rx="19.6" ry="19.6" transform="matrix(2.058571e-06 1 -1 2.058571e-06 1767.5472 -1760.5127)"/><ellipse id="Oval_191_" cx="1734.1" cy="-131.1" class="st40" rx="19.6" ry="19.6" transform="matrix(2.058571e-06 1 -1 2.058571e-06 1603.0017 -1865.2234)"/><ellipse id="Oval_192_" cx="1666.8" cy="-250.8" class="st40" rx="19.6" ry="19.6" transform="matrix(2.058571e-06 1 -1 2.058571e-06 1416.0182 -1917.5786)"/><ellipse id="Oval_193_" cx="1569.6" cy="-333.1" class="st40" rx="19.6" ry="19.6" transform="matrix(2.058571e-06 1 -1 2.058571e-06 1236.514 -1902.6199)"/><ellipse id="Oval_194_" cx="1457.4" cy="-385.4" class="st40" rx="19.6" ry="19.6" transform="matrix(2.058571e-06 1 -1 2.058571e-06 1071.9686 -1842.785)"/><ellipse id="Oval_195_" cx="1322.8" cy="-407.8" class="st40" rx="19.6" ry="19.6" transform="matrix(2.058572e-06 1 -1 2.058572e-06 914.9026 -1730.595)"/><ellipse id="Oval_196_" cx="1195.6" cy="-385.4" class="st40" rx="19.6" ry="19.6" transform="matrix(2.058571e-06 1 -1 2.058571e-06 810.1919 -1581.0081)"/><ellipse id="Oval_197_" cx="1696.7" cy="250.3" class="st40" rx="19.6" ry="19.6" transform="matrix(2.058571e-06 1 -1 2.058571e-06 1947.0516 -1446.3806)"/><ellipse id="Oval_198_" cx="1621.9" cy="355" class="st40" rx="19.6" ry="19.6" transform="matrix(2.058571e-06 1 -1 2.058571e-06 1976.969 -1266.8765)"/><ellipse id="Oval_199_" cx="1509.7" cy="429.8" class="st40" rx="19.6" ry="19.6" transform="matrix(2.058571e-06 1 -1 2.058571e-06 1939.5724 -1079.8929)"/><ellipse id="Oval_200_" cx="1390.1" cy="467.2" class="st40" rx="19.6" ry="19.6" transform="matrix(2.058571e-06 1 -1 2.058571e-06 1857.2998 -922.8268)"/><ellipse id="Oval_201_" cx="1255.4" cy="459.8" class="st40" rx="19.6" ry="19.6" transform="matrix(2.058571e-06 1 -1 2.058571e-06 1715.1924 -795.678)"/><ellipse id="Oval_202_" cx="1143.2" cy="422.4" class="st40" rx="19.6" ry="19.6" transform="matrix(2.058571e-06 1 -1 2.058571e-06 1565.6057 -720.8845)"/><ellipse id="Oval_203_" cx="1031.1" cy="355" class="st40" rx="19.6" ry="19.6" transform="matrix(2.058571e-06 1 -1 2.058571e-06 1386.1016 -676.0084)"/><ellipse id="Oval_204_" cx="948.8" cy="242.9" class="st40" rx="19.6" ry="19.6" transform="matrix(2.058571e-06 1 -1 2.058571e-06 1191.6387 -705.9256)"/><ellipse id="Oval_205_" cx="896.4" cy="123.2" class="st40" rx="19.6" ry="19.6" transform="matrix(2.058571e-06 1 -1 2.058571e-06 1019.6139 -773.2395)"/><ellipse id="Oval_206_" cx="888.9" cy="-11.4" class="st40" rx="19.6" ry="19.6" transform="matrix(2.058571e-06 1 -1 2.058571e-06 877.5063 -900.3882)"/><ellipse id="Oval_207_" cx="918.9" cy="-138.6" class="st40" rx="19.6" ry="19.6" transform="matrix(2.058571e-06 1 -1 2.058571e-06 780.2748 -1057.4543)"/><ellipse id="Oval_208_" cx="986.2" cy="-250.8" class="st40" rx="19.6" ry="19.6" transform="matrix(2.058571e-06 1 -1 2.058571e-06 735.3987 -1236.9584)"/><ellipse id="Oval_209_" cx="1075.9" cy="-333.1" class="st40" rx="19.6" ry="19.6" transform="matrix(2.058571e-06 1 -1 2.058571e-06 742.878 -1408.9833)"/></g><g id="Group_9_" transform="translate(49.841066, 49.684515) rotate(51.000000) translate(-49.841066, -49.684515) translate(28.773651, 28.617099)"><ellipse id="Oval_210_" cx="1692" cy="-69.5" class="st41" rx="19.6" ry="19.6" transform="matrix(2.844346e-06 1 -1 2.844346e-06 1622.4933 -1761.5513)"/><ellipse id="Oval_211_" cx="1705.5" cy="-177.1" class="st41" rx="19.6" ry="19.6" transform="matrix(2.844345e-06 1 -1 2.844345e-06 1528.3793 -1882.5546)"/><ellipse id="Oval_212_" cx="1678.6" cy="-298.1" class="st41" rx="19.6" ry="19.6" transform="matrix(2.844345e-06 1 -1 2.844345e-06 1380.486 -1976.6681)"/><ellipse id="Oval_213_" cx="1618.1" cy="-405.6" class="st41" rx="19.6" ry="19.6" transform="matrix(2.844345e-06 1 -1 2.844345e-06 1212.4257 -2023.7246)"/><ellipse id="Oval_214_" cx="1530.7" cy="-479.6" class="st41" rx="19.6" ry="19.6" transform="matrix(2.844345e-06 1 -1 2.844345e-06 1051.0878 -2010.2795)"/><ellipse id="Oval_215_" cx="1429.9" cy="-526.7" class="st41" rx="19.6" ry="19.6" transform="matrix(2.844345e-06 1 -1 2.844345e-06 903.1948 -1956.5)"/><ellipse id="Oval_216_" cx="1308.8" cy="-546.8" class="st41" rx="19.6" ry="19.6" transform="matrix(2.844345e-06 1 -1 2.844345e-06 762.0242 -1855.6636)"/><ellipse id="Oval_217_" cx="1194.6" cy="-526.7" class="st41" rx="19.6" ry="19.6" transform="matrix(2.844345e-06 1 -1 2.844345e-06 667.9107 -1721.2151)"/><ellipse id="Oval_218_" cx="1645" cy="44.8" class="st41" rx="19.6" ry="19.6" transform="matrix(2.844345e-06 1 -1 2.844345e-06 1689.7177 -1600.2135)"/><ellipse id="Oval_219_" cx="1577.7" cy="138.9" class="st41" rx="19.6" ry="19.6" transform="matrix(2.844345e-06 1 -1 2.844345e-06 1716.6077 -1438.8756)"/><ellipse id="Oval_220_" cx="1476.9" cy="206.1" class="st41" rx="19.6" ry="19.6" transform="matrix(2.844345e-06 1 -1 2.844345e-06 1682.9958 -1270.8152)"/><ellipse id="Oval_221_" cx="1369.3" cy="239.7" class="st41" rx="19.6" ry="19.6" transform="matrix(2.844346e-06 1 -1 2.844346e-06 1609.0496 -1129.6444)"/><ellipse id="Oval_222_" cx="1248.3" cy="233" class="st41" rx="19.6" ry="19.6" transform="matrix(2.844345e-06 1 -1 2.844345e-06 1481.3239 -1015.3632)"/><ellipse id="Oval_223_" cx="1147.5" cy="199.4" class="st41" rx="19.6" ry="19.6" transform="matrix(2.844345e-06 1 -1 2.844345e-06 1346.8757 -948.1389)"/><ellipse id="Oval_224_" cx="1046.7" cy="138.9" class="st41" rx="19.6" ry="19.6" transform="matrix(2.844345e-06 1 -1 2.844345e-06 1185.538 -907.804)"/><ellipse id="Oval_225_" cx="972.7" cy="38" class="st41" rx="19.6" ry="19.6" transform="matrix(2.844345e-06 1 -1 2.844345e-06 1010.7551 -934.6934)"/><ellipse id="Oval_226_" cx="925.7" cy="-69.5" class="st41" rx="19.6" ry="19.6" transform="matrix(2.844345e-06 1 -1 2.844345e-06 856.1395 -995.1949)"/><ellipse id="Oval_227_" cx="918.9" cy="-190.5" class="st41" rx="19.6" ry="19.6" transform="matrix(2.844345e-06 1 -1 2.844345e-06 728.4135 -1109.4757)"/><ellipse id="Oval_228_" cx="945.8" cy="-304.8" class="st41" rx="19.6" ry="19.6" transform="matrix(2.844345e-06 1 -1 2.844345e-06 641.0219 -1250.6462)"/><ellipse id="Oval_229_" cx="1006.3" cy="-405.6" class="st41" rx="19.6" ry="19.6" transform="matrix(2.844345e-06 1 -1 2.844345e-06 600.6871 -1411.984)"/><ellipse id="Oval_230_" cx="1087" cy="-479.6" class="st41" rx="19.6" ry="19.6" transform="matrix(2.844346e-06 1 -1 2.844346e-06 607.4092 -1566.5995)"/></g><g id="Group_10_" transform="translate(49.810606, 49.974323) rotate(59.000000) translate(-49.810606, -49.974323) translate(30.428584, 30.592300)"><ellipse id="Oval_231_" cx="1619.3" cy="-257.3" class="st42" rx="19.6" ry="19.6" transform="matrix(2.441462e-06 1 -1 2.441462e-06 1362.0372 -1876.5641)"/><ellipse id="Oval_232_" cx="1631.5" cy="-355.2" class="st42" rx="19.6" ry="19.6" transform="matrix(2.441463e-06 1 -1 2.441463e-06 1276.3728 -1986.7036)"/><ellipse id="Oval_233_" cx="1607.1" cy="-465.3" class="st42" rx="19.6" ry="19.6" transform="matrix(2.441463e-06 1 -1 2.441463e-06 1141.7576 -2072.3677)"/><ellipse id="Oval_234_" cx="1552" cy="-563.2" class="st42" rx="19.6" ry="19.6" transform="matrix(2.441463e-06 1 -1 2.441463e-06 988.7858 -2115.1997)"/><ellipse id="Oval_235_" cx="1472.4" cy="-630.5" class="st42" rx="19.6" ry="19.6" transform="matrix(2.441463e-06 1 -1 2.441463e-06 841.9329 -2102.9617)"/><ellipse id="Oval_236_" cx="1380.7" cy="-673.3" class="st42" rx="19.6" ry="19.6" transform="matrix(2.441462e-06 1 -1 2.441462e-06 707.3177 -2054.0107)"/><ellipse id="Oval_237_" cx="1270.5" cy="-691.7" class="st42" rx="19.6" ry="19.6" transform="matrix(2.441463e-06 1 -1 2.441463e-06 578.8215 -1962.2274)"/><ellipse id="Oval_238_" cx="1166.5" cy="-673.3" class="st42" rx="19.6" ry="19.6" transform="matrix(2.441462e-06 1 -1 2.441462e-06 493.1575 -1839.8499)"/><ellipse id="Oval_239_" cx="1576.5" cy="-153.2" class="st42" rx="19.6" ry="19.6" transform="matrix(2.441463e-06 1 -1 2.441463e-06 1423.2261 -1729.7112)"/><ellipse id="Oval_240_" cx="1515.3" cy="-67.6" class="st42" rx="19.6" ry="19.6" transform="matrix(2.441462e-06 1 -1 2.441462e-06 1447.7018 -1582.8583)"/><ellipse id="Oval_241_" cx="1423.5" cy="-6.4" class="st42" rx="19.6" ry="19.6" transform="matrix(2.441463e-06 1 -1 2.441463e-06 1417.1075 -1429.8865)"/><ellipse id="Oval_242_" cx="1325.6" cy="24.2" class="st42" rx="19.6" ry="19.6" transform="matrix(2.441462e-06 1 -1 2.441462e-06 1349.8002 -1301.3901)"/><ellipse id="Oval_243_" cx="1215.5" cy="18.1" class="st42" rx="19.6" ry="19.6" transform="matrix(2.441463e-06 1 -1 2.441463e-06 1233.5416 -1197.3693)"/><ellipse id="Oval_244_" cx="1123.7" cy="-12.5" class="st42" rx="19.6" ry="19.6" transform="matrix(2.441463e-06 1 -1 2.441463e-06 1111.1643 -1136.1803)"/><ellipse id="Oval_245_" cx="1031.9" cy="-67.6" class="st42" rx="19.6" ry="19.6" transform="matrix(2.441462e-06 1 -1 2.441462e-06 964.3115 -1099.4669)"/><ellipse id="Oval_246_" cx="964.6" cy="-159.4" class="st42" rx="19.6" ry="19.6" transform="matrix(2.441463e-06 1 -1 2.441463e-06 805.2207 -1123.9423)"/><ellipse id="Oval_247_" cx="921.8" cy="-257.3" class="st42" rx="19.6" ry="19.6" transform="matrix(2.441463e-06 1 -1 2.441463e-06 664.4866 -1179.012)"/><ellipse id="Oval_248_" cx="915.6" cy="-367.4" class="st42" rx="19.6" ry="19.6" transform="matrix(2.441462e-06 1 -1 2.441462e-06 548.228 -1283.0326)"/><ellipse id="Oval_249_" cx="940.1" cy="-471.4" class="st42" rx="19.6" ry="19.6" transform="matrix(2.441463e-06 1 -1 2.441463e-06 468.6825 -1411.5288)"/><ellipse id="Oval_250_" cx="995.2" cy="-563.2" class="st42" rx="19.6" ry="19.6" transform="matrix(2.441463e-06 1 -1 2.441463e-06 431.9691 -1558.3817)"/><ellipse id="Oval_251_" cx="1068.6" cy="-630.5" class="st42" rx="19.6" ry="19.6" transform="matrix(2.441463e-06 1 -1 2.441463e-06 438.0878 -1699.1157)"/></g><g id="Group_11_" transform="translate(49.856725, 49.789353) rotate(68.000000) translate(-49.856725, -49.789353) translate(33.283691, 33.216319)"><ellipse id="Oval_252_" cx="1498.6" cy="-461.8" class="st42" rx="19.6" ry="19.6" transform="matrix(2.195350e-06 1 -1 2.195350e-06 1036.7635 -1960.3817)"/><ellipse id="Oval_253_" cx="1509.1" cy="-546.2" class="st42" rx="19.6" ry="19.6" transform="matrix(2.195350e-06 1 -1 2.195350e-06 962.9186 -2055.3252)"/><ellipse id="Oval_254_" cx="1488" cy="-641.1" class="st42" rx="19.6" ry="19.6" transform="matrix(2.195350e-06 1 -1 2.195350e-06 846.8766 -2129.1699)"/><ellipse id="Oval_255_" cx="1440.6" cy="-725.5" class="st42" rx="19.6" ry="19.6" transform="matrix(2.195350e-06 1 -1 2.195350e-06 715.0109 -2166.092)"/><ellipse id="Oval_256_" cx="1372" cy="-783.6" class="st42" rx="19.6" ry="19.6" transform="matrix(2.195349e-06 1 -1 2.195349e-06 588.4197 -2155.5427)"/><ellipse id="Oval_257_" cx="1292.9" cy="-820.5" class="st42" rx="19.6" ry="19.6" transform="matrix(2.195350e-06 1 -1 2.195350e-06 472.3778 -2113.3457)"/><ellipse id="Oval_258_" cx="1197.9" cy="-836.3" class="st42" rx="19.6" ry="19.6" transform="matrix(2.195349e-06 1 -1 2.195349e-06 361.6106 -2034.2261)"/><ellipse id="Oval_259_" cx="1108.3" cy="-820.5" class="st42" rx="19.6" ry="19.6" transform="matrix(2.195350e-06 1 -1 2.195350e-06 287.7659 -1928.7334)"/><ellipse id="Oval_260_" cx="1461.7" cy="-372.1" class="st42" rx="19.6" ry="19.6" transform="matrix(2.195350e-06 1 -1 2.195350e-06 1089.51 -1833.7906)"/><ellipse id="Oval_261_" cx="1408.9" cy="-298.3" class="st42" rx="19.6" ry="19.6" transform="matrix(2.195350e-06 1 -1 2.195350e-06 1110.6085 -1707.1995)"/><ellipse id="Oval_262_" cx="1329.8" cy="-245.5" class="st42" rx="19.6" ry="19.6" transform="matrix(2.195350e-06 1 -1 2.195350e-06 1084.2356 -1575.3337)"/><ellipse id="Oval_263_" cx="1245.4" cy="-219.2" class="st42" rx="19.6" ry="19.6" transform="matrix(2.195350e-06 1 -1 2.195350e-06 1026.2146 -1464.5664)"/><ellipse id="Oval_264_" cx="1150.4" cy="-224.4" class="st42" rx="19.6" ry="19.6" transform="matrix(2.195350e-06 1 -1 2.195350e-06 925.9967 -1374.8976)"/><ellipse id="Oval_265_" cx="1071.3" cy="-250.8" class="st42" rx="19.6" ry="19.6" transform="matrix(2.195349e-06 1 -1 2.195349e-06 820.5041 -1322.1511)"/><ellipse id="Oval_266_" cx="992.2" cy="-298.3" class="st42" rx="19.6" ry="19.6" transform="matrix(2.195350e-06 1 -1 2.195350e-06 693.913 -1290.5033)"/><ellipse id="Oval_267_" cx="934.2" cy="-377.4" class="st42" rx="19.6" ry="19.6" transform="matrix(2.195349e-06 1 -1 2.195349e-06 556.7725 -1311.6017)"/><ellipse id="Oval_268_" cx="897.3" cy="-461.8" class="st42" rx="19.6" ry="19.6" transform="matrix(2.195349e-06 1 -1 2.195349e-06 435.456 -1359.0734)"/><ellipse id="Oval_269_" cx="892" cy="-556.8" class="st42" rx="19.6" ry="19.6" transform="matrix(2.195350e-06 1 -1 2.195350e-06 335.2379 -1448.7419)"/><ellipse id="Oval_270_" cx="913.1" cy="-646.4" class="st42" rx="19.6" ry="19.6" transform="matrix(2.195350e-06 1 -1 2.195350e-06 266.6676 -1559.5092)"/><ellipse id="Oval_271_" cx="960.6" cy="-725.5" class="st42" rx="19.6" ry="19.6" transform="matrix(2.195350e-06 1 -1 2.195350e-06 235.0197 -1686.1003)"/><ellipse id="Oval_272_" cx="1023.9" cy="-783.6" class="st42" rx="19.6" ry="19.6" transform="matrix(2.195350e-06 1 -1 2.195350e-06 240.2943 -1807.4169)"/></g></g></g><g><path d="M300.7,2122.7c-0.9-6.8-3-13-6.5-18.4c-5.1-7.4-13-11.1-23.8-11.1c-15.3,0-25.8,8-31.5,24c-3,8.5-4.5,19.7-4.5,33.8 c0,13.4,1.5,24.1,4.5,32.3c5.4,15.2,15.7,22.8,30.7,22.8c10.6,0,18.2-3,22.7-9c4.5-6,7.2-13.8,8.1-23.5h46.4 c-1.1,14.5-6.1,28.3-15,41.2c-14.3,20.9-35.4,31.3-63.3,31.3c-28,0-48.5-8.7-61.7-26.1s-19.8-40-19.8-67.8 c0-31.3,7.3-55.7,21.8-73.1c14.6-17.4,34.7-26.1,60.3-26.1c21.8,0,39.6,5.1,53.5,15.4c13.9,10.3,22.1,28.4,24.6,54.4H300.7z"/><path d="M447.1,2128.8c8.5-1.1,14.5-2.5,18.1-4.2c6.5-2.9,9.8-7.4,9.8-13.6c0-7.5-2.5-12.6-7.5-15.5c-5-2.8-12.4-4.3-22-4.3 c-10.9,0-18.6,2.8-23.1,8.4c-3.2,4.1-5.4,9.7-6.5,16.8H372c1-16,5.2-29.1,12.8-39.4c12.1-16.1,32.8-24.1,62.1-24.1 c19.1,0,36.1,4,50.9,11.9c14.8,7.9,22.2,22.9,22.2,44.9v83.8c0,5.8,0.1,12.8,0.3,21.1c0.3,6.3,1.2,10.5,2.7,12.7 c1.5,2.2,3.7,4.1,6.7,5.5v7h-49.4c-1.4-3.7-2.3-7.1-2.9-10.4c-0.5-3.2-1-6.9-1.3-11.1c-6.3,7.1-13.6,13.2-21.8,18.3 c-9.8,5.9-20.9,8.9-33.3,8.9c-15.8,0-28.9-4.7-39.2-14.2c-10.3-9.4-15.5-22.8-15.5-40.1c0-22.4,8.3-38.7,24.9-48.7 c9.1-5.5,22.5-9.4,40.1-11.7L447.1,2128.8z M474.8,2151c-2.9,1.9-5.8,3.4-8.8,4.6c-3,1.2-7,2.3-12.2,3.3l-10.3,2 c-9.7,1.8-16.6,4-20.9,6.5c-7.2,4.4-10.7,11.1-10.7,20.3c0,8.2,2.2,14,6.6,17.7c4.4,3.6,9.7,5.4,15.9,5.4c9.9,0,19.1-3,27.4-9 c8.4-6,12.7-17,13-33V2151z"/><path d="M541.9,2092.9v-34h24.2V2008h44.9v50.9h28.2v34h-28.2v96.5c0,7.5,0.9,12.1,2.7,14c1.8,1.8,7.3,2.8,16.6,2.8 c1.4,0,2.8,0,4.4-0.1c1.5-0.1,3.1-0.1,4.5-0.3v35.7l-21.5,0.8c-21.5,0.8-36.1-3.1-44-11.7c-5.1-5.5-7.6-13.9-7.6-25.3v-112.4H541.9 z"/><path d="M772.3,2122.7c-0.9-6.8-3-13-6.5-18.4c-5.1-7.4-13-11.1-23.8-11.1c-15.3,0-25.8,8-31.5,24c-3,8.5-4.5,19.7-4.5,33.8 c0,13.4,1.5,24.1,4.5,32.3c5.4,15.2,15.7,22.8,30.7,22.8c10.6,0,18.2-3,22.7-9c4.5-6,7.2-13.8,8.1-23.5h46.4 c-1.1,14.5-6.1,28.3-15,41.2c-14.3,20.9-35.4,31.3-63.3,31.3c-28,0-48.5-8.7-61.7-26.1s-19.8-40-19.8-67.8 c0-31.3,7.3-55.7,21.8-73.1c14.6-17.4,34.7-26.1,60.3-26.1c21.8,0,39.6,5.1,53.5,15.4c13.9,10.3,22.1,28.4,24.6,54.4H772.3z"/><path d="M974.7,2058.2c8.7,3.9,15.9,9.9,21.5,17.9c4.8,6.8,7.7,13.8,8.7,21c1.1,7.2,1.6,19,1.6,35.3v107.3h-46.4v-111.2 c0-9.8-1.6-17.8-4.7-23.8c-4.1-8.5-11.9-12.7-23.4-12.7c-11.9,0-21,4.2-27.1,12.7c-6.2,8.4-9.3,20.5-9.3,36.1v99h-45.4v-246.1h45.4 v87.1c6.6-10.6,14.1-18,22.8-22.2c8.6-4.2,17.7-6.3,27.2-6.3C956.3,2052.4,966,2054.3,974.7,2058.2z"/><path d="M1195.3,2076.8c14.2,15.7,21.2,38.9,21.2,69.4c0,32.2-6.9,56.7-20.8,73.5c-13.8,16.9-31.7,25.3-53.5,25.3 c-13.9,0-25.4-3.6-34.6-10.9c-5-4-9.9-9.9-14.8-17.6v95.2H1048v-254.5h43.5v27c4.9-7.9,10.2-14.2,15.7-18.8 c10.2-8.2,22.2-12.2,36.2-12.2C1163.8,2053.2,1181.1,2061.1,1195.3,2076.8z M1160.4,2111.2c-6.2-10.8-16.2-16.2-30-16.2 c-16.6,0-28.1,8.2-34.3,24.6c-3.2,8.7-4.8,19.8-4.8,33.2c0,21.2,5.4,36.1,16.2,44.7c6.4,5,14.1,7.5,22.9,7.5 c12.8,0,22.5-5.1,29.2-15.4c6.7-10.3,10.1-24,10.1-41C1169.7,2134.5,1166.6,2122,1160.4,2111.2z"/><path d="M1393.4,2217.5c-14.7,19-36.9,28.5-66.8,28.5c-29.9,0-52.1-9.5-66.8-28.5c-14.7-19-22-41.9-22-68.7 c0-26.3,7.3-49.2,22-68.5c14.7-19.3,36.9-29,66.8-29c29.8,0,52.1,9.7,66.8,29c14.7,19.3,22,42.1,22,68.5 C1415.4,2175.6,1408.1,2198.5,1393.4,2217.5z M1357.1,2191.1c7.1-9.9,10.7-24,10.7-42.3c0-18.3-3.6-32.4-10.7-42.2 c-7.1-9.9-17.3-14.8-30.6-14.8c-13.3,0-23.5,4.9-30.7,14.8c-7.2,9.9-10.8,23.9-10.8,42.2c0,18.3,3.6,32.4,10.8,42.3 c7.2,9.9,17.4,14.9,30.7,14.9C1339.8,2206,1350,2201,1357.1,2191.1z"/><path d="M1494.6,2035.5h-46v-44.1h46V2035.5z M1448.5,2057.2h46v182.6h-46V2057.2z"/><path d="M1678.6,2067.7c11.4,9.9,17.1,26.3,17.1,49.2v123h-46.5v-111.1c0-9.6-1.2-17-3.6-22.1c-4.4-9.4-12.9-14.1-25.3-14.1 c-15.3,0-25.8,6.9-31.5,20.6c-3,7.3-4.4,16.5-4.4,27.8v98.8h-45.4v-182.3h44v26.6c5.8-9.4,11.3-16.1,16.5-20.3 c9.3-7.4,21.1-11.1,35.4-11.1C1652.6,2052.9,1667.2,2057.8,1678.6,2067.7z"/><path d="M1720.1,2092.9v-34h24.2V2008h44.9v50.9h28.2v34h-28.2v96.5c0,7.5,0.9,12.1,2.7,14c1.8,1.8,7.3,2.8,16.6,2.8 c1.4,0,2.8,0,4.4-0.1c1.5-0.1,3.1-0.1,4.5-0.3v35.7l-21.5,0.8c-21.5,0.8-36.1-3.1-44-11.7c-5.1-5.5-7.6-13.9-7.6-25.3v-112.4 H1720.1z"/></g></svg>