<svg xmlns="http://www.w3.org/2000/svg" xmlns:xlink="http://www.w3.org/1999/xlink" x="0" y="0" enable-background="new 0 0 216 108" version="1.1" viewBox="0 0 216 108" xml:space="preserve"><style type="text/css">.st0{fill:#346fad}.st1{fill:#233a74}.st2{fill:#0d5296}.st3{fill:#203e79}.st4{fill:#368ab7}.st5{fill:#3399c2}.st6{fill:#1d4481}.st7{fill:#0a5ca2}.st8{fill:#3e7cb1}.st9{fill:#3f96d2}.st10{fill:#e78825}.st11{fill:#cd6628}.st12{fill:#f0c918}.st13{fill:#bf2926}.st14{fill:#f3a620}.st15{fill:#b22f24}.st16{fill:#ca3928}.st17{fill:#d75a28}.st18{fill:#a81e22}.st19{fill:#db5926}.st20{fill:#fff}</style><g id="Layer_1"><g id="Blues"><path d="M95.295,88.195l11.278,5.254l-5.638-8.108L95.295,88.195z M6.048,49.135l27.224,11.443l9.643-56.459 L6.048,49.135z" class="st0"/><polygon points="33.272 60.578 44.863 65.576 69.17 40.374 42.915 4.119" class="st1"/><polygon points="69.17 40.374 78.188 53.017 84.659 29.706 81.284 27.591" class="st2"/><polygon points="44.863 65.576 71.384 77.293 78.188 53.017 69.17 40.374" class="st3"/><path d="M29.752,80.942l34.102,22.939l7.531-26.588L44.863,65.576L29.752,80.942z M81.284,27.591l3.375,2.115 l2.174-8.373L81.284,27.591z" class="st4"/><polygon points="63.854 103.881 95.295 88.195 71.384 77.293" class="st5"/><polygon points="71.384 77.293 95.295 88.195 100.935 85.341 78.188 53.017" class="st6"/><polygon points="78.188 53.017 100.935 85.341 139.467 65.518 84.659 29.706" class="st7"/><polygon points="84.659 29.706 139.467 65.518 86.833 21.333" class="st5"/><polygon points="29.752 80.942 44.863 65.576 33.272 60.578" class="st8"/><polygon points="69.17 40.374 81.284 27.591 42.915 4.119" class="st9"/><polygon points="100.935 85.341 106.573 93.449 139.467 65.518" class="st9"/></g><g id="Yellow_Red"><path d="M163.021,75.8l27.649,19.373L171.729,63.86L163.021,75.8z M108.437,39.461l37.576-17.384L141.1,14.19 L108.437,39.461z" class="st10"/><polygon points="108.437 39.461 160.316 73.934 164.76 52.454 146.013 22.077" class="st11"/><path d="M158.707,81.675l1.609-7.741l-51.879-34.473L158.707,81.675z M150.641,19.9l18.498,11.244l4.525-22.17 L150.641,19.9z" class="st12"/><polygon points="164.76 52.454 171.729 63.86 187.228 42.36 169.139 31.143" class="st13"/><path d="M158.707,81.675l4.314-5.875l-2.705-1.866L158.707,81.675z M169.139,31.143l18.089,11.217l8.478-11.922 L173.664,8.974L169.139,31.143z" class="st14"/><polygon points="146.013 22.077 164.76 52.454 169.139 31.143 150.641 19.9" class="st15"/><path d="M190.67,95.173l19.282-38.409l-15.52-9.875L190.67,95.173z M146.013,22.077l4.628-2.177L141.1,14.19 L146.013,22.077z" class="st16"/><polygon points="187.228 42.36 194.431 46.889 195.706 30.438" class="st17"/><polygon points="171.729 63.86 190.67 95.173 194.431 46.889 187.228 42.36" class="st18"/><polygon points="160.316 73.934 163.021 75.8 171.729 63.86 164.76 52.454" class="st19"/></g></g><g id="Layer_2"><g id="CloudZero_Word"><path d="M27.754,53.957v-0.055c0-5.584,4.27-9.964,10.073-9.964c3.915,0,6.433,1.642,8.13,3.969L41.962,51 c-1.096-1.341-2.354-2.245-4.188-2.245c-2.683,0-4.571,2.3-4.571,5.092v0.055c0,2.875,1.888,5.119,4.571,5.119 c1.998,0,3.175-0.931,4.324-2.327l3.997,2.847c-1.807,2.491-4.243,4.325-8.459,4.325C32.161,63.866,27.754,59.678,27.754,53.957z" class="st20"/><path d="M47.564,44.321h5.311V58.83h9.28v4.654H47.564V44.321z" class="st20"/><path d="M62.549,53.957v-0.055c0-5.502,4.434-9.964,10.348-9.964c5.912,0,10.293,4.407,10.293,9.909v0.055 c0,5.502-4.434,9.964-10.348,9.964C66.929,63.866,62.549,59.459,62.549,53.957z M77.741,53.957v-0.055 c0-2.792-1.97-5.173-4.9-5.173c-2.929,0-4.873,2.354-4.873,5.119v0.055c0,2.765,1.998,5.174,4.928,5.174 C75.798,59.076,77.741,56.721,77.741,53.957z" class="st20"/><path d="M84.973,55.079V44.321h5.366V54.97c0,2.765,1.396,4.079,3.531,4.079c2.163,0,3.559-1.259,3.559-3.942V44.321 h5.365v10.621c0,6.159-3.531,8.896-8.979,8.896C88.395,63.839,84.973,61.074,84.973,55.079z" class="st20"/><path d="M105.522,44.321h7.419c6.816,0,10.785,3.942,10.785,9.472v0.055c0,5.529-4.024,9.636-10.895,9.636h-7.309 V44.321z M110.833,49.002v9.772h2.162c3.203,0,5.311-1.752,5.311-4.845v-0.055c0-3.066-2.108-4.873-5.311-4.873H110.833z" class="st20"/><path d="M124.561,59.623l9.608-10.84h-9.28v-4.462h16.589v3.832l-9.608,10.84h9.608v4.489h-16.917V59.623z" class="st20"/><path d="M143.794,44.321h15.412v4.489H149.05v2.929h9.198v4.188h-9.198v3.038h10.293v4.517h-15.548V44.321z" class="st20"/><path d="M161.762,44.321h9.061c2.93,0,4.955,0.766,6.241,2.053c1.123,1.122,1.697,2.573,1.697,4.462v0.055 c0,2.957-1.56,4.9-3.941,5.913l4.571,6.679h-6.104l-3.86-5.803h-2.354v5.803h-5.311V44.321z M170.604,53.519 c1.78,0,2.847-0.876,2.847-2.272v-0.055c0-1.533-1.123-2.299-2.875-2.299h-3.504v4.626H170.604z" class="st20"/><path d="M179.782,53.957v-0.055c0-5.502,4.434-9.964,10.348-9.964c5.912,0,10.293,4.407,10.293,9.909v0.055 c0,5.502-4.434,9.964-10.348,9.964C184.162,63.866,179.782,59.459,179.782,53.957z M194.974,53.957v-0.055 c0-2.792-1.97-5.173-4.9-5.173c-2.929,0-4.873,2.354-4.873,5.119v0.055c0,2.765,1.998,5.174,4.928,5.174 C193.031,59.076,194.974,56.721,194.974,53.957z" class="st20"/></g></g></svg>