<svg xmlns="http://www.w3.org/2000/svg" xmlns:xlink="http://www.w3.org/1999/xlink" id="Layer_1" x="0" y="0" enable-background="new 0 0 288 288" version="1.1" viewBox="0 0 288 288" xml:space="preserve"><style type="text/css">.st4{fill:#38c4e3}</style><g><path d="M59.8,248.2c-0.4-0.6-0.9-1.2-1.4-1.6s-1.2-0.8-1.9-1.1s-1.5-0.4-2.3-0.4c-1.4,0-2.7,0.3-3.7,0.8 c-1,0.6-1.8,1.3-2.5,2.2c-0.6,0.9-1.1,2-1.4,3.2c-0.3,1.2-0.4,2.4-0.4,3.7c0,1.2,0.1,2.4,0.4,3.6c0.3,1.2,0.7,2.2,1.4,3.1 c0.6,0.9,1.4,1.7,2.5,2.2c1,0.6,2.2,0.8,3.7,0.8c2,0,3.5-0.6,4.6-1.8c1.1-1.2,1.8-2.8,2-4.7H67c-0.2,1.8-0.6,3.5-1.3,4.9 c-0.7,1.5-1.6,2.7-2.7,3.8c-1.1,1-2.4,1.8-3.9,2.4c-1.5,0.5-3.1,0.8-4.9,0.8c-2.2,0-4.2-0.4-6-1.2c-1.8-0.8-3.3-1.8-4.5-3.2 c-1.2-1.4-2.2-3-2.8-4.8c-0.7-1.8-1-3.8-1-5.9c0-2.2,0.3-4.2,1-6.1c0.7-1.9,1.6-3.5,2.8-4.9c1.2-1.4,2.7-2.5,4.5-3.3 c1.8-0.8,3.8-1.2,6-1.2c1.6,0,3.1,0.2,4.6,0.7c1.4,0.5,2.7,1.1,3.8,2s2.1,2,2.8,3.3c0.7,1.3,1.2,2.8,1.4,4.5h-6.2 C60.4,249.4,60.2,248.8,59.8,248.2z" class="st4"/><path d="M70.9,254.4c0.5-1.4,1.3-2.5,2.2-3.5c1-1,2.1-1.7,3.4-2.2s2.8-0.8,4.5-0.8c1.7,0,3.2,0.3,4.5,0.8 c1.3,0.5,2.5,1.3,3.5,2.2c1,1,1.7,2.1,2.2,3.5c0.5,1.4,0.8,2.9,0.8,4.6s-0.3,3.2-0.8,4.6c-0.5,1.4-1.3,2.5-2.2,3.5 c-1,1-2.1,1.7-3.5,2.2c-1.3,0.5-2.9,0.8-4.5,0.8c-1.7,0-3.2-0.3-4.5-0.8c-1.3-0.5-2.5-1.3-3.4-2.2s-1.7-2.1-2.2-3.5 c-0.5-1.4-0.8-2.9-0.8-4.6S70.4,255.8,70.9,254.4z M76.2,261.5c0.2,0.8,0.4,1.5,0.8,2.2c0.4,0.6,0.9,1.2,1.6,1.5 c0.7,0.4,1.5,0.6,2.5,0.6c1,0,1.8-0.2,2.5-0.6c0.7-0.4,1.2-0.9,1.6-1.5c0.4-0.6,0.7-1.4,0.8-2.2c0.2-0.8,0.2-1.6,0.2-2.5 s-0.1-1.7-0.2-2.5c-0.2-0.8-0.4-1.5-0.8-2.2c-0.4-0.6-0.9-1.1-1.6-1.5c-0.7-0.4-1.5-0.6-2.5-0.6c-1,0-1.8,0.2-2.5,0.6 c-0.7,0.4-1.2,0.9-1.6,1.5s-0.7,1.3-0.8,2.2c-0.2,0.8-0.2,1.6-0.2,2.5S76,260.7,76.2,261.5z" class="st4"/><path d="M101.3,248.4v2.9h0.1c0.7-1.2,1.7-2.1,2.9-2.7c1.2-0.6,2.4-0.8,3.6-0.8c1.6,0,2.8,0.2,3.8,0.6 c1,0.4,1.8,1,2.3,1.8c0.6,0.8,1,1.7,1.2,2.7c0.2,1.1,0.3,2.3,0.3,3.6v13h-5.8v-11.9c0-1.7-0.3-3-0.8-3.9c-0.5-0.9-1.5-1.3-2.9-1.3 c-1.6,0-2.7,0.5-3.4,1.4c-0.7,0.9-1.1,2.5-1.1,4.6v11.1h-5.8v-21.1H101.3z" class="st4"/><path d="M130.1,252.2c-0.9,0-1.7,0.2-2.3,0.6c-0.6,0.4-1.1,1-1.5,1.6c-0.4,0.7-0.7,1.4-0.8,2.2 c-0.2,0.8-0.2,1.6-0.2,2.4c0,0.8,0.1,1.5,0.2,2.3c0.2,0.8,0.4,1.5,0.8,2.1c0.4,0.6,0.9,1.2,1.5,1.6c0.6,0.4,1.4,0.6,2.3,0.6 c1.4,0,2.5-0.4,3.2-1.2c0.7-0.8,1.2-1.8,1.4-3.1h5.6c-0.4,2.8-1.5,4.9-3.3,6.4c-1.8,1.5-4.1,2.2-6.9,2.2c-1.6,0-3-0.3-4.4-0.8 c-1.3-0.5-2.4-1.3-3.4-2.2c-0.9-1-1.6-2.1-2.2-3.4c-0.5-1.3-0.8-2.8-0.8-4.4c0-1.6,0.2-3.2,0.7-4.6c0.5-1.4,1.2-2.6,2.1-3.6 c0.9-1,2.1-1.8,3.4-2.4s2.9-0.9,4.6-0.9c1.3,0,2.5,0.2,3.6,0.5c1.2,0.3,2.2,0.8,3.1,1.5c0.9,0.7,1.7,1.5,2.2,2.5 c0.6,1,0.9,2.2,1,3.5h-5.7C134,253.4,132.5,252.2,130.1,252.2z" class="st4"/><path d="M143.6,254.4c0.5-1.4,1.3-2.5,2.2-3.5c1-1,2.1-1.7,3.4-2.2c1.3-0.5,2.8-0.8,4.5-0.8s3.2,0.3,4.5,0.8 s2.5,1.3,3.5,2.2c1,1,1.7,2.1,2.2,3.5c0.5,1.4,0.8,2.9,0.8,4.6s-0.3,3.2-0.8,4.6c-0.5,1.4-1.3,2.5-2.2,3.5c-1,1-2.1,1.7-3.5,2.2 c-1.3,0.5-2.9,0.8-4.5,0.8s-3.2-0.3-4.5-0.8c-1.3-0.5-2.5-1.3-3.4-2.2c-1-1-1.7-2.1-2.2-3.5c-0.5-1.4-0.8-2.9-0.8-4.6 S143,255.8,143.6,254.4z M148.8,261.5c0.2,0.8,0.4,1.5,0.8,2.2c0.4,0.6,0.9,1.2,1.6,1.5c0.7,0.4,1.5,0.6,2.5,0.6 c1,0,1.8-0.2,2.5-0.6s1.2-0.9,1.6-1.5c0.4-0.6,0.7-1.4,0.8-2.2c0.2-0.8,0.2-1.6,0.2-2.5s-0.1-1.7-0.2-2.5c-0.2-0.8-0.4-1.5-0.8-2.2 c-0.4-0.6-0.9-1.1-1.6-1.5c-0.7-0.4-1.5-0.6-2.5-0.6c-1,0-1.8,0.2-2.5,0.6c-0.7,0.4-1.2,0.9-1.6,1.5c-0.4,0.6-0.7,1.3-0.8,2.2 c-0.2,0.8-0.2,1.6-0.2,2.5S148.7,260.7,148.8,261.5z" class="st4"/><path d="M182.7,269.6v-2.9h-0.1c-0.7,1.2-1.7,2.1-2.9,2.7c-1.2,0.5-2.4,0.8-3.6,0.8c-1.6,0-2.8-0.2-3.8-0.6 c-1-0.4-1.8-1-2.3-1.7c-0.6-0.7-1-1.7-1.2-2.7c-0.2-1.1-0.3-2.3-0.3-3.6v-13h5.8v11.9c0,1.7,0.3,3,0.8,3.9s1.5,1.3,2.9,1.3 c1.6,0,2.7-0.5,3.4-1.4c0.7-0.9,1.1-2.5,1.1-4.6v-11.1h5.8v21.1H182.7z" class="st4"/><path d="M198.2,248.4v3.9h0.1c0.3-0.7,0.6-1.3,1.1-1.8c0.5-0.6,1-1,1.6-1.4c0.6-0.4,1.2-0.7,1.9-0.9 c0.7-0.2,1.4-0.3,2.1-0.3c0.4,0,0.8,0.1,1.3,0.2v5.4c-0.3-0.1-0.6-0.1-1-0.1c-0.4,0-0.8-0.1-1.1-0.1c-1.1,0-2,0.2-2.7,0.5 c-0.7,0.4-1.3,0.8-1.8,1.5c-0.4,0.6-0.8,1.3-1,2.1s-0.3,1.7-0.3,2.7v9.5h-5.8v-21.1H198.2z" class="st4"/><path d="M213.4,264.3c0.3,0.4,0.6,0.8,1,1.1c0.4,0.3,0.9,0.5,1.4,0.6c0.5,0.1,1.1,0.2,1.7,0.2c0.4,0,0.8,0,1.3-0.1 c0.4-0.1,0.9-0.2,1.2-0.4c0.4-0.2,0.7-0.5,0.9-0.8s0.4-0.8,0.4-1.3c0-0.9-0.6-1.5-1.7-2c-1.2-0.4-2.8-0.9-4.8-1.3 c-0.8-0.2-1.7-0.4-2.5-0.7s-1.5-0.6-2.1-1c-0.6-0.4-1.1-1-1.5-1.6c-0.4-0.6-0.6-1.4-0.6-2.4c0-1.4,0.3-2.5,0.8-3.4s1.2-1.6,2.1-2.1 c0.9-0.5,1.9-0.9,2.9-1.1c1.1-0.2,2.2-0.3,3.4-0.3c1.1,0,2.3,0.1,3.3,0.3c1.1,0.2,2,0.6,2.9,1.1s1.5,1.2,2.1,2.1 c0.6,0.9,0.9,1.9,1,3.2H221c-0.1-1.1-0.5-1.9-1.3-2.3c-0.8-0.4-1.7-0.6-2.7-0.6c-0.3,0-0.7,0-1.1,0.1c-0.4,0-0.7,0.1-1,0.3 c-0.3,0.1-0.6,0.3-0.8,0.6c-0.2,0.3-0.3,0.6-0.3,1c0,0.5,0.2,0.9,0.6,1.3c0.4,0.3,0.9,0.6,1.5,0.8c0.6,0.2,1.3,0.4,2.1,0.6 c0.8,0.2,1.6,0.3,2.4,0.5c0.8,0.2,1.7,0.4,2.5,0.7s1.5,0.6,2.1,1.1c0.6,0.5,1.1,1,1.5,1.7c0.4,0.7,0.6,1.5,0.6,2.5 c0,1.4-0.3,2.6-0.8,3.5c-0.6,0.9-1.3,1.7-2.2,2.3s-1.9,1-3.1,1.2s-2.3,0.3-3.5,0.3c-1.2,0-2.4-0.1-3.6-0.4 c-1.2-0.2-2.2-0.7-3.1-1.2c-0.9-0.6-1.7-1.3-2.2-2.3c-0.6-0.9-0.9-2.1-1-3.5h5.5C213,263.3,213.2,263.9,213.4,264.3z" class="st4"/><path d="M236.7,264.5c0.9,0.8,2.1,1.3,3.8,1.3c1.2,0,2.2-0.3,3-0.9s1.4-1.2,1.6-1.9h5.1c-0.8,2.5-2.1,4.3-3.8,5.4 s-3.7,1.6-6.1,1.6c-1.7,0-3.2-0.3-4.5-0.8s-2.5-1.3-3.4-2.3c-0.9-1-1.6-2.2-2.1-3.5s-0.8-2.9-0.8-4.5c0-1.6,0.3-3.1,0.8-4.4 s1.3-2.5,2.2-3.5c1-1,2.1-1.8,3.4-2.3c1.3-0.6,2.8-0.9,4.4-0.9c1.8,0,3.4,0.3,4.7,1c1.3,0.7,2.4,1.6,3.3,2.8c0.9,1.2,1.5,2.5,1.9,4 c0.4,1.5,0.5,3.1,0.4,4.7h-15.2C235.4,262.3,235.8,263.6,236.7,264.5z M243.3,253.4c-0.7-0.8-1.8-1.1-3.2-1.1 c-0.9,0-1.7,0.2-2.3,0.5c-0.6,0.3-1.1,0.7-1.5,1.2c-0.4,0.5-0.6,1-0.8,1.5c-0.2,0.5-0.2,1-0.3,1.4h9.4 C244.4,255.2,244,254.1,243.3,253.4z" class="st4"/></g><g id="TygbNJ.tif"><g><g><path d="M56.4,194.8c0-50.9,0-101.7,0-152.6c2.5-8.1,8.6-12.5,18.3-12.5c47.6,0.2,95.1,0.1,142.7,0.1 c9.8,0,16.2,6.4,16.2,16.1c0,48.3,0,96.6,0,144.9c0,1.2,0,2.5-0.2,3.7c-1.3,6.8-5.8,10.6-12.1,12.5c-50.9,0-101.7,0-152.6,0 C62.3,205.3,58.3,201.2,56.4,194.8z M134.4,76c-6,0.9-11.3,3.3-16.2,6.7c-9.8,6.8-15.8,16.2-18.6,27.8c-0.6,2.4-2.9,3.7-5.7,3.1 c-2.4-0.5-1.3-2.6-1.6-4.1c0-0.3,0-0.7,0.1-1c2.4-20,12.6-34.6,30.4-44c5.7-3,11.9-4.8,18.3-5.7c-0.8-0.2-1.7-0.2-2.5-0.2 c-14.5,1.2-27,6.7-37.3,16.9c-10.5,10.3-16.4,23-17.8,37.7c-0.2,1.9-0.9,3-2.8,3.5c-2.4,0.6-4.7,1.4-7.1,2.2 c-2.3,0.8-4.6,1.8-6.2,3.8c-1.9,2.4-1.6,4.8,0.9,6.6c2,1.5,4.4,2.2,6.8,2.6c9.5,1.6,19.1,3,28.9,2c9.4-0.9,18.4-2.9,27.2-6.3 c2.2-0.9,3.1-2.1,2.6-4.5c-0.3-1.3-0.3-2.8-0.2-4.2c0.1-1.9-0.8-2.8-2.6-3.2c-6.6-1.6-13.3-2.7-20.2-3c-3.8-0.1-4.3-0.6-3.6-4.4 c2.2-11.6,8.2-20.7,18.1-27.3C128.3,79.1,131.4,77.7,134.4,76z M194.9,129.7c0.4-1.6,0.9-3.1,1.3-4.7c0.2-0.7,0.4-1.4,0.5-2.2 c2.1-15.8-2.4-29.3-13.8-40.5c-3.2-3.1-3.2-3.4-1.2-7.3c0.6-1.2,1.3-1.6,2.5-0.9c0.7,0.4,1.4,0.8,2.1,1.2 c18.3,12.9,25.8,30.7,23.9,52.7c-0.3,3.9-1.7,7.6-2.3,11.5c0.6-0.9,1.1-1.9,1.5-2.8c9.4-24.9,2.1-52.3-19-68.5 c-4.7-3.6-5.4-6.8-3.7-11.7c1-2.9,1.3-5.9,0.6-9c-0.8-3.4-3.3-4.7-6.5-3.3c-1.8,0.8-3.4,2.1-4.6,3.6 c-6.4,7.7-12.4,15.7-16.5,24.9c-4,9.1-6.7,18.5-7.9,28.3c-0.2,1.8,0.3,2.7,2.1,3.2c1.6,0.5,3.1,1.1,4.4,2.1 c1.7,1.2,2.7,0.8,4-0.6c4.8-5.2,9.2-10.7,12.7-16.9c1-1.8,1.9-2.1,3.6-0.8c8.4,6,13.4,14.2,15.7,24.2 C195.5,118.1,195.6,123.9,194.9,129.7z M103.1,162.3c0.1,0.2,0.2,0.4,0.4,0.6c16.6,22.8,48,29.9,73,18.2c2.5-1.2,4.2-1.2,6.3,0.9 c2.7,2.6,5.4,5.3,8.9,6.9c4.3,1.9,7,0.2,7-4.4c0-1.6,0-3.1-0.5-4.6c-6.5-19.5-17.4-35.9-34-48.2c-1.2-0.9-2.2-1.1-3.5,0 c-1.2,1.1-2.6,2.1-4,2.8c-2.1,1-2.2,2.4-1.6,4.4c2.1,6.7,4.8,13.1,8.2,19.2c1.6,3,1.6,3.3-1.6,4.6c-12.6,5-24.7,3.8-36.4-2.7 c-2.3-1.3-4.3-2.8-6.5-4.3c1.6,2,3.3,3.8,5.3,5.4c12.5,9.4,26.3,12.2,41.3,7.7c3.3-1,4.9-0.2,6.8,2.3c1.3,1.7,1,2.4-0.7,3.3 c-18.5,9.4-36.7,8.8-54.7-1.4C111.6,170,107.4,166.1,103.1,162.3z M159.4,120.1c0.1-5.7-4.4-10.3-10-10.3 c-5.5-0.1-10.3,4.6-10.3,10.1c0,5.7,4.4,10.2,10.1,10.3C154.8,130.3,159.4,125.8,159.4,120.1z" class="st4"/></g></g></g></svg>