<svg xmlns="http://www.w3.org/2000/svg" xmlns:xlink="http://www.w3.org/1999/xlink" id="Layer_1" x="0" y="0" enable-background="new 0 0 337.5 508.5" version="1.1" viewBox="0 0 337.5 508.5" xml:space="preserve"><style type="text/css">.st1{fill:#fefefe}.st46{fill:#fcfcfc}.st195{fill:#fcfcfd}.st196{fill:#fdfdfd}.st349{fill:#080809}.st350{fill:#048dc9}.st351{fill:#7496a2}.st352{fill:#9daac1}.st353{fill:#868689}.st354{fill:#052c50}.st355{fill:#101214}.st356{fill:#191c1e}.st357{fill:#242c35}.st358{fill:#343c42}.st359{fill:#343b44}.st360{fill:#3d4a5b}.st361{fill:#73aafe}.st362{fill:#4ccafe}.st363{fill:#cfe1fd}.st364{fill:#87dcfe}.st365{fill:#0090cc}.st366{fill:#008fcc}.st368{fill:#407dcc}.st369{fill:#15191e}.st370{fill:#10191f}.st371{fill:#12161b}.st372{fill:#0e181e}.st373{fill:#121d24}.st374{fill:#3f7bc7}.st375{fill:#222932}.st376{fill:#22404e}.st377{fill:#202831}.st378{fill:#010101}.st379{fill:#161a1f}.st380{fill:#323c47}.st381{fill:#303b48}.st382{fill:#14181b}.st383{fill:#353f4a}.st384{fill:#194691}.st385{fill:#164c96}.st386{fill:#184893}.st387{fill:#174a94}.st388{fill:#184792}.st389{fill:#184892}.st390{fill:#0090cd}.st391{fill:#018cca}</style><g><path d="M280.5,274.1c-0.1,0-0.1,0-0.2,0c-0.1,0-0.1,0-0.2,0c0.1,0.2,0.1,0.5,0.2,0.7 C280.4,274.6,280.4,274.3,280.5,274.1z" class="st1"/><path d="M190.1,211.6C190.1,211.6,190.1,211.6,190.1,211.6c0-0.1-0.1,0-0.1,0C190.1,211.6,190.1,211.6,190.1,211.6z" class="st1"/><path d="M67,50.4c2.3,9.5,4.3,19.1,6.5,28.6c0,0,0,0,0,0c0.8,4.1,1.6,8.1,2.4,12.2c1.2,6.4,1.2,6.4,7,3.8 c35.3-15.9,72.3-21.2,110.8-18.1c24.9,2,49.1,7.5,72.8,15.4c2,0.7,2.5,0.2,2.7-1.6c0.7-4.5,1.9-8.9,2-13.4 c2.6-13,5.3-26.1,7.9-39.1c-9.9-4.4-20.4-7-30.8-10c-0.7-0.2-1.4-0.5-2.1-0.8c-14.3-3-28.6-6.1-43.2-7.5 c-26.7-2.5-53.1-1.5-79.2,4.9c-9.1,2.2-17.8,5.5-26.8,8.1h0c-9.8,4.5-19.7,8.6-29,14.2C67.1,48,66.6,48.7,67,50.4z M236.8,57.9 c1.7-6.4,8.2-11.1,14.6-10.6c1.9,0.2,4.8-0.1,4.6,3c-0.2,2.8-2.6,2.2-4.6,2.1c-5-0.1-8.7,2.7-9.9,7.6c-0.9,3.7-1.6,7.4-2.4,11 c-0.4,1.8-1,3.3-3.3,2.7c-2-0.5-2-2-1.6-3.7C235.1,66,235.8,61.9,236.8,57.9z M216.3,40.8c7.4-1.6,14.9,2.4,17.3,9.2 c1.1,3,0.5,4.8-2.7,6c-5.3,2-10.5,4.3-15.8,6.5c-0.2,0.1-0.4,0.3-1,0.6c2.2,1.8,4.7,2,7.2,1.8c1.5-0.1,3,0.1,3.2,2 c0.3,2-1,2.6-2.8,3c-7.2,1.6-14.9-3.8-16.6-11.7C203.4,50.3,208.4,42.5,216.3,40.8z M187.5,30.4c0.2-1.7,1-2.7,2.7-2.6 c1.7,0.1,2.4,1.3,2.2,3c-0.5,4.7-0.9,9.5-1.5,14.8c2.8-2.2,5.2-4.1,7.7-6.1c1.4-1.1,3-2,4.5-0.4c1.5,1.7,0.2,3.1-1.1,4.3 c-2.8,2.3-5.5,4.8-8.4,6.9c-1.9,1.4-1.7,2.3-0.3,3.9c2.4,2.7,4.6,5.6,6.9,8.5c1.1,1.3,1.7,2.9,0.3,4.2c-1.7,1.5-3.1,0.4-4.3-1 c-2-2.3-3.9-4.7-6.4-7.7c-0.2,2.5-0.3,4.1-0.6,5.7c-0.3,1.6-1.2,2.6-3,2.3c-1.6-0.3-2.2-1.3-2-2.8 C185.2,52.3,186.4,41.4,187.5,30.4z M177,37.7c1.9,0.7,3.9,1.7,2.9,4.2c-0.9,2.1-2.7,1.3-4.4,0.8c-5.1-1.6-8.7-0.5-11.4,3.2 c-2.6,3.7-2.7,8.2-0.1,11.6c2.7,3.6,7.2,4.9,11.8,3.2c1.8-0.6,3.7-1.6,4.6,0.8c0.9,2.4-1,3.5-2.9,4.2c-10.4,3.9-20.4-3.1-20.4-14.2 C157.2,41.2,167.5,34,177,37.7z M138.7,40.8c8.5,0,14.8,6.4,14.8,15.2c0,8.4-6.3,14.5-14.9,14.5c-8.3,0-14.6-6.4-14.7-14.9 C123.8,47.3,130.3,40.9,138.7,40.8z M103.1,48.5c2.9-0.5,5.6,0,8.9,1c-0.9-3.5-1.7-6.3-2.4-9.2c-0.4-1.5-0.4-3,1.5-3.5 c1.9-0.5,2.8,0.4,3.3,2.3c1.9,7.4,4.2,14.7,5.8,22.2c1.7,7.8-4.3,15.1-13.2,16.6c-7.3,1.3-14.8-4.5-16.1-12.5 C89.5,57.2,94.9,49.8,103.1,48.5z"/><path d="M196.6,259.7c0.1-0.7,0.2-1.3,0.4-2C196.6,258.3,196.6,259,196.6,259.7z" class="st349"/><path d="M305.8,392.2c-8.5-3.1-16.8-4.1-25.4,0.7c0.5-3.5,1.5-6.7,0.8-10c-0.5-2.4,0.1-4.1,1.5-6.1 c6-8.2,9.7-17.3,11.2-27.4c1.7-11.6,0.3-23.1-1.1-34.5v0c-1.1,1.2-0.3,2.7-0.8,4c0.2,10,0.8,20-1.1,29.9 c-3.2,17.1-12.5,30.5-25.8,41.3c-5.5,4.5-11.4,8.5-17.9,11.5c0,0,0,0,0,0c-18,9.8-37.2,13-57.4,10.3c-15.7-2-29.8-7.5-40.8-19.5 c-6.8-7.5-11-16.4-14.6-26.2c2.1,0.9,3.8,1.6,5.4,2.3c0-0.4,0-0.9,0-1.3c-5.8-1.2-7-5.6-7.8-10.5c-1.4-7.8-0.5-15.2,3.4-22.2 c0.7-1.2,1.3-2.9,3.1-2.2c8.6,3.3,16.6,0,24.7-1.9c26.9-6.4,54-11.7,80.9-17.7c1.5-0.3,3-0.4,3.6-2.3c0.5-1.5,2.4-1.3,3.7-1.7 c7.5-2.2,14.8-4.8,19.6-11.7c-0.3-0.3-0.5-0.5-0.8-0.8c-4.4,4.9-10,7.5-16.2,9.4c-6.4,1.9-6.4,2-6.7-4.5c-0.1-1-0.1-2.1-0.1-3.1 c0.1-30,0.1-60,0.3-90c0-3.2-0.9-4.4-4-4.7c-19.9-1.7-39.9-3.4-59.8-4.1c-1.5,0.8-3.4-0.4-4.8,0.8c19.5,1.4,39,2.8,58.5,4.2 c0,0.4,0.1,0.7,0.1,1.1c-14.6,1-28.7,5.9-43.5,5.7c0,0,0,0,0,0c0,0,0,0,0,0c-1.3,0.5-2.8-0.3-4,0.7c0,0,0,0.1,0,0.1 c7.7,0.6,7.7,0.6,7.6,8.4c-0.3,11.3-0.6,22.5-0.9,33.8c0,1.3,0.1,2.6,0.2,3.9c0.1,3.6,1.4,7.7-4.1,8.6c-12.5,1.9-24.8,4.9-37.1,7.5 c-2.5,0.5-5,1.4-7.6,1c0,0,0,0,0,0c0,0,0,0,0,0c-0.3,0.3-0.7,0.6-1,0.9c1.7,3.9,0.3,7.9,0.4,11.8c0.2,13.6,0.2,27.2,0.4,40.8 c0,2.5-0.5,3.1-3,2.5c-27-6.2-54.1-12.4-81.1-18.4c-2.2-0.5-1.9-1.7-1.9-3.1c0-14.3,0-28.6,0-42.9c0-1.2,0.1-2.4,0-3.5 c-0.4-2.5,0.7-3.3,3-2.9h0c0.6-0.2,1.1-0.5,1.7-0.7c-0.1-0.1-0.3-0.1-0.3-0.2c-0.1-0.1-0.1-0.3-0.2-0.5c3.9-0.7,7.9-1.6,11.8-2.2 c9.1-1.5,18.2-2.9,27.3-4.2c1.6-0.2,3.4,0,5,0.1c0.3-0.2,0.5-0.5,0.8-0.7c-2.8-0.5-2.2-2.8-2.2-4.6c0-14.1,0-28.2,0-42.3 c-1.1-1,3.4-0.3,0.5-1.8c-2.4-0.4-2,1.3-2.1,2.7c-0.2,13.4-0.6,26.8-0.6,40.2c0,3.6-1.2,4.5-4.5,4.9c-12.8,1.5-25.4,4.1-38,6.5 c-4.5,0.9-5.2,2.8-5.1,6.7c0.4,10,0.3,20,0.7,30c0.1,2.5-0.5,3.4-3.2,3.9c-12.9,2.3-25.7,5.4-37.8,10.5c-5.7,2.4-10.2,6-12.4,12.1 c-1.8,5-2.7,10.1-2,15.3c2.2,17.9,8.7,33.9,21.9,46.6c1.2,1.2,2,1.9,0,3.1c-4.1,2.4-5.9,6.5-7.2,10.7c-3.2,10.2-1.1,20.1,2.1,29.8 c5.5,16.7,14.7,30.7,30.8,39c15,7.7,31.1,9.6,47.6,8.1c2.6-0.2,4,0.5,5.5,2.5c7.7,10.5,18.2,17.2,30.6,20.8 c27.7,8,53.9,3.8,78.5-10.5c18.9-11,32.7-27.5,45.2-45c4.9-6.8,9.4-14,14-21.1c2.5-3.8,5.4-5.8,10.3-6.1c11-0.7,19.7-5.7,24.6-16.3 C309.6,394.4,308.7,393.2,305.8,392.2z M198.5,239.2c0.3,0,0.6,0,0.9,0c0-7.7,0.1-15.3,0-23c0-2.5,0.9-3.3,3.3-3.6 c12.9-1.6,25.7-3.5,38.4-6.1c3.4-0.7,4.2,0.2,4.2,3.5c-0.2,14.4-0.1,28.9,0,43.3c0,2.8-0.8,3.8-3.5,4.2c-13.6,2.2-27.1,4.6-40.7,7 c-2.6,0.5-2.7-0.8-2.7-2.7C198.5,254.3,198.5,246.8,198.5,239.2z M201.5,266.6c13.6-2.3,27.1-4.6,40.7-7c2.6-0.5,3,0.5,3,2.9 c0,12.1,0.2,24.2,0.3,36.3c0,0.5,0,1,0.1,1.6c0.4,9,0.4,9-8.7,11c-11.7,2.5-23.4,5-35,7.8c-3.4,0.8-3.7-0.2-3.6-3 c0.1-7.7,0-15.3,0-23c0,0,0,0,0,0c0-7.5,0.1-15.1-0.1-22.6C198.3,267.8,199.3,267,201.5,266.6z M149.3,304.5c0.1,0,0.2,0,0.4,0 c0-8.2,0.1-16.4,0-24.6c0-2.6,1-3.7,3.5-4.2c13.4-2.5,26.8-5,40.1-7.7c4.6-0.9,3.4,2.4,3.5,4.4c0.3,12.9,0.4,25.8,0.5,38.6 c0.1,8.8,0.1,8.8-8.5,11c-12.1,3-24.2,5.8-36.3,8.9c-2.8,0.7-3.2-0.1-3.1-2.7C149.4,320.4,149.3,312.5,149.3,304.5z M157.1,404.1 c-23.9,4.9-46.1,3.9-66.6-9c-12.8-8.1-19.8-20.5-24.8-35c22.5,10.6,43.4,4.1,64.4-4.5C133.5,374.6,141,391.3,157.1,404.1z M83,319.3c9.1,2.5,18.4,4.2,27.3,7.2c0,0,0,0,0,0h0c6.7,0.4,13.1,3,19.7,4c1.5,0.2,3,0.6,5.1,1.1c-2.9,4.2-4.1,8.9-5.3,13.7 c0.2,9,0.2,9.1-8.3,12.2c-13.3,4.9-26.9,7.9-41.1,5.9c-0.6-0.1-1.3-0.2-1.9-0.3c-13.2-2.6-16.4-6.4-15.7-20 c0.7-12.7,4.8-20,16.5-23.5C80.5,319.2,81.6,319,83,319.3z M9.9,351.4c-0.3-0.7-1-1.8,0.5-2.2c0-0.3,0-0.5,0-0.8 c-0.8-0.6-1.8-1-2.1-2.2c-2.8-9.3-3.5-18.5,1.1-27.6c2-4,5-6.8,9.2-8.5c12.6-5.1,25.6-8.3,38.9-10.8c2.1-0.4,2.5,0.5,2.5,2.2 c0.1,2.9,0.1,5.7,0.3,8.6c0.1,1.4-0.4,2.9,0.9,4c5.4,1.2,10.7,2.4,16.9,3.8c-3.2,1.8-5.8,3.2-8.3,4.5c-6.9,5.6-8.8,13.2-8.6,21.5 c0.1,2.8-0.7,4-3.5,4.8c-9.5,2.8-19.2,4.3-29.1,4.1c0,0,0,0,0,0c0,0,0,0,0,0c-1.5,0.6-3.4-0.5-4.8,0.8c12,2.3,23.5,0,34.9-3.5 c1.5-0.5,2.9-1.2,3.3,1.4c2.7,16.9,9.9,31.5,22.8,43.7c-6.1,0.9-11.7,0.6-17.3,0c-13.6-1.5-26.4-5.3-37.3-13.9 C20.1,373.5,14.1,363,9.9,351.4z M74.6,468.5c-14.6-2.7-27.9-8-38-19.4c-6.3-7.1-10.3-15.5-13.8-24.2c-1.3-1-0.5-2,0-3 c-4.1-7.3-4.4-15-2.7-22.9c1-4.7,3.1-8.8,6.6-12.1c1.5-1.5,2.9-1.5,4.7-0.2c15.8,11.2,33.7,14.1,52.5,12.8c3.6-0.2,6.8-0.2,10,2 c4,2.7,8.7,4,13.4,5.8c-3.8,2-7.4,3.9-11,5.8c0,0,0,0.1,0,0.1c0,0-0.1,0-0.1,0.1c-8.5,11.4-7.5,23.8-4,36.5 c1.8,6.6,4.6,12.8,8.1,19.3C91.5,470,83,470,74.6,468.5z M305.9,397.9c-5.9,9-14.9,12.8-25.1,13.5c-4.1,0.3-6.5,2-8.6,4.9 c-6.7,9.3-13.1,18.7-19.9,28c-11.9,16.2-25.6,30.4-43.5,40.1c-2,1.1-4.2,1.9-6.3,2.9c0,0,0,0,0,0c0,0,0,0,0,0 c-7,3.9-14.6,6-22.4,7.4c-17.8,3.2-35.3,2.2-52.2-5.1c-17.6-7.6-27.4-21.7-33.5-40c8.5,4.1,16.8,6,25.6,5.6 c16.5-0.8,31.8-5.8,46-14.1c0.4-0.3,0.9-0.4,1.4-0.7c-0.2-0.4,1.7-1.5-0.2-1.3c-1.5,0.2-2.8,1.4-4.1,2.1 c-16.1,8.3-32.9,13.4-51.2,12.1c-5.5-0.4-10.7-2-15.7-4.1c-1.2-0.5-2.2-1.2-2.6-2.6c-2.8-9.7-3.4-19.1,1.8-28.3 c3.6-6.4,12.6-10.7,19.8-9.2c14.8,3.1,29.4,2.2,43.9-1.4c1.6-0.4,2.9-0.6,4.4,0.2c16.2,8.5,33.4,10.4,51.3,8.3 c8.8-1,17.3-3.3,25.5-6.6c1.9-0.8,3.7-1.2,5.7-0.7c3.2,0.8,6.4,0.5,9.6-0.4c-0.8-0.2-1.7-0.5-2.5-0.7c-1.9-0.3-3.9,0.2-6-1 c3.4-2,6.7-3.9,9.9-5.9c1.1-0.6,1.8-0.5,2.5,0.6c0.7,1.2,1.7,2.2,2.6,3.4c0.3,0.2,0.6,0.6,0.9,0.6c0.7,0,1-0.5,0.5-1 c-5-5.5-0.3-7.8,3.4-10.6c4.4-3.2,7.8-7.5,12-11.6c1.5,5.2,0.3,9.6-1.6,14.8c8.7-6.7,17.6-6.6,27-3.9 C307.7,394,307.5,395.5,305.9,397.9z" class="st349"/><path d="M132.6,97.4c-3.7,0.7-4.1,2.3-4.3,5.3c-0.5,14.8-1.2,29.6-1.9,45.4c-3.6-8-6.8-15.1-10-22.2 c-3.5-7.7-3.5-7.7-11.6-5.7c-1,0.3-2,0.7-3,0.7c-2,0.1-2.4,1.2-2.6,3c-1.1,8.9-2.3,17.9-3.4,26.8c-1.2-0.4-1.2-1.5-1.5-2.3 c-4.8-11.6-9.8-23.2-14.3-34.9c-1.1-2.9-2.4-3.3-5-2.2c-2.8,1.1-5.6,2-8.5,2.8c-2.1,0.6-2.8,1.3-2,3.7 c6.8,22.5,15.2,44.4,24.8,65.9c1,2.3,2,3.1,4.5,2.2c3-1.2,6.1-2.2,9.3-2.8c2.7-0.5,3.5-1.7,3.6-4.4c0.7-11.9,1.6-23.7,2.5-36.3 c0.7,1.1,1.1,1.6,1.3,2.2c3.6,8.8,7.3,17.5,10.8,26.3c2.8,7,2.6,7.1,9.9,5.9c2-0.3,4.1-0.8,6.2-0.8c2.3-0.1,2.7-1.1,2.7-3.1 c0.5-22.7,1.1-45.5,1.6-68.2C141.8,95.5,141.7,95.8,132.6,97.4z" class="st350"/><path d="M318.8,127c-4.8,4.1-9.2,8.4-13.4,13.1c-5,5.5-10.1,11.1-15.4,16.9c-2-12.7-4.1-25-4.8-37.5 c-0.2-3.8-1-6.6-5.6-6.5c-1.7,0-3.4-0.4-5-0.9c-2.7-0.7-4.2-0.1-5.1,2.9c-3.2,10.4-6.2,20.9-8.8,31.5c-3.6,14.5-7.1,29-10.7,43.5 c-0.6,2.5-0.8,4,2.6,4.2c3.1,0.2,6.1,1.1,9.1,1.9c2.4,0.6,3.4,0.1,3.8-2.5c0.9-5.9,2.1-11.7,3.2-17.6c1.8-10.3,4.3-20.5,7.2-30.6 c2.2,10.1,4.1,20.1,6.9,30c1.2,4.2,1.2,4.2,4.4,1.1c8.2-7.9,16.5-15.8,25.5-24.5c-0.8,2.6-1.2,4.1-1.7,5.5 c-5.5,14.7-11,29.4-16.7,44.1c-1,2.5-0.6,3.4,1.9,3.9c3.2,0.7,6.5,1.3,9.4,2.7c3.7,1.8,4.5,0.1,5.5-2.9c8.4-24.7,13.8-50.3,21-75.4 c0.2-0.7,0.7-1.4,0.1-2.2C330.5,125.7,320.9,125.2,318.8,127z" class="st351"/><path d="M233.6,148.2c5.5-0.8,10.9-2.2,15.9-4.9c12.6-6.6,15.5-17.6,7.2-28.2c-13.4-17.2-30.9-19.7-50.4-14.7 c-1.4,0.4-2.1,1-2.3,2.6c-0.7,8.4-1.5,16.8-2.3,25.1c-0.9,9-1.9,18-2.9,27c-0.8,7.5-1.7,14.9-2.6,22.4c-0.2,1.3-0.7,2.6,1.5,2.7 c3.9,0.2,7.8,0.5,11.6,0.9c2.2,0.2,2.5-0.8,2.7-2.7c0.7-8.9,1.5-17.8,2.2-26.7c0.1-0.9-0.4-2.3,1.1-2.5c1.6-0.2,1.8,1.1,2,2.3 c1.8,8.4,3.6,16.7,5.5,25.1c1.9,8.2,0.5,6.5,9.2,6.9c0.1,0,1,0,1.9,0c4.8,0.1,4.9,0.1,3.8-4.5c-2.1-8.9-4.2-17.9-6.5-26.8 C230.5,149.8,230.4,148.7,233.6,148.2z M222.2,137.7c-6.9,0.1-7,0.1-6.5-6.7c0.4-5.9,1.1-11.9,1.5-17.8c0.1-2.2,0.9-3,3.1-2.8 c7.6,0.7,14.5,3,19.8,8.7c4.8,5.2,3.9,10.9-2.1,14.7C233.7,136.4,228.8,137.6,222.2,137.7z" class="st352"/><path d="M18.9,166.4c5.6,1.4,11.2,1.5,17,1.1c5.9-0.4,12-1.3,17.6,1.6c4.6,2.3,5.5,7.2,2,11 c-3.3,3.6-7.6,5.4-12.4,5.9c-6.2,0.6-12.2-0.1-18-2.5c-1-0.4-2.3-1.7-2.9,0.7c-2.2,9.2,0.9,14.6,10,17.3c0.9,0.3,1.8,0.4,2.6,0.6 c15.3,4,32.6-2.7,39.7-15.3c4.6-8.2,3.5-17-3.2-23.5c-4.4-4.3-9.8-6.6-15.8-7.8c-7.8-1.5-15.9-0.1-23.7-1.4c-3.6-0.6-7.6-0.9-9-4.9 c-1.5-4.1,1.2-7.2,3.7-10c0.4-0.5,1-0.9,1.5-1.3c7.3-5.7,14.8-5.5,22.8-0.1c1.5-3.4,0.8-6.8,1.7-9.9c0.8-2.9-0.6-4.4-3.1-5.7 c-17.5-8.9-38.1,4.8-43.5,18.7C1.5,152.1,7.2,163.4,18.9,166.4z" class="st353"/><path d="M180.9,104.8c-0.3-2.3-1.2-3.1-3.5-3c-4,0.1-8.1,0.1-12.1-0.1c-2.3-0.1-3.1,0.6-3.6,2.8 c-1.8,7.9-3.8,15.6-5.7,23.5c-4,17.2-8,34.3-12,51.5c4.4,0,9.4,1.4,12.5-0.4c2.8-1.6,2.5-7,3.3-10.7c0.1-0.6,0.4-1.3,0.5-1.9 c0.3-3.9,2.2-5.6,6.2-5.3c2.9,0.2,6.9-1.4,8.6,0c2,1.6,1.3,5.8,1.6,8.8c1.1,12,1.1,11.9,13.2,12.4c2.2,0.1,2.2-0.4,2-2.3 c-1.5-9.8-2.8-19.5-4.2-29.3C185.4,135.3,183,120.1,180.9,104.8z M171.6,149.3c-7.2,0.1-7.3,0.2-5.8-6.6c1.8-8.4,3.7-16.9,5.6-25.3 c0.9,9.7,1.8,19.2,3,28.7C174.6,148.4,174.1,149.2,171.6,149.3z" class="st354"/><path d="M276.8,33.5c1,1.2,2.7,2.2,2.4,4.1c0,0.2-0.1,0.4-0.1,0.6c-2.6,13-5.3,26.1-7.9,39.1c1.5-1.4,2.7,0,3.9,0.4 c9.2,3.3,18.3,6.6,27.4,9.9c0.9,0.3,2.1,1.3,2.9,0.4c0.9-1-0.1-2.1-0.5-3.1c-4.2-9.8-9-19.2-14.9-28.4c13.2-2.6,26.3-4.2,39.8-8.4 c-12.2-8.7-24.3-15.4-37-21c-13.5-6-27.3-11.3-41.8-14.4C260.3,18.7,269.6,24.8,276.8,33.5z" class="st354"/><path d="M28.8,45.6c7.6,3.9,15.5,7.2,23.7,9.8c3.9,1.2,3.4,2.4,1.4,5c-5.6,7.3-10.4,15.2-14.9,23.3 c-0.6,1.1-2.3,2.4-1.1,3.7c0.9,1,2.5,0.2,3.7-0.2c8.9-2.7,17.8-5.5,26.8-8.1c1.6-0.5,3.3-1.9,5.1-0.2c0,0,0,0,0,0 c-2.1-9.6-4.2-19.1-6.5-28.6c-0.4-1.6,0.1-2.4,1.1-3.2c-0.2-0.2-0.3-0.5-0.4-0.7c-0.7-1.5,0.9-2.6,1.5-3.7 c5.1-9.1,12.1-16.4,20.7-22.3c0.4-0.2,3.5-0.9,0.1-1.6c-23,4.2-44.7,12-64.7,24.4C26.4,44.6,27.6,45,28.8,45.6z" class="st354"/><path d="M279.1,38.2c0.1-0.2,0.1-0.4,0.1-0.6c0.3-1.9-1.4-2.9-2.4-4.1c-7.2-8.7-16.5-14.8-25.9-20.8 c-2-1.3-2.9-0.2-3.1,1.6c-0.6,4.4-1.1,8.7-1.6,13.1c0.7,0.3,1.4,0.6,2.1,0.8C258.7,31.3,269.2,33.9,279.1,38.2z" class="st352"/><path d="M89.8,20.4c-8.6,5.9-15.6,13.3-20.7,22.3c-0.6,1.1-2.1,2.2-1.5,3.7c0.1,0.2,0.2,0.4,0.4,0.7 c9.2-5.6,19.2-9.7,29-14.2c-0.5-3.7-1-7.3-1.4-11c-0.6-4.8-0.8-4.9-5.7-3.2C93.3,19.5,90.2,20.2,89.8,20.4z" class="st352"/><path d="M256.9,256.2c0.3-1-0.2-2.3,1.9-2c8.4,1.1,18.8,10.5,21.3,19.9c0.1,0,0.1,0,0.2,0c0.1,0,0.1,0,0.2,0 c1.9-6.9,5-12.2,10.5-15.8c2.5-1.7,5.2-2.9,7.8-4.3c3.2-1.7,4-0.1,4.3,2.7c0.8,8-1.3,15.2-6.3,21.4c-2.2,2.7-4.6,5.2-6.9,7.8v0 c0.1,0.7,0.3,1.4,1,1.7c1-0.6,2-1.2,2.9-1.9c9.9-7.7,14.2-20.8,10.6-31.5c-0.8-2.3-1.6-3.1-4.2-2.2c-9.1,3-16.4,7.8-20,17.2 c-4.2-9-11.2-14-20.4-16.4c-2.5-0.7-3.8-0.3-3.5,2.6C256.5,255.7,256.7,255.9,256.9,256.2L256.9,256.2z" class="st355"/><path d="M108.8,204.8c0.6-0.2,1.2-0.2,1.9-0.1c2.3,0.3,4.5,1.7,6.7,0c0,0,0,0,0,0c-0.9-0.2-1.7-0.4-2.6-0.6 c18.7-2.4,37.3-5.4,56.2-4.7c0,0,0,0,0,0c1.3-0.5,2.9,0.3,4-0.8c-12.9-1.5-25.7-0.6-38.5,0.8c-9.1,1-18.3,1.6-27.3,3.7 C112.2,204.5,107.7,203.8,108.8,204.8z" class="st356"/><path d="M273.8,288.4c-11.3-3.8-14.8-13.1-16.6-23.6c-0.1-0.5-0.1-1-0.2-1.5v0c-0.4-0.3-0.9-0.5-1.3-0.8 c-0.6,5.7,0.8,11.1,3.1,16.1c3,6.5,7.7,11,15.4,11.2c0.3,0,0.5-0.1,0.8-0.1C274.9,289,274.4,288.6,273.8,288.4z" class="st355"/><path d="M289.9,285.9c-0.1,0.4-0.2,0.8-0.3,1.2c-1.1,4.4-0.5,8.9,0.1,13.3c0.7,5.1,1.4,10.1,2,15.2 c0.1,1.1,0.3,2.2,0.4,3.3c0.5-1.3-0.4-2.8,0.8-4v0c-0.9-6.8-1.8-13.5-2.6-20.3c-0.3-2.3-1.3-4.8,0.7-7 C290.2,287.3,290,286.6,289.9,285.9z" class="st357"/><path d="M171.1,199.4c1,0.3,2,0.5,3.1,0.6c1.6,0.1,3.2,0.1,4.9,0c0,0,0.1,0,0.1,0c1.5-1.2,3.3,0,4.8-0.8 c-2.9-0.8-5.9-0.7-8.8-0.5C173.9,199.7,172.4,198.9,171.1,199.4z" class="st358"/><path d="M257,262.7c0-2.1,0-4.2-0.1-6.3c0-0.1,0-0.1,0-0.2c-0.2-0.3-0.4-0.5-0.6-0.8c-1.1,2.3-0.9,4.7-0.6,7.1 c0.4,0.3,0.9,0.5,1.3,0.8C257,263.1,257,262.9,257,262.7z" class="st359"/><path d="M271.4,296.7c1.9-1.8,3.6-3.8,3.5-6.7c0-0.1,0-0.1,0-0.2c-0.3,0-0.5,0.1-0.8,0.1c-0.2,2.7-2.7,4-3.8,6.2l0,0 c0.3,0.3,0.5,0.5,0.8,0.8C271.3,296.8,271.4,296.7,271.4,296.7z" class="st360"/><path d="M107,77.9c8.9-1.5,14.9-8.8,13.2-16.6c-1.6-7.5-3.9-14.8-5.8-22.2c-0.5-1.8-1.4-2.8-3.3-2.3 c-1.9,0.5-1.8,2-1.5,3.5c0.7,2.9,1.5,5.8,2.4,9.2c-3.3-1-6-1.5-8.9-1c-8.3,1.3-13.7,8.7-12.3,16.9C92.2,73.4,99.6,79.2,107,77.9z M105.4,53.3c5.4,0,9.7,4.2,9.8,9.5c0.1,5.7-4.2,10-9.7,10c-5.6,0-10-4.5-9.9-9.9C95.8,57.6,100.1,53.3,105.4,53.3z" class="st196"/><path d="M221.8,69.9c1.7-0.4,3-1,2.8-3c-0.2-1.9-1.7-2.1-3.2-2c-2.5,0.1-4.9,0-7.2-1.8c0.5-0.3,0.7-0.5,1-0.6 c5.3-2.2,10.5-4.5,15.8-6.5c3.2-1.2,3.8-3,2.7-6c-2.4-6.8-9.9-10.8-17.3-9.2c-7.9,1.7-12.9,9.5-11.2,17.3 C206.9,66.1,214.6,71.5,221.8,69.9z M209.9,54.7c0.2-4.1,2.8-7.4,6.6-8.7c4.1-1.3,8.1-0.1,10.8,3.1c1.5,1.7,1,2.5-0.9,3.2 c-4.2,1.6-8.4,3.4-12.6,5.1C210.3,58.9,209.7,58.5,209.9,54.7z" class="st196"/><path d="M138.5,70.5c8.7,0,14.9-6.1,14.9-14.5c0-8.7-6.3-15.2-14.8-15.2c-8.4,0-14.9,6.5-14.8,14.8 C123.8,64,130.2,70.5,138.5,70.5z M138.9,46c5.3,0.1,9.7,4.6,9.6,9.7c-0.1,5.4-4.8,10-10,9.8c-5.2-0.2-9.6-4.6-9.5-9.9 C129,50,133.2,45.9,138.9,46z" class="st196"/><path d="M186,66.1c1.7,0.3,2.7-0.6,3-2.3c0.2-1.6,0.3-3.2,0.6-5.7c2.5,3,4.5,5.4,6.4,7.7c1.2,1.4,2.6,2.5,4.3,1 c1.4-1.3,0.8-2.8-0.3-4.2c-2.3-2.8-4.5-5.7-6.9-8.5c-1.4-1.6-1.6-2.5,0.3-3.9c2.9-2.1,5.7-4.6,8.4-6.9c1.4-1.1,2.6-2.5,1.1-4.3 c-1.4-1.7-3-0.7-4.5,0.4c-2.4,1.9-4.8,3.8-7.7,6.1c0.5-5.3,1-10.1,1.5-14.8c0.2-1.7-0.5-2.9-2.2-3c-1.7-0.1-2.5,0.9-2.7,2.6 c-1.1,11-2.3,21.9-3.4,32.9C183.9,64.8,184.5,65.8,186,66.1z" class="st196"/><path d="M177.5,65.6c1.9-0.7,3.8-1.8,2.9-4.2c-0.9-2.4-2.8-1.4-4.6-0.8c-4.6,1.7-9.1,0.4-11.8-3.2 c-2.6-3.4-2.6-7.9,0.1-11.6c2.7-3.7,6.2-4.8,11.4-3.2c1.6,0.5,3.5,1.3,4.4-0.8c1-2.5-1-3.4-2.9-4.2c-9.4-3.7-19.8,3.5-19.8,13.7 C157.1,62.6,167.1,69.6,177.5,65.6z" class="st195"/><path d="M235.8,73.8c2.3,0.6,2.9-0.9,3.3-2.7c0.8-3.7,1.5-7.4,2.4-11c1.2-4.9,4.9-7.7,9.9-7.6 c1.9,0.1,4.4,0.7,4.6-2.1c0.2-3-2.6-2.8-4.6-3c-6.4-0.6-12.9,4.2-14.6,10.6c-1,4-1.7,8.1-2.7,12.2 C233.8,71.8,233.8,73.2,235.8,73.8z" class="st46"/><path d="M289.7,300.4c-0.6-4.5-1.2-8.9-0.1-13.3c0.1-0.4,0.2-0.8,0.3-1.2v0c2.3-2.6,4.8-5.1,6.9-7.8 c4.9-6.3,7.1-13.4,6.3-21.4c-0.3-2.8-1.1-4.4-4.3-2.7c-2.6,1.4-5.3,2.7-7.8,4.3c-5.5,3.6-8.6,8.9-10.5,15.8 c-0.1,0.2-0.1,0.5-0.2,0.7c0-0.2-0.1-0.5-0.2-0.7c-2.5-9.4-12.9-18.8-21.3-19.9c-2.1-0.3-1.6,1-1.9,2v0c0,0.1,0,0.1,0,0.2 c0,2.1,0,4.2,0.1,6.3c0,0.2,0,0.4,0,0.6v0c0.1,0.5,0.1,1,0.2,1.5c1.8,10.5,5.3,19.8,16.6,23.6c0.6,0.2,1.1,0.6,1.2,1.3 c0,0.1,0,0.1,0,0.2c0.1,2.9-1.6,4.9-3.5,6.7c-0.1,0.1-0.1,0.1-0.2,0.2c-4.8,6.9-12.1,9.5-19.6,11.7c-1.3,0.4-3.1,0.2-3.7,1.7 c-0.7,1.9-2.1,2-3.6,2.3c-27,6-54.1,11.3-80.9,17.7c-8.1,1.9-16.1,5.3-24.7,1.9c-1.8-0.7-2.4,1-3.1,2.2c-3.9,7-4.8,14.4-3.4,22.2 c0.9,4.9,2.1,9.4,7.8,10.5c0.1,0,0.3,0.1,0.4,0.1c21.4,6,41.2,0.6,60.5-8.6c1.3-0.6,2.6-1.2,3.8-1.9c0,0,0,0,0,0 c1.2-0.7,2.3-1.7,3.5-2c1.7-0.4,0.4,0.8,0.4,1.3c0,0,0,0,0,0c-1,8.5-0.9,16.9,1.2,25.3c3.4,13.3,11.9,18.3,25.4,19.9 c3.3,0.4,6.6,0.2,9.9,0.1c0.7,0,1.4,0,2.1,0c0,0,0,0,0,0c6.5-3,12.4-7,17.9-11.5c13.3-10.8,22.5-24.1,25.8-41.3 c1.9-9.9,1.3-19.9,1.1-29.9c-0.1-1.1-0.3-2.2-0.4-3.3C291,310.5,290.4,305.5,289.7,300.4z M243.3,355.6c-4.1,7.8-14.1,11.4-22,7.9 c-6.6-2.9-9.1-9.1-6.6-16c2.1-5.6,5.7-9.7,11.9-10.7c4.6-1.9,10.5-0.5,14.1,3.5C244.8,344.7,245.7,350.4,243.3,355.6z" class="st361"/><path d="M304.3,393.1c-9.4-2.6-18.3-2.8-27,3.9c1.9-5.1,3.1-9.6,1.6-14.8c-4.2,4.1-7.6,8.4-12,11.6 c-3.7,2.7-8.4,5.1-3.4,10.6c0.5,0.5,0.2,1-0.5,1c-0.3,0-0.6-0.4-0.9-0.6c-0.3,0.4-0.6,0.8-0.9,1.2c0,0,0,0,0,0 c-1.2,2.6-3.8,1.7-5.8,2.4c-3.2,0.9-6.4,1.2-9.6,0.4c-2-0.5-3.8-0.1-5.7,0.7c-8.2,3.4-16.7,5.6-25.5,6.6 c-17.9,2.1-35.1,0.2-51.3-8.3c-1.5-0.8-2.8-0.6-4.4-0.2c-14.5,3.7-29.2,4.5-43.9,1.4c-7.2-1.5-16.2,2.7-19.8,9.2 c-5.2,9.2-4.6,18.6-1.8,28.3c0.4,1.4,1.4,2.1,2.6,2.6c5,2.2,10.2,3.7,15.7,4.1c18.3,1.4,35.1-3.8,51.2-12.1 c1.4-0.7,2.7-1.9,4.1-2.1c2-0.3,0,0.8,0.2,1.3c1,1.9-0.2,3.7-0.4,5.5c-0.9,11.7-0.4,23.2,8.7,32.1c6.1,5.9,14.2,7.6,22.3,8.6 c1.5,0.2,3.1-0.4,4.5,0.6c0,0,0,0,0,0c2.1-1,4.3-1.8,6.3-2.9c17.9-9.7,31.6-23.9,43.5-40.1c6.8-9.2,13.2-18.7,19.9-28 c2.1-2.9,4.5-4.7,8.6-4.9c10.2-0.6,19.2-4.4,25.1-13.5C307.5,395.5,307.7,394,304.3,393.1z M197.1,445.6c-5.9,3.5-12,4-18.1,0.4 c-5.3-3.1-6.9-8.9-4.6-14.9c2-5.7,5.7-9.4,11.6-10.9c7.8-2.7,15.2,1.5,17.9,10.1C205.2,437.1,202.8,442.2,197.1,445.6z" class="st361"/><path d="M84.8,263.7c-6.1-1.2-12.3-2.2-18.5-3.3c-0.5-0.1-0.9-0.2-1.4-0.2c0,0,0,0,0,0h0c-2.3-0.4-3.4,0.4-3,2.9 c0.2,1.1,0,2.3,0,3.5c0,14.3,0,28.6,0,42.9c0,1.3-0.3,2.6,1.9,3.1c27.1,6,54.1,12.2,81.1,18.4c2.5,0.6,3,0,3-2.5 c-0.2-13.6-0.2-27.2-0.4-40.8c-0.1-3.9,1.3-8-0.4-11.8c-0.1,0-0.2,0-0.4-0.1C126,271.7,105.4,267.7,84.8,263.7z" class="st362"/><path d="M121.7,206.1c-0.9-0.1-1.9,0-1.9-1.3c-0.7,0-1.3,0-2-0.1c-0.1,0-0.2,0-0.3,0c-2.2,1.6-4.5,0.2-6.7,0 c-0.6-0.1-1.3-0.1-1.9,0.1c0,14.1-0.1,28.2,0,42.3c0,1.8-0.6,4.1,2.2,4.6c0.1,0,0.2,0,0.3,0c5.5,0.7,11.1,1.3,16.5,2.8 c15.4,2.2,30.8,4.4,46.2,6.7c5.9,0.9,11.8,1.6,17.7,2.6c1.5,0.2,2.5,0.4,3.2,0.4c1.5,0,1.6-1,1.7-4.2c0-0.1,0-0.2,0-0.3 c0-0.7,0-1.3,0.4-2c-0.1-1.3-0.2-2.6-0.2-3.9c0.3-11.3,0.7-22.5,0.9-33.8c0.2-7.8,0.1-7.8-7.6-8.4c0,0-0.1,0-0.1,0 C167.2,209.9,144.4,208.7,121.7,206.1z" class="st362"/><path d="M235.3,401.4c-13.5-1.6-22-6.7-25.4-19.9c-2.2-8.4-2.2-16.8-1.2-25.3c-0.2,0.1-0.4,0.2-0.7,0.3 c-0.8,0.4-1.6,0.8-2.4,1.2c-20.5,11.3-41.8,18.2-65.3,10.8c-0.1,0-0.2,0-0.3-0.1c-1.7-0.7-3.3-1.4-5.4-2.3 c3.6,9.8,7.8,18.7,14.6,26.2c11,12,25.1,17.5,40.8,19.5c20.2,2.6,39.4-0.6,57.4-10.3c-0.7,0-1.4,0-2.1,0 C241.9,401.6,238.6,401.8,235.3,401.4z" class="st363"/><path d="M198,486.6c-8.2-1-16.3-2.7-22.3-8.6c-9.1-8.9-9.6-20.4-8.7-32.1c0.1-1.8,1.4-3.6,0.4-5.5 c-0.5,0.2-1,0.4-1.4,0.7c-14.2,8.4-29.4,13.3-46,14.1c-8.8,0.4-17.1-1.4-25.6-5.6c6.1,18.3,16,32.4,33.5,40 c16.8,7.3,34.3,8.3,52.2,5.1c7.8-1.4,15.4-3.5,22.4-7.4c0,0,0,0,0,0C201.1,486.3,199.5,486.8,198,486.6z" class="st363"/><path d="M65.8,360.1c5,14.5,11.9,26.9,24.8,35c20.5,12.9,42.7,13.8,66.6,9c-16.1-12.8-23.6-29.5-27-48.4 C109.2,364.3,88.3,370.7,65.8,360.1z" class="st363"/><path d="M28.5,353c9.9,0.2,19.6-1.2,29.1-4.1c2.8-0.8,3.5-2,3.5-4.8c-0.2-8.3,1.7-16,8.6-21.5 c-1.3-4.4-5.8-5.5-8.6-8.3c0,0,0,0,0,0c-1.3-1.1-0.8-2.6-0.9-4c-0.1-2.9-0.2-5.7-0.3-8.6c0-1.7-0.4-2.6-2.5-2.2 c-13.3,2.4-26.4,5.7-38.9,10.8c-4.2,1.7-7.1,4.4-9.2,8.5c-4.6,9.1-3.9,18.3-1.1,27.6c0.3,1.1,1.3,1.6,2.1,2.2 C16.2,350.8,22.3,352.1,28.5,353C28.5,353,28.5,353,28.5,353z" class="st361"/><path d="M96.2,413.3c-9,5.2-18.5,9.5-28.6,12.2c-14.5,3.8-28.9,5.1-43-1.6c-1.2-0.6-1.7-0.6-1.8,0.5 c0,0.2,0,0.4,0,0.6c3.5,8.7,7.5,17.1,13.8,24.2c10.2,11.4,23.5,16.7,38,19.4c8.3,1.5,16.8,1.5,25.6,0.6c-3.4-6.4-6.2-12.7-8.1-19.3 C88.7,437.1,87.7,424.7,96.2,413.3z" class="st363"/><path d="M62.7,343.1c-0.7,13.6,2.5,17.3,15.7,20c0.6,0.1,1.3,0.2,1.9,0.3c14.3,2,27.8-1,41.1-5.9 c8.5-3.1,8.5-3.2,8.3-12.2c-5.3-7.5-12.1-13.4-19.5-18.7h0c0,0,0,0,0,0c-8.9-3.1-18.2-4.7-27.3-7.2c-1.4-0.4-2.5-0.1-3.7,0.3 C67.5,323.1,63.4,330.3,62.7,343.1z" class="st361"/><path d="M70,422.9c8.5-2.5,16.6-6,24.3-10.3c0.4-0.2,2.2-2.2,2,0.6c3.6-1.9,7.2-3.8,11-5.8 c-4.7-1.8-9.4-3.1-13.4-5.8c-3.1-2.1-6.3-2.2-10-2c-18.8,1.3-36.7-1.6-52.5-12.8c-1.9-1.3-3.2-1.3-4.7,0.2 c-3.5,3.3-5.5,7.5-6.6,12.1c-1.8,7.9-1.4,15.6,2.7,22.9C38.4,428.9,54.2,427.5,70,422.9z" class="st361"/><path d="M67.3,395.3c5.6,0.6,11.2,0.9,17.3,0c-13-12.2-20.1-26.8-22.8-43.7c-0.4-2.5-1.7-1.8-3.3-1.4 c-11.4,3.5-22.9,5.8-34.9,3.5c-4.8-0.4-9.3-1.8-13.3-4.5c-1.5,0.4-0.8,1.4-0.5,2.2c4.2,11.6,10.2,22.1,20.1,30 C40.9,390,53.7,393.8,67.3,395.3z" class="st363"/><path d="M185.2,264.3c-19.8-2.8-39.5-5.4-59.2-9c-5.1-0.7-10.2-1.4-15.2-2.7c-0.2-0.1-0.4-0.1-0.6-0.1c0,0,0,0,0,0 s0,0,0,0c-1.7,0-3.4-0.3-5-0.1c-9.1,1.3-18.2,2.7-27.3,4.2c-4,0.6-7.9,1.5-11.8,2.2c0.1,0.2,0.1,0.4,0.2,0.5 c0.1,0.1,0.2,0.1,0.3,0.2c0.4,0,0.8,0.1,1.2,0.2c24,3,47.6,8.5,71.2,13.3c2.8,0.6,5.5,1.2,8.3,1.8c0.3,0.1,0.5,0.1,0.8,0.2 c0,0,0,0,0,0c2.6,0.4,5.1-0.5,7.6-1c12.4-2.6,24.6-5.7,37.1-7.5c-0.4-0.4-0.8-0.7-1.3-0.9C189.6,264.3,187.3,264.6,185.2,264.3z" class="st364"/><path d="M152.3,331c12.1-3.1,24.2-5.9,36.3-8.9c8.6-2.1,8.6-2.2,8.5-11c-0.1-12.9-0.2-25.8-0.5-38.6 c0-2,1.1-5.3-3.5-4.4c-13.4,2.7-26.7,5.2-40.1,7.7c-2.5,0.5-3.5,1.6-3.5,4.2c0.1,8.2,0,16.4,0,24.6c-0.1,0-0.2,0-0.4,0 c0,7.9,0.1,15.9-0.1,23.8C149.1,330.9,149.5,331.7,152.3,331z M184.5,296.9C184.5,296.9,184.5,296.9,184.5,296.9 c0-6.9,0-13.8,0-20.7c0-1.3,0-2.5,1.8-2.9c2.1-0.6,4.3-0.8,6.4-0.7c0.2,0,0.4,1.4,0.4,2.2c0,13.5,0,27,0,40.6 c0,2.2-5.7,5.6-7.9,4.6c-1.3-0.6-0.7-1.8-0.7-2.8C184.5,310.4,184.5,303.6,184.5,296.9z M173.6,278.2c0-2.5,3-4.2,6.8-3.9 c2.9,0.2,1.6,2.5,1.7,3.9c0.1,6.5,0.1,13,0.1,19.5c0,6.6,0,13.2,0,19.9c0,2.6-5.6,6-7.9,4.8c-0.9-0.4-0.7-1.3-0.7-2 C173.6,306.3,173.6,292.3,173.6,278.2z M163.4,301.5C163.4,301.5,163.4,301.5,163.4,301.5c0-6.9,0-13.8,0-20.6c0-3.1,2-4.4,6.3-4.3 c3.5,0,2.2,2.6,2.3,4.2c0.1,12.8,0.1,25.7,0.1,38.5c0,3.5-4.3,6.7-7.6,5.5c-1.6-0.5-1-2-1-3C163.4,315,163.4,308.3,163.4,301.5z M153.2,282.3c0.3-4,3.6-3,5.8-3.3c2.8-0.5,2.1,2,2.1,3.5c0.1,6.6,0,13.2,0,19.8c0,6.9,0,13.7,0,20.6c0,2.5-5.7,5.5-7.8,4.2 c-1-0.6-0.8-1.6-0.8-2.4C152.8,310.6,152,296.4,153.2,282.3z" class="st365"/><path d="M198.5,293C198.5,293,198.5,293,198.5,293c0,7.7,0.1,15.3-0.1,23c-0.1,2.8,0.3,3.8,3.6,3 c11.6-2.8,23.3-5.3,35-7.8c9.1-2,9.1-1.9,8.7-11c0-0.5,0-1-0.1-1.6c-0.1-12.1-0.3-24.2-0.3-36.3c0-2.3-0.4-3.3-3-2.9 c-13.6,2.4-27.1,4.7-40.7,7c-2.2,0.4-3.2,1.2-3.1,3.7C198.6,277.9,198.5,285.4,198.5,293z M233,303.2c0.1-11.9-0.2-23.9,0.5-35.8 c0.3-5,4-3.4,6.1-3.8c3-0.6,1.9,2.4,1.9,3.8c0.1,6.2,0.1,12.5,0.1,18.7c0,0,0,0,0,0c0,6.5-0.2,13,0.1,19.5c0.1,2.3-0.6,2.8-2.7,3 C232.9,309.3,232.9,309.4,233,303.2z M222.7,269.2c0-4.6,4-3.5,6.3-4c2.5-0.5,2,2.5,2,3.7c-0.7,12.5-0.1,25-0.3,37.4 c-0.1,3.1-4.7,6.3-7.6,5.2c-1.3-0.5-1.1-1.6-1.1-2.6c0-4.8,0-9.6,0-16C221.5,286,222.8,277.6,222.7,269.2z M214.4,268 c5.7-1.6,6.1-1.4,6.1,4.6c0,5.9,0,11.7,0,17.6c0,0,0,0,0,0c0,6.5,0,13,0,19.5c0,1.1,0.3,2.5-1.3,2.8c-2.3,0.4-4.5,1.3-6.8,1 c-0.2,0-0.4-1.4-0.4-2.2c0-12.7,0-25.5,0.2-38.2C212,271.3,211.5,268.8,214.4,268z M201.7,313.1c0-13.4,0-26.7,0.1-40.1 c0-2.4,3.5-4.5,7-4.1c2.5,0.3,1.4,2.4,1.4,3.7c0.1,6.4,0.1,12.7,0.1,19.1c0,0,0,0,0,0c0,6.5,0,13,0,19.5c0,2.7-5.3,5.6-7.7,4.3 C201.5,314.9,201.7,314,201.7,313.1z" class="st365"/><path d="M201.1,264.6c13.5-2.4,27.1-4.8,40.7-7c2.7-0.4,3.6-1.5,3.5-4.2c-0.2-14.4-0.2-28.9,0-43.3 c0-3.4-0.8-4.2-4.2-3.5c-12.7,2.6-25.6,4.5-38.4,6.1c-2.4,0.3-3.4,1.1-3.3,3.6c0.1,7.7,0,15.3,0,23c-0.3,0-0.6,0-0.9,0 c0,7.5,0,15.1,0,22.6C198.5,263.8,198.5,265.1,201.1,264.6z M233,248.6c0.2-11.8,0.5-23.6,0.7-35.4c0.1-4.7,3.7-3.3,6.2-3.8 c3.1-0.6,2.4,1.9,2.4,3.6c0.1,2.7,0,5.5,0,8.2c-0.2,10.4-1.2,20.7-0.6,31.1c0.1,1.9-0.6,2.2-2.1,2.4 C233,255.5,232.9,255.5,233,248.6z M222,253.6c0.2-12.9,0.5-25.7,0.8-38.6c0.1-2.9,2.6-4.3,7-3.9c2.6,0.2,1.5,2.4,1.5,3.7 c0.1,5.3,0.1,10.7,0.1,16c-0.3,7.5,0.1,15-0.6,22.5c-0.5,4.9-4.3,2.7-6.5,3.5C221.7,257.8,222,255.2,222,253.6z M212.6,217 c0-3.4,1.7-4.4,6.6-4.1c2.7,0.1,2,2.4,1.9,3.8c-0.8,12.8-0.6,25.6-0.7,38.5c0,4.7-4.2,2.7-6.5,3.3c-2.7,0.8-2-1.9-2.1-3.4 c-0.1-4,0-8,0-13.9C211.2,234.3,212.7,225.7,212.6,217z M201.8,220.4c0-4,3.8-6.9,7.5-6c1.7,0.4,1,1.9,1,2.9c0.1,6.5,0,13,0,19.5 c0,0-0.1,0-0.1,0c0,6.6,0,13.2,0,19.9c0,1.4-0.2,2.4-1.8,2.9c-2.1,0.6-4.3,0.6-6.4,0.7c-0.1,0-0.4-1.4-0.4-2.2 C201.6,245.6,201.7,233,201.8,220.4z" class="st366"/><path d="M174.1,199.9c-1-0.1-2.1-0.2-3.1-0.6c0,0,0,0,0,0c-18.9-0.7-37.5,2.4-56.2,4.7c0.9,0.2,1.7,0.4,2.6,0.6 c0,0,0,0,0,0c0.1,0,0.2,0,0.3,0c0.7,0,1.3,0,2,0.1c1.2,0.1,2.3,0.2,3.5,0.3c22.5,1.7,45,3.5,67.6,5.2c0.5,0,1,0.1,1.5,0.1 c0.6,0,1.2,0.3,1.8,0.5c0,0,0,0,0,0c14.8,0.2,28.9-4.7,43.5-5.7c0-0.4-0.1-0.7-0.1-1.1c-19.5-1.4-39-2.8-58.5-4.2c0,0-0.1,0-0.1,0 C177.4,200,175.7,200.1,174.1,199.9z" class="st364"/><path d="M129.8,345.3c1.2-4.7,2.3-9.4,5.3-13.7c-2.1-0.5-3.6-0.9-5.1-1.1c-6.6-1-13-3.5-19.7-4 C117.7,331.8,124.5,337.8,129.8,345.3z" class="st368"/><path d="M24.6,423.9c14.1,6.7,28.5,5.4,43,1.6c10.1-2.7,19.6-6.9,28.6-12.2c0,0,0.1,0,0.1-0.1c0,0,0-0.1,0-0.1 c0.2-2.7-1.6-0.8-2-0.6c-7.7,4.4-15.8,7.9-24.3,10.3c-15.8,4.6-31.6,6-47.2-1c-0.6,1-1.3,2,0,3c0-0.2,0-0.4,0-0.6 C22.8,423.3,23.4,423.3,24.6,423.9z" class="st369"/><path d="M139,272.9c-23.7-4.8-47.2-10.3-71.2-13.3c-0.4,0-0.8-0.1-1.2-0.2c-0.6,0.2-1.1,0.5-1.7,0.7c0,0,0,0,0,0 c0.5,0.1,0.9,0.2,1.4,0.2c6.2,1.1,12.3,2.1,18.5,3.3c20.6,3.9,41.3,7.9,61.9,11.9c0.1,0,0.2,0,0.4,0.1c0.3-0.3,0.7-0.6,1-0.9 c0,0,0,0,0,0c-0.3-0.1-0.5-0.1-0.8-0.2C144.5,274.1,141.8,273.5,139,272.9z" class="st370"/><path d="M205.6,357.7c-0.1-0.1-0.2-0.2-0.3-0.3c0,0-0.1-0.1-0.1-0.1c-0.2-0.1-0.3-0.3-0.5-0.4 c-1.3,0.6-2.5,1.3-3.8,1.9c-19.3,9.2-39.1,14.5-60.5,8.6c-0.1,0-0.3-0.1-0.4-0.1c0,0.4,0,0.9,0,1.3c0.1,0,0.2,0,0.3,0.1 C163.8,375.9,185.1,369,205.6,357.7z" class="st371"/><path d="M196.5,259.9c-0.2,3.2-0.2,4.2-1.7,4.2c-0.7,0-1.7-0.1-3.2-0.4c-5.9-0.9-11.8-1.7-17.7-2.6 c-15.4-2.2-30.8-4.4-46.2-6.7c-0.2,0.1-0.4,0.2-0.7,0.3c-0.3,0.1-0.5,0.2-0.8,0.4c-0.1,0-0.2,0.1-0.3,0.1c19.6,3.5,39.4,6.2,59.2,9 c2.1,0.3,4.4,0,6.4,1c0.4,0.2,0.9,0.5,1.3,0.9c5.5-0.9,4.2-5,4.1-8.6c-0.1,0.7-0.3,1.3-0.4,2C196.6,259.7,196.5,259.8,196.5,259.9z" class="st372"/><path d="M190.8,210.2c-22.5-1.7-45-3.5-67.6-5.2c-1.2-0.1-2.3-0.2-3.5-0.3c0,1.4,1.1,1.2,1.9,1.3 c22.7,2.6,45.6,3.8,68.4,5.5c0,0,0.1-0.1,0.1-0.1c1.2-1,2.7-0.2,4-0.7c0,0,0,0,0,0c-0.6-0.2-1.2-0.5-1.8-0.5 C191.8,210.3,191.3,210.3,190.8,210.2z" class="st373"/><path d="M69.7,322.5c2.5-1.4,5-2.8,8.3-4.5c-6.2-1.4-11.5-2.6-16.9-3.8c0,0,0,0,0,0 C63.9,317.1,68.4,318.2,69.7,322.5z" class="st374"/><path d="M28.5,353C28.5,353,28.5,353,28.5,353c-6.2-0.8-12.3-2.2-18.1-4.5c0,0.3,0,0.5,0,0.8c4,2.7,8.5,4.1,13.3,4.5 C25.1,352.4,27,353.6,28.5,353z" class="st375"/><path d="M110.2,252.5c0.2,0.1,0.4,0.1,0.6,0.1c5,1.4,10.1,2,15.2,2.7c0.1,0,0.2-0.1,0.3-0.1c0.3-0.1,0.5-0.2,0.8-0.4 c0.2-0.1,0.4-0.2,0.7-0.3c-5.4-1.4-10.9-2.1-16.5-2.8c-0.1,0-0.2,0-0.3,0C110.7,252,110.5,252.2,110.2,252.5 C110.2,252.5,110.2,252.5,110.2,252.5C110.2,252.5,110.2,252.5,110.2,252.5z" class="st376"/><path d="M261.2,406C261.2,406,261.2,406,261.2,406c-0.3,0.1-0.7,0.1-1,0.2c-2.4,0.5-4.8,1-7.3,1.4 c0.8,0.2,1.7,0.5,2.5,0.7C257.5,407.7,260.1,408.6,261.2,406z" class="st377"/><path d="M105.5,72.8c5.5,0,9.7-4.3,9.7-10c-0.1-5.3-4.4-9.5-9.8-9.5c-5.3,0-9.6,4.3-9.7,9.7 C95.5,68.3,99.9,72.8,105.5,72.8z" class="st378"/><path d="M213.9,57.4c4.2-1.7,8.3-3.5,12.6-5.1c1.9-0.7,2.4-1.5,0.9-3.2c-2.7-3.2-6.8-4.5-10.8-3.1 c-3.8,1.3-6.4,4.6-6.6,8.7C209.7,58.5,210.3,58.9,213.9,57.4z" class="st378"/><path d="M138.5,65.5c5.3,0.2,10-4.4,10-9.8c0.1-5.1-4.3-9.6-9.6-9.7c-5.7-0.1-9.9,4-9.9,9.7 C128.9,60.9,133.2,65.3,138.5,65.5z" class="st378"/><path d="M215.7,349.4c1.1,5.7,4.6,7.9,10,6.3c4.6-1.4,7.6-4.3,8.4-9.1c0.6-3.8-1.5-6.7-5.8-8.3 c-0.9-0.1-2.7,1-1.7-1.4c-6.2,1.1-9.8,5.1-11.9,10.7C215.6,347.8,215.8,348.5,215.7,349.4z" class="st378"/><path d="M242.2,354.6c-5.4,7.4-11.7,9.9-19.3,7.7c-5.7-1.6-8.6-6.2-7.7-11.4c0.1-0.5,0.2-1,0.4-1.6 c0.2-0.9-0.1-1.5-1-1.8c-2.5,7,0,13.1,6.6,16c7.9,3.5,17.9-0.1,22-7.9C242.9,355.3,242.6,354.9,242.2,354.6L242.2,354.6z" class="st379"/><path d="M226.6,336.8c-1.1,2.4,0.8,1.3,1.7,1.4c0.1-0.3,0.2-0.5,0.4-0.7c0.7-0.9,1.8-0.4,2.8-0.3 c8.5,0.9,12.8,7.9,10.8,17.2c0,0.1,0,0.2,0,0.2c0.3,0.3,0.7,0.7,1,1c2.5-5.2,1.5-10.9-2.6-15.4 C237.1,336.3,231.3,334.9,226.6,336.8z" class="st380"/><path d="M205.3,357.4c0.1,0.1,0.2,0.2,0.3,0.3c0.8-0.4,1.6-0.8,2.4-1.2c0.2-0.1,0.4-0.2,0.7-0.3c0,0,0,0,0,0 c-0.1-0.5,1.2-1.7-0.4-1.3c-1.3,0.3-2.4,1.3-3.5,2c0,0,0,0,0,0c0.2,0.1,0.3,0.3,0.5,0.4C205.2,357.4,205.2,357.4,205.3,357.4z" class="st381"/><path d="M175.8,434.6c1.8,4.3,4.2,5.7,8.3,5.1c5.1-0.9,9.4-5.2,9.8-9.7c0.3-4-1.7-6.7-6.1-8.2 c-1.1,0.1-2.6,0.8-1.7-1.4c-5.9,1.5-9.6,5.2-11.6,10.9C175.9,431.9,176.1,433.1,175.8,434.6z" class="st378"/><path d="M203.1,432.9C203.1,432.9,203.1,432.9,203.1,432.9c-0.2,9.4-11.4,16.1-20.6,13c-5.2-1.7-8.7-6.4-8-11.4 c0.1-0.7,0.2-0.8,0.3-0.8c0.3,0.1,0.5,1.2,0.9,0.9c0.4-1.5,0.1-2.7-1.3-3.4c-2.4,6-0.7,11.7,4.6,14.9c6,3.6,12.2,3.2,18.1-0.4 c5.7-3.4,8.1-8.5,6.8-15.2C203.1,431.1,203.5,432.1,203.1,432.9z" class="st382"/><path d="M187.7,421.7c0.4-0.2,0.7-0.4,1.1-0.5c3.2-1.3,6,0.2,8.7,2c2.9,1.9,4.2,4.8,5.2,8c0.2,0.6,0.3,1.2,0.5,1.7 c0.4-0.8-0.1-1.8,0.7-2.4c-2.7-8.7-10-12.8-17.9-10.1C185.2,422.5,186.7,421.8,187.7,421.7z" class="st383"/><path d="M174.3,322.3c2.3,1.2,7.8-2.2,7.9-4.8c0-6.6,0-13.2,0-19.9c0-6.5,0.1-13-0.1-19.5c0-1.4,1.2-3.7-1.7-3.9 c-3.8-0.3-6.8,1.4-6.8,3.9c-0.1,14,0,28,0,42.1C173.6,321,173.4,321.9,174.3,322.3z M178.7,275.9c2.9-0.1,1.8,2.3,1.8,3.7 c0.1,12.4,0.1,24.7,0,37.1c0,1.6,0.4,3.2-2.1,3.8c-2.7,0.7-3.4,0.2-3.4-2.6c0.1-6.2,0-12.5,0-18.7c0,0,0,0,0,0 c0-6.5,0.2-13-0.1-19.5C174.9,276.8,176.5,276,178.7,275.9z" class="st384"/><path d="M164.4,324.8c3.3,1.1,7.6-2,7.6-5.5c0-12.8,0-25.7-0.1-38.5c0-1.6,1.2-4.2-2.3-4.2c-4.2,0-6.2,1.3-6.3,4.3 c-0.1,6.9,0,13.8,0,20.6c0,0,0,0,0,0c0,6.8,0,13.5,0,20.3C163.4,322.8,162.8,324.3,164.4,324.8z M164.9,282c0-1.7-0.2-3.4,2.1-3.9 c2.3-0.6,3.5-0.5,3.4,2.5c-0.2,6.5-0.1,13-0.1,19.5c0,0,0,0,0,0c0,6.5-0.2,13,0.1,19.5c0.1,3-1.6,3.6-3.8,3.7 c-2.6,0.1-1.7-2.1-1.7-3.4C164.9,307.2,164.9,294.6,164.9,282z" class="st385"/><path d="M185.2,319.9c2.2,1,7.9-2.4,7.9-4.6c0-13.5,0-27,0-40.6c0-0.7-0.2-2.1-0.4-2.2c-2.2-0.1-4.3,0.1-6.4,0.7 c-1.7,0.5-1.8,1.6-1.8,2.9c0,6.9,0,13.8,0,20.7c0,0,0,0,0,0c0,6.8,0,13.5,0,20.3C184.5,318.1,184,319.3,185.2,319.9z M189.7,273.7 c2.8-0.3,1.7,2.1,1.7,3.3c0.1,6.1,0.1,12.2,0.1,18.3c0,6.4,0,12.7,0,19.1c0,1.6,0,3-2.1,3.6c-2.3,0.6-3.5,0.6-3.4-2.4 c0.2-10.5,0-21,0-31.5c0-2.2,0.2-4.4-0.1-6.6C185.5,274.2,187.8,273.9,189.7,273.7z" class="st386"/><path d="M152.6,324.7c0,0.9-0.2,1.8,0.8,2.4c2.1,1.3,7.8-1.7,7.8-4.2c0-6.9,0-13.7,0-20.6c0-6.6,0-13.2,0-19.8 c0-1.5,0.7-3.9-2.1-3.5c-2.2,0.4-5.5-0.7-5.8,3.3C152,296.4,152.8,310.6,152.6,324.7z M157.7,280.1c2.1-0.4,2.7,0.2,2.5,2 c-1.3,10.8-0.3,21.6-0.5,32.3c0,2.6,0.4,5.2,0.6,7.7c0.1,1.3,0,2.5-1.5,3.2c-3.4,1.6-4.5,1-4.5-2.8c0-6.4,0-12.7,0-19.1 c0,0,0,0-0.1,0c0-6.4,0.2-12.8-0.1-19.1C153.9,281.5,155.1,280.6,157.7,280.1z" class="st384"/><path d="M202.5,315.5c2.4,1.3,7.7-1.6,7.7-4.3c0-6.5,0-13,0-19.5c0,0,0,0,0,0c0-6.4,0.1-12.7-0.1-19.1 c0-1.3,1.1-3.4-1.4-3.7c-3.6-0.4-7,1.6-7,4.1c-0.1,13.4-0.1,26.7-0.1,40.1C201.7,314,201.5,314.9,202.5,315.5z M203.3,310.9 c-0.1-12.1-0.1-24.2-0.2-36.3c0-2,0.1-3.3,2.6-3.8c2.5-0.5,3,0.1,3,2.3c-0.1,6.2,0,12.5,0,18.7c0,0,0,0,0,0 c0,6.2-0.1,12.5,0.1,18.7c0.1,2.9-1.4,3.5-3.8,3.6C201.8,314.3,203.4,311.9,203.3,310.9z" class="st386"/><path d="M212.3,313.4c2.3,0.3,4.5-0.6,6.8-1c1.7-0.3,1.3-1.7,1.3-2.8c0-6.5,0-13,0-19.5c0,0,0,0,0,0 c0-5.9,0-11.7,0-17.6c0-6-0.4-6.2-6.1-4.6c-2.8,0.8-2.3,3.3-2.3,5.1c-0.2,12.7-0.2,25.5-0.2,38.2C211.9,312,212,313.4,212.3,313.4z M213.4,272.9c0-1.6-0.3-3.3,1.8-3.8c2.1-0.6,3.8-0.7,3.8,2.4c-0.1,6.2,0,12.5,0,18.7c0,0,0,0,0,0c0,6.1-0.2,12.2,0.1,18.3 c0.2,3.2-1.9,3.4-3.8,3.6c-2.8,0.2-1.6-2.2-1.7-3.4C213.4,296.8,213.4,284.8,213.4,272.9z" class="st384"/><path d="M239,308.6c2.1-0.2,2.8-0.7,2.7-3c-0.3-6.5-0.1-13-0.1-19.5c0,0,0,0,0,0c0-6.2,0.1-12.5-0.1-18.7 c0-1.5,1.1-4.5-1.9-3.8c-2.1,0.5-5.8-1.2-6.1,3.8c-0.7,11.9-0.4,23.9-0.5,35.8C232.9,309.4,232.9,309.3,239,308.6z M239,264.8 c1-0.1,1.7,0.6,1.6,2.3c-1.2,11.8-0.3,23.6-0.6,35.3c0,0.9,0,1.8,0,2.7c-0.1,2.4-1.9,2.5-3.6,2.6c-2,0.1-1.8-1.5-1.8-2.7 c0-12.2,0-24.4-0.1-36.6C234.4,265.5,236,264.9,239,264.8z" class="st386"/><path d="M222.1,309c0,1-0.3,2.1,1.1,2.6c2.9,1.1,7.5-2.1,7.6-5.2c0.2-12.5-0.4-25,0.3-37.4c0.1-1.2,0.5-4.2-2-3.7 c-2.3,0.5-6.3-0.7-6.3,4c0,8.4-1.3,16.9-0.7,23.8C222,299.3,222,304.1,222.1,309z M228.2,266.7c2.1-0.6,1.4,1.6,1.5,2.7 c0.1,1.8,0,3.6,0,5.4c-0.8,10.9-1,21.8-0.4,32.6c0.2,2.7-1.9,2.1-3.1,2.5c-1.5,0.5-2-0.6-2-2c-0.7-12.8-0.6-25.7-0.6-38.5 C223.6,266,226.6,267.2,228.2,266.7z" class="st386"/><path d="M224.3,256.8c2.2-0.8,6.1,1.4,6.5-3.5c0.7-7.5,0.3-15,0.6-22.5c0-5.3,0.1-10.7-0.1-16c0-1.3,1.1-3.4-1.5-3.7 c-4.4-0.4-7,1-7,3.9c-0.3,12.9-0.5,25.7-0.8,38.6C222,255.2,221.7,257.8,224.3,256.8z M223.9,251.4c0.1-6.1,0.3-12.2,0.3-18.3 c0.1-5.6,0.1-11.2,0-16.8c-0.1-2.5,0.9-3.6,3.3-3.8c2.9-0.2,2.2,1.9,2.2,3.5c0,6,0,12,0,17.9c0,0,0,0-0.1,0c0,6-0.1,12,0.1,17.9 c0.1,3.2-1.6,3.7-4.1,3.5C222.5,255.2,223.9,253.1,223.9,251.4z" class="st387"/><path d="M239.6,254.7c1.5-0.2,2.2-0.5,2.1-2.4c-0.6-10.4,0.3-20.7,0.6-31.1c0-2.7,0.1-5.5,0-8.2 c0-1.7,0.7-4.2-2.4-3.6c-2.4,0.5-6.1-0.9-6.2,3.8c-0.2,11.8-0.5,23.6-0.7,35.4C232.9,255.5,233,255.5,239.6,254.7z M234.5,250.6 c0.9-12.2,0.8-24.4,0.7-36.6c0-3.3,1.9-3.1,4-3.2c2.7-0.1,1.5,1.9,1.5,3c0.2,3.4,0.1,6.8,0.1,10.1c0.7,8.8-1.8,17.6-0.1,26.4 c0.4,2.4-0.7,3.5-3.3,3.6C234.6,254.1,234.4,252.7,234.5,250.6z" class="st388"/><path d="M208.4,259.6c1.7-0.5,1.9-1.5,1.8-2.9c0-6.6,0-13.2,0-19.9c0,0,0.1,0,0.1,0c0-6.5,0-13,0-19.5 c0-1,0.6-2.5-1-2.9c-3.7-1-7.5,2-7.5,6c-0.1,12.6-0.1,25.2-0.1,37.8c0,0.7,0.3,2.2,0.4,2.2C204.1,260.2,206.3,260.2,208.4,259.6z M203.2,219.8c-0.1-3.9,2.5-3.6,4.7-4c1.3-0.2,1.2,0.8,1.1,1.8c-0.1,6.5,0,13,0,19.5c-0.1,0-0.2,0-0.3,0c0,6.1-0.2,12.2,0.1,18.3 c0.1,2.9-1.4,3.8-3.6,3.9c-2.9,0.2-1.9-2.2-1.9-3.6C203.2,243.7,203.4,231.7,203.2,219.8z" class="st384"/><path d="M211.9,255c0,1.5-0.7,4.2,2.1,3.4c2.2-0.6,6.4,1.4,6.5-3.3c0.1-12.8-0.1-25.6,0.7-38.5 c0.1-1.5,0.8-3.7-1.9-3.8c-4.9-0.3-6.6,0.8-6.6,4.1c0.1,8.7-1.4,17.3-0.8,24.2C211.8,247,211.8,251,211.9,255z M213.4,238.7 c0.2-7,0-14,0.6-21c0.2-2.8,1.8-3.2,3.7-3.4c2.7-0.3,1.9,1.9,1.9,3.3c-0.4,12.2-1.1,24.4-0.6,36.6c0.1,3.4-2.3,3-4.1,3.2 c-2.5,0.2-1.4-1.9-1.4-3.1C213.3,249.1,213.4,243.9,213.4,238.7z" class="st389"/><path d="M234.1,346.5c-0.8,4.8-3.9,7.7-8.4,9.1c-5.4,1.7-8.9-0.6-10-6.3c-0.2,0.5-0.3,1-0.4,1.6 c-1,5.2,2,9.8,7.7,11.4c7.6,2.2,13.9-0.3,19.3-7.7v0c0-0.1,0-0.2,0-0.2c2-9.3-2.3-16.3-10.8-17.2c-1-0.1-2.1-0.5-2.8,0.3 c-0.1,0.2-0.3,0.4-0.4,0.7C232.6,339.8,234.7,342.8,234.1,346.5z" class="st196"/><path d="M197.5,423.1c-2.7-1.7-5.5-3.3-8.7-2c-0.4,0.2-0.7,0.3-1.1,0.5c4.4,1.5,6.5,4.2,6.1,8.2 c-0.4,4.6-4.7,8.9-9.8,9.7c-4.1,0.7-6.5-0.8-8.3-5.1c-0.3,0.3-0.6-0.8-0.9-0.9c-0.1-0.1-0.2,0.1-0.3,0.8c-0.8,5,2.7,9.7,8,11.4 c9.2,3.1,20.4-3.6,20.6-13c0,0,0,0,0,0c-0.1-0.6-0.3-1.2-0.5-1.7C201.7,428,200.4,425,197.5,423.1z" class="st196"/><path d="M175.1,299.2C175.1,299.2,175.1,299.2,175.1,299.2c0,6.2,0.1,12.5,0,18.7c-0.1,2.7,0.7,3.3,3.4,2.6 c2.5-0.6,2.1-2.2,2.1-3.8c0-12.4,0-24.7,0-37.1c0-1.4,1.1-3.8-1.8-3.7c-2.2,0.1-3.8,0.9-3.7,3.8 C175.3,286.2,175.1,292.7,175.1,299.2z" class="st390"/><path d="M166.7,323.3c2.1-0.1,3.9-0.7,3.8-3.7c-0.2-6.5-0.1-13-0.1-19.5c0,0,0,0,0,0c0-6.5-0.1-13,0.1-19.5 c0.1-3-1.1-3-3.4-2.5c-2.4,0.6-2.1,2.2-2.1,3.9c0,12.6,0,25.2,0.1,37.8C165,321.1,164.1,323.4,166.7,323.3z" class="st390"/><path d="M186,284c0,10.5,0.1,21,0,31.5c0,3,1.1,3,3.4,2.4c2.1-0.5,2.1-1.9,2.1-3.6c0-6.4,0-12.7,0-19.1 c0-6.1,0.1-12.2-0.1-18.3c0-1.2,1.1-3.6-1.7-3.3c-1.9,0.2-4.2,0.5-3.8,3.6C186.3,279.5,186,281.8,186,284z" class="st390"/><path d="M154.1,303.5C154.1,303.5,154.1,303.5,154.1,303.5c0.1,6.4,0.1,12.7,0.1,19.1c0,3.8,1.1,4.4,4.5,2.8 c1.5-0.7,1.6-1.9,1.5-3.2c-0.2-2.6-0.6-5.2-0.6-7.7c0.2-10.8-0.7-21.6,0.5-32.3c0.2-1.9-0.4-2.5-2.5-2c-2.6,0.5-3.8,1.4-3.7,4.3 C154.2,290.7,154.1,297.1,154.1,303.5z" class="st391"/><path d="M204.9,314.2c2.4-0.1,3.9-0.7,3.8-3.6c-0.2-6.2-0.1-12.5-0.1-18.7c0,0,0,0,0,0c0-6.2,0-12.5,0-18.7 c0-2.3-0.5-2.8-3-2.3c-2.5,0.5-2.6,1.9-2.6,3.8c0.1,12.1,0,24.2,0.2,36.3C203.4,311.9,201.8,314.3,204.9,314.2z" class="st390"/><path d="M215.1,312.2c1.9-0.2,4-0.4,3.8-3.6c-0.3-6.1-0.1-12.2-0.1-18.3c0,0,0,0,0,0c0-6.2-0.1-12.5,0-18.7 c0.1-3.2-1.6-3-3.8-2.4c-2,0.6-1.8,2.3-1.8,3.8c0,12,0,23.9,0.1,35.9C213.5,310,212.4,312.4,215.1,312.2z" class="st390"/><path d="M236.3,307.7c1.7-0.1,3.5-0.2,3.6-2.6c0.1-0.9,0-1.8,0-2.7c0.3-11.8-0.6-23.6,0.6-35.3 c0.2-1.7-0.5-2.4-1.6-2.3c-3,0.2-4.6,0.7-4.5,3.6c0.1,12.2,0.1,24.4,0.1,36.6C234.6,306.3,234.3,307.8,236.3,307.7z" class="st390"/><path d="M226.3,310c1.2-0.4,3.2,0.2,3.1-2.5c-0.6-10.9-0.4-21.8,0.4-32.6c0-1.8,0.1-3.6,0-5.4 c-0.1-1.1,0.6-3.3-1.5-2.7c-1.6,0.4-4.6-0.8-4.6,2.7c0,12.8-0.1,25.7,0.6,38.5C224.3,309.4,224.8,310.5,226.3,310z" class="st365"/><path d="M225.7,255.5c2.5,0.2,4.2-0.3,4.1-3.5c-0.2-6-0.1-12-0.1-17.9c0,0,0,0,0.1,0c0-6,0-12,0-17.9 c0-1.5,0.7-3.7-2.2-3.5c-2.4,0.2-3.3,1.3-3.3,3.8c0.1,5.6,0.1,11.2,0,16.8c-0.1,6.1-0.2,12.2-0.3,18.3 C223.9,253.1,222.5,255.2,225.7,255.5z" class="st390"/><path d="M237.3,254c2.6-0.1,3.7-1.2,3.3-3.6c-1.6-8.8,0.8-17.6,0.1-26.4c0-3.4,0.1-6.8-0.1-10.1c0-1.1,1.2-3.1-1.5-3 c-2.1,0.1-4-0.1-4,3.2c0.1,12.2,0.2,24.4-0.7,36.6C234.4,252.7,234.6,254.1,237.3,254z" class="st390"/><path d="M205.2,259.3c2.2-0.1,3.7-1,3.6-3.9c-0.2-6.1-0.1-12.2-0.1-18.3c0.1,0,0.2,0,0.3,0c0-6.5,0-13,0-19.5 c0-1,0.1-2.1-1.1-1.8c-2.2,0.4-4.8,0.1-4.7,4c0.2,11.9,0,23.9,0.1,35.9C203.2,257.1,202.2,259.5,205.2,259.3z" class="st390"/><path d="M214.9,257.3c1.8-0.2,4.2,0.2,4.1-3.2c-0.5-12.2,0.2-24.4,0.6-36.6c0-1.3,0.8-3.6-1.9-3.3 c-1.9,0.2-3.5,0.6-3.7,3.4c-0.6,7-0.4,14-0.6,21c0,5.2-0.1,10.4,0.1,15.6C213.5,255.4,212.4,257.6,214.9,257.3z" class="st366"/></g></svg>