<svg xmlns="http://www.w3.org/2000/svg" xmlns:xlink="http://www.w3.org/1999/xlink" id="Layer_1" x="0" y="0" enable-background="new 0 0 432 182" version="1.1" viewBox="0 0 432 182" xml:space="preserve"><style type="text/css">.st0{opacity:.5357;enable-background:new}.st1{fill:#2e3436}.st2{fill:url(#SVGID_1_)}.st3{fill:none;stroke:url(#SVGID_2_);stroke-width:2}.st4{fill:url(#SVGID_3_)}.st5{fill:url(#SVGID_4_)}.st6{opacity:.3;clip-path:url(#SVGID_6_);fill:url(#SVGID_7_);stroke:#000;stroke-width:2;enable-background:new}.st7{fill:url(#SVGID_8_)}.st8{fill:url(#SVGID_9_)}.st9{fill:url(#SVGID_10_)}.st10{fill:url(#SVGID_11_)}.st11{fill:url(#SVGID_12_)}.st12{fill:url(#SVGID_13_)}.st13{fill:url(#SVGID_14_)}.st14{fill:url(#SVGID_15_)}.st15{fill:url(#SVGID_16_)}.st16{fill:url(#SVGID_17_)}.st17{opacity:.8675;fill:url(#SVGID_18_)}.st17,.st18,.st19{enable-background:new}.st18{opacity:.8675;fill:url(#SVGID_19_)}.st19{opacity:.7098}.st20{fill:url(#SVGID_20_)}.st21{fill:url(#SVGID_21_)}.st22{fill:url(#SVGID_22_)}.st23{fill:url(#SVGID_23_)}.st24{fill:url(#SVGID_24_)}.st25{fill:url(#SVGID_25_)}.st26{fill:none;stroke:url(#SVGID_26_)}.st27{fill:url(#SVGID_27_)}.st28,.st29{fill:none;stroke:url(#SVGID_28_)}.st29{stroke:url(#SVGID_29_)}.st30{fill:url(#SVGID_30_)}.st31{fill:url(#SVGID_31_)}.st32{fill:url(#SVGID_32_)}.st33{fill:url(#SVGID_33_)}.st34{fill:url(#SVGID_34_)}.st35{fill:url(#SVGID_35_)}.st36{fill:url(#SVGID_36_)}</style><g transform="translate(-20.053 -61.124)"><g class="st0"><path d="M28,186.5c-23.3,6.9,28.4,39.6,50.2,45.9c44.4,12.9,73.4,16.5,136.5-24.5c25.6-22.5-18.5-23.9-76.4-20.2 C40,182.7,32.7,168,28,186.5L28,186.5z" class="st1"/></g><radialGradient id="SVGID_1_" cx="203.737" cy="-256.561" r="100.517" gradientTransform="matrix(1 0 0 -0.3 -60.159 129.7205)" gradientUnits="userSpaceOnUse"><stop offset="0" stop-color="#F2DA06"/><stop offset=".445" stop-color="#FCEE72"/><stop offset="1" stop-color="#F2DA06"/></radialGradient><path d="M28,181c-23.3,6.9,28.4,39.6,50.2,45.9c44.4,12.9,73.4,16.5,136.5-24.5c25.6-22.5-18.5-23.9-76.4-20.2 C40,177,32.7,162.5,28,181L28,181z" class="st2"/><radialGradient id="SVGID_2_" cx="166.576" cy="49.916" r="89.122" gradientTransform="matrix(0.768 -0.3181 -0.2989 -0.7218 60.5723 294.0643)" gradientUnits="userSpaceOnUse"><stop offset="0" stop-color="#EEEEEC"/><stop offset="1" stop-color="#EEEEEC" stop-opacity="0"/></radialGradient><path d="M119.8,74c-36.8-0.8-57.2,8.3-70,26.2c-12.2,17.3-22.2,56.6-21.1,80.3c26.7,42.1,154.4,41.3,177.1,2.9 c-9.9-34.7-6.8-64.1-22.3-84.1C168.8,80.8,143.1,72.9,119.8,74L119.8,74z" class="st3"/><linearGradient id="SVGID_3_" x1="310.032" x2="313.568" y1="427.314" y2="427.314" gradientTransform="matrix(1.7961 0.1564 0.1821 -1.8417 -433.4774 913.6808)" gradientUnits="userSpaceOnUse"><stop offset="0" stop-color="#EDD60C"/><stop offset="1" stop-color="#AD9C08"/></linearGradient><path d="M203.5,165.7c3.2,0,3.5,16.5,3.5,16.5s-2.6,2.5-5.9,2.6c-3.2,0.2-7.1-2.3-7.1-2.3S200.2,165.7,203.5,165.7 L203.5,165.7z" class="st4"/><radialGradient id="SVGID_4_" cx="223.589" cy="98.19" r="88.6" fx="221.958" fy="72.386" gradientTransform="matrix(1.3047 0.249 0.1922 -1.007 -187.7195 178.3996)" gradientUnits="userSpaceOnUse"><stop offset="0" stop-color="#E9D012"/><stop offset=".46" stop-color="#EFD840"/><stop offset=".766" stop-color="#D2B828"/><stop offset="1" stop-color="#EACF4E"/></radialGradient><path d="M119.8,72.8C83,72,62.6,81.1,49.8,99c-12.2,17.3-22.2,56.6-21.1,80.3c26.7,42.1,154.4,41.3,177.1,2.9 c-9.9-34.7-6.8-64.1-22.3-84.1C168.8,79.6,143.1,71.7,119.8,72.8L119.8,72.8z" class="st5"/><g><g><g><defs><path id="SVGID_5_" d="M110.2,68.6C98.5,68.6,88,72,79,77.7l0,0C66,82,56.8,89.3,49.8,99c-12.2,17.3-22.2,56.6-21.1,80.3 c26.7,42.1,154.4,41.3,177.1,2.9c-9.9-34.7-6.8-64.1-22.3-84.1c-8.3-10.8-20.5-17.9-33.7-21.7h-0.2c-6.2-2.3-21.4-7.6-37-7.6 C111.8,68.6,111,68.6,110.2,68.6L110.2,68.6z M137.8,73.7c0.5,0,0.8,0.2,1.2,0.2C138.7,73.9,138.3,73.7,137.8,73.7z M95,74 c-0.9,0.2-1.8,0.3-2.6,0.5C93.3,74.3,94.1,74.2,95,74z"/></defs><clipPath id="SVGID_6_"><use overflow="visible" xlink:href="#SVGID_5_"/></clipPath><radialGradient id="SVGID_7_" cx="223.589" cy="98.19" r="88.6" fx="221.958" fy="72.386" gradientTransform="matrix(1.3047 0.249 0.1922 -1.007 -187.7195 178.3996)" gradientUnits="userSpaceOnUse"><stop offset="0" stop-color="#E9D012"/><stop offset=".46" stop-color="#EFD840"/><stop offset=".766" stop-color="#D2B828"/><stop offset="1" stop-color="#EACF4E"/></radialGradient><path d="M110.2,68.6C98.5,68.6,88,72,79,77.7l0,0C66,82,56.8,89.3,49.8,99c-12.2,17.3-22.2,56.6-21.1,80.3 c26.7,42.1,154.4,41.3,177.1,2.9c-9.9-34.7-6.8-64.1-22.3-84.1c-8.3-10.8-20.5-17.9-33.7-21.7h-0.2c-6.2-2.3-21.4-7.6-37-7.6 C111.8,68.6,111,68.6,110.2,68.6L110.2,68.6z M137.8,73.7c0.5,0,0.8,0.2,1.2,0.2C138.7,73.9,138.3,73.7,137.8,73.7z M95,74 c-0.9,0.2-1.8,0.3-2.6,0.5C93.3,74.3,94.1,74.2,95,74z" class="st6"/></g></g></g><radialGradient id="SVGID_8_" cx="337.169" cy="481.191" r="8.015" gradientTransform="matrix(-5.1363 -1.3763 1.2455 -3.2157 1248.463 2160.9309)" gradientUnits="userSpaceOnUse"><stop offset="0" stop-color="#F5E789"/><stop offset="1" stop-color="#EED73F" stop-opacity="0"/></radialGradient><path d="M111.6,148.8l-0.5,11.2l22.3-1.7l-1.1-10.9L111.6,148.8z" class="st7"/><radialGradient id="SVGID_9_" cx="337.648" cy="479.935" r="8.015" gradientTransform="matrix(-5.1363 -1.3763 1.2455 -3.2157 1306.843 2154.2109)" gradientUnits="userSpaceOnUse"><stop offset="0" stop-color="#F5E789"/><stop offset="1" stop-color="#EED73F" stop-opacity="0"/></radialGradient><path d="M166.8,143.4l-0.6,10.3l18.3-1.7l1.8-10L166.8,143.4z" class="st8"/><linearGradient id="SVGID_10_" x1="401.955" x2="405.491" y1="394.101" y2="394.101" gradientTransform="matrix(-2.0701 -1.735600e-02 7.408700e-02 -1.2462 892.0876 572.4525)" gradientUnits="userSpaceOnUse"><stop offset="0" stop-color="#EDD60C"/><stop offset="1" stop-color="#AD9C08"/></linearGradient><path d="M88,67.8c-3.7-0.3-6.5,10.8-6.5,10.8s2.6,1.8,6.2,2.2c3.7,0.3,8.3-1.1,8.3-1.1S91.7,68.2,88,67.8L88,67.8z" class="st9"/><linearGradient id="SVGID_11_" x1="394.216" x2="397.752" y1="380.063" y2="380.063" gradientTransform="matrix(-1.7448 -0.383 0.3179 -1.2067 699.7882 680.78)" gradientUnits="userSpaceOnUse"><stop offset="0" stop-color="#EDD60C"/><stop offset="1" stop-color="#AD9C08"/></linearGradient><path d="M133.2,64.6c-3.1-0.9-7.7,9.4-7.7,9.4s1.8,2.3,4.8,3.2c3.1,0.9,7.2,0.5,7.2,0.5S136.3,65.4,133.2,64.6 L133.2,64.6z" class="st10"/><radialGradient id="SVGID_12_" cx="306.719" cy="761.57" r="76.909" gradientTransform="matrix(-1.103 5.104200e-02 1.294400e-02 0.2797 458.2189 -156.1692)" gradientUnits="userSpaceOnUse"><stop offset="0" stop-color="#EFDD52"/><stop offset="1" stop-color="#F2E26D" stop-opacity="0"/></radialGradient><path d="M112.4,148.9l21-1.4c-2.6-23.9-13.6-41.5-27-61.9c6.2-1.4,18.6-5.2,28.2,0c15.4,19.1,24.5,35.3,31,57.9 l21.3-1.4c-11.9-27.9-15.4-47.5-34.7-65c0,0-19.9-8.6-39.9-8.6c-48.5-2-75.8,53.3-78.6,99.7c-0.9,26-2.2,23.9,7.7,30 c8,4.9,6.9-1.7,6.9-1.7c-4-50.4,25.4-89.8,38.7-102.9C99,110.2,106.8,130.7,112.4,148.9L112.4,148.9z" class="st11"/><radialGradient id="SVGID_13_" cx="382.898" cy="279.006" r="76.909" gradientTransform="matrix(-0.5859 0.9738 1.0187 0.6129 27.5593 -454.031)" gradientUnits="userSpaceOnUse"><stop offset="0" stop-color="#EFDD52"/><stop offset="1" stop-color="#F2E26D" stop-opacity="0"/></radialGradient><path d="M112.4,148.9l21-1.4c-2.6-23.9-13.6-41.5-27-61.9c6.2-1.4,18.6-5.2,28.2,0c15.4,19.1,24.5,35.3,31,57.9 l21.3-1.4c-11.9-27.9-15.4-47.5-34.7-65c0,0-19.9-8.6-39.9-8.6c-48.5-2-75.8,53.3-78.6,99.7c-0.9,26-2.2,23.9,7.7,30 c8,4.9,6.9-1.7,6.9-1.7c-4-50.4,25.4-89.8,38.7-102.9C99,110.2,106.8,130.7,112.4,148.9L112.4,148.9z" class="st12"/><linearGradient id="SVGID_14_" x1="141.725" x2="101.876" y1="150.062" y2="50.069" gradientTransform="matrix(1 0 0 -1 -60.159 245.124)" gradientUnits="userSpaceOnUse"><stop offset="0" stop-color="#DDBE0C"/><stop offset="1" stop-color="#DDBE0C" stop-opacity="0"/></linearGradient><path d="M87.3,93.9v7.2c-33,24.2-38.2,73.7-38.1,83.8C49.7,160.3,52.3,123.5,87.3,93.9L87.3,93.9z" class="st13"/><linearGradient id="SVGID_15_" x1="197.633" x2="239.322" y1="160.561" y2="62.9" gradientTransform="matrix(1 0 0 -1 -60.159 245.124)" gradientUnits="userSpaceOnUse"><stop offset="0" stop-color="#DDBE0C"/><stop offset="1" stop-color="#DDBE0C" stop-opacity="0"/></linearGradient><path d="M133.4,87.3c18.2,19.3,29.6,54.6,32.5,66.9l0.8-5.4c-3.5-24.2-20.6-55.2-32.7-65.6L133.4,87.3z" class="st14"/><linearGradient id="SVGID_16_" x1="150.172" x2="172.987" y1="144.792" y2="85.461" gradientTransform="matrix(1 0 0 -1 -60.159 245.124)" gradientUnits="userSpaceOnUse"><stop offset="0" stop-color="#DDBE0C"/><stop offset="1" stop-color="#DDBE0C" stop-opacity="0"/></linearGradient><path d="M87,101c1.5,1.2,15.1,27.6,24,59.6l1.2-7.7c-13.3-40.8-17-47.3-25.1-59L87,101z" class="st15"/><linearGradient id="SVGID_17_" x1="165.621" x2="222.96" y1="159.689" y2="158.689" gradientTransform="matrix(1 0 0 -1 -60.159 245.124)" gradientUnits="userSpaceOnUse"><stop offset="0" stop-color="#DDBE0C"/><stop offset="1" stop-color="#DDBE0C" stop-opacity="0"/></linearGradient><path d="M105.5,85.4c9.2-4.3,19.1-4.8,28.7-2.3v4.2c-19.4-1.5-25.3,3.4-25.7,2.2C107.8,88.3,106.1,86.3,105.5,85.4 L105.5,85.4z" class="st16"/><radialGradient id="SVGID_18_" cx="277.508" cy="312.859" r="8.721" gradientTransform="matrix(-3.0258 0 0 -6.4426 1008.7867 2123.4517)" gradientUnits="userSpaceOnUse"><stop offset="0" stop-color="#FFF"/><stop offset="1" stop-color="#FFF" stop-opacity="0"/></radialGradient><path d="M194.4,182.8c-6.3-50.7-22.3-94.5-52.7-112.3C175.6,93.6,186.2,137.7,194.4,182.8L194.4,182.8z" class="st17"/><radialGradient id="SVGID_19_" cx="278.228" cy="310.922" r="8.721" gradientTransform="matrix(-2.619 -0.1693 0.3947 -6.105 725.7161 2062.6599)" gradientUnits="userSpaceOnUse"><stop offset="0" stop-color="#FFF"/><stop offset="1" stop-color="#FFF" stop-opacity="0"/></radialGradient><path d="M137.1,189.9c-2.3-48.4-13.6-90.8-38.8-109.4C126.1,104.2,132.7,146.6,137.1,189.9z" class="st18"/><g class="st19"><radialGradient id="SVGID_20_" cx="392.025" cy="420.51" r="11.004" gradientTransform="matrix(-2.0434 -0.5315 0.2674 -1.3772 788.8264 898.126)" gradientUnits="userSpaceOnUse"><stop offset="0" stop-color="#FFF"/><stop offset="1" stop-color="#FFF" stop-opacity="0"/></radialGradient><path d="M101.6,91.9c14.9,3.9,25.6,13.9,24,22.3c-1.4,7.2-11.7,11.1-24,9.6C97.1,107,89.9,96.2,83,91.1 C88.2,89.9,94.8,90,101.6,91.9L101.6,91.9z" class="st20"/></g><g class="st19"><radialGradient id="SVGID_21_" cx="404.036" cy="428.291" r="11.004" gradientTransform="matrix(-2.1024 -0.1944 4.140177e-02 -1.4023 983.2238 780.0627)" gradientUnits="userSpaceOnUse"><stop offset="0" stop-color="#FFF"/><stop offset="1" stop-color="#FFF" stop-opacity="0"/></radialGradient><path d="M149.8,82.2c15.3,1.4,27.6,9.6,27.3,18.2c-0.2,7.4-9.7,12.8-22.2,13.3c-7.2-15.9-16-25.4-23.7-29.1 C136.3,82.3,142.8,81.4,149.8,82.2L149.8,82.2z" class="st21"/></g><g><radialGradient id="SVGID_22_" cx="235.682" cy="290.995" r="5.303" gradientTransform="matrix(-3.0795 -6.574038e-06 -2.349250e-05 -6.2203 913.8936 1931.6061)" gradientUnits="userSpaceOnUse"><stop offset="0" stop-color="#F9F1B8"/><stop offset="1" stop-color="#F9F1B8" stop-opacity="0"/></radialGradient><path d="M167.4,85.9c22.8,17.4,26.7,51.5,32.7,83.8C190.7,139.2,182.4,107.1,167.4,85.9L167.4,85.9z" class="st22"/></g><radialGradient id="SVGID_23_" cx="413.918" cy="513.664" r="9.907" gradientTransform="matrix(-1.2966 4.854400e-02 -0.6579 -4.6567 973.3354 2502.9954)" gradientUnits="userSpaceOnUse"><stop offset="0" stop-color="#DDBE0C"/><stop offset="1" stop-color="#DDBE0C" stop-opacity="0"/></radialGradient><path d="M118.1,176.8c-10.5-47-22-80.9-38.7-91.4c6.9,3.9,20,7.1,36.5,80.1L118.1,176.8L118.1,176.8z" class="st23"/><radialGradient id="SVGID_24_" cx="406.169" cy="517.313" r="9.902" gradientTransform="matrix(-1.5585 0.1325 -1.0967 -5.1492 1353.0026 2735.9473)" gradientUnits="userSpaceOnUse"><stop offset="0" stop-color="#DDBE0C"/><stop offset="1" stop-color="#DDBE0C" stop-opacity="0"/></radialGradient><path d="M179,175.7c-15.7-51.6-31.9-88.9-52.7-99.4c8.5,3.9,24.7,6.6,49.3,87.1L179,175.7L179,175.7z" class="st24"/><linearGradient id="SVGID_25_" x1="375.973" x2="379.508" y1="450.17" y2="450.17" gradientTransform="matrix(-3.3665 -0.608 0.7566 -2.7052 962.2399 1625.4133)" gradientUnits="userSpaceOnUse"><stop offset="0" stop-color="#EDD60C"/><stop offset="1" stop-color="#AD9C08"/></linearGradient><path d="M43.5,168.3c-5.9-1.5-17.1,17.7-17.1,17.7c1.1,3.2,8.6,5.2,12.9,4.3C39.4,190.4,49.2,169.9,43.5,168.3 L43.5,168.3z" class="st25"/><radialGradient id="SVGID_26_" cx="195.567" cy="-304.949" r="100.518" gradientTransform="matrix(1 0 0 -0.3222 -60.159 132.6409)" gradientUnits="userSpaceOnUse"><stop offset="0" stop-color="#FFF"/><stop offset="1" stop-color="#FFF" stop-opacity="0"/></radialGradient><path d="M28,179c-23.3,6.9,28.4,39.6,50.2,45.9c44.4,12.9,73.4,16.5,136.5-24.5c25.6-22.5-18.5-23.9-76.4-20.2 C40,175.1,32.7,160.5,28,179L28,179z" class="st26"/><linearGradient id="SVGID_27_" x1="380.182" x2="383.717" y1="445.938" y2="445.938" gradientTransform="matrix(-2.876 -0.5738 0.6464 -2.5533 857.1877 1545.7101)" gradientUnits="userSpaceOnUse"><stop offset="0" stop-color="#EDD60C"/><stop offset="1" stop-color="#AD9C08"/></linearGradient><path d="M53.4,175.3c-4.9-1.5-13.7,20.6-13.7,20.6s2.8,4.5,7.7,6c4.9,1.5,12.2-0.2,12.2-0.2S58.3,176.6,53.4,175.3 L53.4,175.3z" class="st27"/><g transform="translate(0,-40)"><radialGradient id="SVGID_28_" cx="147.859" cy="-90.022" r="100.527" gradientTransform="matrix(1.3845 -0.2086 -6.498200e-02 -0.4314 -163.1831 256.6634)" gradientUnits="userSpaceOnUse"><stop offset="0" stop-color="#000" stop-opacity=".33"/><stop offset="1" stop-color="#000" stop-opacity="0"/></radialGradient><path d="M28,221c-23.3,6.9,28.4,39.6,50.2,45.9c44.4,12.9,73.4,16.5,136.5-24.5c12.8-11.2,8.2-17.3-6.9-19.9" class="st28"/><radialGradient id="SVGID_29_" cx="259.118" cy="-115.985" r="100.523" gradientTransform="matrix(1.3845 -0.2086 -6.498200e-02 -0.4314 -163.1831 256.6634)" gradientUnits="userSpaceOnUse"><stop offset="0" stop-color="#000" stop-opacity=".33"/><stop offset="1" stop-color="#000" stop-opacity="0"/></radialGradient><path d="M28,221c-23.3,6.9,28.4,39.6,50.2,45.9c44.4,12.9,73.4,16.5,136.5-24.5c12.8-11.2,8.2-17.3-6.9-19.9" class="st29"/></g></g><g><linearGradient id="SVGID_30_" x1="227.449" x2="186.989" y1="57.371" y2="97.832" gradientUnits="userSpaceOnUse"><stop offset="0" stop-color="#3E3E3E"/><stop offset="1" stop-color="#000"/></linearGradient><path d="M199.1,53.3h24.2v7.6h-16.1v17.2h14v7.6h-14V110h-8.1V53.3z" class="st30"/><linearGradient id="SVGID_31_" x1="259.086" x2="224.405" y1="64.284" y2="98.965" gradientUnits="userSpaceOnUse"><stop offset="0" stop-color="#3E3E3E"/><stop offset="1" stop-color="#000"/></linearGradient><path d="M228.1,66.6c0-2.3,0.4-4.3,1.2-6.1c0.8-1.8,1.8-3.2,3.1-4.3c1.3-1.1,2.8-2,4.4-2.6c1.6-0.6,3.3-0.9,4.9-0.9 c1.6,0,3.3,0.3,4.9,0.9c1.6,0.6,3.1,1.4,4.4,2.6c1.3,1.1,2.3,2.6,3.1,4.3c0.8,1.8,1.2,3.8,1.2,6.1v29.9c0,2.3-0.4,4.4-1.2,6.1 c-0.8,1.7-1.8,3.2-3.1,4.3c-1.3,1.1-2.8,2-4.4,2.6c-1.6,0.6-3.3,0.9-4.9,0.9c-1.6,0-3.3-0.3-4.9-0.9c-1.6-0.6-3.1-1.4-4.4-2.6 c-1.3-1.1-2.3-2.6-3.1-4.3c-0.8-1.7-1.2-3.8-1.2-6.1V66.6z M236.3,96.6c0,2,0.5,3.4,1.6,4.3c1.1,0.9,2.4,1.4,3.9,1.4 c1.5,0,2.8-0.5,3.9-1.4c1.1-0.9,1.6-2.4,1.6-4.3V66.6c0-2-0.5-3.4-1.6-4.3c-1.1-0.9-2.4-1.4-3.9-1.4c-1.5,0-2.8,0.5-3.9,1.4 c-1.1,0.9-1.6,2.4-1.6,4.3V96.6z" class="st31"/><linearGradient id="SVGID_32_" x1="293.597" x2="255.395" y1="64.637" y2="102.84" gradientUnits="userSpaceOnUse"><stop offset="0" stop-color="#3E3E3E"/><stop offset="1" stop-color="#000"/></linearGradient><path d="M262.5,53.3h13.1c9.6,0,14.3,5.5,14.3,16.6c0,3.3-0.5,6.1-1.6,8.5c-1,2.4-0.7,2.3-2.9,4.5 c0,0,2.8,1.5,3.6,3.9c1.6,4.7,1.4,23.5,1.4,23.5l-7.9,0c0,0,0.1-18.1-0.9-20.8c-1-2.6-4.3-3.5-6.1-3.7c-1.2-0.1-4.9,0-4.9,0V110 h-8.1V53.3z M270.7,78.6h4.6c1.4,0,2.6-0.2,3.4-0.6c0.8-0.4,1.5-1,2-1.7c0.4-0.7,0.8-1.7,0.9-2.7c0.2-1.1,0.2-2.3,0.2-3.8 c0-1.4-0.1-2.7-0.2-3.8c-0.2-1.1-0.5-2-1-2.8c-0.5-0.8-1.2-1.3-2.1-1.7c-0.9-0.4-2.1-0.6-3.6-0.6h-4.2V78.6z" class="st32"/><linearGradient id="SVGID_33_" x1="328.798" x2="288.337" y1="61.393" y2="101.854" gradientUnits="userSpaceOnUse"><stop offset="0" stop-color="#3E3E3E"/><stop offset="1" stop-color="#000"/></linearGradient><path d="M296.5,53.3h24.2v7.6h-16.1v16.6h14v7.6h-14v16.6h16.1v8.1h-24.2V53.3z" class="st33"/><linearGradient id="SVGID_34_" x1="367.587" x2="320.913" y1="58.287" y2="104.96" gradientUnits="userSpaceOnUse"><stop offset="0" stop-color="#3E3E3E"/><stop offset="1" stop-color="#000"/></linearGradient><path d="M325.9,53.3h7.8l10.4,30h0.2l10.4-30h7.9V110h-8.1V75.5h-0.2l-8,24.4h-4.1l-8-24.4h-0.2V110h-8.1V53.3z" class="st34"/><linearGradient id="SVGID_35_" x1="401.635" x2="363.564" y1="68.919" y2="106.991" gradientUnits="userSpaceOnUse"><stop offset="0" stop-color="#3E3E3E"/><stop offset="1" stop-color="#000"/></linearGradient><path d="M379.2,53.3h6.8l12.7,56.7h-8.1l-2.4-12.2h-11.1l-2.4,12.2h-8.1L379.2,53.3z M382.6,69.6h-0.2l-4,20.5h8.1 L382.6,69.6z" class="st35"/><linearGradient id="SVGID_36_" x1="437.755" x2="395.224" y1="60.358" y2="102.889" gradientUnits="userSpaceOnUse"><stop offset="0" stop-color="#3E3E3E"/><stop offset="1" stop-color="#000"/></linearGradient><path d="M402.3,53.3h7.8l12.3,34.2h0.2V53.3h8.1V110H423l-12.4-34.1h-0.2V110h-8.1V53.3z" class="st36"/></g></svg>