<svg xmlns="http://www.w3.org/2000/svg" xmlns:svg="http://www.w3.org/2000/svg" id="svg8" width="234mm" height="82mm" version="1.1" viewBox="0 0 234 82"><metadata id="metadata5"/><g id="layer1" transform="translate(3.505755,-92.408482)"><g id="layer1-6" transform="translate(47.624995,58.964282)"><g id="g8582" transform="translate(-285.14275,195.57423)"><g id="g924" transform="translate(6.1490072,-1.8176325)"><g id="g8562" transform="translate(0,-0.01132)"><path font-size="medium" style="line-height:1.25;-inkscape-font-specification:'CorporativeSansRd Medium'" id="path8558" fill="#3a3a3a" fill-opacity="1" stroke="none" stroke-width="1.47" d="m 341.21631,-107.18279 c 9.89257,0 15.63855,-4.31929 15.63855,-11.32356 0,-15.75957 -23.51706,-8.87207 -23.51706,-20.48746 0,-3.26866 3.19879,-6.012 8.53012,-6.012 5.21284,0 6.93071,2.15966 8.11546,3.67725 0.88855,1.16738 1.83633,1.69269 3.08032,1.69269 1.30321,0 2.54718,-1.05064 2.54718,-2.56823 0,-0.64205 -0.23694,-1.40086 -0.71084,-2.27637 -2.19177,-3.85235 -7.40461,-5.42832 -12.79518,-5.42832 -9.47791,0 -14.69075,4.78625 -14.69075,11.26519 0,15.9347 23.57629,9.28065 23.57629,20.31236 0,3.32703 -3.3765,5.95363 -10.01103,5.95363 -5.80522,0 -9.06325,-1.75107 -10.60341,-2.15965 -0.35543,-0.11673 -0.77009,-0.17511 -1.12551,-0.17511 -1.48092,0 -2.54718,0.93392 -2.54718,2.56823 0,1.34249 0.71084,2.04291 1.89558,2.56823 3.19879,1.75107 8.47088,2.39312 12.61746,2.39312 z" font-family="CorporativeSansRd" font-stretch="normal" font-style="normal" font-variant="normal" font-weight="500" letter-spacing="0" word-spacing="0"/><path font-size="medium" style="line-height:1.25;-inkscape-font-specification:'CorporativeSansRd Medium'" id="path8560" fill="#3a3a3a" fill-opacity="1" stroke="none" stroke-width="1.47" d="m 375.23128,-107.18279 c 9.89262,0 15.63863,-4.31929 15.63863,-11.32356 0,-15.75957 -23.51716,-8.87207 -23.51716,-20.48746 0,-3.26866 3.1988,-6.012 8.53014,-6.012 5.21288,0 6.93076,2.15966 8.1155,3.67725 0.88856,1.16738 1.83636,1.69269 3.08034,1.69269 1.30322,0 2.5472,-1.05064 2.5472,-2.56823 0,-0.64205 -0.23695,-1.40086 -0.71084,-2.27637 -2.19178,-3.85235 -7.40466,-5.42832 -12.79525,-5.42832 -9.47793,0 -14.69078,4.78625 -14.69078,11.26519 0,15.9347 23.57637,9.28065 23.57637,20.31236 0,3.32703 -3.37653,5.95363 -10.0111,5.95363 -5.80524,0 -9.06326,-1.75107 -10.60343,-2.15965 -0.35542,-0.11673 -0.77007,-0.17511 -1.1255,-0.17511 -1.48092,0 -2.54719,0.93392 -2.54719,2.56823 0,1.34249 0.71085,2.04291 1.89558,2.56823 3.19881,1.75107 8.47089,2.39312 12.61749,2.39312 z" font-family="CorporativeSansRd" font-stretch="normal" font-style="normal" font-variant="normal" font-weight="500" letter-spacing="0" word-spacing="0"/></g><g id="g8568" transform="translate(0,0.00855504)"><path id="path8564" fill="#0299da" fill-opacity="1" stroke="none" stroke-width="1.43" d="m 182.125,1.6796875 c -2.47979,0 -4.48438,2.0072118 -4.48438,4.3691406 V 42.421875 c 0,2.361929 2.00332,4.371094 4.48438,4.371094 2.51083,0 4.54102,-2.009566 4.54102,-4.371094 V 6.0488281 c 0,-2.361528 -2.03142,-4.3691406 -4.54102,-4.3691406 z" font-family="CorporativeSansRd" font-size="medium" font-stretch="normal" font-style="normal" font-variant="normal" font-weight="500" letter-spacing="0" transform="matrix(0.99999994,0,0,0.96674413,222.46076,-151.98388)" word-spacing="0" style="line-height:1.25;-inkscape-font-specification:'CorporativeSansRd Medium'"/><path id="path8566" fill="#0299da" fill-opacity="1" stroke="none" stroke-width="1.452" d="m 201.38086,2.4277344 c -1.31849,0 -2.50236,0.3936251 -3.32422,1.2226562 -0.82186,0.8290312 -1.20898,2.0163065 -1.20898,3.3417969 V 41.310547 c 0,1.316836 0.28893,2.456661 0.99218,3.298828 0.70326,0.842167 1.79383,1.263672 2.96289,1.263672 h 9.42579 c 7.07841,0 12.80116,-2.085718 16.73437,-5.900391 3.93321,-3.814673 6.01563,-9.309127 6.01563,-15.880859 0,-6.480912 -2.021,-11.946433 -5.9336,-15.7558595 -3.9126,-3.8094268 -9.65269,-5.9082031 -16.87304,-5.9082031 z m 3.31641,7.3769531 h 5.58984 c 5.09623,0 8.7209,1.4656845 11.11328,3.9335935 2.39238,2.46791 3.61328,6.018641 3.61328,10.41211 0,4.484542 -1.22264,8.030545 -3.61133,10.474609 -2.38868,2.444064 -6.01346,3.871094 -11.11523,3.871094 h -5.58984 z" font-family="CorporativeSansRd" font-size="medium" font-stretch="normal" font-style="normal" font-variant="normal" font-weight="500" letter-spacing="0" transform="matrix(1.0222495,0,0,1.0038585,217.55181,-152.82138)" word-spacing="0" style="line-height:1.25;-inkscape-font-specification:'CorporativeSansRd Medium'"/></g><g id="g8578"><g id="g8576"><path id="path8570" fill="#3a3a3a" fill-opacity="1" fill-rule="nonzero" stroke="none" stroke-dasharray="none" stroke-dashoffset="0" stroke-linecap="round" stroke-linejoin="miter" stroke-miterlimit="4" stroke-opacity="1" stroke-width="44.839" d="m 208.96875,363 c -62.42438,0 -113.283203,50.85883 -113.283203,113.2832 0,62.42434 50.858823,113.28321 113.283203,113.28321 20.2607,0 39.29971,-5.3628 55.78125,-14.73438 3.85341,-1.94983 8.86208,-3.80094 12.86328,-1.02148 3.77488,2.62223 12.8676,7.67229 12.08984,16.81054 -0.5526,6.76972 1.78498,13.75858 7.64454,18.4961 l 46.21679,43.69531 c 8.96119,8.74913 23.33855,8.44593 31.92578,-0.67188 8.58717,-9.1178 8.05369,-23.51476 -1.18359,-31.9707 l -46.2168,-43.70312 c -4.34604,-4.22272 -9.03761,-7.57307 -14.98046,-6.41797 -10.93372,2.12515 -14.62921,-2.95753 -21.14258,-10.59766 -1.34969,-1.58317 -1.00388,-3.94975 2.88086,-9.40234 17.07138,-19.83991 27.41015,-45.62612 27.41015,-73.76563 C 322.25781,413.85883 271.39309,363 208.96875,363 Z m 0,23.74805 c 49.58861,0 89.53516,39.94654 89.53516,89.53515 0,49.58861 -39.94655,89.52735 -89.53516,89.52735 -49.58861,0 -89.52734,-39.93874 -89.52734,-89.52735 0,-49.58861 39.93873,-89.53515 89.52734,-89.53515 z" baseline-shift="baseline" clip-rule="nonzero" color="#000" color-interpolation="sRGB" color-interpolation-filters="linearRGB" color-rendering="auto" direction="ltr" display="inline" dominant-baseline="auto" enable-background="accumulate" font-family="sans-serif" font-size="medium" font-stretch="normal" font-style="normal" font-variant="normal" font-weight="normal" image-rendering="auto" letter-spacing="normal" opacity="1" overflow="visible" shape-rendering="auto" text-anchor="start" text-decoration="none" text-rendering="auto" transform="matrix(0.26458333,0,0,0.26458333,237.51775,-254.53851)" vector-effect="none" visibility="visible" word-spacing="normal" writing-mode="lr-tb" style="line-height:normal;font-variant-ligatures:normal;font-variant-position:normal;font-variant-caps:normal;font-variant-numeric:normal;font-variant-alternates:normal;font-feature-settings:normal;text-indent:0;text-align:start;text-decoration-line:none;text-decoration-style:solid;text-decoration-color:#000;text-transform:none;text-orientation:mixed;white-space:normal;shape-padding:0;isolation:auto;mix-blend-mode:normal;solid-color:#000;solid-opacity:1"/><path id="path8574" fill="#27a0f2" fill-opacity="1" fill-rule="nonzero" stroke="none" stroke-dasharray="none" stroke-dashoffset="0" stroke-linecap="round" stroke-linejoin="miter" stroke-miterlimit="4" stroke-opacity="1" stroke-width="6.562" d="m 289.35413,-149.6899 a 3.281328,3.281328 0 0 0 -0.55273,0.0644 c -8.90972,1.68303 -15.8685,8.86144 -17.22851,17.87695 a 3.281328,3.281328 0 1 0 6.48827,0.97852 c 0.94389,-6.25699 5.78011,-11.24139 11.95703,-12.4082 a 3.281328,3.281328 0 0 0 -0.66406,-6.51172 z" baseline-shift="baseline" clip-rule="nonzero" color="#000" color-interpolation="sRGB" color-interpolation-filters="linearRGB" color-rendering="auto" direction="ltr" display="inline" dominant-baseline="auto" enable-background="accumulate" font-family="sans-serif" font-size="medium" font-stretch="normal" font-style="normal" font-variant="normal" font-weight="normal" image-rendering="auto" letter-spacing="normal" opacity="1" overflow="visible" shape-rendering="auto" text-anchor="start" text-decoration="none" text-rendering="auto" vector-effect="none" visibility="visible" word-spacing="normal" writing-mode="lr-tb" style="line-height:normal;font-variant-ligatures:normal;font-variant-position:normal;font-variant-caps:normal;font-variant-numeric:normal;font-variant-alternates:normal;font-feature-settings:normal;text-indent:0;text-align:start;text-decoration-line:none;text-decoration-style:solid;text-decoration-color:#000;text-transform:none;text-orientation:mixed;white-space:normal;shape-padding:0;isolation:auto;mix-blend-mode:normal;solid-color:#000;solid-opacity:1"/></g></g><path font-size="medium" style="line-height:1.25;-inkscape-font-specification:CorporativeSansRd" id="path8580" fill="#3a3a3a" fill-opacity="1" stroke="none" stroke-width="1.484" d="m 257.52928,-144.8309 c 1.36937,0 2.56011,-0.94683 2.56011,-2.54463 0,-1.53861 -1.19074,-2.54462 -2.56011,-2.54462 h -19.8855 c -2.32196,0 -3.63178,1.3019 -3.63178,3.60981 v 36.27576 c 0,1.5386 1.25028,2.84051 2.97687,2.84051 1.78612,0 3.03641,-1.30191 3.03641,-2.84051 v -16.09626 h 15.47973 c 1.36936,0 2.50057,-0.94684 2.50057,-2.48545 0,-1.47943 -1.13121,-2.48545 -2.50057,-2.48545 h -15.47973 v -13.72916 z" font-family="CorporativeSansRd" font-stretch="normal" font-style="normal" font-variant="normal" font-weight="normal" letter-spacing="0" word-spacing="0"/></g></g></g></g></svg>