<svg xmlns="http://www.w3.org/2000/svg" viewBox="0 0 300 300"><defs><style>.a,.b,.c{fill:none;stroke-miterlimit:10}.a,.b{stroke:#06486d}.a{stroke-width:.73px}.b{stroke-width:.37px}.c{stroke:#093d5f;stroke-width:.28px}.d{fill:#006da7}.e{fill:#2f77bb}.f{fill:#139ad6}.g{fill:#03a8d9}.h{fill:#093d5f}</style></defs><title>HAProxy_Logo_Sq</title><line x1="149.5" x2="130.8" y1="88.1" y2="67" class="a"/><line x1="90.6" x2="105.3" y1="71.9" y2="93.1" class="b"/><line x1="149.5" x2="168" y1="88.1" y2="66.9" class="a"/><line x1="171.8" x2="193.9" y1="111.7" y2="93.1" class="a"/><line x1="171.8" x2="193.9" y1="111.7" y2="131" class="a"/><line x1="168.2" x2="149.5" y1="155.2" y2="134.5" class="a"/><line x1="131" x2="149.5" y1="155.2" y2="134.5" class="a"/><line x1="105.3" x2="126.5" y1="130.1" y2="111.6" class="a"/><line x1="105.3" x2="126.5" y1="93.1" y2="111.6" class="a"/><line x1="149.5" x2="105.3" y1="88.1" y2="93.1" class="a"/><line x1="149.5" x2="193.9" y1="88.1" y2="93.1" class="a"/><line x1="171.8" x2="168" y1="111.7" y2="66.9" class="a"/><line x1="171.8" x2="168.2" y1="111.7" y2="155.2" class="a"/><line x1="193.9" x2="149.5" y1="131" y2="134.5" class="a"/><line x1="105.3" x2="149.5" y1="130.1" y2="134.5" class="a"/><line x1="131" x2="126.5" y1="155.2" y2="111.6" class="a"/><line x1="130.8" x2="126.5" y1="67" y2="111.6" class="a"/><line x1="85" x2="105.3" y1="98.8" y2="93.1" class="b"/><line x1="109.6" x2="130.8" y1="51.9" y2="67" class="b"/><line x1="135.7" x2="130.8" y1="42.3" y2="67" class="b"/><line x1="135.7" x2="168" y1="42.3" y2="66.9" class="b"/><line x1="163.2" x2="168" y1="42.3" y2="66.9" class="b"/><line x1="189.3" x2="168" y1="51.9" y2="66.9" class="b"/><line x1="208.3" x2="168" y1="71.9" y2="66.9" class="b"/><line x1="193.9" x2="208.3" y1="93.1" y2="71.9" class="b"/><line x1="193.9" x2="214.5" y1="93.1" y2="98.8" class="b"/><line x1="193.9" x2="214" y1="93.1" y2="124" class="b"/><line x1="163.2" x2="130.8" y1="42.3" y2="67" class="b"/><line x1="193.9" x2="189.3" y1="93.1" y2="51.9" class="b"/><line x1="193.9" x2="214" y1="131" y2="124" class="b"/><line x1="193.9" x2="214.5" y1="131" y2="98.8" class="b"/><line x1="193.9" x2="208.4" y1="131" y2="150.6" class="b"/><line x1="193.9" x2="189.4" y1="131" y2="170.6" class="b"/><line x1="168.2" x2="189.4" y1="155.2" y2="170.6" class="b"/><line x1="168.2" x2="208.4" y1="155.2" y2="150.6" class="b"/><line x1="168.2" x2="163.3" y1="155.2" y2="180.2" class="b"/><line x1="168.2" x2="135.8" y1="155.2" y2="180.2" class="b"/><line x1="131" x2="135.8" y1="155.2" y2="180.2" class="b"/><line x1="131" x2="163.3" y1="155.2" y2="180.2" class="b"/><line x1="131" x2="109.7" y1="155.2" y2="170.6" class="b"/><line x1="131" x2="90.7" y1="155.2" y2="150.8" class="b"/><line x1="105.3" x2="90.7" y1="130.1" y2="150.8" class="b"/><line x1="105.3" x2="109.7" y1="130.1" y2="170.6" class="b"/><line x1="105.3" x2="84.9" y1="130.1" y2="123.7" class="b"/><line x1="105.3" x2="84.9" y1="93.1" y2="123.7" class="b"/><line x1="105.3" x2="85" y1="130.1" y2="98.8" class="b"/><line x1="109.6" x2="105.3" y1="51.9" y2="93.1" class="b"/><line x1="90.6" x2="130.8" y1="71.9" y2="67" class="b"/><line x1="109.6" x2="94" y1="51.9" y2="44.4" class="c"/><line x1="109.6" x2="108.4" y1="51.9" y2="34.7" class="c"/><line x1="135.7" x2="108.4" y1="42.3" y2="34.7" class="c"/><line x1="135.7" x2="124.1" y1="42.3" y2="27.8" class="c"/><line x1="135.7" x2="140.6" y1="42.3" y2="25.1" class="c"/><line x1="109.6" x2="124.1" y1="51.9" y2="27.8" class="c"/><line x1="163.2" x2="140.6" y1="42.3" y2="25.1" class="c"/><line x1="163.2" x2="158.1" y1="42.3" y2="24.4" class="c"/><line x1="135.7" x2="158.1" y1="42.3" y2="24.4" class="c"/><line x1="163.2" x2="174.9" y1="42.3" y2="27.8" class="c"/><line x1="189.3" x2="174.9" y1="51.9" y2="27.8" class="c"/><line x1="189.3" x2="190.9" y1="51.9" y2="34.7" class="c"/><line x1="163.2" x2="190.9" y1="42.3" y2="34.7" class="c"/><line x1="189.3" x2="205.3" y1="51.9" y2="43.6" class="c"/><line x1="189.3" x2="217.2" y1="51.9" y2="56" class="c"/><line x1="208.3" x2="217.2" y1="71.9" y2="56" class="c"/><line x1="208.3" x2="205.3" y1="71.9" y2="43.6" class="c"/><line x1="208.3" x2="226.6" y1="71.9" y2="70.4" class="c"/><line x1="208.3" x2="233.4" y1="71.9" y2="86.1" class="c"/><line x1="214.5" x2="226.6" y1="98.8" y2="70.4" class="c"/><line x1="214.5" x2="233.4" y1="98.8" y2="86.1" class="c"/><line x1="214.5" x2="235.6" y1="98.8" y2="103.1" class="c"/><line x1="214" x2="235.6" y1="124" y2="103.1" class="c"/><line x1="214" x2="236.2" y1="124" y2="119.8" class="c"/><line x1="214.5" x2="236.2" y1="98.8" y2="119.8" class="c"/><line x1="214" x2="232.9" y1="124" y2="136.6" class="c"/><line x1="208.4" x2="232.9" y1="150.6" y2="136.6" class="c"/><line x1="208.4" x2="226.5" y1="150.6" y2="152.4" class="c"/><line x1="214" x2="226.5" y1="124" y2="152.4" class="c"/><line x1="208.4" x2="217" y1="150.6" y2="166.6" class="c"/><line x1="208.4" x2="205.1" y1="150.6" y2="178.7" class="c"/><line x1="205.1" x2="189.4" y1="178.7" y2="170.6" class="c"/><line x1="189.4" x2="190.7" y1="170.6" y2="188.2" class="c"/><line x1="189.4" x2="217" y1="170.6" y2="166.6" class="c"/><line x1="189.4" x2="175" y1="170.6" y2="195.1" class="c"/><line x1="163.3" x2="175" y1="180.2" y2="195.1" class="c"/><line x1="163.3" x2="190.7" y1="180.2" y2="188.2" class="c"/><line x1="163.3" x2="158.2" y1="180.2" y2="198.5" class="c"/><line x1="163.3" x2="140.7" y1="180.2" y2="198.5" class="c"/><line x1="135.8" x2="140.7" y1="180.2" y2="198.5" class="c"/><line x1="135.8" x2="158.2" y1="180.2" y2="198.5" class="c"/><line x1="135.8" x2="124.2" y1="180.2" y2="195.1" class="c"/><line x1="109.7" x2="124.2" y1="170.6" y2="195.1" class="c"/><line x1="135.8" x2="108.3" y1="180.2" y2="188.6" class="c"/><line x1="109.7" x2="108.3" y1="170.6" y2="188.6" class="c"/><line x1="109.7" x2="93.8" y1="170.6" y2="179.3" class="c"/><line x1="90.7" x2="93.8" y1="150.8" y2="179.3" class="c"/><line x1="109.7" x2="81.9" y1="170.6" y2="166.9" class="c"/><line x1="90.7" x2="81.9" y1="150.8" y2="166.9" class="c"/><line x1="90.7" x2="72.5" y1="150.8" y2="152.5" class="c"/><line x1="90.7" x2="65.6" y1="150.8" y2="136.8" class="c"/><line x1="84.9" x2="65.6" y1="123.7" y2="136.8" class="c"/><line x1="84.9" x2="63" y1="123.7" y2="119.8" class="c"/><line x1="84.9" x2="72.5" y1="123.7" y2="152.5" class="c"/><line x1="85" x2="63" y1="98.8" y2="119.8" class="c"/><line x1="84.9" x2="62.9" y1="123.7" y2="103.1" class="c"/><line x1="85" x2="66.2" y1="98.8" y2="86.3" class="c"/><line x1="85" x2="62.9" y1="98.8" y2="103.1" class="c"/><line x1="85" x2="72.6" y1="98.8" y2="70.5" class="c"/><line x1="90.6" x2="72.6" y1="71.9" y2="70.5" class="c"/><line x1="90.6" x2="66.2" y1="71.9" y2="86.3" class="c"/><line x1="90.6" x2="82.1" y1="71.9" y2="56.8" class="c"/><line x1="90.6" x2="94" y1="71.9" y2="44.4" class="c"/><line x1="109.6" x2="82.1" y1="51.9" y2="56.8" class="c"/><rect width="21.3" height="21.34" x="115.8" y="100.9" class="d" transform="translate(14 237.3) rotate(-89.6)"/><rect width="21.3" height="21.34" x="138.9" y="77.4" class="d" transform="translate(60.4 237) rotate(-89.6)"/><rect width="21.3" height="21.34" x="138.9" y="124.1" class="d" transform="translate(13.8 283.3) rotate(-89.6)"/><rect width="21.3" height="21.34" x="162" y="100.9" class="d" transform="translate(59.9 283.5) rotate(-89.6)"/><rect width="14.8" height="14.85" x="160.6" y="59.5" class="e" transform="translate(100 234.5) rotate(-89.6)"/><rect width="14.8" height="14.85" x="123.6" y="59.5" class="e" transform="translate(63.2 197.4) rotate(-89.6)"/><rect width="14.8" height="14.85" x="97.9" y="85.7" class="e" transform="translate(11.5 197.7) rotate(-89.6)"/><rect width="14.8" height="14.85" x="97.9" y="122.7" class="e" transform="translate(-25.5 234.5) rotate(-89.6)"/><rect width="14.8" height="14.85" x="186.4" y="122.7" class="e" transform="translate(62.4 323.1) rotate(-89.6)"/><rect width="14.8" height="14.85" x="186.4" y="85.7" class="e" transform="translate(99.5 286.3) rotate(-89.6)"/><rect width="9.7" height="9.73" x="85.8" y="67" class="f" transform="translate(18.1 162) rotate(-89.6)"/><rect width="9.7" height="9.73" x="104.7" y="47" class="f" transform="translate(57 161.1) rotate(-89.6)"/><rect width="9.7" height="9.73" x="130.9" y="37.4" class="f" transform="translate(92.5 177.8) rotate(-89.6)"/><rect width="9.7" height="9.69" x="80.1" y="94" class="f" transform="translate(-14.5 183.1) rotate(-89.6)"/><rect width="9.7" height="9.73" x="203.5" y="67" class="f" transform="translate(-0.5 1.4) rotate(-0.4)"/><rect width="9.7" height="9.73" x="184.5" y="47" class="f" transform="translate(-0.3 1.3) rotate(-0.4)"/><rect width="9.7" height="9.73" x="158.3" y="37.4" class="f" transform="translate(-0.3 1.1) rotate(-0.4)"/><rect width="9.7" height="9.73" x="209.2" y="93.9" class="f" transform="translate(-0.7 1.5) rotate(-0.4)"/><rect width="14.8" height="14.85" x="123.5" y="148.2" class="e" transform="translate(-25.5 285.5) rotate(-89.6)"/><rect width="14.8" height="14.85" x="160.6" y="148.2" class="e" transform="translate(11.2 322.5) rotate(-89.6)"/><rect width="9.7" height="9.73" x="203.5" y="145.8" class="f" transform="translate(56.3 358) rotate(-89.6)"/><rect width="9.7" height="9.73" x="184.5" y="165.8" class="f" transform="translate(17.5 358.9) rotate(-89.6)"/><rect width="9.7" height="9.73" x="158.4" y="175.3" class="f" transform="translate(-18 342.2) rotate(-89.6)"/><rect width="9.7" height="9.69" x="209.2" y="118.8" class="f" transform="translate(88.9 336.9) rotate(-89.6)"/><rect width="9.7" height="9.73" x="85.8" y="145.8" class="f" transform="translate(-1 0.6) rotate(-0.4)"/><rect width="9.7" height="9.73" x="104.8" y="165.8" class="f" transform="translate(-1.2 0.7) rotate(-0.4)"/><rect width="9.7" height="9.73" x="130.9" y="175.3" class="f" transform="translate(-1.2 0.9) rotate(-0.4)"/><rect width="9.7" height="9.73" x="80.1" y="118.8" class="f" transform="translate(-0.8 0.6) rotate(-0.4)"/><rect width="5.3" height="5.34" x="91.3" y="41.6" class="g" transform="translate(49.1 137.9) rotate(-89.6)"/><rect width="5.3" height="5.34" x="60.3" y="100.4" class="g" transform="translate(-40.5 165.4) rotate(-89.6)"/><rect width="5.3" height="5.34" x="63.5" y="83.6" class="g" transform="translate(-20.6 151.9) rotate(-89.6)"/><rect width="5.3" height="5.34" x="121.4" y="25.1" class="g" transform="translate(95.5 151.7) rotate(-89.6)"/><rect width="5.3" height="5.34" x="69.9" y="67.8" class="g" transform="translate(1.6 142.6) rotate(-89.6)"/><rect width="5.3" height="5.34" x="79.4" y="53.6" class="g" transform="translate(25.3 138) rotate(-89.6)"/><rect width="5.3" height="5.34" x="105.8" y="32" class="g" transform="translate(-0.2 0.7) rotate(-0.4)"/><rect width="5.3" height="5.34" x="138.3" y="21.8" class="g" transform="translate(-0.2 1) rotate(-0.4)"/><rect width="5.3" height="5.34" x="223.9" y="67.8" class="g" transform="translate(154.6 296.6) rotate(-89.6)"/><rect width="5.3" height="5.34" x="230.8" y="83.7" class="g" transform="translate(145.6 319.2) rotate(-89.6)"/><rect width="5.3" height="5.34" x="214.5" y="53.6" class="g" transform="translate(159.4 273.1) rotate(-89.6)"/><rect width="5.3" height="5.34" x="233.5" y="100.4" class="g" transform="translate(131.5 338.5) rotate(-89.6)"/><rect width="5.3" height="5.34" x="155.4" y="21.8" class="g" transform="translate(132.6 182.4) rotate(-89.6)"/><rect width="5.3" height="5.34" x="172.3" y="25.1" class="g" transform="translate(146 202.5) rotate(-89.6)"/><rect width="5.3" height="5.34" x="91.3" y="41.6" class="g" transform="translate(49.1 137.9) rotate(-89.6)"/><rect width="5.3" height="5.34" x="60.3" y="100.4" class="g" transform="translate(-40.5 165.4) rotate(-89.6)"/><rect width="5.3" height="5.34" x="202.7" y="41.6" class="g" transform="translate(159.7 249.3) rotate(-89.6)"/><rect width="5.3" height="5.34" x="63.5" y="83.6" class="g" transform="translate(-20.6 151.9) rotate(-89.6)"/><rect width="5.3" height="5.34" x="121.4" y="25.1" class="g" transform="translate(95.5 151.7) rotate(-89.6)"/><rect width="5.3" height="5.34" x="69.9" y="67.8" class="g" transform="translate(1.6 142.6) rotate(-89.6)"/><rect width="5.3" height="5.34" x="79.4" y="53.6" class="g" transform="translate(25.3 138) rotate(-89.6)"/><rect width="5.3" height="5.34" x="105.8" y="32" class="g" transform="translate(-0.2 0.7) rotate(-0.4)"/><rect width="5.3" height="5.34" x="138.3" y="21.8" class="g" transform="translate(-0.2 1) rotate(-0.4)"/><rect width="5.3" height="5.34" x="188.2" y="32" class="g" transform="translate(154.9 225.3) rotate(-89.6)"/><rect width="5.3" height="5.34" x="233.5" y="100.4" class="g" transform="translate(131.5 338.5) rotate(-89.6)"/><rect width="5.3" height="5.34" x="155.4" y="21.8" class="g" transform="translate(132.6 182.4) rotate(-89.6)"/><rect width="5.3" height="5.34" x="172.3" y="25.1" class="g" transform="translate(146 202.5) rotate(-89.6)"/><rect width="5.3" height="5.34" x="202.7" y="176" class="g" transform="translate(25.3 382.8) rotate(-89.6)"/><rect width="5.3" height="5.34" x="233.4" y="117.2" class="g" transform="translate(114.7 355.1) rotate(-89.6)"/><rect width="5.3" height="5.34" x="91.3" y="176" class="g" transform="translate(-85.3 271.5) rotate(-89.6)"/><rect width="5.3" height="5.34" x="230.8" y="134.1" class="g" transform="translate(95 369.3) rotate(-89.6)"/><rect width="5.3" height="5.34" x="172.3" y="192.5" class="g" transform="matrix(0.01, -1, 1, 0.01, -21.33, 368.83)"/><rect width="5.3" height="5.34" x="223.8" y="149.9" class="g" transform="translate(72.4 378) rotate(-89.6)"/><rect width="5.3" height="5.34" x="214.6" y="164.2" class="g" transform="translate(48.9 383) rotate(-89.6)"/><rect width="5.3" height="5.34" x="188.2" y="186" class="g" transform="translate(-1.3 1.3) rotate(-0.4)"/><rect width="5.3" height="5.34" x="155.5" y="195.8" class="g" transform="translate(-1.3 1.1) rotate(-0.4)"/><rect width="5.3" height="5.34" x="105.8" y="186" class="g" transform="translate(-80.9 295.8) rotate(-89.6)"/><rect width="5.3" height="5.34" x="69.8" y="149.8" class="g" transform="translate(-80.5 224) rotate(-89.6)"/><rect width="5.3" height="5.34" x="63.5" y="134.1" class="g" transform="translate(-71.1 202) rotate(-89.6)"/><rect width="5.3" height="5.34" x="79.5" y="164.2" class="g" transform="translate(-85.3 247.9) rotate(-89.6)"/><rect width="5.3" height="5.34" x="60.3" y="117.2" class="g" transform="translate(-57.3 182) rotate(-89.6)"/><rect width="5.3" height="5.34" x="138.3" y="195.8" class="g" transform="translate(-58.4 338.1) rotate(-89.6)"/><rect width="5.3" height="5.34" x="121.5" y="192.4" class="g" transform="translate(-71.8 318) rotate(-89.6)"/><path d="M35.3,275V259.1H16V275H8.6V235.8H16v16.5H35.3V235.8h7.3V275Z" class="f"/><path d="M80,267.5H59.5l-3.4,7.4h-8l17.6-39.2h8.1l17.6,39.2H83.3ZM69.8,244l-7.3,16.7H77Z" class="d"/><path d="M115.7,263.4H104.6v11.5H97.2V235.7h18.5C134.9,235.7,134.9,263.4,115.7,263.4Zm-11.1-6.8h11.1c9.5,0,9.4-13.9,0-13.9H104.6Z" class="h"/><path d="M170.8,274.9H162l-11.4-13.1h-7.1v13.1h-7.4V235.7h18.7c9.2.1,14.1,6.2,14.1,13s-2.5,10.8-9.9,12.3l11.9,13.4Zm-27.3-32.3v12.6h11.3c4.7,0,6.7-3.1,6.7-6.3s-2.1-6.3-6.7-6.3Z" class="h"/><path d="M213.3,255.6c-.1,10.1-6.3,20.3-20.1,20.3S173,265.9,173,255.6s6.6-20.7,20.2-20.7S213.4,245.3,213.3,255.6Zm-33,.2c.2,6.4,3.6,13.3,12.9,13.3s12.7-6.9,12.8-13.4-3.6-14-12.8-14S180.1,249.1,180.3,255.7Z" class="h"/><path d="M241,235.7h8.1v.3l-13.3,19.1,13.7,19.6v.2h-8.3l-10-14.7-10,14.7h-8.3v-.2l13.6-19.6-13.2-19.1v-.3h8.1l9.8,14.6Z" class="h"/><path d="M271.7,251.9l10.4-16.2H291v.3l-15.6,22.7v16.2H268V258.7l-15.1-22.7v-.3h8.8Z" class="h"/></svg>