<svg xmlns="http://www.w3.org/2000/svg" xmlns:xlink="http://www.w3.org/1999/xlink" id="Layer_1" x="0" y="0" enable-background="new 0 0 421.5 417" version="1.1" viewBox="0 0 421.5 417" xml:space="preserve"><style type="text/css">.st1{fill:#fefefe}.st46{fill:#fcfcfc}.st79{fill:#fbfbfb}.st196{fill:#fdfdfd}.st555{fill:#00992c}.st556{fill:#1ba442}.st557{fill:#f9f9f9}.st558{fill:#f8f8f8}.st559{fill:#f7f7f7}.st560{fill:#f6f6f6}.st561{fill:#f1f1f1}.st562{fill:#f4f4f4}.st563{fill:#f5f5f5}.st564{fill:#eee}.st565{fill:#efefef}.st566{fill:#fafafa}.st567{fill:#f0f0f0}.st568{fill:#e3e3e3}.st569{fill:#019a2d}.st570{fill:#029a2d}.st571{fill:#019a2c}</style><g><path d="M9.9,357c7.6,27.3,25.1,44.6,52.2,52.2v0c12.2,0,24.3-0.1,36.5-0.1c73.8,0,147.5,0,221.3,0 c12.6,0,25.3,0.8,37.8-0.8c0,0,0,0,0,0c0,0,0,0,0,0c26.2-4.4,51-30.7,53.7-57.1c0.2-1.6,0.7-2.4,1.9-3.1c0-47,0-94,0-141 c-135,0-270,0-405,0c0,49,0,98,0,147C9.8,354.5,9.6,355.9,9.9,357z M249.7,270.7c1.3-13.8,8.8-20.9,22.7-21.6c1.3-0.1,2.7-0.1,4,0 c20.2,0,30.1,13.2,24.5,32.8c-1.6,5.8-4.8,10.6-9.1,14.7c-4.8,4.6-9.7,9.1-14.5,13.7c-3,2.9-5.4,6.2-7,10.8 c10.1,0,19.4,0.1,28.8-0.1c2.8,0,3.6,0.8,3.6,3.6c0.1,9.7,0.2,9.7-9.5,9.7c-13,0-26-0.1-39,0.1c-3.5,0-4.8-0.4-4.4-4.6 c1-11.2,6.2-20.2,13.8-28.1c4.5-4.7,9.3-9.1,14.1-13.4c6.6-5.9,7.5-13.4,6.4-21.5c-0.6-3.9-3.1-6.2-7.1-6.6c-3.8-0.3-6.9,1-8.6,4.6 c-1.3,2.6-1.9,5.5-1.7,8.2c0.2,3.7-1.6,4.1-4.5,3.9c-2.3-0.2-4.7,0-7,0C249.1,276.9,249.1,276.9,249.7,270.7z M189.2,248.2 c12,0.4,24-1.2,35.9,0.9c9.8,1.8,14.5,7.4,15.8,17.9c1.2,10-2.7,17.6-11.3,21.6c0.2,0.2,0.4,0.6,0.6,0.7 c12.3,6.7,15.7,14.5,12.4,28.3c-2.5,10.4-11.2,16.5-23.7,16.7c-9.5,0.1-19,0-28.5,0.1c-2.6,0-3.4-0.7-3.4-3.3 c0.1-26.5,0-52.9,0.1-79.4C187.1,250.2,186.5,248.1,189.2,248.2z M124.8,248.1c7.5,0.3,15,0.1,22.5,0.1c16.6,0,25.5,7.3,27.9,23.7 c2,13.4,1.9,26.9-0.6,40.2c-2.9,15.1-11.3,22.1-26.6,22.2c-8.3,0.1-16.6-0.1-25,0.1c-3.1,0.1-4-0.8-3.9-3.9 c0.2-13.1,0.1-26.3,0.1-39.4c0-12.5,0.3-25-0.1-37.4C118.8,248.9,120.4,247.9,124.8,248.1z" class="st555"/><path d="M16,205.5c18.3,0,36.6,0,55,0c110.8,0,221.5,0,332.3,0c3.4,0,7.1-0.8,10.1,1.6c0-46.7,0-93.3,0-140 c-0.6-1.1-1.7-2.1-1.9-3.3c-5.3-31-23.7-49.8-53.6-58c-0.2-0.1-0.3-0.5-0.5-0.8c-97.3,0-194.7,0-292,0c-0.8,1.7-2.6,1.3-3.9,1.7 C34.8,14.4,17.7,31.6,10,58.2c-0.4,1.3,0,3.1-1.7,3.9c0,48.3,0,96.7,0,145C10.6,205.2,13.3,205.5,16,205.5z M131.6,176.7 c-0.1,2.2,0.6,4.6-3.3,4.4c-7.1-0.3-14.3-0.1-21.5-0.1c-7.3,0-14.7-0.2-22,0.1c-3.6,0.1-3.6-1.5-3.6-4.2c0-2.6,0-4.2,3.5-4.2 c14.5,0.2,29,0.2,43.4,0C131.5,172.8,131.7,174.3,131.6,176.7z M192.4,181c-17,0.2-33.9,0-50.9,0.1c-3,0-3.8-1-3.5-3.7 c0.3-2-1-4.6,3.1-4.6c22.8,0.2,45.5,0.1,69.5,0.1C204.9,178.5,199,180.9,192.4,181z M217.9,158.9c-0.2,2.6,0,6.4-4.2,6.8 c-0.8,0.1-1.7,0-2.5,0c-22.8,0-45.6,0-68.3,0c-2.9,0-4.9,0.2-4.9-4c0-4.1,1.5-4.5,4.9-4.5c11.8,0.2,23.6,0.1,35.4,0.1 c11.8,0,23.6-0.1,35.4,0.1C215.2,157.5,218.2,156.2,217.9,158.9z M174.2,101.4c0.2,2,0.4,4.1-2.8,3.8c-2.6-0.2-5.3,0-8,0 c-2,0-4,0-6,0c-4.8,0-6.2-2.1-5-6.7c0.4-1.7,1.5-1.5,2.6-1.5c5.5,0,11,0.1,16.4-0.1C175.4,96.8,174,99.5,174.2,101.4z M174.5,146.7 c0.1,2.2,0.4,4.4-3.1,4.1c-2.6-0.2-5.3,0-7.9,0c-2,0-4-0.3-5.9,0.1c-4.9,0.9-5.5-1.7-5.2-5.6c0.2-2.1,0.8-2.9,2.9-2.9 c5.5,0.1,10.9,0.2,16.4,0C175.4,142.3,174.4,144.8,174.5,146.7z M155.5,135.4c-3.5,0-3-2-3-4.2c0-2.2-0.4-4.2,3.1-4.1 c16.8,0.2,33.6,0.1,50.3,0.1c5,0,5.7,4.8,7.9,8.2C194.4,135.4,174.9,135.3,155.5,135.4z M202.3,120.3c-15.1-0.6-30.3-0.3-45.4-0.1 c-3.3,0-4.6-0.5-4.6-4.2c0.1-3.4,1.1-4.1,4.3-4c18.9,0.1,37.9,0.1,57.6,0.1C211.6,117.5,208.7,120.5,202.3,120.3z M257.2,181.1 c-9.8-0.2-19.6-0.2-29.4,0c-3.6,0.1-3-2.1-3-4.2c0-2.2-0.4-4.3,3.1-4.1c4.8,0.3,9.6,0.1,14.5,0.1c5,0,10,0.2,15-0.1 c3.7-0.2,2.9,2.2,3,4.2C260.3,179.2,260.8,181.2,257.2,181.1z M260.3,148c-0.1,2.1-0.8,2.9-2.9,2.8c-4.6-0.1-9.3-0.2-13.9,0 c-3.1,0.1-4.8-0.2-4.7-4.1c0.1-3.5,1.1-4.7,4.5-4.3c2.1,0.2,4.3,0,6.4,0c1.8,0,3.7,0.3,5.4-0.1C260.2,141.5,260.6,144.2,260.3,148z M257.5,135.4c-2.7-0.2-5.3,0-8,0c-1.8,0-3.7-0.3-5.5,0.1c-4.9,0.9-5.4-1.6-5.2-5.6c0.2-2.3,1-2.7,3.1-2.7c5.2,0.1,10.3,0.2,15.5,0 c3.3-0.2,3,1.9,2.8,3.8C260.1,132.8,261.4,135.6,257.5,135.4z M282.1,180.9c-1.4-2.5-3-5-2.1-7.7c0.2-0.5,3.7-0.7,4-0.1 C285.7,175.9,283.1,178.2,282.1,180.9z M283.4,165.8c-2.9-0.5-6.6,1.7-8-3.3c-1.1-3.9-1.1-5.9,3.7-5.1c1,0.2,2,0,3,0 c0.7,0,1.4-0.2,2,0c1.8,0.7,5.4-1.9,5.2,1.9C289,162.3,288.9,166.8,283.4,165.8z M294.1,144.2c-0.3,2.6,0,7.1-5.3,6.7 c-4.6-0.3-9.3-0.1-14-0.1c-1.5,0-2.7,0-3.6-1.8c-2.8-5.8-2.4-6.5,4-6.5c2.3,0,4.7,0,7,0c2.3,0,4.7-0.3,7,0.1 C291,142.8,294.4,140.8,294.1,144.2z M290.7,135.4c-5.7,0-11.3,0-17,0c-7.3,0-7.3,0-8.9-8c11.4,0,22.9,0,34.3,0 C298.1,135.4,298.1,135.4,290.7,135.4z M306.6,127.2c2.6,0.1,5.3,0,8,0c1.8,0,3.7,0.3,5.5-0.1c4.8-0.9,5.5,1.5,5.2,5.6 c-0.2,2.3-1.1,2.7-3,2.7c-5.1-0.1-10.3-0.2-15.4,0c-3.2,0.1-3-1.8-2.8-3.8C304.1,129.8,302.7,127,306.6,127.2z M303.8,144.2 c0.5-1.8,1.7-1.8,3-1.8c5.1,0,10.3,0.2,15.4-0.1c3.5-0.1,3,2.1,3,4.2c0,2,0.7,4.5-2.9,4.3c-2.6-0.2-5.3,0-7.9,0c-1.8,0-3.6,0-5.5,0 C304,150.8,302.6,148.9,303.8,144.2z M336.4,181.1c-9.8-0.2-19.6-0.2-29.4,0c-3.7,0.1-3.1-2-3.1-4.1c0-2-0.7-4.4,2.9-4.2 c5,0.3,10,0.1,15,0.1c4.8,0,9.7,0.2,14.5-0.1c3.6-0.2,3.1,2,3,4.1C339.2,178.9,340.1,181.2,336.4,181.1z M336.1,165.8 c-4.8-0.3-9.6-0.1-14.4-0.1c-4.8,0-9.6-0.2-14.4,0.1c-3.8,0.2-3.3-2.1-3.4-4.5c-0.1-2.4,0-4.1,3.3-4c9.6,0.2,19.3,0.2,28.9,0 c3.9-0.1,3.2,2.2,3.2,4.5C339.4,164.1,339.5,166,336.1,165.8z M297,72.9c0.4-2.3,0-6.5,3.8-6.6c12.1-0.3,24.3-0.2,36.4,0 c3.7,0,1.6,3.2,2,5c0.5,2.1-0.2,3.3-2.8,3.3c-6.3-0.2-12.6-0.1-19-0.1c-5.5,0-11,0.1-16.5-0.1C299.6,74.3,296.6,75.8,297,72.9z M292.1,88.5c0.4-2.5-0.4-6.9,4.6-6.9c6,0,12,0,17.9,0c7.1,0,14.3,0.2,21.4-0.1c3.2-0.1,3.5,1.5,3.3,3.9c-0.2,2.2,0.8,4.7-3.2,4.5 c-7-0.3-14-0.1-20.9-0.1c-6.3,0-12.6,0.1-18.9-0.1C294.8,89.8,291.7,91.1,292.1,88.5z M295.8,96.9c8.8,0,17.7,0.1,26.5,0 c3.2-0.1,3.1,1.7,2.9,3.8c-0.2,1.9,1.2,4.5-2.7,4.5c-11.8-0.1-23.6,0-35.5,0C288.4,96.9,288.4,96.9,295.8,96.9z M282.2,118.6 c0.3-8.4,6.2-6.6,11.1-6.6c9.3-0.1,18.7,0.2,28-0.1c3.7-0.1,3.7,1.6,3.9,4.4c0.2,3.2-0.9,4-3.9,3.8c-4.8-0.2-9.7-0.2-14.5,0 c-2.4,0.1-3.3-0.7-3.2-3.5c-0.9,3.7-3.3,3.5-5.8,3.4c-10.7-0.1-21.3-0.1-32,0c-2.5,0-4.9,0.1-5-3.9c-0.1,3.2-1.4,4-4,3.9 c-4.8-0.2-9.7-0.3-14.5,0c-3.1,0.2-3.7-1.1-3.4-3.7c0.2-2.1-0.9-4.6,3.2-4.5c11.5,0.2,23,0.3,34.5,0 C281.4,111.8,279.8,116.1,282.2,118.6z M276.7,105.1c-11.8,0-23.6-0.1-35.3,0c-3.6,0-2.3-2.5-2.4-4.1c0-1.7-1.1-4.1,2.4-4.1 c10.3,0.1,20.6,0,30.9,0.1C275.1,97,275.4,97.7,276.7,105.1z M224.8,69.9c-0.2-2.1-0.2-3.8,2.9-3.8c11.5,0.2,23-0.1,34.4,0.1 c5.3,0.1,3.2,5.1,5.3,8.2c-13.8,0-26.9,0-40,0C223.6,74.5,224.9,71.8,224.8,69.9z M224.7,86.1c0.2-2.2-0.7-4.6,3.2-4.6 c13,0.2,26,0,38.9,0.1c2.3,0,6,5.9,4.9,7.7c-0.8,1.2-2.1,0.6-3.2,0.6c-6.8,0.1-13.6,0-20.5,0c-6.7,0-13.3-0.2-20,0.1 C225,90.1,224.5,88.7,224.7,86.1z M228,157.3c9.8,0.2,19.6,0.2,29.3,0c3.7-0.1,2.9,2.3,2.9,4.3c0,2.1,0.6,4.4-3,4.2 c-5-0.2-9.9-0.1-14.9-0.1c-4.8,0-9.6-0.2-14.4,0.1c-3.9,0.2-3.2-2.3-3.3-4.5C224.6,158.9,224.8,157.3,228,157.3z M215.7,150.9 c-2.6,0-5.3,0-7.9,0c-2.1,0-4.4-0.3-6.4,0.1c-5.3,1-5.5-2.1-5.2-6c0.1-1.9,0.8-2.6,2.7-2.6c5.6,0.1,11.2,0,16.9,0.1 c4.2,0,3,3.6,3.5,5.9C219.8,151.3,217.5,150.9,215.7,150.9z M218.6,99.5c-0.3,2.9,0.3,6.1-4.6,5.7c-4.9-0.4-9.9-0.3-14.9,0 c-3.6,0.2-3.4-1.8-3.5-4.2c-0.1-2.8,0.3-4.4,3.7-4.1c2.6,0.3,5.3,0.1,7.9,0.1c2.3,0,4.7-0.2,6.9,0.1 C215.9,97.2,219,95.4,218.6,99.5z M218,88.3c-0.3,2.5-2.2,1.6-3.5,1.6c-12.2,0.1-24.3,0-36.5,0c-12,0-24-0.1-36,0.1 c-3.5,0.1-4-1.2-4.1-4.3c-0.1-3.2,0.8-4.2,4.2-4.2c23.3,0.1,46.6,0.1,69.9,0.1C215.7,81.6,218.4,84.7,218,88.3z M142.2,66.1 c16.3,0.2,32.6,0,48.9,0.1c6.9,0,12.9,2.6,18.3,7.4c-1.4,1.3-2.6,0.8-3.6,0.8c-21.1,0-42.2-0.1-63.3,0.1c-3.4,0-4.5-0.7-4.5-4.3 C138,66.8,139,66.1,142.2,66.1z M84.2,66.1c14.8,0.2,29.5,0.2,44.3,0c4.1-0.1,2.9,2.5,3.1,4.6c0.3,2.6-0.3,3.9-3.4,3.8 c-7.3-0.2-14.6-0.1-21.9-0.1c-7.3,0-14.6-0.2-21.9,0.1c-3.5,0.1-3.1-1.9-3-4.1C81.5,68.5,80.4,66.1,84.2,66.1z M84.8,81.5 c14.5,0.2,29,0.2,43.5,0c3.8-0.1,3.2,2.2,3.3,4.5c0.1,2.4,0,4.1-3.3,4c-7.5-0.2-15-0.1-22.5-0.1c-7,0-14-0.2-21,0.1 c-3.6,0.2-3.5-1.7-3.5-4.2C81.3,83.2,81.2,81.4,84.8,81.5z M114.2,150.9c-2.6-0.2-5.3,0-7.9,0c-2.1,0-4.3,0-6.4,0 c-4,0-6-3.3-4.4-7.2c0.6-1.5,1.8-1.2,2.9-1.2c5.3,0,10.6,0.1,15.9-0.1c3.6-0.1,3,2.2,3,4.3C117.1,148.7,117.8,151.1,114.2,150.9z M117.1,101.1c0.1,2.3,0.3,4.4-3.1,4c-2.6-0.3-5.3-0.1-8-0.1c-1.8,0-3.7-0.3-5.5,0.1c-4.6,0.8-5.7-1.3-5.3-5.4 c0.2-2.2,0.9-2.8,2.9-2.8c5.3,0.1,10.6,0.2,15.9,0C117.7,96.8,117,99.1,117.1,101.1z M117.1,116.4c0.2,2,0.4,4.1-2.8,3.8 c-2.6-0.2-5.3,0-8,0c-2,0-4-0.3-6,0.1c-5.1,1-5.2-2-5-5.7c0.1-2,0.7-2.6,2.6-2.6c5.5,0.1,11,0.1,16.4,0 C118.2,111.8,116.9,114.5,117.1,116.4z M117.2,132.8c-0.1,1.9-0.8,2.6-2.6,2.6c-5.5-0.1-10.9-0.1-16.4,0c-3.8,0.1-2.6-2.5-2.7-4.4 c-0.1-2-0.5-4.1,2.8-3.8c2.6,0.2,5.3,0,8,0c2,0,4,0.3,6-0.1C117.2,126.2,117.4,129,117.2,132.8z M81.3,161.6c0-2.5-0.2-4.3,3.5-4.3 c14.5,0.2,29,0.2,43.5,0c3.8-0.1,3.3,2.1,3.3,4.5c0.1,2.4,0.1,4.1-3.3,4c-7.3-0.2-14.6-0.1-22-0.1c-7.2,0-14.3-0.2-21.5,0.1 C81.3,166,81.3,164.2,81.3,161.6z"/><path d="M403.2,205.5c-110.8,0-221.5,0-332.3,0c-18.3,0-36.6,0-55,0c-2.6,0-5.4-0.3-7.6,1.6c135,0,270,0,405,0 C410.3,204.7,406.6,205.5,403.2,205.5z"/><path d="M355.3,409.2c-2.4,0.5-4.8,0.4-7.2,0.4c-94.6,0-189.3,0-283.9,0c-0.6,0-1.1-0.1-1.7-0.1c0,0.1,0.1,0.1,0,0.2 c-0.1,0.3-0.2,0.4-0.3,0.4c97.7,0,195.3,0,293,0C355.3,409.7,355.3,409.4,355.3,409.2z" class="st556"/><path d="M357.7,408.3C357.7,408.3,357.7,408.3,357.7,408.3c-12.6,1.6-25.2,0.8-37.8,0.8c-73.8,0.1-147.5,0-221.3,0 c-12.2,0-24.3,0.1-36.5,0.1v0c0.3,0.1,0.4,0.2,0.5,0.3c0.6,0,1.1,0.1,1.7,0.1c94.6,0,189.3,0,283.9,0c2.4,0,4.8,0.1,7.2-0.4 C355.6,408.3,357.1,408.8,357.7,408.3z" class="st556"/><path d="M355.7,409.1c-0.1,0-0.2,0-0.3,0.1c-0.1,0.2-0.1,0.5,0,0.9c0.4-0.3,0.9-0.6,1.3-1 C356.3,409.1,356,409.1,355.7,409.1z" class="st556"/><path d="M355.3,409.2c0.1,0,0.2,0,0.3-0.1c0.3,0,0.6,0,0.9,0c0.4-0.3,0.7-0.6,1.1-0.8 C357.1,408.8,355.6,408.3,355.3,409.2z" class="st556"/><path d="M62.6,409.7c0-0.1,0-0.2,0-0.2c-0.2,0-0.3,0-0.5,0c0,0.2,0.1,0.4,0.2,0.6C62.4,410.1,62.5,410,62.6,409.7z" class="st556"/><path d="M62.1,409.5c0.2,0,0.3,0,0.5,0c-0.1-0.1-0.2-0.2-0.5-0.3C62.1,409.3,62.1,409.4,62.1,409.5z" class="st556"/><path d="M190.4,334.4c9.5-0.1,19,0,28.5-0.1c12.5-0.1,21.2-6.3,23.7-16.7c3.3-13.8-0.1-21.6-12.4-28.3 c-0.3-0.1-0.4-0.5-0.6-0.7c8.6-4.1,12.6-11.7,11.3-21.6c-1.3-10.5-6-16.1-15.8-17.9c-11.9-2.1-23.9-0.5-35.9-0.9 c-2.8-0.1-2.2,2-2.2,3.5c0,26.5,0,52.9-0.1,79.4C187,333.7,187.9,334.4,190.4,334.4z M225.3,307.9c0.4,10-9.6,17.3-19.2,14 c-1.5-0.5-1.5-1.6-1.5-2.7c0-6.8-0.1-13.7,0-20.5c0.1-5.3,4.5-1.4,5.7-2.9C220.7,295.9,224.9,299.5,225.3,307.9z M209.5,261 c10.8,0.2,14.4,3.7,13.8,12.8c-0.5,7.2-10.9,13.1-17.5,10c-1.5-0.7-1.1-1.9-1.2-3c0-4.7,0.2-9.3-0.1-14 C204.3,262.4,205,259.4,209.5,261z" class="st1"/><path d="M119.1,291.1c0,13.1,0.1,26.3-0.1,39.4c0,3.1,0.8,4,3.9,3.9c8.3-0.2,16.6,0,25-0.1 c15.3-0.1,23.8-7.1,26.6-22.2c2.5-13.4,2.6-26.8,0.6-40.2c-2.4-16.4-11.2-23.7-27.9-23.7c-7.5,0-15,0.2-22.5-0.1 c-4.4-0.2-6,0.8-5.8,5.6C119.3,266.1,119.1,278.6,119.1,291.1z M140.8,260.9c11.5,0,15.6,2.7,17,13.7c1.5,11.7,1.7,23.6-0.4,35.3 c-1.7,9.7-9.4,14.3-18.9,12c-2.6-0.6-1.8-2.4-1.8-3.9c-0.1-9,0-18,0-27c0-8.7,0.2-17.3-0.1-26C136.4,261.6,137.6,260.9,140.8,260.9 z" class="st1"/><path d="M255.1,276.9c2.3,0,4.7-0.1,7,0c2.9,0.2,4.7-0.2,4.5-3.9c-0.2-2.8,0.5-5.6,1.7-8.2c1.8-3.6,4.9-4.9,8.6-4.6 c4,0.3,6.5,2.7,7.1,6.6c1.2,8.1,0.2,15.6-6.4,21.5c-4.8,4.3-9.6,8.8-14.1,13.4c-7.6,7.8-12.8,16.8-13.8,28.1 c-0.4,4.2,0.9,4.6,4.4,4.6c13-0.2,26-0.1,39-0.1c9.7,0,9.6,0,9.5-9.7c0-2.8-0.8-3.7-3.6-3.6c-9.3,0.2-18.6,0.1-28.8,0.1 c1.6-4.6,4-7.9,7-10.8c4.8-4.6,9.7-9.1,14.5-13.7c4.3-4.1,7.4-8.9,9.1-14.7c5.5-19.6-4.3-32.8-24.5-32.8c-1.3,0-2.7,0-4,0 c-13.9,0.7-21.4,7.8-22.7,21.6C249.1,276.9,249.1,276.9,255.1,276.9z" class="st1"/><path d="M213.7,157.5c-11.8-0.1-23.6-0.1-35.4-0.1c-11.8,0-23.6,0.1-35.4-0.1c-3.4-0.1-4.9,0.4-4.9,4.5 c0,4.2,2,4,4.9,4c22.8-0.1,45.6,0,68.3,0c0.8,0,1.7,0.1,2.5,0c4.3-0.4,4-4.3,4.2-6.8C218.2,156.2,215.2,157.5,213.7,157.5z" class="st557"/><path d="M142.2,81.5c-3.3,0-4.2,1-4.2,4.2c0,3.1,0.6,4.3,4.1,4.3c12-0.2,24-0.1,36-0.1c12.2,0,24.3,0,36.5,0 c1.3,0,3.2,0.9,3.5-1.6c0.4-3.5-2.3-6.7-5.9-6.7C188.8,81.6,165.5,81.6,142.2,81.5z" class="st557"/><path d="M242.1,111.9c-4-0.1-2.9,2.4-3.2,4.5c-0.3,2.6,0.3,3.9,3.4,3.7c4.8-0.3,9.7-0.2,14.5,0c2.6,0.1,3.9-0.7,4-3.9 c0.1,4,2.4,3.9,5,3.9c10.7-0.1,21.3-0.1,32,0c2.5,0,5,0.3,5.8-3.4c-0.1,2.8,0.9,3.6,3.2,3.5c4.8-0.2,9.7-0.2,14.5,0 c3,0.2,4.1-0.7,3.9-3.8c-0.1-2.8-0.1-4.6-3.9-4.4c-9.3,0.3-18.7,0.1-28,0.1c-4.9,0-10.9-1.8-11.1,6.6c-2.5-2.4-0.8-6.8-5.7-6.7 C265.1,112.1,253.6,112.1,242.1,111.9z" class="st46"/><path d="M141.1,172.8c-4.1,0-2.8,2.5-3.1,4.6c-0.4,2.7,0.5,3.7,3.5,3.7c17-0.1,33.9,0,50.9-0.1 c6.6-0.1,12.5-2.5,18.3-8.1C186.7,172.9,163.9,173,141.1,172.8z" class="st196"/><path d="M142.4,74.5c21.1-0.2,42.2-0.1,63.3-0.1c1.1,0,2.3,0.4,3.6-0.8c-5.4-4.8-11.4-7.3-18.3-7.4 c-16.3-0.1-32.6,0.1-48.9-0.1c-3.2,0-4.2,0.7-4.3,4.1C137.9,73.8,139,74.6,142.4,74.5z" class="st196"/><path d="M156.6,111.9c-3.2,0-4.2,0.7-4.3,4c-0.1,3.7,1.3,4.3,4.6,4.2c15.1-0.2,30.3-0.4,45.4,0.1 c6.4,0.2,9.3-2.7,11.9-8.3C194.5,112,175.6,112,156.6,111.9z" class="st46"/><path d="M213.8,135.4c-2.3-3.4-2.9-8.2-7.9-8.2c-16.8,0-33.6,0.1-50.3-0.1c-3.5,0-3.1,2-3.1,4.1c0,2.1-0.5,4.2,3,4.2 C174.9,135.3,194.4,135.4,213.8,135.4z" class="st46"/><path d="M84.9,165.8c7.1-0.3,14.3-0.1,21.5-0.1c7.3,0,14.7-0.2,22,0.1c3.3,0.1,3.4-1.6,3.3-4 c-0.1-2.3,0.5-4.5-3.3-4.5c-14.5,0.2-29,0.2-43.5,0c-3.7-0.1-3.5,1.8-3.5,4.3C81.3,164.2,81.3,166,84.9,165.8z" class="st558"/><path d="M84.8,90c7-0.3,14-0.1,21-0.1c7.5,0,15-0.2,22.5,0.1c3.3,0.1,3.4-1.5,3.3-4c-0.1-2.3,0.5-4.5-3.3-4.5 c-14.5,0.2-29,0.2-43.5,0c-3.6-0.1-3.5,1.7-3.5,4.2C81.3,88.3,81.2,90.1,84.8,90z" class="st558"/><path d="M296.3,89.8c6.3,0.2,12.6,0.1,18.9,0.1c7,0,14-0.2,20.9,0.1c4,0.2,3-2.3,3.2-4.5c0.2-2.4,0-4-3.3-3.9 c-7.1,0.2-14.3,0.1-21.4,0.1c-6,0-12,0-17.9,0c-4.9,0-4.2,4.4-4.6,6.9C291.7,91.1,294.8,89.8,296.3,89.8z" class="st559"/><path d="M228.2,90c6.6-0.2,13.3-0.1,20-0.1c6.8,0,13.6,0,20.5,0c1.1,0,2.4,0.6,3.2-0.6c1.1-1.7-2.6-7.7-4.9-7.7 c-13,0-26,0.1-38.9-0.1c-3.9-0.1-3.1,2.4-3.2,4.6C224.5,88.7,225,90.1,228.2,90z" class="st560"/><path d="M128.3,172.8c-14.5,0.2-29,0.2-43.4,0c-3.6-0.1-3.5,1.6-3.5,4.2c0,2.6,0,4.3,3.6,4.2 c7.3-0.3,14.6-0.1,22-0.1c7.2,0,14.3-0.2,21.5,0.1c3.9,0.2,3.1-2.2,3.3-4.4C131.7,174.3,131.5,172.8,128.3,172.8z" class="st196"/><path d="M84.4,74.5c7.3-0.3,14.6-0.1,21.9-0.1c7.3,0,14.6-0.1,21.9,0.1c3.1,0.1,3.7-1.2,3.4-3.8 c-0.2-2.1,1-4.7-3.1-4.6c-14.8,0.2-29.5,0.2-44.3,0c-3.8,0-2.7,2.3-2.8,4.3C81.3,72.6,80.9,74.6,84.4,74.5z" class="st46"/><path d="M301,74.4c5.5,0.2,11,0.1,16.5,0.1c6.3,0,12.6-0.1,19,0.1c2.6,0.1,3.3-1.2,2.8-3.3c-0.4-1.7,1.7-4.9-2-5 c-12.1-0.2-24.3-0.2-36.4,0c-3.8,0.1-3.4,4.3-3.8,6.6C296.6,75.8,299.6,74.3,301,74.4z" class="st46"/><path d="M227.4,74.5c13.1-0.1,26.2,0,40,0c-2.1-3.1,0-8.1-5.3-8.2c-11.5-0.2-23,0-34.4-0.1c-3.1,0-3.2,1.7-2.9,3.8 C224.9,71.8,223.6,74.5,227.4,74.5z" class="st46"/><path d="M227.9,165.8c4.8-0.2,9.6-0.1,14.4-0.1c5,0,10-0.2,14.9,0.1c3.6,0.2,3-2.1,3-4.2c0-2,0.8-4.4-2.9-4.3 c-9.8,0.2-19.6,0.2-29.3,0c-3.2-0.1-3.5,1.5-3.4,4C224.8,163.6,224.1,166,227.9,165.8z" class="st561"/><path d="M336.1,157.3c-9.6,0.2-19.3,0.2-28.9,0c-3.3-0.1-3.4,1.6-3.3,4c0.1,2.4-0.4,4.7,3.4,4.5 c4.8-0.3,9.6-0.1,14.4-0.1c4.8,0,9.6-0.2,14.4,0.1c3.4,0.2,3.3-1.7,3.2-4C339.2,159.6,340,157.2,336.1,157.3z" class="st559"/><path d="M322.5,105.2c3.9,0,2.5-2.6,2.7-4.5c0.2-2.1,0.3-3.8-2.9-3.8c-8.8,0.2-17.7,0-26.5,0c-7.4,0-7.4,0-8.8,8.2 C298.9,105.1,310.7,105,322.5,105.2z" class="st46"/><path d="M241.5,96.9c-3.5,0-2.5,2.4-2.4,4.1c0,1.7-1.2,4.2,2.4,4.1c11.7-0.1,23.5,0,35.3,0c-1.3-7.4-1.6-8.1-4.4-8.1 C262.1,96.9,251.8,97,241.5,96.9z" class="st196"/><path d="M257.3,172.8c-5,0.3-10,0.1-15,0.1c-4.8,0-9.7,0.2-14.5-0.1c-3.5-0.2-3.2,1.9-3.1,4.1c0,2.1-0.6,4.3,3,4.2 c9.8-0.2,19.6-0.2,29.4,0c3.6,0.1,3.1-2,3-4.1C260.2,174.9,260.9,172.6,257.3,172.8z" class="st46"/><path d="M336.3,172.8c-4.8,0.3-9.6,0.1-14.5,0.1c-5,0-10,0.2-15-0.1c-3.7-0.2-2.9,2.2-2.9,4.2c0,2.1-0.6,4.2,3.1,4.1 c9.8-0.3,19.6-0.2,29.4,0c3.7,0.1,2.8-2.2,2.9-4.2C339.3,174.8,339.9,172.6,336.3,172.8z" class="st46"/><path d="M273.7,135.4c5.7,0,11.3,0,17,0c7.5,0,7.5,0,8.4-8c-11.4,0-22.8,0-34.3,0 C266.4,135.4,266.4,135.4,273.7,135.4z" class="st46"/><path d="M289.2,142.5c-2.3-0.4-4.6-0.1-7-0.1c-2.3,0-4.7,0-7,0c-6.4,0-6.8,0.7-4,6.5c0.9,1.8,2.1,1.8,3.6,1.8 c4.7,0,9.3-0.2,14,0.1c5.3,0.4,5-4.1,5.3-6.7C294.4,140.8,291,142.8,289.2,142.5z" class="st562"/><path d="M215.6,142.5c-5.6-0.1-11.2,0-16.9-0.1c-1.9,0-2.5,0.6-2.7,2.6c-0.3,3.9-0.1,6.9,5.2,6 c2.1-0.4,4.3-0.1,6.4-0.1c2.6,0,5.3,0,7.9,0c1.8,0,4.1,0.4,3.4-2.6C218.7,146,219.8,142.5,215.6,142.5z" class="st563"/><path d="M171.7,142.4c-5.4,0.2-10.9,0.1-16.4,0c-2.1,0-2.8,0.7-2.9,2.9c-0.3,3.9,0.3,6.5,5.2,5.6 c1.9-0.3,4-0.1,5.9-0.1c2.6,0,5.3-0.2,7.9,0c3.5,0.3,3.2-1.9,3.1-4.1C174.4,144.8,175.4,142.3,171.7,142.4z" class="st562"/><path d="M114.1,142.4c-5.3,0.2-10.6,0-15.9,0.1c-1.1,0-2.3-0.3-2.9,1.2c-1.6,3.8,0.4,7.1,4.4,7.2c2.1,0,4.3,0,6.4,0 c2.6,0,5.3-0.2,7.9,0c3.6,0.3,2.9-2.2,3-4.3C117.1,144.5,117.7,142.2,114.1,142.4z" class="st564"/><path d="M255.2,142.4c-1.8,0.3-3.6,0.1-5.4,0.1c-2.2,0-4.3,0.2-6.4,0c-3.4-0.4-4.5,0.8-4.5,4.3 c-0.1,3.9,1.6,4.3,4.7,4.1c4.6-0.2,9.3-0.1,13.9,0c2.1,0,2.8-0.7,2.9-2.8C260.6,144.2,260.2,141.5,255.2,142.4z" class="st563"/><path d="M308.9,150.8c1.8,0,3.6,0,5.5,0c2.6,0,5.3-0.1,7.9,0c3.6,0.2,2.9-2.3,2.9-4.3c0-2.1,0.5-4.4-3-4.2 c-5.1,0.2-10.2,0.1-15.4,0.1c-1.3,0-2.5-0.1-3,1.8C302.6,148.9,304,150.8,308.9,150.8z" class="st565"/><path d="M214.2,97c-2.3-0.2-4.6-0.1-6.9-0.1c-2.6,0-5.3,0.2-7.9-0.1c-3.4-0.4-3.8,1.3-3.7,4.1 c0.1,2.5-0.1,4.5,3.5,4.2c4.9-0.3,10-0.4,14.9,0c4.8,0.4,4.3-2.8,4.6-5.7C219,95.4,215.9,97.2,214.2,97z" class="st79"/><path d="M112.1,127.1c-1.9,0.4-4,0.1-6,0.1c-2.7,0-5.3,0.2-8,0c-3.3-0.3-2.9,1.8-2.8,3.8c0.1,1.9-1.1,4.5,2.7,4.4 c5.5-0.2,10.9-0.1,16.4,0c1.9,0,2.5-0.7,2.6-2.6C117.4,129,117.2,126.2,112.1,127.1z" class="st566"/><path d="M114.4,111.9c-5.5,0.2-11,0.1-16.4,0c-1.9,0-2.5,0.6-2.6,2.6c-0.2,3.7-0.1,6.7,5,5.7c1.9-0.4,4-0.1,6-0.1 c2.7,0,5.3-0.2,8,0c3.2,0.3,3-1.8,2.8-3.8C116.9,114.5,118.2,111.8,114.4,111.9z" class="st79"/><path d="M171.5,96.9c-5.5,0.2-11,0-16.4,0.1c-1.1,0-2.2-0.2-2.6,1.5c-1.2,4.6,0.2,6.6,5,6.7c2,0,4,0,6,0 c2.7,0,5.3-0.2,8,0c3.2,0.3,3-1.8,2.8-3.8C174,99.5,175.4,96.8,171.5,96.9z" class="st79"/><path d="M114.1,96.9c-5.3,0.2-10.6,0.1-15.9,0c-2.1,0-2.7,0.6-2.9,2.8c-0.4,4.2,0.7,6.3,5.3,5.4 c1.8-0.3,3.6-0.1,5.5-0.1c2.7,0,5.3-0.2,8,0.1c3.4,0.3,3.2-1.8,3.1-4C117,99.1,117.7,96.8,114.1,96.9z" class="st79"/><path d="M306.8,135.4c5.1-0.2,10.3-0.1,15.4,0c2,0,2.9-0.4,3-2.7c0.3-4-0.4-6.5-5.2-5.6c-1.8,0.3-3.6,0.1-5.5,0.1 c-2.7,0-5.3,0.1-8,0c-3.8-0.2-2.5,2.6-2.7,4.5C303.7,133.6,303.5,135.6,306.8,135.4z" class="st566"/><path d="M257.4,127.1c-5.2,0.2-10.3,0.1-15.5,0c-2,0-2.9,0.4-3.1,2.7c-0.3,3.9,0.3,6.5,5.2,5.6 c1.8-0.3,3.7-0.1,5.5-0.1c2.7,0,5.3-0.1,8,0c3.9,0.2,2.5-2.6,2.7-4.4C260.4,129,260.7,127,257.4,127.1z" class="st79"/><path d="M284,157.4c-0.6-0.2-1.3,0-2,0c-1,0-2,0.1-3,0c-4.8-0.8-4.8,1.2-3.7,5.1c1.4,5,5.1,2.8,8,3.3 c5.5,1,5.6-3.5,5.8-6.5C289.4,155.6,285.8,158.1,284,157.4z" class="st567"/><path d="M279.9,173.1c-0.9,2.8,0.8,5.2,2.1,7.7c1-2.6,3.6-4.9,1.9-7.9C283.6,172.4,280.1,172.6,279.9,173.1z" class="st568"/><path d="M210.3,295.8c-1.3,1.5-5.7-2.5-5.7,2.9c-0.1,6.8,0,13.7,0,20.5c0,1.2,0,2.2,1.5,2.7 c9.5,3.4,19.6-3.9,19.2-14C224.9,299.5,220.7,295.9,210.3,295.8z" class="st569"/><path d="M204.6,280.8c0,1.1-0.3,2.3,1.2,3c6.5,3.1,17-2.8,17.5-10c0.6-9.2-2.9-12.7-13.8-12.8 c-4.5-1.5-5.2,1.5-4.9,5.9C204.8,271.5,204.6,276.2,204.6,280.8z" class="st570"/><path d="M136.6,291c0,9,0,18,0,27c0,1.5-0.7,3.3,1.8,3.9c9.5,2.3,17.2-2.2,18.9-12c2.1-11.7,1.9-23.6,0.4-35.3 c-1.4-11-5.5-13.7-17-13.7c-3.2,0-4.3,0.7-4.3,4.1C136.8,273.7,136.6,282.4,136.6,291z" class="st571"/></g></svg>