<svg xmlns="http://www.w3.org/2000/svg" xmlns:xlink="http://www.w3.org/1999/xlink" id="Layer_1" x="0" y="0" enable-background="new 0 0 322.2 100" version="1.1" viewBox="0 0 322.2 100" xml:space="preserve"><style type="text/css">.st0{fill:#1f2326}.st1{fill:#fcee21}.st2{fill:#fff}</style><title>logo</title><g><g><rect width="11.1" height="11.1" x="66.7" y="11.1" class="st0"/><rect width="11.1" height="11.1" x="55.6" y="11.1" class="st0"/><rect width="11.1" height="11.1" x="33.3" y="11.1" class="st0"/><rect width="11.1" height="11.1" x="66.7" y="22.2" class="st1"/><rect width="11.1" height="11.1" x="44.4" y="11.1" class="st0"/><rect width="11.1" height="11.1" x="66.7" y="55.6" class="st0"/><rect width="11.1" height="11.1" x="66.7" y="66.7" class="st1"/><rect width="11.1" height="11.1" x="22.2" y="11.1" class="st0"/><rect width="11.1" height="11.1" x="66.7" y="44.4" class="st0"/><rect width="11.1" height="11.1" x="66.7" y="33.3" class="st0"/><rect width="11.1" height="11.1" x="11.1" y="33.3" class="st0"/><rect width="11.1" height="11.1" x="11.1" y="66.7" class="st0"/><rect width="11.1" height="11.1" x="11.1" y="77.8" class="st0"/><rect width="11.1" height="11.1" x="22.2" y="77.8" class="st0"/><rect width="11.1" height="11.1" x="33.3" y="77.8" class="st0"/><rect width="11.1" height="11.1" x="55.6" y="66.7" class="st0"/><rect width="11.1" height="11.1" x="11.1" y="22.2" class="st0"/><rect width="11.1" height="11.1" x="11.1" y="55.6" class="st0"/><rect width="11.1" height="11.1" x="11.1" y="11.1" class="st0"/><rect width="11.1" height="11.1" x="11.1" y="44.4" class="st0"/><rect width="11.1" height="11.1" x="44.4" y="44.4" class="st1"/><rect width="11.1" height="11.1" x="55.6" y="55.6" class="st2"/><rect width="11.1" height="11.1" x="44.4" y="55.6" class="st0"/><rect width="11.1" height="11.1" x="44.4" y="66.7" class="st0"/><rect width="11.1" height="11.1" x="55.6" y="44.4" class="st0"/><rect width="11.1" height="11.1" x="33.3" y="33.3" class="st0"/><rect width="11.1" height="11.1" x="44.4" y="33.3" class="st0"/><rect width="11.1" height="11.1" x="44.4" y="77.8" class="st0"/><rect width="11.1" height="11.1" x="33.3" y="44.4" class="st0"/><rect width="11.1" height="11.1" x="55.6" y="33.3" class="st2"/><rect width="11.1" height="11.1" x="33.3" y="55.6" class="st0"/><rect width="11.1" height="11.1" x="22.2" y="66.7" class="st2"/><rect width="11.1" height="11.1" x="22.2" y="55.6" class="st2"/><rect width="11.1" height="11.1" x="33.3" y="66.7" class="st0"/><rect width="11.1" height="11.1" x="22.2" y="44.4" class="st2"/><rect width="11.1" height="11.1" x="55.6" y="22.2" class="st0"/><rect width="11.1" height="11.1" x="33.3" y="22.2" class="st0"/><rect width="11.1" height="11.1" x="22.2" y="33.3" class="st2"/><rect width="11.1" height="11.1" x="44.4" y="22.2" class="st0"/><rect width="11.1" height="11.1" x="22.2" y="22.2" class="st2"/><rect width="11.1" height="11.1" x="88.9" y="44.4" class="st0"/><rect width="11.1" height="11.1" x="33.3" y="88.9" class="st0"/><rect width="11.1" height="11.1" x="66.7" y="88.9" class="st0"/><rect width="11.1" height="11.1" x="11.1" y="88.9" class="st0"/><rect width="11.1" height="11.1" x="55.6" y="88.9" class="st0"/><rect width="11.1" height="11.1" x="44.4" y="88.9" class="st0"/><rect width="11.1" height="11.1" x="22.2" y="88.9" class="st0"/><rect width="11.1" height="11.1" y="66.7" class="st0"/><rect width="11.1" height="11.1" y="55.6" class="st0"/><rect width="11.1" height="11.1" y="77.8" class="st0"/><rect width="11.1" height="11.1" y="88.9" class="st0"/><rect width="11.1" height="11.1" x="88.9" class="st0"/><rect width="11.1" height="11.1" x="88.9" y="22.2" class="st0"/><rect width="11.1" height="11.1" x="77.8" y="88.9" class="st0"/><rect width="11.1" height="11.1" x="88.9" y="33.3" class="st0"/><rect width="11.1" height="11.1" y="44.4" class="st0"/><rect width="11.1" height="11.1" x="88.9" y="11.1" class="st0"/><rect width="11.1" height="11.1" x="88.9" y="77.8" class="st0"/><rect width="11.1" height="11.1" x="88.9" y="88.9" class="st0"/><rect width="11.1" height="11.1" x="88.9" y="66.7" class="st0"/><rect width="11.1" height="11.1" x="88.9" y="55.6" class="st0"/><rect width="11.1" height="11.1" x="77.8" y="66.7" class="st0"/><rect width="11.1" height="11.1" x="77.8" y="44.4" class="st0"/><rect width="11.1" height="11.1" x="77.8" y="22.2" class="st0"/><rect width="11.1" height="11.1" x="77.8" y="33.3" class="st0"/><rect width="11.1" height="11.1" x="77.8" y="11.1" class="st0"/><rect width="11.1" height="11.1" x="66.7" y="77.8" class="st0"/><rect width="11.1" height="11.1" x="77.8" class="st0"/><rect width="11.1" height="11.1" x="77.8" y="77.8" class="st0"/><rect width="11.1" height="11.1" x="77.8" y="55.6" class="st0"/><rect width="11.1" height="11.1" x="55.6" y="77.8" class="st0"/><rect width="11.1" height="11.1" y="11.1" class="st0"/><rect width="11.1" height="11.1" y="33.3" class="st0"/><rect width="11.1" height="11.1" x="11.1" class="st0"/><rect width="11.1" height="11.1" class="st0"/><rect width="11.1" height="11.1" y="22.2" class="st0"/><rect width="11.1" height="11.1" x="22.2" class="st0"/><rect width="11.1" height="11.1" x="44.4" class="st0"/><rect width="11.1" height="11.1" x="66.7" class="st0"/><rect width="11.1" height="11.1" x="55.6" class="st0"/><rect width="11.1" height="11.1" x="33.3" class="st0"/></g><g><rect width="11.1" height="11.1" x="177.8" y="11.1" class="st0"/><rect width="11.1" height="11.1" x="166.7" y="11.1" class="st0"/><rect width="11.1" height="11.1" x="144.4" y="11.1" class="st0"/><rect width="11.1" height="11.1" x="177.8" y="22.2" class="st0"/><rect width="11.1" height="11.1" x="155.6" y="11.1" class="st0"/><rect width="11.1" height="11.1" x="177.8" y="55.6" class="st1"/><rect width="11.1" height="11.1" x="177.8" y="66.7" class="st0"/><rect width="11.1" height="11.1" x="133.3" y="11.1" class="st0"/><rect width="11.1" height="11.1" x="177.8" y="44.4" class="st0"/><rect width="11.1" height="11.1" x="177.8" y="33.3" class="st1"/><rect width="11.1" height="11.1" x="122.2" y="33.3" class="st0"/><rect width="11.1" height="11.1" x="122.2" y="66.7" class="st0"/><rect width="11.1" height="11.1" x="122.2" y="77.8" class="st0"/><rect width="11.1" height="11.1" x="133.3" y="77.8" class="st0"/><rect width="11.1" height="11.1" x="144.4" y="77.8" class="st0"/><rect width="11.1" height="11.1" x="166.7" y="66.7" class="st1"/><rect width="11.1" height="11.1" x="122.2" y="22.2" class="st0"/><rect width="11.1" height="11.1" x="122.2" y="55.6" class="st0"/><rect width="11.1" height="11.1" x="122.2" y="11.1" class="st0"/><rect width="11.1" height="11.1" x="122.2" y="44.4" class="st0"/><rect width="11.1" height="11.1" x="155.6" y="44.4" class="st1"/><rect width="11.1" height="11.1" x="166.7" y="55.6" class="st0"/><rect width="11.1" height="11.1" x="155.6" y="55.6" class="st0"/><rect width="11.1" height="11.1" x="155.6" y="66.7" class="st1"/><rect width="11.1" height="11.1" x="166.7" y="44.4" class="st1"/><rect width="11.1" height="11.1" x="144.4" y="33.3" class="st0"/><rect width="11.1" height="11.1" x="155.6" y="33.3" class="st0"/><rect width="11.1" height="11.1" x="155.6" y="77.8" class="st0"/><rect width="11.1" height="11.1" x="144.4" y="44.4" class="st0"/><rect width="11.1" height="11.1" x="166.7" y="33.3" class="st0"/><rect width="11.1" height="11.1" x="144.4" y="55.6" class="st0"/><rect width="11.1" height="11.1" x="133.3" y="66.7" class="st0"/><rect width="11.1" height="11.1" x="133.3" y="55.6" class="st1"/><rect width="11.1" height="11.1" x="144.4" y="66.7" class="st1"/><rect width="11.1" height="11.1" x="133.3" y="44.4" class="st0"/><rect width="11.1" height="11.1" x="166.7" y="22.2" class="st1"/><rect width="11.1" height="11.1" x="144.4" y="22.2" class="st1"/><rect width="11.1" height="11.1" x="133.3" y="33.3" class="st1"/><rect width="11.1" height="11.1" x="155.6" y="22.2" class="st1"/><rect width="11.1" height="11.1" x="133.3" y="22.2" class="st0"/><rect width="11.1" height="11.1" x="200" y="44.4" class="st0"/><rect width="11.1" height="11.1" x="144.4" y="88.9" class="st0"/><rect width="11.1" height="11.1" x="177.8" y="88.9" class="st0"/><rect width="11.1" height="11.1" x="122.2" y="88.9" class="st0"/><rect width="11.1" height="11.1" x="166.7" y="88.9" class="st0"/><rect width="11.1" height="11.1" x="155.6" y="88.9" class="st0"/><rect width="11.1" height="11.1" x="133.3" y="88.9" class="st0"/><rect width="11.1" height="11.1" x="111.1" y="66.7" class="st0"/><rect width="11.1" height="11.1" x="111.1" y="55.6" class="st0"/><rect width="11.1" height="11.1" x="111.1" y="77.8" class="st0"/><rect width="11.1" height="11.1" x="111.1" y="88.9" class="st0"/><rect width="11.1" height="11.1" x="200" class="st0"/><rect width="11.1" height="11.1" x="200" y="22.2" class="st0"/><rect width="11.1" height="11.1" x="188.9" y="88.9" class="st0"/><rect width="11.1" height="11.1" x="200" y="33.3" class="st0"/><rect width="11.1" height="11.1" x="111.1" y="44.4" class="st0"/><rect width="11.1" height="11.1" x="200" y="11.1" class="st0"/><rect width="11.1" height="11.1" x="200" y="77.8" class="st0"/><rect width="11.1" height="11.1" x="200" y="88.9" class="st0"/><rect width="11.1" height="11.1" x="200" y="66.7" class="st0"/><rect width="11.1" height="11.1" x="200" y="55.6" class="st0"/><rect width="11.1" height="11.1" x="188.9" y="66.7" class="st0"/><rect width="11.1" height="11.1" x="188.9" y="44.4" class="st0"/><rect width="11.1" height="11.1" x="188.9" y="22.2" class="st0"/><rect width="11.1" height="11.1" x="188.9" y="33.3" class="st0"/><rect width="11.1" height="11.1" x="188.9" y="11.1" class="st0"/><rect width="11.1" height="11.1" x="177.8" y="77.8" class="st0"/><rect width="11.1" height="11.1" x="188.9" class="st0"/><rect width="11.1" height="11.1" x="188.9" y="77.8" class="st0"/><rect width="11.1" height="11.1" x="188.9" y="55.6" class="st0"/><rect width="11.1" height="11.1" x="166.7" y="77.8" class="st0"/><rect width="11.1" height="11.1" x="111.1" y="11.1" class="st0"/><rect width="11.1" height="11.1" x="111.1" y="33.3" class="st0"/><rect width="11.1" height="11.1" x="122.2" class="st0"/><rect width="11.1" height="11.1" x="111.1" class="st0"/><rect width="11.1" height="11.1" x="111.1" y="22.2" class="st0"/><rect width="11.1" height="11.1" x="133.3" class="st0"/><rect width="11.1" height="11.1" x="155.6" class="st0"/><rect width="11.1" height="11.1" x="177.8" class="st0"/><rect width="11.1" height="11.1" x="166.7" class="st0"/><rect width="11.1" height="11.1" x="144.4" class="st0"/></g><g><rect width="11.1" height="11.1" x="288.9" y="11.1" class="st0"/><rect width="11.1" height="11.1" x="277.8" y="11.1" class="st0"/><rect width="11.1" height="11.1" x="255.6" y="11.1" class="st0"/><rect width="11.1" height="11.1" x="288.9" y="22.2" class="st2"/><rect width="11.1" height="11.1" x="266.7" y="11.1" class="st0"/><rect width="11.1" height="11.1" x="288.9" y="55.6" class="st2"/><rect width="11.1" height="11.1" x="288.9" y="66.7" class="st0"/><rect width="11.1" height="11.1" x="244.4" y="11.1" class="st0"/><rect width="11.1" height="11.1" x="288.9" y="44.4" class="st0"/><rect width="11.1" height="11.1" x="288.9" y="33.3" class="st0"/><rect width="11.1" height="11.1" x="233.3" y="33.3" class="st0"/><rect width="11.1" height="11.1" x="233.3" y="66.7" class="st0"/><rect width="11.1" height="11.1" x="233.3" y="77.8" class="st0"/><rect width="11.1" height="11.1" x="244.4" y="77.8" class="st0"/><rect width="11.1" height="11.1" x="255.6" y="77.8" class="st0"/><rect width="11.1" height="11.1" x="277.8" y="66.7" class="st2"/><rect width="11.1" height="11.1" x="233.3" y="22.2" class="st0"/><rect width="11.1" height="11.1" x="233.3" y="55.6" class="st0"/><rect width="11.1" height="11.1" x="233.3" y="11.1" class="st0"/><rect width="11.1" height="11.1" x="233.3" y="44.4" class="st0"/><rect width="11.1" height="11.1" x="266.7" y="44.4" class="st2"/><rect width="11.1" height="11.1" x="277.8" y="55.6" class="st0"/><rect width="11.1" height="11.1" x="266.7" y="55.6" class="st0"/><rect width="11.1" height="11.1" x="266.7" y="66.7" class="st2"/><rect width="11.1" height="11.1" x="277.8" y="44.4" class="st2"/><rect width="11.1" height="11.1" x="255.6" y="33.3" class="st0"/><rect width="11.1" height="11.1" x="266.7" y="33.3" class="st0"/><rect width="11.1" height="11.1" x="266.7" y="77.8" class="st0"/><rect width="11.1" height="11.1" x="255.6" y="44.4" class="st2"/><rect width="11.1" height="11.1" x="277.8" y="33.3" class="st0"/><rect width="11.1" height="11.1" x="255.6" y="55.6" class="st0"/><rect width="11.1" height="11.1" x="244.4" y="66.7" class="st2"/><rect width="11.1" height="11.1" x="244.4" y="55.6" class="st0"/><rect width="11.1" height="11.1" x="255.6" y="66.7" class="st2"/><rect width="11.1" height="11.1" x="244.4" y="44.4" class="st0"/><rect width="11.1" height="11.1" x="277.8" y="22.2" class="st2"/><rect width="11.1" height="11.1" x="255.6" y="22.2" class="st2"/><rect width="11.1" height="11.1" x="244.4" y="33.3" class="st2"/><rect width="11.1" height="11.1" x="266.7" y="22.2" class="st2"/><rect width="11.1" height="11.1" x="244.4" y="22.2" class="st0"/><rect width="11.1" height="11.1" x="311.1" y="44.4" class="st0"/><rect width="11.1" height="11.1" x="255.6" y="88.9" class="st0"/><rect width="11.1" height="11.1" x="288.9" y="88.9" class="st0"/><rect width="11.1" height="11.1" x="233.3" y="88.9" class="st0"/><rect width="11.1" height="11.1" x="277.8" y="88.9" class="st0"/><rect width="11.1" height="11.1" x="266.7" y="88.9" class="st0"/><rect width="11.1" height="11.1" x="244.4" y="88.9" class="st0"/><rect width="11.1" height="11.1" x="222.2" y="66.7" class="st0"/><rect width="11.1" height="11.1" x="222.2" y="55.6" class="st0"/><rect width="11.1" height="11.1" x="222.2" y="77.8" class="st0"/><rect width="11.1" height="11.1" x="222.2" y="88.9" class="st0"/><rect width="11.1" height="11.1" x="311.1" class="st0"/><rect width="11.1" height="11.1" x="311.1" y="22.2" class="st0"/><rect width="11.1" height="11.1" x="300" y="88.9" class="st0"/><rect width="11.1" height="11.1" x="311.1" y="33.3" class="st0"/><rect width="11.1" height="11.1" x="222.2" y="44.4" class="st0"/><rect width="11.1" height="11.1" x="311.1" y="11.1" class="st0"/><rect width="11.1" height="11.1" x="311.1" y="77.8" class="st0"/><rect width="11.1" height="11.1" x="311.1" y="88.9" class="st0"/><rect width="11.1" height="11.1" x="311.1" y="66.7" class="st0"/><rect width="11.1" height="11.1" x="311.1" y="55.6" class="st0"/><rect width="11.1" height="11.1" x="300" y="66.7" class="st0"/><rect width="11.1" height="11.1" x="300" y="44.4" class="st0"/><rect width="11.1" height="11.1" x="300" y="22.2" class="st0"/><rect width="11.1" height="11.1" x="300" y="33.3" class="st0"/><rect width="11.1" height="11.1" x="300" y="11.1" class="st0"/><rect width="11.1" height="11.1" x="288.9" y="77.8" class="st0"/><rect width="11.1" height="11.1" x="300" class="st0"/><rect width="11.1" height="11.1" x="300" y="77.8" class="st0"/><rect width="11.1" height="11.1" x="300" y="55.6" class="st0"/><rect width="11.1" height="11.1" x="277.8" y="77.8" class="st0"/><rect width="11.1" height="11.1" x="222.2" y="11.1" class="st0"/><rect width="11.1" height="11.1" x="222.2" y="33.3" class="st0"/><rect width="11.1" height="11.1" x="233.3" class="st0"/><rect width="11.1" height="11.1" x="222.2" class="st0"/><rect width="11.1" height="11.1" x="222.2" y="22.2" class="st0"/><rect width="11.1" height="11.1" x="244.4" class="st0"/><rect width="11.1" height="11.1" x="266.7" class="st0"/><rect width="11.1" height="11.1" x="288.9" class="st0"/><rect width="11.1" height="11.1" x="277.8" class="st0"/><rect width="11.1" height="11.1" x="255.6" class="st0"/></g></g></svg>