<svg xmlns="http://www.w3.org/2000/svg" xmlns:xlink="http://www.w3.org/1999/xlink" id="Layer_1" x="0" y="0" enable-background="new 0 0 401.8 489.4" version="1.1" viewBox="0 0 401.8 489.4" xml:space="preserve"><style type="text/css">.st1{fill:#fff}.st3{fill:#1a9c38}.st4{fill:#17b838}</style><g><polygon points="103.2 485.6 103.2 397.8 3.9 397.8" class="st3"/><rect width="394" height="394" x="3.9" y="3.8"/><g><g><rect width="21.7" height="21.7" x="103.2" y="179.8" class="st1"/><rect width="21.7" height="21.7" x="103.2" y="136.4" class="st1"/><polygon points="81.5 114.6 59.7 114.6 59.7 201.5 81.5 201.5 81.5 179.8 103.2 179.8 103.2 158.1 81.5 158.1" class="st1"/><rect width="21.7" height="65.1" x="146.6" y="136.4" class="st4"/><g><polygon points="255.2 288 233.4 288 233.4 201.5 233.4 158.1 211.7 158.1 211.7 201.5 190 201.5 190 136.4 255.2 136.4 255.2 197.6" class="st4"/></g><rect width="21.7" height="21.7" x="81.5" y="266.6" class="st1"/><rect width="21.7" height="43.4" x="103.2" y="223.2" class="st1"/><rect width="21.7" height="43.4" x="59.7" y="223.2" class="st1"/><path d="M146.6,288.3h65.1v-65.1h-65.1V288.3z M168.3,244.9H190v21.7h-21.7V244.9z" class="st4"/><g><rect width="21.7" height="21.7" x="320.3" y="223.2" class="st1"/><polygon points="298.6 244.9 298.6 201.5 276.9 201.5 276.9 288.3 298.6 288.3 298.6 266.6 320.3 266.6 320.3 244.9" class="st1"/><rect width="21.7" height="21.7" x="320.3" y="266.6" class="st1"/></g></g></g></g></svg>