<svg xmlns="http://www.w3.org/2000/svg" xmlns:svg="http://www.w3.org/2000/svg" id="svg8" width="436.416" height="105.4" version="1.1" viewBox="0 0 115.468 27.887"><metadata id="metadata5"/><g id="layer1" transform="translate(313.35644,-99.72266)"><g id="text4520" fill="#000" fill-opacity="1" stroke="none" stroke-linecap="butt" stroke-linejoin="miter" stroke-opacity="1" stroke-width=".379" aria-label="kubedee" font-family="Inter UI" font-size="24.263" font-stretch="normal" font-style="italic" font-variant="normal" font-weight="900" letter-spacing="0" word-spacing="0" style="line-height:125%;-inkscape-font-specification:'Inter UI Heavy Italic'"><path id="path4655" stroke-width=".379" d="m -308.35644,122.36858 2.92949,-17.64592 h 4.75613 l -1.47336,8.85743 h 0.1637 l 3.96344,-4.44595 h 5.34203 l -5.45404,5.8073 3.38616,7.42714 h -5.44542 l -1.93003,-4.65273 -0.86161,0.9047 -0.62037,3.74803 z"/><path id="path4657" stroke-width=".379" d="m -284.07176,116.57852 1.24072,-7.44438 h 4.75613 l -2.20574,13.23444 h -4.51487 l 0.41357,-2.51592 h -0.13786 q -0.61174,1.26658 -1.82662,1.98172 -1.20627,0.70653 -2.68825,0.70653 -1.3872,0 -2.31775,-0.6376 -0.93055,-0.6376 -1.32689,-1.7577 -0.38773,-1.1201 -0.14648,-2.56762 l 1.41306,-8.44385 h 4.75612 l -1.24072,7.44438 q -0.14648,0.98224 0.24986,1.54229 0.40496,0.56005 1.30105,0.56005 0.88746,0 1.50783,-0.56005 0.62036,-0.56005 0.76684,-1.54229 z"/><path id="path4659" stroke-width=".379" d="m -277.88535,122.36858 2.9295,-17.64592 h 4.75612 l -1.10287,6.72062 h 0.0689 q 0.54282,-1.00809 1.60261,-1.74047 1.05979,-0.74099 2.53315,-0.74099 1.30966,0 2.36945,0.69791 1.06841,0.69791 1.55953,2.19712 0.49974,1.49922 0.10339,3.89451 -0.37911,2.29191 -1.34412,3.79974 -0.96501,1.50783 -2.27467,2.24882 -1.30966,0.74099 -2.72271,0.74099 -1.39582,0 -2.22297,-0.66345 -0.81854,-0.67206 -1.05117,-1.68015 h -0.13786 l -0.34465,2.17127 z m 5.7556,-6.61722 q -0.23264,1.44752 0.18094,2.29191 0.42219,0.84438 1.40444,0.84438 0.98224,0 1.66292,-0.82715 0.68929,-0.83577 0.92193,-2.30914 0.23263,-1.47336 -0.17233,-2.30051 -0.39634,-0.83577 -1.37858,-0.83577 -0.98225,0 -1.68877,0.83577 -0.69791,0.82715 -0.93055,2.30051 z"/><path id="path4661" stroke-width=".379" d="m -255.84519,122.60984 q -3.18798,0 -4.71304,-1.8094 -1.52507,-1.8094 -0.97363,-5.01461 0.34465,-2.05065 1.42167,-3.58433 1.07702,-1.53368 2.73132,-2.38668 1.65431,-0.853 3.70496,-0.853 1.99895,0 3.33446,0.82715 1.3355,0.81854 1.89555,2.3436 0.56006,1.51645 0.21541,3.61879 l -0.17232,1.10287 h -8.60756 l -0.0431,0.20679 q -0.16371,0.9564 0.31018,1.58538 0.48251,0.62036 1.55091,0.62036 0.71514,0 1.31828,-0.30156 0.60313,-0.30157 0.92193,-0.87024 h 4.34255 q -0.70653,2.06788 -2.59347,3.29138 -1.88694,1.2235 -4.64412,1.2235 z m -0.67206,-8.37492 h 4.153 q 0.12062,-0.853 -0.3705,-1.38721 -0.4825,-0.54281 -1.35274,-0.54281 -0.87023,0 -1.55953,0.52558 -0.68067,0.52559 -0.87023,1.40444 z"/><path id="path4663" stroke-width=".379" d="m -234.17982,122.36858 2.91227,-17.64592 h -4.75613 l -1.1201,6.72062 h -0.0689 q -0.20679,-1.00809 -1.02533,-1.74047 -0.81853,-0.74099 -2.2919,-0.74099 -1.30966,0 -2.60208,0.69791 -1.29243,0.69791 -2.2919,2.19712 -0.99086,1.49922 -1.38721,3.89451 -0.37911,2.29191 0.0862,3.79974 0.46528,1.50783 1.52507,2.24882 1.0684,0.74099 2.48145,0.74099 1.39582,0 2.43838,-0.66345 1.05117,-0.67206 1.61122,-1.68015 h 0.13786 l -0.37049,2.17127 z m -3.5671,-6.61722 q -0.24125,1.44752 -0.93916,2.29191 -0.69791,0.84438 -1.68015,0.84438 -0.98225,0 -1.39582,-0.82715 -0.40496,-0.83577 -0.15509,-2.30914 0.25848,-1.47336 0.93054,-2.30051 0.68068,-0.83577 1.66292,-0.83577 0.98225,0 1.40444,0.83577 0.43081,0.82715 0.17232,2.30051 z"/><path id="path4665" stroke-width=".379" d="m -225.3741,122.60984 q -3.18798,0 -4.71304,-1.8094 -1.52507,-1.8094 -0.97363,-5.01461 0.34464,-2.05065 1.42167,-3.58433 1.07702,-1.53368 2.73132,-2.38668 1.65431,-0.853 3.70496,-0.853 1.99895,0 3.33445,0.82715 1.33551,0.81854 1.89556,2.3436 0.56005,1.51645 0.21541,3.61879 l -0.17233,1.10287 h -8.60755 l -0.0431,0.20679 q -0.16371,0.9564 0.31018,1.58538 0.4825,0.62036 1.55091,0.62036 0.71514,0 1.31827,-0.30156 0.60314,-0.30157 0.92193,-0.87024 h 4.34256 q -0.70653,2.06788 -2.59347,3.29138 -1.88694,1.2235 -4.64412,1.2235 z m -0.67206,-8.37492 h 4.15299 q 0.12063,-0.853 -0.37049,-1.38721 -0.48251,-0.54281 -1.35274,-0.54281 -0.87023,0 -1.55953,0.52558 -0.68067,0.52559 -0.87023,1.40444 z"/><path id="path4667" stroke-width=".379" d="m -210.63613,122.60984 q -3.18798,0 -4.71305,-1.8094 -1.52506,-1.8094 -0.97362,-5.01461 0.34464,-2.05065 1.42166,-3.58433 1.07703,-1.53368 2.73133,-2.38668 1.65431,-0.853 3.70495,-0.853 1.99896,0 3.33446,0.82715 1.33551,0.81854 1.89556,2.3436 0.56005,1.51645 0.21541,3.61879 l -0.17233,1.10287 h -8.60755 l -0.0431,0.20679 q -0.16371,0.9564 0.31018,1.58538 0.4825,0.62036 1.55091,0.62036 0.71514,0 1.31827,-0.30156 0.60313,-0.30157 0.92193,-0.87024 h 4.34255 q -0.70652,2.06788 -2.59346,3.29138 -1.88695,1.2235 -4.64412,1.2235 z m -0.67206,-8.37492 h 4.15299 q 0.12063,-0.853 -0.37049,-1.38721 -0.48251,-0.54281 -1.35274,-0.54281 -0.87023,0 -1.55953,0.52558 -0.68068,0.52559 -0.87023,1.40444 z"/></g></g></svg>