<svg xmlns="http://www.w3.org/2000/svg" xmlns:xlink="http://www.w3.org/1999/xlink" id="Layer_1" width="400" height="400" x="0" y="0" enable-background="new 0 0 400 400" version="1.1" viewBox="0 0 400 400" xml:space="preserve"><switch><g><g><path fill="#101415" d="M203.465,239.646c-0.27,0.278-0.591,0.417-0.957,0.417h-6.306c-0.366,0-0.685-0.139-0.957-0.417 c-0.277-0.263-0.416-0.584-0.416-0.942v-1.555c-1.773,1.167-3.468,2.023-5.069,2.579c-1.596,0.541-3.495,0.808-5.688,0.808 c-1.734,0-3.323-0.225-4.758-0.684c-1.442-0.455-2.665-1.191-3.67-2.191c-1.276-1.273-2.171-2.953-2.671-5.035 c-0.506-2.081-0.756-4.562-0.756-7.434v-22.346c0-0.363,0.141-0.697,0.409-0.989c0.277-0.304,0.598-0.441,0.964-0.441h6.306 c0.361,0,0.68,0.138,0.957,0.441c0.277,0.292,0.409,0.626,0.409,0.999v22.39c0,1.736,0.104,3.121,0.313,4.148 c0.201,1.029,0.622,1.844,1.269,2.442c0.5,0.415,1.067,0.722,1.706,0.928c0.645,0.196,1.484,0.307,2.539,0.307 c0.639,0,1.311-0.096,2.018-0.278c0.714-0.181,1.409-0.415,2.096-0.68c0.685-0.276,1.331-0.583,1.948-0.9 c0.617-0.319,1.18-0.611,1.678-0.889v-27.468c0-0.373,0.139-0.707,0.416-0.999c0.272-0.304,0.591-0.441,0.957-0.441h6.306 c0.366,0,0.688,0.138,0.957,0.441c0.278,0.292,0.417,0.626,0.417,0.989v35.843C203.882,239.048,203.743,239.368,203.465,239.646z"/><path fill="#101415" d="M261.578,239.617c-0.277,0.292-0.596,0.445-0.956,0.445h-6.312c-0.362,0-0.682-0.153-0.957-0.445 c-0.277-0.306-0.404-0.622-0.404-0.999v-23.247c0-1.32-0.084-2.402-0.249-3.249c-0.151-0.833-0.418-1.513-0.791-2.011 c-0.36-0.498-0.859-0.861-1.498-1.068c-0.638-0.191-1.441-0.305-2.399-0.305c-0.639,0-1.555,0.124-2.747,0.377 c-1.18,0.249-2.399,0.704-3.634,1.346c0.098,0.762,0.165,1.565,0.207,2.384c0.056,0.817,0.069,1.664,0.069,2.526v23.247 c0,0.377-0.14,0.693-0.404,0.999c-0.276,0.292-0.593,0.445-0.969,0.445h-6.298c-0.362,0-0.679-0.153-0.955-0.445 c-0.278-0.306-0.417-0.622-0.417-0.999v-23.247c0-1.32-0.07-2.402-0.211-3.249c-0.137-0.833-0.373-1.513-0.705-2.011 c-0.348-0.498-0.833-0.861-1.443-1.068c-0.625-0.191-1.4-0.305-2.373-0.305c-1.413,0-3.509,0.765-6.296,2.262v27.618 c0,0.377-0.135,0.693-0.409,0.999c-0.276,0.292-0.598,0.445-0.958,0.445h-6.303c-0.371,0-0.688-0.153-0.966-0.445 c-0.272-0.306-0.408-0.636-0.408-0.999v-35.83c0-0.377,0.136-0.693,0.408-0.972c0.278-0.264,0.595-0.401,0.966-0.401h5.955 c0.366,0,0.688,0.138,0.966,0.416c0.27,0.278,0.408,0.595,0.408,0.972v1.44c1.462-0.913,2.946-1.704,4.446-2.345 c1.511-0.65,3.285-0.971,5.353-0.971c1.957,0,3.595,0.278,4.899,0.819c1.304,0.555,2.343,1.306,3.12,2.263 c1.735-0.957,3.453-1.708,5.16-2.263c1.72-0.541,3.759-0.819,6.146-0.819c2.329,0,4.23,0.377,5.715,1.139 c1.484,0.75,2.635,1.775,3.467,3.082c0.82,1.302,1.387,2.814,1.707,4.547c0.318,1.747,0.483,3.622,0.483,5.619v23.304 C261.992,238.981,261.855,239.312,261.578,239.617z"/><path fill="#101415" d="M279.436,194.893c0,0.375-0.138,0.693-0.416,0.971c-0.263,0.265-0.584,0.402-0.957,0.402h-6.646 c-0.361,0-0.692-0.137-0.997-0.402c-0.293-0.278-0.445-0.596-0.445-0.971v-6.021c0-0.374,0.152-0.692,0.445-0.956 c0.305-0.277,0.636-0.416,0.997-0.416h6.646c0.373,0,0.694,0.139,0.957,0.416c0.278,0.263,0.416,0.582,0.416,0.956V194.893z M279.226,238.618c0,0.363-0.137,0.693-0.4,0.999c-0.276,0.292-0.596,0.445-0.971,0.445h-6.296c-0.363,0-0.683-0.153-0.96-0.445 c-0.275-0.306-0.415-0.636-0.415-0.999v-35.83c0-0.377,0.14-0.693,0.415-0.972c0.277-0.264,0.597-0.401,0.96-0.401h6.296 c0.375,0,0.694,0.138,0.971,0.401c0.264,0.278,0.4,0.595,0.4,0.972V238.618z"/><linearGradient id="SVGID_1_" x1="36.242" x2="138.664" y1="197.902" y2="197.902" gradientUnits="userSpaceOnUse"><stop offset="0" stop-color="red"/><stop offset="1" stop-color="#FF6F00"/></linearGradient><path fill="url(#SVGID_1_)" d="M124.308,187.578l-41.562-41.553l-6.512,6.507l28.586,28.588l-1.074,0.018 c-3.862,0.067-7.678,0.79-11.336,2.149l-0.271,0.104l-0.105-0.104l-12.735-12.739l-6.508,6.514l10.952,10.953l-0.407,0.317 c-2.372,1.843-4.51,4.01-6.355,6.44l-0.314,0.416l-0.186-0.183l-33.724-33.73l-6.514,6.508l35.881,35.881l-0.099,0.273 c-1.345,3.732-2.026,7.604-2.026,11.509v1.092l-0.775-0.759l-17.329-17.327l-6.514,6.512l34.013,34.012 c6.588,6.968,15.441,10.803,24.934,10.803c18.934,0,34.338-15.403,34.338-34.333 C138.664,204.461,133.296,194.042,124.308,187.578z M104.326,240.57c-6.559,0-12.77-2.533-17.491-7.127l-0.287-0.284l0.021-0.029 l-0.715-0.718c-4.29-4.669-6.649-10.689-6.649-16.966c0-13.854,11.27-25.126,25.121-25.126c13.854,0,25.125,11.273,25.125,25.126 C129.451,229.298,118.181,240.57,104.326,240.57z"/><path fill="#101415" d="M163.302,240.5c-0.249,0.296-0.553,0.445-0.922,0.445h-6.374c-0.368,0-0.688-0.149-0.957-0.445 c-0.278-0.3-0.41-0.633-0.41-0.993v-56.446c0-0.359,0.132-0.687,0.41-0.957c0.27-0.277,0.589-0.409,0.957-0.409h6.374 c0.369,0,0.673,0.132,0.922,0.409c0.251,0.271,0.383,0.598,0.383,0.957v56.446C163.685,239.867,163.553,240.2,163.302,240.5z"/><g><path fill="#101415" d="M343.935,240.66c-10.938,0-19.829-8.896-19.829-19.823c0-10.932,8.892-19.824,19.829-19.824 c10.932,0,19.823,8.893,19.823,19.831C363.758,231.774,354.866,240.66,343.935,240.66z M343.935,209.528 c-6.234,0-11.312,5.069-11.312,11.309c0,6.233,5.078,11.304,11.312,11.304c6.236,0,11.305-5.07,11.305-11.297 C355.239,214.605,350.171,209.528,343.935,209.528z"/></g><g><path fill="none" d="M296.146,245.916c0.626,0.388,1.457,0.694,2.513,0.887c1.038,0.209,2.369,0.318,3.966,0.318 c1.65,0,2.969-0.099,3.98-0.276c0.998-0.183,1.789-0.441,2.357-0.762c0.569-0.32,0.945-0.708,1.139-1.195 c0.183-0.484,0.264-1.04,0.264-1.676v-0.487c0-0.36-0.068-0.705-0.235-1.026c-0.152-0.319-0.525-0.636-1.096-0.956 c-0.569-0.321-1.387-0.651-2.47-0.986c-1.066-0.348-2.498-0.723-4.285-1.138l-6.091-1.441c-0.5,0.733-0.914,1.413-1.234,2.024 c-0.321,0.612-0.487,1.541-0.487,2.775v0.623c0,0.683,0.125,1.302,0.39,1.875C295.106,245.059,295.537,245.527,296.146,245.916z"/><path fill="none" d="M308.173,210.016c-0.54-0.527-1.305-0.942-2.261-1.235c-0.955-0.307-2.164-0.444-3.633-0.444 c-1.457,0-2.664,0.138-3.62,0.444c-0.958,0.293-1.722,0.708-2.264,1.235c-0.555,0.527-0.942,1.139-1.165,1.843 c-0.234,0.708-0.346,1.474-0.346,2.303v0.54c0,0.642,0.098,1.277,0.276,1.915c0.182,0.642,0.527,1.221,1.056,1.75 c0.527,0.527,1.274,0.958,2.231,1.274c0.96,0.319,2.234,0.474,3.831,0.474c2.843,0,4.771-0.459,5.797-1.401 c1.027-0.93,1.541-2.275,1.541-4.012v-0.54c0-0.829-0.1-1.595-0.306-2.303C309.104,211.154,308.729,210.543,308.173,210.016z"/><path fill="#101415" d="M323.92,200.379l-4.912-4.056c-0.291-0.237-0.619-0.34-0.999-0.299c-0.389,0.035-0.693,0.203-0.929,0.48 l-4.063,4.911h-10.737c-2.971,0-5.48,0.331-7.536,0.985c-2.05,0.666-3.729,1.58-5.033,2.748 c-1.304,1.162-2.246,2.508-2.845,4.035c-0.596,1.54-0.886,3.147-0.886,4.838v0.474c0,1.733,0.206,3.245,0.609,4.522 c0.415,1.277,1.153,2.442,2.191,3.495c-0.914,0.64-1.594,1.474-2.053,2.47c-0.458,0.999-0.68,2.039-0.68,3.08v0.068 c0,1.234,0.276,2.413,0.817,3.536c0.556,1.111,1.306,2.039,2.262,2.777c-1.096,0.996-1.955,2.148-2.565,3.454 c-0.624,1.303-0.931,2.662-0.931,4.078v0.623c0,3.607,1.445,6.397,4.316,8.394c2.884,1.982,7.103,2.981,12.678,2.981 c5.854,0,10.111-0.917,12.775-2.747c2.678-1.832,4.01-4.493,4.01-8.016v-0.487c0-1.816-0.361-3.316-1.096-4.481 c-0.723-1.162-1.747-2.135-3.081-2.913c-1.316-0.776-2.938-1.428-4.825-1.954c-1.902-0.526-4.01-1.058-6.342-1.612l-8.085-1.91 c-0.779-0.182-1.359-0.445-1.75-0.765c-0.389-0.316-0.582-0.818-0.582-1.498c0-0.694,0.389-1.277,1.166-1.79 c0.68,0.276,1.65,0.541,2.886,0.79c1.221,0.253,2.761,0.377,4.578,0.377c5.214,0,9.224-1.001,12.024-3.012 c2.817-2.009,4.217-5.158,4.217-9.461v-0.474c0-1.191-0.153-2.201-0.442-3.049c-0.29-0.847-0.721-1.665-1.262-2.44l2.259-0.891 c0.403-0.178,0.694-0.345,0.849-0.512c0.054-0.049,0.095-0.124,0.131-0.21l0.021,0.014l3.975-4.664 c0.228-0.278,0.339-0.62,0.311-0.986C324.349,200.917,324.196,200.618,323.92,200.379z M294.467,241.977 c0-1.234,0.166-2.163,0.487-2.775c0.32-0.611,0.734-1.291,1.234-2.024l6.091,1.441c1.787,0.415,3.219,0.79,4.285,1.138 c1.083,0.335,1.9,0.665,2.47,0.986c0.57,0.32,0.943,0.637,1.096,0.956c0.167,0.321,0.235,0.666,0.235,1.026v0.487 c0,0.636-0.081,1.191-0.264,1.676c-0.193,0.487-0.569,0.875-1.139,1.195c-0.568,0.32-1.359,0.579-2.357,0.762 c-1.012,0.178-2.33,0.276-3.98,0.276c-1.597,0-2.928-0.109-3.966-0.318c-1.056-0.192-1.887-0.499-2.513-0.887 c-0.609-0.389-1.04-0.857-1.29-1.441c-0.265-0.573-0.39-1.192-0.39-1.875V241.977z M309.617,214.701 c0,1.736-0.514,3.082-1.541,4.012c-1.025,0.942-2.954,1.401-5.797,1.401c-1.597,0-2.871-0.154-3.831-0.474 c-0.957-0.316-1.704-0.747-2.231-1.274c-0.528-0.529-0.874-1.108-1.056-1.75c-0.179-0.638-0.276-1.273-0.276-1.915v-0.54 c0-0.829,0.111-1.595,0.346-2.303c0.223-0.704,0.61-1.315,1.165-1.843c0.542-0.527,1.306-0.942,2.264-1.235 c0.956-0.307,2.163-0.444,3.62-0.444c1.469,0,2.678,0.138,3.633,0.444c0.956,0.293,1.721,0.708,2.261,1.235 c0.556,0.527,0.931,1.139,1.139,1.843c0.206,0.708,0.306,1.474,0.306,2.303V214.701z"/></g></g></g></switch></svg>