<svg xmlns="http://www.w3.org/2000/svg" xmlns:xlink="http://www.w3.org/1999/xlink" id="Layer_1" x="0" y="0" enable-background="new 0 0 1412 520" version="1.1" viewBox="0 0 1412 520" xml:space="preserve"><style type="text/css">.st75{fill-rule:evenodd;clip-rule:evenodd}.st75,.st76{fill:#2cb8eb}.st77,.st78{fill:#81b83a}.st78{fill-rule:evenodd;clip-rule:evenodd}</style><g id="XMLID_41_"><path id="XMLID_70_" d="M993,213.8c0,8.5-6.9,15.3-15.3,15.3c-13.7,0-15.2-12.4-15.2-12.4c2.4,6.8-1-5.9-7.4-13 c-3-3.4-6.8-6.1-11.5-8.1c-4.7-2-10.6-3-17.7-3c-6.6,0-12.3,0.9-17.2,2.6c-4.9,1.7-9,3.9-12.2,6.6c-3.3,2.7-5.8,5.6-7.6,8.9 c-1.8,3.3-3,6.5-3.5,9.7c-1,5.5-0.2,10.5,2.2,15c2.5,4.5,6,8.7,10.8,12.5c4.7,3.8,10.2,7.5,16.3,11c6.2,3.5,12.5,7.1,19,10.7 c6.5,3.6,12.8,7.3,19,11.2c6.2,3.9,11.5,8.1,16.1,12.8c4.6,4.7,8,9.9,10.2,15.6c2.2,5.7,2.7,12.1,1.5,19.3 c-1.5,8.4-4.6,16.2-9.4,23.4c-4.8,7.2-11.1,13.5-18.8,18.9c-7.8,5.4-17,9.6-27.7,12.6c-10.7,3-22.6,4.6-35.8,4.6 c-12.4,0-23-1.5-31.8-4.4c-8.8-2.9-16-6.9-21.7-12c-15.7-14.3-13.2-28.7-13.2-23.8c0-18.4,31-26.6,35.2-3.1 c1.5,4.4,3.8,8.3,6.8,11.6c3,3.3,6.8,5.9,11.4,7.8c4.6,1.9,10.2,2.8,16.7,2.8c4.4,0,8.7-0.5,13.1-1.4c4.4-0.9,8.4-2.4,12.1-4.4 c3.7-2,6.9-4.7,9.5-8.1c2.6-3.3,4.4-7.4,5.2-12.3c1.1-6.2,0.5-11.7-1.8-16.4c-2.3-4.7-5.7-9.1-10.2-13c-4.5-3.9-9.8-7.6-15.8-11 c-6.1-3.4-12.2-6.8-18.5-10.2c-6.3-3.4-12.4-7-18.4-10.7c-6-3.7-11.2-7.9-15.5-12.5c-4.4-4.6-7.6-9.9-9.8-15.7 c-2.1-5.8-2.5-12.5-1.2-20c1.5-8.2,4.6-15.8,9.4-22.8c4.8-7,11.1-13.1,18.9-18.2c7.7-5.1,16.8-9.1,27.2-12 c10.4-2.9,21.9-4.4,34.6-4.4c10.5,0,19.7,1.5,27.6,4.4c7.9,2.9,14.7,6.8,20.3,11.8C994,203.8,993,214.8,993,213.8z" class="st75"/><path id="XMLID_67_" d="M994.3,385h83.3c19.9,0,38-2.8,54.4-8.3c16.4-5.5,30.7-13,42.9-22.5 c12.3-9.5,22.3-20.6,30-33.4c7.8-12.8,12.9-26.5,15.5-41c2.9-16.2,2.1-30.5-2.1-43.1c-4.3-12.6-11.5-23.2-21.7-31.8 c-10.2-8.7-23-15.2-38.4-19.7c-15.4-4.5-32.8-6.7-52.1-6.7h-75.3L994.3,385z M1078,199.3h27.1c10.6,0,20,2,28.2,6.1 c8.2,4.1,14.9,9.7,20.1,17c5.2,7.3,8.7,15.8,10.5,25.7c1.8,9.9,1.7,20.6-0.3,32.2c-2.4,13.4-6.4,25.3-12.1,35.7 c-5.7,10.4-12.4,19.1-20.3,26.2c-7.9,7.1-16.5,12.5-26,16.2c-9.5,3.7-19.2,5.5-29.2,5.5h-27.1L1078,199.3z" class="st76"/><path id="XMLID_65_" d="M1399.1,213.8c0,8.5-6.9,15.3-15.3,15.3c-13.7,0-15.2-12.4-15.2-12.4c2.4,6.8-1-5.9-7.4-13 c-3-3.4-6.8-6.1-11.5-8.1c-4.7-2-10.6-3-17.7-3c-6.6,0-12.3,0.9-17.2,2.6c-4.9,1.7-9,3.9-12.2,6.6c-3.3,2.7-5.8,5.6-7.6,8.9 c-1.8,3.3-3,6.5-3.5,9.7c-1,5.5-0.2,10.5,2.2,15c2.5,4.5,6,8.7,10.8,12.5c4.7,3.8,10.2,7.5,16.3,11c6.2,3.5,12.5,7.1,19,10.7 c6.5,3.6,12.8,7.3,19,11.2c6.2,3.9,11.5,8.1,16.1,12.8c4.6,4.7,8,9.9,10.2,15.6c2.2,5.7,2.7,12.1,1.5,19.3 c-1.5,8.4-4.6,16.2-9.4,23.4c-4.8,7.2-11.1,13.5-18.8,18.9c-7.8,5.4-17,9.6-27.7,12.6c-10.7,3-22.6,4.6-35.8,4.6 c-12.4,0-23-1.5-31.8-4.4c-8.8-2.9-16-6.9-21.7-12c-15.7-14.3-13.2-28.7-13.2-23.8c0-18.4,31-26.6,35.2-3.1 c1.5,4.4,3.8,8.3,6.8,11.6c3,3.3,6.8,5.9,11.4,7.8c4.6,1.9,10.2,2.8,16.7,2.8c4.4,0,8.7-0.5,13.1-1.4c4.4-0.9,8.4-2.4,12.1-4.4 c3.7-2,6.9-4.7,9.5-8.1c2.6-3.3,4.4-7.4,5.2-12.3c1.1-6.2,0.5-11.7-1.8-16.4c-2.3-4.7-5.7-9.1-10.2-13c-4.5-3.9-9.8-7.6-15.8-11 c-6.1-3.4-12.2-6.8-18.5-10.2c-6.3-3.4-12.4-7-18.4-10.7c-6-3.7-11.2-7.9-15.5-12.5c-4.4-4.6-7.6-9.9-9.8-15.7 c-2.1-5.8-2.5-12.5-1.2-20c1.5-8.2,4.6-15.8,9.4-22.8c4.8-7,11.1-13.1,18.9-18.2c7.7-5.1,16.8-9.1,27.2-12 c10.4-2.9,21.9-4.4,34.6-4.4c10.5,0,19.7,1.5,27.6,4.4c7.9,2.9,14.7,6.8,20.3,11.8C1400.1,203.8,1399.1,214.8,1399.1,213.8z" class="st75"/><path id="XMLID_62_" d="M408.9,437.9l10.5-55.9h0.5c5.1,2.9,14.2,5.9,28.2,5.9c43.2,0,76-43.1,76-88.5 c0-23.8-11.8-46.8-40-46.8c-17.7,0-34.9,10.4-46.7,27.3h-0.5l3.8-24.3h-20.4c-1.9,13.1-33.3,182.4-33.3,182.4H408.9z M429.9,327.2 c6.7-36.1,28.7-56.2,46.2-56.2c18.8,0,25,16.3,25,30c0,34-24.2,69.5-52.9,69.5c-10.5,0-19.1-2.7-24.7-7.2L429.9,327.2z" class="st77"/><path id="XMLID_59_" d="M628,360.9c-8.1,4.3-19.6,9.1-34.9,9.1c-13.4,0-23.9-5.9-29-17.4c-3-7-3.8-19-2.7-24.6 c48.1,0.8,86.4-8.3,86.4-42.3c0-18.5-13.4-33.2-38.1-33.2c-41.9,0-70.9,44.1-70.9,83.2c0,28.6,15,51.9,49.4,51.9 c17.5,0,33.3-4.5,43-10.2L628,360.9z M626.4,286.5c0,20.1-27.4,24.6-62.3,24.3c5.4-20.3,21.2-40.9,42.4-40.9 C618.4,270,626.4,275.8,626.4,286.5z" class="st77"/><path id="XMLID_57_" d="M680.3,385l11.8-62.9c5.9-32.1,28.5-51.1,44.3-51.1c15.3,0,20.4,9.6,20.4,22.7 c0,5.3-0.8,11.5-1.9,16.6L740.8,385H763l14.5-75.4c1.3-7,2.4-15.2,2.4-20.9c0-27.3-17.5-36.1-33-36.1c-19.1,0-36.5,10.2-48.1,28.4 h-0.5l3.2-25.4h-19.9c-1.6,10.7-3.2,23.3-6.2,37.7L658.1,385H680.3z" class="st77"/><path id="XMLID_4_" d="M353.5,192.3c-37.2-37.2-92.6-46-138-25.9l0,0c-14.4,6.6-32,4.1-43.9-7.8 c-10-10-13.4-24.2-10.2-37c0,0,2.2-12.2,2.2-18.5c0-41-33.2-74.2-74.2-74.2c-41,0-74.3,33.3-74.3,74.3c0,41,33.2,74.2,74.2,74.2 c6.9,0,20-2.6,20-2.6c12.5-2.7,26.1,0.9,35.8,10.6c11.9,11.9,14.5,29.5,7.9,44l0,0c-20.3,45.5-11.8,100.8,25.5,138.1 c48.3,48.3,126.7,48.3,175.1,0C401.9,319,401.9,240.6,353.5,192.3z" class="st78"/><path id="XMLID_54_" d="M120.1,402.9c24.6,0,44.6,20,44.6,44.6c0,24.6-20,44.6-44.6,44.6s-44.6-20-44.6-44.6 C75.6,422.8,95.5,402.9,120.1,402.9z" class="st75"/></g></svg>