<svg xmlns="http://www.w3.org/2000/svg" xmlns:xlink="http://www.w3.org/1999/xlink" id="Layer_1" x="0" y="0" enable-background="new 0 0 506 228" version="1.1" viewBox="0 0 506 228" xml:space="preserve"><style type="text/css">.st617{fill:#316fb9}.st618{fill:#2e2e30}</style><g><path d="M224.8,24.2c0-6.1-0.8-9.9-7.9-12.2c-66,0-132,0-198.1,0c-4.2,1.1-6.8,3.7-7.9,7.9c0,62.7,0,125.4,0,188.2 c0.7,3.4,2.4,6,5.3,7.9c67.8,0,135.6,0,203.3,0c4-2.6,5.3-6.4,5.3-11C224.8,144.7,224.8,84.5,224.8,24.2z M123.8,172.9 c-2.9,2.5-5.6,5.3-8.2,8.1c-1.1,1.2-1.7,1.1-2.8,0c-3.5-3.9-7.3-7.6-10.7-11.5c-1.1-1.3-2.2-1.7-3.8-1.7c-15.8,0-31.7,0-47.5,0.1 c-1.9,0-3.3-0.5-4.6-1.9c-2.8-3.3-5.6-6.7-8.6-9.8c-1.2-1.3-1.8-2.5-1.8-4.3c0.1-13.9,0-27.7,0-41.6c0-13.5,0.1-27.1-0.1-40.6 c0-2.5,0.8-4.4,2.4-6.1c3.2-3.5,6.4-6.8,9.5-10.4c0.8-0.9,1.5-0.8,2.2-0.8c18.6,0,37.2,0,55.8-0.1c2.6,0,3.8,1.7,4.9,3.3 c2.1,3,4.8,5.3,7.1,8c1.9,2.3,2.7,4.3,2.7,7.2c-0.1,26.3-0.1,52.6,0,78.9c0,3.7-1.6,6.2-4,8.4c-1.2,1.2-1.7,2-0.3,3.4 c2.7,2.8,5.1,5.9,7.7,8.8C125.2,171.5,125.1,171.8,123.8,172.9z M202.4,118.3c0,11.3,0,22.7,0,34c0,1.9-0.5,3.2-1.9,4.6 c-3,3-5.9,6.2-8.7,9.3c-1.1,1.2-2.3,1.7-4,1.6c-15-0.1-29.9-0.1-44.9,0c-1.7,0-2.6-0.5-3.7-1.9c-2.9-3.7-6.8-6.5-9.6-10.3 c-0.8-1.2-1.2-2.2-1.2-3.5c0-22.7,0.1-45.3,0-68c0-2.4,0.7-2.9,3-2.9c4.4,0.2,8.8,0.2,13.2,0c2.5-0.1,3.1,0.6,3.1,3.1 c-0.1,19.6-0.1,39.1-0.1,58.7c0,4.3,0,4.3,4.4,4.3c9.3,0,18.7-0.1,28,0.1c2.5,0,3.3-0.6,3.3-3.2c-0.1-19.8,0-39.6-0.1-59.4 c0-3,0.8-3.7,3.6-3.5c4.2,0.3,8.4,0.2,12.5,0c2.4-0.1,3.2,0.5,3.1,3C202.3,95.6,202.4,107,202.4,118.3z" class="st617"/><path d="M495.4,94.4c-3.1-3.8-6.1-7.1-12.1-6.6c-8.7,0.7-17.6,0.7-26.4,0c-7.1-0.6-12.1,1.7-16.3,7.1 c-2.3,2.9-4.1,5.6-4,9.7c0.3,15.3,0.2,30.6,0.1,45.8c0,4.8-0.8,9.7,4.3,12.8c0.3,0.2,0.3,0.9,0.6,1.1c2.7,2,3.9,6.1,8,6.1 c12.5,0,25.1,0,37.6,0c1.7,0,2.7-0.6,3.7-2c2.7-4,5.2-8.3,8.5-11.9c0-0.2,0-0.4,0-0.7c-15.3,0-30.6-0.1-45.9,0.1 c-2.4,0-3.2-0.5-3.1-3c0.2-4.5,0.2-9,0-13.5c-0.1-2.2,0.6-2.7,2.7-2.7c15.4,0.1,30.8,0,46.2,0c0-12.8,0-25.5,0-38.3 C497.9,97.4,496.7,95.9,495.4,94.4z M484,122.3c-5.3-0.1-10.5,0-15.8,0c-5.1,0-10.1-0.1-15.2,0c-1.7,0-2.5-0.2-2.5-2.3 c0.1-5.2,0.1-10.3,0-15.5c0-1.8,0.7-2.1,2.3-2.1c10.4,0.1,20.9,0.1,31.3,0c1.8,0,2.2,0.6,2.1,2.3c-0.1,5.2-0.1,10.3,0,15.5 C486.4,122,485.7,122.3,484,122.3z" class="st618"/><path d="M304.3,93.1c-0.8-0.5-1.2-1.4-1.8-2.3c-1.3-1.9-3-3-5.7-3c-12.3,0.2-24.6,0-37,0.1c-2.1,0-2.8-0.5-2.7-2.7 c0.2-3.5-0.1-7,0.1-10.6c0.1-1.7-0.5-2.9-1.7-4c-4.3-4.1-8.6-8.3-12.9-12.4c0,32.3,0,65,0,97.6c0,1,0.2,1.8,0.9,2.6 c2.7,3,5.3,6,7.8,9.1c1.3,1.5,2.6,2.2,4.8,2.2c10.3-0.1,20.7-0.1,31-0.1c4.2,0,8.8,1.1,12.4-0.4c3.6-1.5,6-5.6,9.1-8.4 c1.5-1.4,2.1-2.8,2.1-4.8c-0.1-15.8-0.4-31.7,0.1-47.5C311,102.1,309.8,96.9,304.3,93.1z M296.2,105c-0.1,8,0,16.1,0,24.1 c0,7.8-0.1,15.6,0,23.4c0,2-0.3,2.8-2.6,2.8c-11.3-0.1-22.6-0.1-34,0c-2.2,0-2.5-0.7-2.5-2.6c0.1-15.9,0.1-31.9,0-47.8 c0-2.2,0.7-2.5,2.6-2.5c11.3,0.1,22.6,0.1,34,0C295.9,102.4,296.2,103.1,296.2,105z" class="st618"/><path d="M389.2,93.4c-0.7-0.4-0.9-1.5-1.5-2c-1.6-1.3-2.4-3.5-5.2-3.5c-15.3,0.1-30.6,0.1-45.8,0.1 c-1,0-2.1-0.2-2.7,0.8c-1.8,3.1-4.7,5.2-7.1,7.7c-1.3,1.3-1.7,2.5-1.7,4.3c0.1,9.5,0,18.9,0,28.4c0,6.4,0.6,12.8-0.1,19.1 c-1,8.8,1.5,15.5,8.6,20.7c1.4,1,2.6,1.7,4.3,1.7c14.1-0.1,28.1-0.2,42.2,0.1c3.6,0.1,5.9-1.3,7.7-3.8c1.4-2,3-3.7,4.8-5.3 c1.4-1.3,1.9-2.7,1.9-4.6c-0.1-16.6-0.3-33.2,0.1-49.8C394.7,101.5,394.1,96.8,389.2,93.4z M380.6,129.2c0,7.9-0.1,15.8,0,23.7 c0,1.9-0.5,2.4-2.4,2.4c-12.5-0.1-25.1-0.1-37.6,0c-1.9,0-2.4-0.5-2.4-2.4c0.1-15.8,0.1-31.7,0-47.5c0-1.9,0.5-2.4,2.4-2.4 c12.5,0.1,25.1,0.1,37.6,0c1.9,0,2.4,0.5,2.4,2.4C380.6,113.4,380.6,121.3,380.6,129.2z" class="st618"/><path d="M422.2,72.3c-4.2-4.4-8.4-8.8-13.2-13.8c0,21.3,0,41.7,0,62.1c0,15.7,0,31.5,0,47.2c0,2.1,0.5,2.9,2.7,2.7 c3-0.2,5.9-0.2,8.9,0c1.9,0.1,2.3-0.6,2.3-2.4c-0.1-31,0-62,0-93.1C422.9,74.1,423,73.2,422.2,72.3z" class="st618"/><path d="M98,72.7c-13.3,0.1-26.6,0.1-39.9,0c-2.3,0-3,0.5-3,2.9c0.1,11.5,0.1,23.1,0.1,34.6c0,11.7,0.1,23.3-0.1,35 c0,2.4,0.7,2.9,3,2.9c13.3-0.1,26.6-0.1,39.9,0c2.1,0,2.8-0.5,2.8-2.7c-0.1-23.3-0.1-46.6,0-70C100.8,73.2,100.1,72.7,98,72.7z" class="st617"/></g></svg>