<svg xmlns="http://www.w3.org/2000/svg" xmlns:xlink="http://www.w3.org/1999/xlink" id="Layer_1" x="0" y="0" enable-background="new 0 0 288 288" version="1.1" viewBox="0 0 288 288" xml:space="preserve"><style type="text/css">.st12{fill:#fefefe}.st423{fill:#06262c}.st424{fill:#209fbc}.st425{fill:#209ebb}.st426{fill:#f0f2f2}.st427{fill:#3f585d}.st428{fill:#09282e}</style><g><path d="M9,265.6v-2.8c0-0.6,0.3-0.8,0.8-0.8h2.9v-29.4H9.9c-0.6,0-0.8-0.3-0.8-0.8v-2.8c0-0.6,0.3-0.8,0.8-0.8 c4.8-0.2,8.8-0.3,12-0.3c9.8,0,14.7,3.5,14.7,10.5c0,2.4-0.6,4.6-1.9,6.5c-1.2,1.9-2.9,3.3-5,4.3l6.6,13h3.5c0.6,0,0.8,0.3,0.8,0.8 v2.8c0,0.6-0.3,0.8-0.8,0.8h-7.5c-0.6,0-1-0.2-1.2-0.7l-7.7-15.2h-1.1c-1.2,0-2.3-0.1-3.2-0.2V262h3.6c0.6,0,0.8,0.3,0.8,0.8v2.8 c0,0.6-0.3,0.8-0.8,0.8H9.9C9.3,266.4,9,266.1,9,265.6L9,265.6z M19.1,232.4V246c0.3,0,0.7,0.1,1.3,0.1c3.1,0,5.4-0.6,7.1-1.8 c1.7-1.2,2.5-3,2.5-5.4c0-4.3-3-6.4-8.9-6.4C21.2,232.4,19.1,232.4,19.1,232.4z M56.5,267.1c-4.5,0-7.8-1.3-9.9-3.9 c-2.1-2.6-3.1-6.1-3.1-10.4c0-4.3,1.1-7.9,3.3-10.7c2.2-2.8,5.4-4.2,9.6-4.2c2.1,0,3.9,0.4,5.3,1.2c1.5,0.8,2.6,1.8,3.4,3.1 c1.5,2.6,2.3,5.5,2.3,8.9c0,1.6-0.1,2.4-0.2,2.6c-0.2,0.2-0.4,0.2-0.8,0.2H49.8c0.2,2.7,0.9,4.8,2,6.3c1.1,1.5,3.1,2.2,6,2.2 c2.1,0,4.2-0.5,6.4-1.5c0.5-0.3,0.9-0.1,1.1,0.5l1.1,2.6c0.2,0.5,0,0.8-0.5,1.1C63.4,266.4,60.3,267.1,56.5,267.1z M49.8,249.7 h11.8c0.1-4.7-1.8-7.1-5.5-7.1c-2.2,0-3.8,0.7-4.7,2.1C50.4,246.1,49.9,247.8,49.8,249.7L49.8,249.7z M80.4,243.1v14.2 c0,1.8,0.2,3.1,0.7,3.8c0.5,0.8,1.3,1.2,2.5,1.2c1.2,0,2.4-0.3,3.6-0.8c0.4-0.2,0.7,0,0.9,0.5l1,2.6c0,0.1,0.1,0.3,0.1,0.5 c0,0.2-0.2,0.4-0.6,0.6c-1.8,0.9-4,1.4-6.4,1.4c-3.4,0-5.6-0.9-6.6-2.6c-0.8-1.1-1.2-2.2-1.3-3.3c-0.2-1.5-0.2-3-0.2-4.5v-13.6 h-3.2c-0.6,0-0.8-0.3-0.8-0.8v-2.9c0-0.6,0.3-0.8,0.8-0.8h3.2v-7.6c0-0.6,0.3-0.8,0.8-0.8h4.6c0.6,0,0.8,0.3,0.8,0.8v7.6h5.7 c0.6,0,0.8,0.3,0.8,0.8v2.9c0,0.6-0.3,0.8-0.8,0.8H80.4L80.4,243.1z M91.2,228.1v-2.9c0-0.6,0.3-0.8,0.8-0.8h8.5 c0.6,0,0.8,0.3,0.8,0.8v17.4c2.1-3.1,5-4.7,8.8-4.7c5.8,0,8.8,3.2,8.8,9.6V262h3.3c0.6,0,0.8,0.3,0.8,0.8v2.8 c0,0.6-0.3,0.8-0.8,0.8h-12.4c-0.6,0-0.8-0.3-0.8-0.8v-2.8c0-0.6,0.3-0.8,0.8-0.8h2.7v-11.7c0-2.4-0.3-4.1-0.9-5.2 c-0.6-1.1-1.8-1.6-3.7-1.6c-1.9,0-3.4,0.6-4.7,1.7c-1.2,1.1-1.9,2.4-1.9,3.8v13h3.4c0.6,0,0.8,0.3,0.8,0.8v2.8 c0,0.6-0.3,0.8-0.8,0.8H92c-0.6,0-0.8-0.3-0.8-0.8v-2.8c0-0.6,0.3-0.8,0.8-0.8h3.1v-33.1H92C91.4,228.9,91.2,228.6,91.2,228.1z M135.5,262h3.6c0.6,0,0.8,0.3,0.8,0.8v2.8c0,0.6-0.3,0.8-0.8,0.8h-13.4c-0.6,0-0.8-0.3-0.8-0.8v-2.8c0-0.6,0.3-0.8,0.8-0.8h3.6 v-18.9h-3.1c-0.6,0-0.8-0.3-0.8-0.8v-2.9c0-0.6,0.3-0.8,0.8-0.8h8.5c0.6,0,0.8,0.3,0.8,0.8L135.5,262L135.5,262z M127.6,230.6 c0-1.2,0.4-2.1,1.1-2.9c0.7-0.8,1.7-1.2,2.9-1.2c1.2,0,2.2,0.4,2.9,1.2c0.7,0.8,1.1,1.7,1.1,2.9s-0.4,2.1-1.1,2.9 c-0.8,0.8-1.7,1.1-3,1.1c-1.2,0-2.2-0.4-2.9-1.1C128,232.7,127.6,231.7,127.6,230.6z M141.9,242.3v-3c0-0.6,0.3-0.8,0.8-0.8h7.7 c0.5,0,0.8,0.3,0.9,0.8l0.5,3.3c2.1-3.2,5.1-4.7,9-4.7c5.8,0,8.8,3.2,8.8,9.6V262h3.3c0.6,0,0.8,0.3,0.8,0.8v2.8 c0,0.6-0.3,0.8-0.8,0.8h-12.3c-0.6,0-0.8-0.3-0.8-0.8v-2.8c0-0.6,0.3-0.8,0.8-0.8h2.7v-11.7c0-2.4-0.3-4.1-0.9-5.2 c-0.6-1.1-1.8-1.6-3.7-1.6s-3.4,0.6-4.7,1.7c-1.2,1.1-1.9,2.4-1.9,3.8v13h3.5c0.6,0,0.8,0.3,0.8,0.8v2.8c0,0.6-0.3,0.8-0.8,0.8 h-12.8c-0.6,0-0.8-0.3-0.8-0.8v-2.8c0-0.6,0.3-0.8,0.8-0.8h3v-18.9h-3.1C142.2,243.1,141.9,242.8,141.9,242.3L141.9,242.3z M186.2,225.1v22.5h2.9l8.8-8.6c0.4-0.4,0.9-0.6,1.5-0.6h4.4c0.6,0,0.8,0.3,0.8,0.8v2.9c0,0.6-0.3,0.8-0.8,0.8h-3.4l-6.2,6 l7.7,12.8h3.3c0.6,0,0.8,0.3,0.8,0.8v2.8c0,0.6-0.3,0.8-0.8,0.8h-7.3c-0.5,0-1-0.2-1.3-0.7l-8.5-13.7h-1.9v9.9h3 c0.6,0,0.8,0.3,0.8,0.8v2.8c0,0.6-0.3,0.8-0.8,0.8h-12.3c-0.6,0-0.8-0.3-0.8-0.8v-2.8c0-0.6,0.3-0.8,0.8-0.8h3v-33.1h-3.1 c-0.6,0-0.8-0.3-0.8-0.8v-2.9c0-0.6,0.3-0.8,0.8-0.8h8.5C186,224.3,186.2,224.6,186.2,225.1L186.2,225.1z M209.7,228.1 c4.8-0.2,8.4-0.3,10.7-0.3c2.3,0,4.1,0,5.2,0.1c1.1,0.1,2.5,0.3,3.9,0.6c1.5,0.3,2.8,0.7,3.9,1.2c1.1,0.5,2.3,1.2,3.5,2.2 c1.2,0.9,2.1,2,2.9,3.3c1.7,2.9,2.6,6.6,2.6,11.1c0,6.8-1.9,11.9-5.6,15.2c-3.8,3.3-8.9,5-15.4,5h-11.8c-0.6,0-0.8-0.3-0.8-0.8 v-2.8c0-0.6,0.3-0.8,0.8-0.8h2.9v-29.3h-2.9c-0.6,0-0.8-0.3-0.8-0.8v-2.9C208.8,228.3,209.1,228.1,209.7,228.1L209.7,228.1z M232.3,258c2.3-2.7,3.4-6.4,3.4-11.1c0-4.7-1.1-8.3-3.2-10.7c-2.1-2.4-5.5-3.7-10-3.7H219V262h3.7C226.8,262,230,260.7,232.3,258 L232.3,258z M247.2,265.6v-2.8c0-0.6,0.3-0.8,0.8-0.8h3v-29.3h-2.9c-0.6,0-0.8-0.3-0.8-0.8v-2.9c0-0.6,0.3-0.9,0.8-0.9 c4.5-0.2,8.8-0.3,12.9-0.3c4.1,0,7.3,0.8,9.7,2.3c2.4,1.6,3.6,3.8,3.6,6.7c0,2.1-0.6,3.9-1.9,5.5c-1.3,1.6-2.8,2.7-4.6,3.4 c2.9,0.5,5.1,1.5,6.6,3.2c1.5,1.7,2.3,3.8,2.3,6.2c0,3.2-1.2,5.8-3.6,7.8c-2.4,2-5.5,3.1-9.4,3.4c-1.6,0.1-4.2,0.2-7.8,0.2H248 C247.4,266.4,247.2,266.1,247.2,265.6L247.2,265.6z M257.3,248.6v13.4h2.5c3.3,0,5.9-0.5,7.7-1.6c1.8-1.1,2.7-2.9,2.7-5.5 c0-4.3-3-6.4-8.9-6.4L257.3,248.6L257.3,248.6z M257.3,232.3v11.6h2.1c5.6,0,8.4-1.9,8.4-5.8c0-2.2-0.7-3.7-2-4.5 c-1.4-0.8-3.3-1.3-5.8-1.3L257.3,232.3L257.3,232.3z"/></g><g id="JeZY93.tif"><g><g><path d="M119,204.1c-12.3-9.5-13.9-23.5-15.5-37.4c-0.6-5.1-0.3-10.4-0.2-15.6c0.1-4.6,2-9.4-3.2-12.7 c-0.9-0.6-1.6-2.9-1.2-3.8c2.5-5.8-2.1-7.5-5.3-10.2c-6.8-5.6-8.3-11.6-5-19.7c1.3-3.2,2-6.3,2.4-9.7 c1.6-12.6,8.1-22.5,18.5-29.6c2.9-2,4.3-4,4.9-7.4c3.5-21.1,19-32.3,38.2-28.3c8.3,1.7,13.8,7,17.7,14.1 c2.1,3.7,3.3,7.7,4.3,11.8c3,12,6,23.8,16.3,32.4c7.9,6.6,9.4,15.9,6.8,25.8c-2.5,9.4-2.1,18.9-1.2,28.5 c1.6,18-3.5,34.5-12.1,49.9c-4.5,8.1-11.1,8.9-18.3,2.7c-9.7-8.3-9.7-8.3-20.9-2.5c-7.8,4.1-15.2,9-23.7,11.9 C120.6,204.1,119.8,204.1,119,204.1z" class="st423"/></g><g><path d="M175.2,177c-2.1-1.5-3.6-0.2-5.3,0.4c-13.7,5.6-27.3,11.3-40.1,18.8c-9,5.3-12.2,4.3-16.8-5.3 c-7.1-14.6-7.1-30.1-5.9-45.8c0.2-2.3,1.5-2.2,3.1-2.5c14.1-3.1,19-10.1,16.7-24.5c-0.3-1.6,0.2-2.7,0.7-3.9 c6.1-14.6,3.1-28.4-8.6-38.5c-1.7-1.4-2-2.9-2.1-4.6c-0.3-7.9,0.3-15.7,3.7-22.9c4.8-10.5,12.8-16.6,24.9-16.5 c12,0,20.7,5.9,23.5,16.9c6.5,26,20,49.8,23,76.8c2.4,21.5,1.9,42.4-9.1,61.9c-2,3.6-3.7,8.1-9,7.5c-5.5-0.7-8.1-5.6-11.4-9.1 c-1.6-1.7,1-2,2-2.6C167.9,181,172.4,180.6,175.2,177z" class="st12"/></g><g><path d="M114.3,107.5c1.4,3.6,4.1,4.8,5.9,6.8c5,5.3,5.9,10.3,2.7,16.4c-2.6,5-10.3,9.3-15.4,8.6 c-2.4-0.3-4.4-1.4-5-3.7c-0.5-1.7-1.2-3.8,1.5-5c2.7-1.2,0.7-2.5-0.5-3.3c-2.6-1.9-5.5-3.4-7.9-5.4c-7-5.7-7.6-14-1.2-20.4 c4.5-4.5,9.7-8.3,14.5-12.6c2.7-2.4,4.1-1.4,5.2,1.4c1.5,3.9,3.3,7.7,4.4,11.7C119.5,105.1,121.9,109.8,114.3,107.5z" class="st12"/></g><g><path d="M94.1,95.6c2.5-11.8,7.7-21,17.8-27.4C116.2,80,112.3,83.1,94.1,95.6z" class="st424"/></g><g><path d="M124.2,112.9c-1.8-0.9-1.7-2.1-1.5-3.3c1.1-8.4-2.1-15.7-6.3-22.6c-1.5-2.5-2.7-4.6,0.3-6.5 c3.5-2.3,3.9,1.8,4.9,3.2C128.4,93.2,129.3,104.3,124.2,112.9z" class="st425"/></g><g><path d="M186.7,89.1c8.2,6.7,11.2,14.7,7.1,25.1C191.3,105.6,189,97.3,186.7,89.1z" class="st426"/></g><g><path d="M167.3,49.5c-3,0.2-5.3,0.4-7.6,0.5C162.4,45.3,163,45.2,167.3,49.5z" class="st427"/></g><g><path d="M137.7,54c2.5-4.2,4.9-4.1,8.5-1.6C143.1,53,140.9,53.4,137.7,54z" class="st428"/></g></g></g></svg>