<svg xmlns="http://www.w3.org/2000/svg" xmlns:xlink="http://www.w3.org/1999/xlink" x="0" y="0" enable-background="new 0 0 396 306.3" version="1.1" viewBox="0 0 396 306.3" xml:space="preserve"><style type="text/css">.st0{fill-rule:evenodd;clip-rule:evenodd}.st0,.st1{fill:#577a82}.st2{fill:#65a08f}.st3{fill:#40aaa5}.st4{fill:#60c1af}.st5{fill:#a0d4a8}.st6{fill:#577982}</style><g id="Layer_1"><g><g><path d="M64.7,216.3c-10.8,0.3-17.8,5.7-17.6,14.1c0.4,16,24.1,10.6,24.3,18.6c0.1,2.6-2.2,4-5.8,4.1 c-4.7,0.1-11.7-2.4-16.5-6.3l-4.2,8.9c5.5,4.2,13.3,6.9,20.8,6.7c10-0.3,17.9-5.2,17.7-14.2c-0.4-16.3-24.1-11.2-24.3-19 c-0.1-2.2,1.9-3.3,4.9-3.4c3.7-0.1,9.7,1.7,14.5,4.3l4.1-9.1C77.8,218,71.2,216.2,64.7,216.3L64.7,216.3L64.7,216.3z" class="st0"/><path d="M120.2,216.2c-13.7,0-24.1,9.8-24.1,22.8c0,13.2,10.1,23.2,23.7,23.2c6.6,0,13.8-3.3,18.6-8.2l-6.7-7.1 c-3.2,3.2-7.5,5.3-11.3,5.3c-7.1,0-12.6-5.7-12.6-13.3c0-7.4,5.4-13.1,12.6-13.1c4,0,8.4,2.3,11.3,5.9l6.6-7.9 C133.8,219.2,126.9,216.2,120.2,216.2L120.2,216.2L120.2,216.2z" class="st0"/><path d="M178.4,216.6h-11.8l-19.4,45.1h11.8l3.3-8.3h19.7l3.2,8.3h12.2L178.4,216.6z M165.5,244.7l6.6-16.7l6.4,16.7 H165.5z" class="st0"/><polygon points="222.7 252.4 222.7 216.9 211.2 216.9 211.2 262 241.8 262 241.8 252.4 222.7 252.4" class="st0"/><polygon points="276.6 247.1 293 216.6 281.5 216.6 270.9 236.2 260 216.6 248.5 216.6 265.2 247.4 265.2 261.7 276.6 261.7 276.6 247.1" class="st0"/><path d="M335.7,246.8c5.3-2.6,8.2-7.6,8.2-14.5c0-10-6.8-15.7-18.7-15.7H305v45.1h11.5V249h8.7h0.3l6.7,12.7h13 L335.7,246.8z M324.3,240h-8.7v-14.4h8.7c5,0,7.9,2.4,7.9,7.1C332.1,237.4,329.2,240,324.3,240z" class="st0"/></g></g></g><g id="Layer_2"><g><g><path d="M234.7,63.9h-79.4c-5.7,0-10.3-4.6-10.3-10.3v0c0-5.7,4.6-10.3,10.3-10.3h79.4c5.7,0,10.3,4.6,10.3,10.3v0 C245,59.3,240.4,63.9,234.7,63.9z" class="st1"/></g><g><path d="M219.8,93.5h-79.4c-5.7,0-10.3-4.6-10.3-10.3v0c0-5.7,4.6-10.3,10.3-10.3h79.4c5.7,0,10.3,4.6,10.3,10.3v0 C230.1,88.8,225.5,93.5,219.8,93.5z" class="st2"/></g><g><path d="M234.7,123h-79.4c-5.7,0-10.3-4.6-10.3-10.3v0c0-5.7,4.6-10.3,10.3-10.3h79.4c5.7,0,10.3,4.6,10.3,10.3v0 C245,118.4,240.4,123,234.7,123z" class="st3"/></g><g><path d="M249.7,152.6h-79.4c-5.7,0-10.3-4.6-10.3-10.3v0c0-5.7,4.6-10.3,10.3-10.3h79.4c5.7,0,10.3,4.6,10.3,10.3v0 C260,148,255.4,152.6,249.7,152.6z" class="st4"/></g><g><path d="M234.7,182.2h-79.4c-5.7,0-10.3-4.6-10.3-10.3v0c0-5.7,4.6-10.3,10.3-10.3h79.4c5.7,0,10.3,4.6,10.3,10.3v0 C245,177.5,240.4,182.2,234.7,182.2z" class="st5"/></g></g><g><path d="M358,221.1c0,2.4-1.9,4.3-4.4,4.3c-2.4,0-4.4-1.9-4.4-4.3c0-2.4,1.9-4.3,4.4-4.3 C356.1,216.8,358,218.7,358,221.1z M350.3,221.1c0,1.9,1.4,3.4,3.3,3.4c1.9,0,3.2-1.5,3.2-3.4c0-1.9-1.4-3.4-3.3-3.4 C351.7,217.7,350.3,219.2,350.3,221.1z M353,223.3h-1V219c0.4-0.1,0.9-0.1,1.6-0.1c0.8,0,1.2,0.1,1.5,0.3c0.2,0.2,0.4,0.5,0.4,0.9 c0,0.5-0.4,0.8-0.9,1v0.1c0.4,0.2,0.7,0.5,0.8,1c0.1,0.6,0.2,0.9,0.3,1.1h-1.1c-0.1-0.2-0.2-0.5-0.3-1c-0.1-0.5-0.3-0.7-0.9-0.7 H353V223.3z M353,220.9h0.5c0.5,0,1-0.2,1-0.6c0-0.4-0.3-0.6-0.9-0.6c-0.3,0-0.4,0-0.5,0.1V220.9z" class="st6"/></g></g></svg>