<svg xmlns="http://www.w3.org/2000/svg" xmlns:xlink="http://www.w3.org/1999/xlink" id="Layer_1" x="0" y="0" enable-background="new 0 0 500 611" version="1.1" viewBox="0 0 500 611" xml:space="preserve"><style type="text/css">.st0{opacity:.7446;fill:#5a0046;enable-background:new}.st1{fill:#fff}.st2{opacity:.7633;fill:#ad8100}.st2,.st3,.st4{enable-background:new}.st3{opacity:.7643;fill:#001563}.st4{opacity:.7899;fill:#005c0c}.st5{fill:none}</style><switch><g><g><path d="M250.6,249.4h218.6c0-123.5-97.9-223.6-218.6-223.6V249.4z" class="st0" transform="scale(1,-1) translate(0,-500)"/><path d="M256.5,16.4l5.9,0.2l5.8,0.4l5.8,0.5l11.4,1.5l11.2,2.1l11,2.6l10.8,3.1l10.6,3.7l10.4,4.2l10.1,4.7l9.8,5.1 l9.6,5.6l9.3,6.1l8.9,6.5l8.6,6.9l8.3,7.3l7.9,7.7l7.6,8.1l7.2,8.5l6.8,8.8l6.4,9.1l5.9,9.5l5.5,9.8l5,10l4.6,10.3l4.1,10.6 l3.6,10.8l3.1,11.1l2.5,11.3l2,11.5l1.5,11.7l0.9,11.8l0.3,12l-0.2,1.9l-0.6,1.8l-0.9,1.6l-1.2,1.4l-1.4,1.2l-1.6,0.9l-1.8,0.6 l-1.9,0.2H250.6l-1.9-0.2l-1.8-0.6l-1.6-0.9l-1.4-1.2l-1.2-1.4l-0.9-1.6l-0.6-1.8l-0.2-1.9V25.8l0.2-1.9l0.6-1.8l0.9-1.6l1.2-1.4 l1.4-1.2l1.6-0.9l1.8-0.6l1.9-0.2L256.5,16.4z M250.6,249.4h218.6l-0.3-11.5l-0.8-11.4l-1.4-11.2l-1.9-11l-2.4-10.8l-2.9-10.6 l-3.4-10.4l-3.9-10.2l-4.4-9.9l-4.8-9.6l-5.3-9.4l-5.7-9.1l-6.1-8.8l-6.5-8.4l-6.9-8.1l-7.2-7.8l-7.6-7.4l-7.9-7l-8.3-6.6 l-8.6-6.2l-8.9-5.8l-9.2-5.4l-9.4-4.9l-9.7-4.5l-9.9-4l-10.2-3.5l-10.4-3l-10.6-2.5l-10.8-2L272.9,27l-11.1-0.9l-11.2-0.3V249.4z" class="st1" transform="scale(1,-1) translate(0,-500)"/><path d="M250.6,249.4V473c120.7,0,218.6-100.1,218.6-223.6H250.6z" class="st2" transform="scale(1,-1) translate(0,-500)"/><path d="M471.1,240.1l1.8,0.6l1.6,0.9l1.4,1.2l1.2,1.4l0.9,1.6l0.6,1.8l0.2,1.9l-0.3,12l-0.9,11.8l-1.5,11.7l-2,11.5 l-2.5,11.3l-3.1,11.1l-3.6,10.8l-4.1,10.6l-4.6,10.3l-5,10l-5.5,9.8l-5.9,9.5l-6.4,9.1l-6.8,8.8l-7.2,8.5l-7.6,8.1l-7.9,7.7 l-8.3,7.3l-8.6,6.9l-8.9,6.5l-9.3,6.1l-9.6,5.6l-9.8,5.1l-10.1,4.7l-10.4,4.2l-10.6,3.7l-10.8,3.1l-11,2.6l-11.2,2.1l-11.4,1.5 l-5.8,0.5l-5.8,0.4l-5.9,0.2l-5.9,0.1l-1.9-0.2l-1.8-0.6l-1.6-0.9l-1.4-1.2l-1.2-1.4l-0.9-1.6l-0.6-1.8l-0.2-1.9V249.4l0.2-1.9 l0.6-1.8l0.9-1.6l1.2-1.4l1.4-1.2l1.6-0.9l1.8-0.6l1.9-0.2h218.6L471.1,240.1z M250.6,249.4V473l11.2-0.3l11.1-0.9l10.9-1.4 l10.8-2l10.6-2.5l10.4-3l10.2-3.5l9.9-4l9.7-4.5l9.4-4.9l9.2-5.4l8.9-5.8l8.6-6.2l8.3-6.6l7.9-7l7.6-7.4l7.2-7.8l6.9-8.1l6.5-8.4 l6.1-8.8l5.7-9.1l5.3-9.4l4.8-9.6l4.4-9.9l3.9-10.2l3.4-10.4l2.9-10.6l2.4-10.8l1.9-11l1.4-11.2l0.8-11.4l0.3-11.5H250.6z" class="st1" transform="scale(1,-1) translate(0,-500)"/><path d="M250.6,249.4V25.8C129.9,25.8,32,125.9,32,249.4H250.6z" class="st3" transform="scale(1,-1) translate(0,-500)"/><path d="M252.5,16.5l1.8,0.6l1.6,0.9l1.4,1.2l1.2,1.4l0.9,1.6l0.6,1.8l0.2,1.9v223.6l-0.2,1.9l-0.6,1.8l-0.9,1.6 l-1.2,1.4l-1.4,1.2l-1.6,0.9l-1.8,0.6l-1.9,0.2H32l-1.9-0.2l-1.8-0.6l-1.6-0.9l-1.4-1.2l-1.2-1.4l-0.9-1.6l-0.6-1.8l-0.2-1.9 l0.3-12l0.9-11.8l1.5-11.7l2-11.5l2.5-11.3l3.1-11.1l3.6-10.8l4.1-10.6l4.6-10.3l5-10l5.5-9.8l5.9-9.5l6.4-9.1l6.8-8.8l7.2-8.5 l7.6-8.1l7.9-7.7l8.3-7.3l8.6-6.9l8.9-6.5l9.3-6.1l9.6-5.6l9.8-5.1l10.1-4.7l10.4-4.2l10.6-3.7l10.8-3.1l11-2.6l11.2-2.1 l11.4-1.5L233,17l5.8-0.4l5.9-0.2l5.9-0.1L252.5,16.5z M239.3,26.1L228.2,27l-10.9,1.4l-10.8,2L196,32.8l-10.4,3l-10.2,3.5 l-9.9,4l-9.7,4.5l-9.4,4.9l-9.2,5.4l-8.9,5.8l-8.6,6.2l-8.3,6.6l-7.9,7L96,91.3l-7.2,7.8l-6.9,8.1l-6.5,8.4l-6.1,8.8l-5.7,9.1 l-5.3,9.4l-4.8,9.6l-4.4,9.9l-3.9,10.2l-3.4,10.4l-2.9,10.6l-2.4,10.8l-1.9,11l-1.4,11.2l-0.8,11.4L32,249.4h218.6V25.8 L239.3,26.1z" class="st1" transform="scale(1,-1) translate(0,-500)"/><path d="M250.6,249.4H32C32,372.9,129.9,473,250.6,473V249.4z" class="st4" transform="scale(1,-1) translate(0,-500)"/><path d="M252.5,240.1l1.8,0.6l1.6,0.9l1.4,1.2l1.2,1.4l0.9,1.6l0.6,1.8l0.2,1.9V473l-0.2,1.9l-0.6,1.8l-0.9,1.6 l-1.2,1.4l-1.4,1.2l-1.6,0.9l-1.8,0.6l-1.9,0.2l-5.9-0.1l-5.9-0.2l-5.8-0.4l-5.8-0.5l-11.4-1.5l-11.2-2.1l-11-2.6l-10.8-3.1 l-10.6-3.7l-10.4-4.2l-10.1-4.7l-9.8-5.1l-9.6-5.6l-9.3-6.1l-8.9-6.5l-8.6-6.9l-8.3-7.3l-7.9-7.7l-7.6-8.1l-7.2-8.5l-6.8-8.8 l-6.4-9.1l-5.9-9.5l-5.5-9.8l-5-10l-4.6-10.3l-4.1-10.6l-3.6-10.8l-3.1-11.1l-2.5-11.3l-2-11.5l-1.5-11.7l-0.9-11.8l-0.3-12 l0.2-1.9l0.6-1.8l0.9-1.6l1.2-1.4l1.4-1.2l1.6-0.9l1.8-0.6l1.9-0.2h218.6L252.5,240.1z M32,249.4l0.3,11.5l0.8,11.4l1.4,11.2 l1.9,11l2.4,10.8l2.9,10.6l3.4,10.4l3.9,10.2l4.4,9.9l4.8,9.6l5.3,9.4l5.7,9.1l6.1,8.8l6.5,8.4l6.9,8.1l7.2,7.8l7.6,7.4l7.9,7 l8.3,6.6l8.6,6.2l8.9,5.8l9.2,5.4l9.4,4.9l9.7,4.5l9.9,4l10.2,3.5l10.4,3l10.6,2.5l10.8,2l10.9,1.4l11.1,0.9l11.2,0.3V249.4H32z" class="st1" transform="scale(1,-1) translate(0,-500)"/><path d="M424.3,249.4c0,98.1-77.8,177.6-173.7,177.6S76.9,347.5,76.9,249.4S154.7,71.8,250.6,71.8 S424.3,151.3,424.3,249.4z" class="st1" transform="scale(1,-1) translate(0,-500)"/><path d="M261.9,370.7c8,0,16.1-0.4,24.3-1.2c8.2-0.8,16.7-1.9,25.4-3.3c8.7-1.4,16.8-3.1,24.2-4.9s14.2-4,20.3-6.3l-25.9-74.1 c-8.1,10.9-17.1,19.3-27.1,25.3s-20.4,9-31.3,9c-6.5,0-11.1-1.3-14-3.9c-2.9-2.6-4.3-5.9-4.3-9.8c0-3.7,2.8-7.2,8.4-10.6 c5.6-3.4,14.2-7.3,25.9-11.7c30.5-11.2,50.2-22.3,59.1-33.4c8.7-10.9,13.1-24.3,13.1-40.3c0-24.9-9.5-44.1-28.4-57.4 s-47.1-19.9-84.6-19.9c-19.5,0-38,1.3-55.6,4s-34.8,7.2-51.7,13.7l25.4,78.5c7.2-11.3,16.3-20.4,27.3-27.3 c10.9-6.9,21.4-10.3,31.6-10.3c5,0,9.2,1.3,12.6,3.8s5,5.7,5,9.5c0,4.5-2.3,8.4-7,11.8c-4.7,3.3-11.9,6.9-21.8,10.7 c-24.2,9.1-40.9,19-49.9,29.7c-8.9,10.8-13.4,24-13.4,39.6c0,26.2,9.4,45.9,28.3,59.1S224.8,370.7,261.9,370.7z" transform="scale(1,-1) translate(0,-500)"/></g><path d="M321.6,560.1c-1,0.2-2,0.4-3.1,0.5c-1.1,0.1-2.2,0.3-3.3,0.5c-1,0.2-2,0.4-3,0.8c-1,0.3-1.9,0.8-2.6,1.3 c-0.7,0.5-1.3,1.2-1.8,2.1c-0.4,0.8-0.7,1.9-0.7,3.2c0,1.2,0.2,2.2,0.7,3.1c0.4,0.8,1.1,1.5,1.8,2c0.8,0.5,1.7,0.8,2.7,1 c1,0.2,2.1,0.3,3.2,0.3c2.7,0,4.8-0.4,6.2-1.3c1.5-0.9,2.6-2,3.3-3.2c0.7-1.2,1.1-2.5,1.3-3.8c0.2-1.3,0.2-2.3,0.2-3.1v-5.1 c-0.6,0.5-1.3,0.9-2.2,1.2C323.6,559.6,322.6,559.9,321.6,560.1z" class="st5"/><path d="M187.5,546.3c-0.9-1.4-2.1-2.5-3.6-3.4c-1.5-0.8-3.3-1.2-5.6-1.2c-1.9,0-3.6,0.4-4.9,1.2 c-1.4,0.8-2.5,1.8-3.5,3.1c-0.9,1.3-1.6,2.8-2,4.5c-0.4,1.7-0.6,3.5-0.6,5.3c0,1.8,0.2,3.6,0.5,5.3c0.4,1.8,1,3.3,1.8,4.8 c0.9,1.4,2,2.6,3.4,3.5c1.4,0.9,3.2,1.3,5.3,1.3c1.9,0,3.6-0.4,5.1-1.2c1.5-0.8,2.7-1.8,3.6-3.1c1-1.3,1.7-2.7,2.2-4.4 c0.5-1.6,0.7-3.3,0.7-5.1c0-2-0.2-4-0.6-5.8C189,549.4,188.4,547.7,187.5,546.3z" class="st5"/><path d="M57.7,546.7c-2.2-1.5-4.5-2.5-6.8-3.2c-2.3-0.7-4.1-1.1-5.3-1.4c-4.3-1.1-7.8-2-10.4-2.7c-2.7-0.7-4.7-1.4-6.2-2.1 c-1.5-0.7-2.5-1.5-3-2.3c-0.5-0.8-0.8-1.9-0.8-3.3c0-1.5,0.3-2.7,1-3.6c0.6-1,1.5-1.8,2.4-2.4c1-0.6,2.1-1.1,3.3-1.3 c1.2-0.3,2.4-0.4,3.6-0.4c1.9,0,3.6,0.2,5.1,0.5c1.6,0.3,3,0.9,4.2,1.6c1.2,0.8,2.2,1.8,2.9,3.2c0.7,1.3,1.2,3,1.3,5.1h14.6 c0-4-0.8-7.3-2.3-10.1c-1.5-2.8-3.5-5.1-6.1-6.9c-2.6-1.8-5.5-3.1-8.8-3.9c-3.3-0.8-6.7-1.2-10.3-1.2c-3.1,0-6.1,0.4-9.2,1.2 c-3.1,0.8-5.8,2.1-8.3,3.8c-2.4,1.7-4.4,3.9-5.9,6.5c-1.5,2.6-2.3,5.7-2.3,9.2c0,3.1,0.6,5.8,1.8,8c1.2,2.2,2.7,4.1,4.7,5.5 c1.9,1.5,4.1,2.7,6.5,3.6c2.4,0.9,4.9,1.7,7.5,2.4c2.5,0.7,5,1.3,7.4,1.9c2.4,0.6,4.6,1.2,6.5,2c1.9,0.8,3.5,1.7,4.7,2.9 c1.2,1.2,1.8,2.7,1.8,4.5c0,1.7-0.4,3.2-1.3,4.3c-0.9,1.1-2,2-3.4,2.6c-1.3,0.6-2.8,1.1-4.3,1.3c-1.5,0.2-3,0.3-4.3,0.3 c-2,0-3.9-0.2-5.8-0.7c-1.9-0.5-3.5-1.2-4.9-2.2c-1.4-1-2.5-2.3-3.3-3.9c-0.8-1.6-1.2-3.6-1.2-5.9H8.3c-0.1,4.2,0.7,7.9,2.3,10.9 c1.6,3.1,3.8,5.6,6.5,7.6c2.7,2,5.9,3.4,9.4,4.4c3.6,0.9,7.2,1.4,11,1.4c4.7,0,8.8-0.5,12.3-1.6c3.6-1.1,6.5-2.6,8.9-4.6 c2.4-2,4.2-4.3,5.4-7c1.2-2.7,1.8-5.6,1.8-8.7c0-3.8-0.8-7-2.4-9.5C61.9,550.2,60,548.2,57.7,546.7z"/><rect width="13.6" height="49.7" x="73.9" y="532.8"/><rect width="13.6" height="11.2" x="73.9" y="513.9"/><path d="M141.2,537.1c-1.3-1.8-3.2-3.1-5.5-4.1c-2.3-1-5.3-1.5-9-1.5c-2.9,0-5.7,0.7-8.5,2c-2.8,1.3-5,3.4-6.7,6.3h-0.3v-6.9h-13 v49.7h13.6v-26c0-5.1,0.8-8.7,2.5-10.9c1.7-2.2,4.4-3.3,8.1-3.3c3.3,0,5.5,1,6.8,3c1.3,2,1.9,5.1,1.9,9.2v28h13.6v-30.5 c0-3.1-0.3-5.9-0.8-8.4C143.5,541,142.6,538.8,141.2,537.1z"/><path d="M190,539.4h-0.2c-1.7-2.9-3.7-4.9-6.2-6.1c-2.5-1.2-5.3-1.8-8.6-1.8c-3.5,0-6.5,0.7-9.2,2c-2.7,1.3-4.9,3.2-6.7,5.4 c-1.8,2.3-3.2,4.9-4.1,7.9c-0.9,3-1.4,6.1-1.4,9.3c0,3.4,0.4,6.6,1.2,9.7c0.8,3,2.1,5.7,3.8,8c1.7,2.3,3.9,4.1,6.6,5.4 c2.7,1.3,5.9,2,9.6,2c3,0,5.9-0.6,8.6-1.9c2.7-1.2,4.8-3.2,6.3-5.8h0.2v6.5c0.1,3.5-0.8,6.4-2.5,8.7c-1.8,2.3-4.6,3.5-8.4,3.5 c-2.4,0-4.6-0.5-6.4-1.5c-1.9-1-3.1-2.8-3.7-5.3h-13.5c0.2,2.8,1,5.2,2.4,7.3c1.4,2,3.1,3.7,5.2,4.9c2.1,1.3,4.4,2.2,6.9,2.8 c2.5,0.6,5,0.9,7.4,0.9c5.7,0,10.2-0.8,13.6-2.3c3.4-1.5,6-3.4,7.8-5.6c1.8-2.2,3-4.6,3.5-7.2c0.5-2.6,0.8-4.8,0.8-6.8v-46.5h-13 V539.4z M189.3,562.1c-0.5,1.6-1.2,3.1-2.2,4.4c-1,1.3-2.2,2.3-3.6,3.1c-1.5,0.8-3.2,1.2-5.1,1.2c-2.1,0-3.9-0.4-5.3-1.3 c-1.4-0.9-2.5-2-3.4-3.5c-0.9-1.4-1.5-3-1.8-4.8c-0.4-1.8-0.5-3.5-0.5-5.3c0-1.9,0.2-3.6,0.6-5.3c0.4-1.7,1.1-3.2,2-4.5 c0.9-1.3,2.1-2.4,3.5-3.1c1.4-0.8,3-1.2,4.9-1.2c2.2,0,4.1,0.4,5.6,1.2c1.5,0.8,2.7,2,3.6,3.4c0.9,1.4,1.5,3,1.9,4.9 c0.4,1.8,0.6,3.8,0.6,5.8C190,558.8,189.8,560.5,189.3,562.1z"/><path d="M246.9,558.8c0,5.1-0.8,8.7-2.5,10.9c-1.7,2.2-4.4,3.3-8.1,3.3c-3.3,0-5.5-1-6.8-3c-1.3-2-1.9-5.1-1.9-9.2v-28h-13.6v30.5 c0,3.1,0.3,5.9,0.8,8.4c0.5,2.5,1.5,4.7,2.8,6.4c1.3,1.8,3.2,3.1,5.5,4.1c2.3,1,5.3,1.4,9,1.4c2.9,0,5.7-0.6,8.5-1.9 c2.8-1.3,5-3.4,6.7-6.2h0.3v6.9h13v-49.7h-13.6V558.8z"/><rect width="13.6" height="68.6" x="271.3" y="513.9"/><path d="M340.2,571.4v-25.8c0-3-0.7-5.4-2-7.3c-1.3-1.8-3.1-3.2-5.2-4.3c-2.1-1-4.5-1.7-7-2.1c-2.6-0.4-5.1-0.5-7.6-0.5 c-2.8,0-5.5,0.3-8.2,0.8c-2.7,0.5-5.2,1.5-7.3,2.7c-2.2,1.3-4,3-5.4,5.1c-1.4,2.1-2.2,4.8-2.4,8h13.6c0.3-2.7,1.2-4.6,2.7-5.8 c1.5-1.2,3.7-1.7,6.3-1.7c1.2,0,2.4,0.1,3.4,0.2c1.1,0.2,2,0.5,2.8,1c0.8,0.5,1.4,1.2,1.9,2s0.7,2,0.7,3.5 c0.1,1.4-0.4,2.5-1.2,3.2c-0.9,0.7-2.1,1.3-3.7,1.7c-1.5,0.4-3.3,0.7-5.3,0.9c-2,0.2-4,0.4-6.1,0.8c-2.1,0.3-4.1,0.8-6.1,1.3 c-2,0.5-3.8,1.4-5.4,2.4c-1.6,1.1-2.8,2.5-3.8,4.4c-1,1.8-1.5,4.1-1.5,7c0,2.6,0.4,4.8,1.3,6.6c0.9,1.9,2.1,3.4,3.6,4.6 c1.5,1.2,3.3,2.1,5.4,2.7c2,0.6,4.3,0.9,6.6,0.9c3.1,0,6.1-0.4,9-1.3c2.9-0.9,5.5-2.5,7.7-4.7c0.1,0.8,0.2,1.6,0.3,2.4 c0.2,0.8,0.4,1.6,0.6,2.4h13.8c-0.6-1-1.1-2.6-1.3-4.6C340.3,575.8,340.2,573.6,340.2,571.4z M326.6,563.2c0,0.8-0.1,1.8-0.2,3.1 c-0.2,1.3-0.6,2.5-1.3,3.8c-0.7,1.2-1.8,2.3-3.3,3.2c-1.5,0.9-3.6,1.3-6.2,1.3c-1.1,0-2.1-0.1-3.2-0.3c-1-0.2-1.9-0.5-2.7-1 c-0.8-0.5-1.4-1.1-1.8-2c-0.4-0.8-0.7-1.9-0.7-3.1c0-1.3,0.2-2.3,0.7-3.2c0.4-0.8,1-1.5,1.8-2.1c0.7-0.5,1.6-1,2.6-1.3 c1-0.3,2-0.6,3-0.8c1.1-0.2,2.2-0.4,3.3-0.5c1.1-0.1,2.1-0.3,3.1-0.5c1-0.2,1.9-0.4,2.8-0.7c0.9-0.3,1.6-0.7,2.2-1.2V563.2z"/><path d="M374.8,532.2c-1.6,0.5-3.1,1.2-4.5,2.2c-1.4,0.9-2.7,2.1-3.7,3.4c-1.1,1.3-2,2.7-2.6,4.3h-0.2v-9.2h-13v49.7h13.6v-22.4 c0-2.2,0.2-4.3,0.7-6.2c0.4-1.9,1.2-3.6,2.3-5c1.1-1.4,2.4-2.6,4.2-3.4c1.7-0.8,3.8-1.2,6.3-1.2c0.8,0,1.7,0,2.6,0.1 c0.9,0.1,1.7,0.2,2.3,0.3v-12.7c-1.1-0.3-2.1-0.5-3-0.5C378.1,531.5,376.4,531.7,374.8,532.2z"/><rect width="13.6" height="49.7" x="388.5" y="532.8"/><rect width="13.6" height="11.2" x="388.5" y="513.9"/><path d="M430.2,517.9h-13.6v14.9h-8.3v9.1h8.3v29.3c0,2.5,0.4,4.5,1.2,6.1c0.8,1.5,2,2.7,3.4,3.6c1.4,0.8,3.1,1.4,5,1.7 s3.9,0.4,6,0.4c1.3,0,2.7,0,4.1-0.1c1.4-0.1,2.7-0.2,3.8-0.4v-10.6c-0.6,0.1-1.3,0.2-2,0.3c-0.7,0.1-1.4,0.1-2.2,0.1 c-2.3,0-3.8-0.4-4.6-1.2c-0.8-0.8-1.2-2.3-1.2-4.6v-24.6h10v-9.1h-10V517.9z"/><path d="M477.9,532.8l-10.9,34h-0.2l-11.2-34h-14.5l17.4,46.6c0.4,1,0.6,2,0.6,3.1c0,1.5-0.4,2.8-1.3,4c-0.9,1.2-2.2,1.9-4,2.1 c-1.3,0.1-2.7,0-4-0.1c-1.3-0.1-2.7-0.3-3.9-0.4v11.2c1.4,0.1,2.8,0.2,4.2,0.3c1.4,0.1,2.8,0.1,4.2,0.1c4.7,0,8.3-0.9,10.9-2.6 c2.6-1.7,4.7-4.6,6.1-8.6l20.7-55.8H477.9z"/></g></switch></svg>