<svg xmlns="http://www.w3.org/2000/svg" xmlns:xlink="http://www.w3.org/1999/xlink" id="Layer_1" x="0" y="0" enable-background="new 0 0 766.4 194.9" version="1.1" viewBox="0 0 766.4 194.9" xml:space="preserve"><style type="text/css">.st619{fill:#29b4e7}</style><g><path d="M33.4,129.4c11.3-6.3,22.6-12.6,34-18.8c4.1-2.2,7-5.2,7-10.1c0-4.8-2.9-7.8-7-10.1 C56.2,84.3,45,78.1,33.8,71.8c-9-5-14.3-3.6-19.3,5.2c0,1.9,0,3.8,0,5.7c2.2,3.9,5.5,6.3,9.4,8.3c5.6,2.9,11,6.1,17.1,9.5 c-6,3.4-11.3,6.5-16.8,9.3c-4,2.1-7.6,4.5-9.8,8.5c0,1.9,0,3.8,0,5.7C19.3,132.7,24.8,134.2,33.4,129.4z" class="st619"/><path d="M133.1,169.6c-0.4-5.2,0-10.5-0.1-15.8c-0.1-2.9,0.5-3.7,3.3-2.1c6.3,3.6,12.7,7.1,19.2,10.3 c5.6,2.7,12.4,0.2,14.9-5c2.6-5.3,0.7-10.7-5.1-13.9c-12.5-6.9-25.1-13.6-37.7-20.4c-7.6-4.1-17.5,0.6-17.2,10.5 c0.4,12.3,0.4,24.6,0,36.8c-0.2,6.8,2.1,11.4,8.5,13.9c1.9,0,3.8,0,5.7,0C131.2,181.4,133.6,176.6,133.1,169.6z" class="st619"/><path d="M70.1,24.2c0.2,3.1,0.1,6.2,0,9.3c-0.1,4.1,0.4,8.2-0.4,12.6c-7.3-4-14.2-8-21.3-11.6 c-5.7-2.9-12.2-0.7-15,4.6c-2.7,5.2-1,10.9,4.7,14.1c12.3,7,24.7,13.9,37.1,20.6c8.6,4.6,16.9-0.7,16.9-10.5 c0-12.3-0.2-24.6,0.1-36.8c0.2-6.7-2.1-11.4-8.2-14.2c-1.9,0-3.8,0-5.7,0C73.2,14.5,69.8,17.9,70.1,24.2z" class="st619"/><path d="M110.1,23.6c0.1,13.5-0.1,27,0,40.5c0.1,8.6,8.2,14.1,15.8,10.2c13.3-6.9,26.3-14.3,39.3-21.8 c4.3-2.5,5.7-7.2,4.3-11.6c-1.5-4.7-5.3-7.5-10.3-7.7c-2.9-0.1-5.2,1-7.6,2.3c-6.3,3.5-12.6,7-19.5,10.7c0-7.2-0.3-13.7,0.1-20.1 c0.4-6.8-2-11.5-8.4-14c-1.9,0-3.8,0-5.7,0C113.5,14.6,110,17.7,110.1,23.6z" class="st619"/><path d="M92.6,170.3c-0.4-12.3-0.6-24.6,0-36.8c0.6-11.1-10.3-14.6-17.8-10.1c-11.2,6.8-22.7,12.9-34.1,19.4 c-6.1,3.5-8.1,9.6-5,15c3,5.3,9.5,6.8,15.5,3.4c5.4-3,10.9-5.9,16.2-9.2c3.5-2.2,3.8-0.9,3.7,2.4c-0.2,5.3,0.3,10.5-0.1,15.8 c-0.5,6.7,2.1,11.2,8.2,13.7c1.9,0,3.8,0,5.7,0C90.7,181.2,92.8,176.8,92.6,170.3z" class="st619"/><path d="M709.4,70.7c-17.9,5.9-27.2,25.8-20,42.8c6.1,14.4,21.9,22.8,37.9,20c10-1.8,17.6-7.1,23.4-15.3 c1.7-2.4,1.3-4.7-1-6.3c-2.1-1.5-4.4-1.1-6.2,0.9c-0.6,0.7-1.1,1.5-1.7,2.3c-6.5,8.4-15.3,11.5-25.5,9.6c-9.5-1.7-16-7.3-19-16.7 c-1.1-3.3-0.4-4.2,3.1-4.1c15.4,0.2,30.8,0,46.2,0.1c2.7,0,5-0.5,6.9-2.5c0-1.6,0-3.2,0-4.9c-0.8-0.7-0.7-1.7-0.9-2.6 C748,75.2,728.2,64.5,709.4,70.7z M739.7,95c-6.5-0.1-12.9,0-19.4,0c-6.7,0-13.5-0.1-20.2,0c-2.4,0-2.7-0.7-1.8-2.9 c3.2-8.2,12.2-14.3,21.6-14.4c9.9-0.1,18.8,5.6,22.3,13.9C743.3,94.6,742.4,95.1,739.7,95z" class="st619"/><path d="M184.4,111.6c-6.3-3.6-12.7-7.1-19.9-11.1c7.1-4,13.6-7.5,20-11.2c6.2-3.5,8.2-9.1,5.4-14.5 c-2.8-5.5-9.4-7.6-15.3-4.5c-12.7,6.8-25.4,13.7-37.8,21c-7.7,4.4-7.6,14,0.1,18.4c12.4,7.1,24.9,14,37.5,20.8 c6,3.2,12.4,1.3,15.4-4.1C192.8,120.9,190.8,115.2,184.4,111.6z" class="st619"/><path d="M617.5,69c-2.6,0.1-4.1,1.8-4.3,4.5c-0.1,1.4,0,2.9,0,4.5c-18.7-12.3-33.1-11.9-45.3,0.9 c-10.9,11.3-11.9,29-2.4,42c5.7,7.7,13.4,12,22.9,12.8c9.5,0.8,17.5-3,24.8-9.5c0,1.3,0,1.9,0,2.4c0.1,5.1,1.4,7.2,4.5,7.2 c3,0,4.5-2.3,4.5-7.2c0-15.1,0-30.2,0-45.3c0-2.6,0.1-5.1,0-7.7C622,70.7,620.4,68.9,617.5,69z M589.9,124.8 c-12-0.2-22.1-11.2-21.9-24c0.2-13,10.6-23.3,23.1-23.2c12.1,0.2,22.2,10.9,22.1,23.8C613.1,114.7,602.8,125,589.9,124.8z" class="st619"/><path d="M479.8,69.3c-3.9-1.1-5.2,1.6-6.3,4.6c-3.1,8.5-6.2,16.9-9.3,25.4c-2.2,5.9-4.4,11.8-6.9,18.5 c-4.2-10-8.1-19.2-12-28.3c-1.1-2.5-1.9-5.2-5.4-5.2c-3.5,0-4.3,2.8-5.4,5.2c-3.9,9.2-7.8,18.3-12,28.2c-0.8-2.1-1.4-3.5-1.9-4.9 c-4.9-13.3-9.8-26.5-14.7-39.8c-1-2.8-2.7-5-6-3.8c-3.2,1.2-3.3,3.7-2.2,6.7c6.7,17.8,13.4,35.5,20,53.3c0.9,2.3,2,4.3,4.7,4.4 c2.7,0.1,3.9-1.9,4.8-4.2c3.5-8.3,7-16.7,10.5-24.9c0.6-1.4,0.8-3,2.5-4.2c4.1,9.7,8.1,19.1,12.1,28.5c1,2.4,2,5,5.2,4.8 c3.2-0.2,4-2.7,5-5.2c6.5-17.3,12.9-34.5,19.4-51.8C483.3,72.8,482.7,70.1,479.8,69.3z" class="st619"/><path d="M679.2,74.9c2.3-2.3,4.4-4.7,1.6-8c-2-2.3-4.5-1.7-7.8,1.6c-6.6,6.8-13.1,13.6-19.8,20.3 c-4,4-8.2,7.7-12.4,11.7c0-18.1,0-36.2,0-54.2c0-1.3,0.1-2.7-0.1-4c-0.4-2.4-1.9-4-4.4-4c-2.5,0-3.8,1.8-4.2,4.1 c-0.2,0.9-0.1,1.9-0.1,2.8c0,27.1,0,54.3,0,81.4c0,1.1-0.1,2.2,0.1,3.2c0.4,2.2,1.7,3.8,4,3.9c2.3,0.1,3.8-1.3,4.4-3.5 c0.3-1.1,0.4-2.4,0.2-3.6c-1.3-8.3,1.3-14.7,7.8-20.2c3-2.5,4.3-2.8,6.2,0.4c0.3,0.5,0.6,0.9,1,1.3c6.1,7.8,12.2,15.5,18.2,23.3 c1.7,2.2,3.8,3.3,6.3,1.5c2.4-1.8,2.6-4.3,0.9-6.8c-0.5-0.8-1.1-1.5-1.7-2.3c-6.4-8.2-12.6-16.5-19.1-24.6 c-1.8-2.2-1.6-3.4,0.3-5.3C666.8,87.7,672.9,81.2,679.2,74.9z" class="st619"/><path d="M365.6,68.9c-17.3-0.1-31.7,14.5-31.9,32c-0.1,17.9,14.2,32.8,31.5,32.8c17.3,0,31.6-14.6,31.7-32.2 C397,83.8,382.8,69,365.6,68.9z M365.3,124.8c-12.2,0-22.5-10.6-22.6-23.3c-0.1-12.9,10.2-23.8,22.5-23.8 c12.4,0,22.7,10.8,22.6,23.7C387.8,114.2,377.5,124.8,365.3,124.8z" class="st619"/><path d="M294.9,69c-5.6,0.5-10.6,2.8-15.3,6.5c-0.2-1-0.2-1.6-0.4-2.2c-0.5-2.5-1.7-4.4-4.5-4.2 c-2.9,0.2-4.2,2.2-4.2,5c0,18.4,0,36.7,0,55.1c0,3.1,2.7,5.3,5.3,4.5c2.8-0.8,3.5-3,3.5-5.7c0-10.5-0.1-21.1,0-31.6 c0.1-10.6,7.9-18.5,17.9-18.5c10.2,0,17.8,7.8,17.8,18.5c0.1,10.4,0.1,20.8,0,31.2c0,3.2,0.7,5.7,4.3,6.1c2.9,0.3,4.6-2.1,4.6-6.2 c0-10.7,0.1-21.3,0-32C323.8,79.8,310.5,67.7,294.9,69z" class="st619"/><path d="M248.2,99.9c-6.9-2.8-14-4.9-20.9-7.5c-2.7-1-5.3-2.5-5.3-5.9c0-3.3,2.1-5.4,4.9-6.9 c6.6-3.4,13-2.9,19.1,1.1c1.5,1,2.8,2.1,4.3,3.1c1.6,1,3.4,1.1,4.8-0.5c1.3-1.4,1-3,0-4.4c-0.6-0.9-1.3-1.8-2-2.5 c-8.8-8.7-23.9-9.9-33.9-2.7c-9.8,7-9.2,20,1.3,26c4.3,2.4,9,3.5,13.7,4.9c4.3,1.3,8.6,2.5,12.3,5.1c4,2.9,4.4,7.1,1,10.7 c-1.7,1.8-3.9,2.9-6.3,3.6c-7.6,2.1-14.7,0.5-21.4-3.3c-2.3-1.3-4.8-2.7-6.7,0.4c-1.8,3,0.5,4.8,2.6,6.3c5.8,4.3,12.5,6,19.7,6.4 c2.9,0.2,5.7-0.4,8.4-1.1c2.1-0.5,4.1-1.4,5.9-2.5c6.2-3.6,9.8-8.8,9.6-16.2C258.9,106.8,254.4,102.4,248.2,99.9z" class="st619"/><path d="M526.2,38.3c-6.8-1.9-15.7,2.4-18.5,9.1c-2,4.7-2.3,9.7-2.1,14.7c0.1,2.9-0.5,4.1-3.7,3.9 c-5.3-0.2-7.6,1.3-7.7,4.5c-0.1,3.3,2.4,5.1,7.7,4.9c3.3-0.1,3.7,1.1,3.7,3.9c-0.2,8-0.1,15.9-0.1,23.9c0,8.4,0,16.7,0,25.1 c0,3.1,1.3,5.5,4.6,5.4c3.1-0.1,4.3-2.4,4.2-5.3c0-0.9,0-1.9,0-2.8c0-14.3,0-28.6,0-42.9c0-6.7,0-6.7,6.7-7.2 c3.2-0.2,5.2-1.8,5.2-5c0-3.1-2.3-4.3-5.2-4.5c-7-0.6-7-0.6-6.7-7.6c0-0.9,0-1.9,0.2-2.8c0.9-6.2,2.3-7.4,8.6-7.8 c1.1-0.1,2.2-0.1,3.2-0.4c2.2-0.6,3.4-2.3,3.3-4.5C529.7,40.5,528.4,38.9,526.2,38.3z" class="st619"/><path d="M549.3,86c0-14,0-28.1,0-42.1c0-3.4-1.6-5.6-4.9-5.6c-3.2,0-4.8,2.1-4.8,5.3c0,28.2,0,56.4,0,84.6 c0,1.7,0.4,3.2,1.8,4.3c1.5,1.2,3.1,1.6,4.9,0.8c2.4-1.1,3.1-3.1,3.1-5.6C549.2,113.8,549.3,99.9,549.3,86z" class="st619"/><path d="M117.7,91c-4.1-4.1-8.2-8.2-12.4-12.2c-2.7-2.6-7.1-2.7-9.8-0.1C91.2,82.8,87,87,82.9,91.3 c-2.9,3-2.9,7.4,0.1,10.4c4,4,8,8,12,12c3.3,3.2,7.4,3.3,10.7,0.1c4-4,8-8,12-12c1.6-1.5,2.5-3.2,2-5.6 C120.3,94.2,119.2,92.5,117.7,91z M100.2,103.2c-2-0.1-6.7-5.1-6.5-7c0.2-1.8,4.9-6.4,6.7-6.4c2,0,6.8,4.9,6.7,6.8 C107,98.6,102.1,103.3,100.2,103.2z" class="st619"/></g></svg>