<svg xmlns="http://www.w3.org/2000/svg" xmlns:xlink="http://www.w3.org/1999/xlink" id="Layer_1" data-name="Layer 1" viewBox="0 0 988 300"><defs><style>.cls-1,.cls-10,.cls-2,.cls-3,.cls-5,.cls-6,.cls-7,.cls-8,.cls-9{fill-rule:evenodd}.cls-1{fill:url(#linear-gradient)}.cls-2{fill:url(#linear-gradient-2)}.cls-3{fill:url(#linear-gradient-3)}.cls-4{fill:url(#linear-gradient-4)}.cls-5{fill:url(#linear-gradient-5)}.cls-6{fill:url(#linear-gradient-6)}.cls-7{fill:url(#linear-gradient-7)}.cls-8{fill:url(#linear-gradient-8)}.cls-9{fill:url(#linear-gradient-9)}.cls-10{fill:url(#linear-gradient-10)}.cls-11{isolation:isolate}.cls-12{fill:#35404c}</style><linearGradient id="linear-gradient" x1="312.77" x2="312.77" y1="330.926" y2="329.833" gradientTransform="matrix(210, 0, 0, -240, -65543, 79441)" gradientUnits="userSpaceOnUse"><stop offset="0" stop-color="#4f5e70"/><stop offset="1" stop-color="#29323c"/></linearGradient><linearGradient id="linear-gradient-2" x1="307.355" x2="307.355" y1="330.553" y2="329.46" gradientTransform="matrix(48.24204, 0, 0, -60.27778, -14471.00016, 20050.66695)" xlink:href="#linear-gradient"/><linearGradient id="linear-gradient-3" x1="307.471" x2="307.471" y1="330.553" y2="329.46" gradientTransform="matrix(48.24204, 0, 0, -60.27778, -14410.69761, 20050.66695)" xlink:href="#linear-gradient"/><linearGradient id="linear-gradient-4" x1="307.696" x2="307.696" y1="330.553" y2="329.46" gradientTransform="matrix(44.79617, 0, 0, -60.27778, -12958.26587, 20050.66695)" xlink:href="#linear-gradient"/><linearGradient id="linear-gradient-5" x1="308.9" x2="308.9" y1="330.553" y2="329.46" gradientTransform="matrix(53.41083, 0, 0, -60.27778, -15606.41071, 20050.66695)" xlink:href="#linear-gradient"/><linearGradient id="linear-gradient-6" x1="307.587" x2="307.587" y1="330.553" y2="329.46" gradientTransform="matrix(48.24204, 0, 0, -60.27778, -14350.39626, 20050.66695)" xlink:href="#linear-gradient"/><linearGradient id="linear-gradient-7" x1="308.765" x2="308.765" y1="330.553" y2="329.46" gradientTransform="matrix(55.13376, 0, 0, -60.27778, -16331.76453, 20050.66695)" xlink:href="#linear-gradient"/><linearGradient id="linear-gradient-8" x1="309.206" x2="309.206" y1="330.568" y2="329.475" gradientTransform="matrix(62.02547, 0, 0, -62, -18630.14948, 20619)" xlink:href="#linear-gradient"/><linearGradient id="linear-gradient-9" x1="307.823" x2="307.823" y1="330.553" y2="329.46" gradientTransform="matrix(48.24205, 0, 0, -60.27778, -14228.07063, 20050.66695)" xlink:href="#linear-gradient"/><linearGradient id="linear-gradient-10" x1="309.488" x2="309.488" y1="330.568" y2="329.475" gradientTransform="matrix(62.02548, 0, 0, -62, -18442.35492, 20619)" xlink:href="#linear-gradient"/></defs><title>sofastack</title><g id="品牌"><g id="黑1-copy-2"><path id="Page-1" d="M138.76662,18.83815,24,84.41907V150l114.76662,65.58093,90.17378-51.52765v37.2561l-90.17378,51.52767L24,187.14545v28.43548l114.76662,65.58092,114.76663-65.58092V121.56452l-114.76663,65.6916L48.59285,135.72821V98.69087l.19136-.10914L138.76662,150,253.53325,84.41907ZM73.56842,84.41907l65.1982-37.25586,65.1982,37.25586-65.1982,37.25586Z" class="cls-1"/><g id="Group"><polygon id="Fill-2" points="382.774 191.535 330.044 191.535 330.044 178.358 369.591 178.358 369.591 165.181 330.044 165.181 330.044 125.65 382.774 125.65 382.774 138.827 343.227 138.827 343.227 152.004 382.774 152.004 382.774 191.535" class="cls-2"/><path id="Fill-3" d="M409.13827,180.2401h26.36465V138.827H409.13827Zm-13.18233,11.29449h52.7293V125.65h-52.7293Z" class="cls-3"/><polygon id="Combined-Shape-Copy-2" points="849.804 138.827 849.804 125.65 800.842 125.65 800.842 191.535 849.804 191.535 849.804 178.358 815.907 178.358 815.907 138.827 849.804 138.827" class="cls-4"/><path id="Combined-Shape-Copy" d="M876.16916,168.73812v22.79647H862.98683V125.65h13.18233v22.33119L900.65063,125.65h18.8319l-36.36638,32.81169,38.24954,33.07286h-18.8319Z" class="cls-5"/><polygon id="Fill-4" points="514.597 138.827 514.597 125.65 461.868 125.65 461.868 191.535 475.05 191.535 475.05 167.063 514.597 167.063 514.597 153.886 475.05 153.886 475.05 138.827 514.597 138.827" class="cls-6"/><path id="Combined-Shape-Copy-6" d="M699.14939,138.827v52.70764H684.08387V138.827H661.48559V125.65h60.26205V138.827Z" class="cls-7"/><polygon id="Fill-5" points="514.597 191.535 529.662 191.535 548.494 152.004 567.326 191.535 582.392 191.535 548.494 123.768 514.597 191.535" class="cls-8"/><polygon id="Fill-2-Copy" points="648.303 191.535 595.574 191.535 595.574 178.358 635.121 178.358 635.121 165.181 595.574 165.181 595.574 125.65 648.303 125.65 648.303 138.827 608.756 138.827 608.756 152.004 648.303 152.004 648.303 191.535" class="cls-9"/><g id="Fill-5-Copy-2"><polygon points="719.864 191.535 734.93 191.535 753.762 152.004 772.594 191.535 787.659 191.535 753.762 123.768 719.864 191.535" class="cls-10"/></g></g><g id="TM" class="cls-11"><g class="cls-11"><path d="M936.91127,42.88449V26.32274h-6.18664V24.10682h14.8838v2.21592h-6.21226V42.88449Z" class="cls-12"/><path d="M948.08052,42.88449V24.10682h3.74017l4.44464,13.29551q.61482,1.85727.89662,2.7795.3202-1.0247.99908-3.01006l4.49588-13.065H966V42.88449h-2.39524V27.16812l-5.45654,15.71637h-2.24153l-5.43093-15.98536V42.88449Z" class="cls-12"/></g></g></g></g></svg>