<svg xmlns="http://www.w3.org/2000/svg" xmlns:xlink="http://www.w3.org/1999/xlink" id="Layer_1" x="0" y="0" enable-background="new 0 0 288 288" version="1.1" viewBox="0 0 288 288" xml:space="preserve"><style type="text/css">.st13{fill:none}.st400{fill:#3a4f9f}.st401{fill:#5567ae}.st402{fill:#3f5090}.st403{fill:#5b67a1}.st404{fill:#3e4f90}.st405{fill:#6a79b9}.st406{fill:#6e78af}.st407{fill:#43559f}.st408{fill:#252c45}</style><g><g><g><ellipse cx="165.4" cy="164.8" class="st13" rx="0" ry="0" transform="matrix(0.9995 -3.123475e-02 3.123475e-02 0.9995 -5.0682 5.248)"/></g><g><path d="M212.9,55.2C212.9,55.2,212.9,55.2,212.9,55.2C212.9,55.2,212.9,55.2,212.9,55.2 C212.9,55.2,212.9,55.2,212.9,55.2z" class="st13"/></g><g><path d="M97.7,163.9c7.1,0,14.2,0,21.3,0c1,0,2.4,0.5,2.6-1.3v0c-1.4-5.3-3.6-10.4-5.5-15.6 c-5.9-16.2-11.8-32.4-17.8-48.5c-0.8-2.2-0.4-3.4,1.7-4.5c5-2.5,10-5.2,15-7.8c23.6-12.3,47.2-24.5,70.8-36.8 c1.4-0.7,1.5-1.5,1-2.8c-2.2-6.2-4.4-12.4-6.6-18.5c-1.4-3.9-2.1-4.2-5.6-2.4c-15.5,8-31.1,16.1-46.6,24.2 c-20.3,10.5-40.5,21.1-60.8,31.7c-4.4,2.3-4.5,2.5-2.8,7.1c5.7,15.7,11.4,31.3,17.2,46.9c3.3,8.9,6.6,17.7,10,26.5 C93.3,164.3,95.6,163.9,97.7,163.9z" class="st400"/></g><g><path d="M212.3,54.2c-2-6.4-2.3-6.5-8.1-3.4C174,66.5,143.8,82.3,113.5,98c-2.5,1.3-3.1,2.7-2.1,5.3 c3.6,9.5,7.1,19.1,10.6,28.7c3.8,10.3,7.6,20.5,11.4,30.8c1.2,0.9,2.6,1.2,4.2,1.2c7.9-0.1,15.8,0,23.8,0c1.4,0,2.9,0.1,3.1-1.9 c0,0,0,0,0,0c0,0,0,0,0,0c-0.1-0.5-0.2-1.1-0.4-1.6c-5.9-16.1-11.7-32.2-17.7-48.2c-0.7-2-0.5-3.1,1.5-4c4-2,8-4.1,12-6.2 c18.7-9.7,37.4-19.5,56.1-29.1c2.1-1.1,2.5-2,1.7-4.2c-1.7-4.4-3.1-9-4.6-13.5c0,0,0,0,0,0C212.7,54.8,212.5,54.6,212.3,54.2z" class="st401"/></g><g><path d="M34.3,159.8c0.9,4.1,0.9,4.1,5.1,4.1c12,0,24-0.1,35.9,0.1c2.4,0,4.1-0.3,4.9-2.8c0,0,0,0,0,0v0 c-5.9-16-11.7-32.1-17.6-48.1c-2.7-7.4-5.4-14.7-8.1-22.1c-0.3-0.8-0.3-1.8-1.4-1.9c-1-0.1-1.3,0.9-1.8,1.6 c-0.6,0.8-1.2,1.7-1.8,2.5l0,0v0c0,0,0,0,0,0c0,0,0,0,0,0c-0.4,0.6-0.7,1.3-1.1,1.9c-7.7,11.9-15.5,23.7-23.2,35.6 c-0.7,1.1-1.3,2-0.8,3.6c2.8,7.8,5.5,15.7,8.2,23.6C34.4,157.6,34.1,158.8,34.3,159.8z" class="st400"/></g><g><path d="M80.3,161.1c-0.7,2.5-2.5,2.9-4.9,2.8c-12-0.1-24-0.1-35.9-0.1c-4.2,0-4.2,0-5.1-4.1 c-0.2-1,0.1-2.2-1.5-2.1c0.3,1.2,0.7,2.3,0.9,3.5c0.7,3,2.3,4,5.5,3.9c12.8-0.3,25.7-0.2,38.5-0.3 C81.7,164.8,81.7,164.8,80.3,161.1C80.3,161.1,80.3,161.1,80.3,161.1z" class="st402"/></g><g><path d="M161.4,163.9c-7.9,0-15.8,0-23.8,0c-1.6,0-2.9-0.2-4.2-1.2c0.1,1.9,1.3,2.1,2.9,2.1c9.7,0,19.4,0,29.2,0 c0,0,0,0,0,0v0c-0.1-1-0.3-2-1-2.8c0,0,0,0,0,0C164.3,164,162.8,163.9,161.4,163.9z" class="st403"/></g><g><path d="M121.6,162.6c-0.3,1.7-1.6,1.3-2.6,1.3c-7.1,0-14.2,0-21.3,0c-2.1,0-4.4,0.5-6-1.6 c0.1,1.4,0.3,2.6,2.2,2.6c8.9,0,17.9,0,26.8,0C122.8,164.8,122.5,163.9,121.6,162.6C121.6,162.6,121.6,162.6,121.6,162.6z" class="st404"/></g><g><path d="M180.6,163.9c25.5,0,50.9,0,76.4,0.1c0,0,0,0,0,0c0,0,0,0,0,0c2.1-0.9,4.2-2,6.4-2.8 c2.4-0.9,3-2.2,2.1-4.7c-6.2-17.4-12.1-34.8-18.2-52.2c-3.2-9.3-6.4-18.6-9.7-27.9c-1-2.9-1.6-3.1-4.3-1.8 c-1.3,0.7-2.6,1.4-4,2.1c-22.4,11.6-44.9,23.3-67.3,34.9c-4,2.1-4,2.2-2.4,6.5c5.4,14.7,10.8,29.3,16.1,44 c0.8,2.3,1.9,3.3,4.3,2.5c-0.2-0.2-0.3-0.4-0.5-0.6C179.9,164,180.2,163.9,180.6,163.9z" class="st405"/></g><g><path d="M257,164C257,164,257,164,257,164c-25.5,0-50.9,0-76.4-0.1c-0.4,0-0.7,0.1-1.1,0.1 c0.2,0.2,0.3,0.4,0.5,0.6c0.6,0.1,1.1,0.2,1.7,0.2c24.1,0,48.1,0,72.2,0C255,164.9,256.1,164.8,257,164z" class="st406"/></g></g></g><g><path d="M34.3,211c-2-3-5-4.5-8.8-4.5c-1.2,0-2.4,0.2-3.6,0.5c-1.2,0.3-2.2,0.8-3.1,1.5c-0.9,0.7-1.7,1.5-2.2,2.6 c-0.6,1.1-0.8,2.3-0.8,3.7c0,2.1,0.6,3.7,1.7,4.8s2.6,2.1,4.3,2.8c1.7,0.7,3.6,1.4,5.6,2c2,0.6,3.9,1.4,5.7,2.3 c1.7,1,3.2,2.2,4.3,3.8c1.2,1.6,1.7,3.8,1.7,6.5c0,2.1-0.4,3.9-1.3,5.6c-0.9,1.7-2,3-3.5,4.2c-1.4,1.1-3.1,2-4.8,2.6 c-1.8,0.6-3.6,0.9-5.4,0.9c-2.8,0-5.5-0.5-8-1.6c-2.5-1.1-4.7-2.8-6.4-5.2l4.3-3c1,1.7,2.4,3,4.1,4s3.8,1.5,6.2,1.5 c1.2,0,2.3-0.2,3.5-0.5c1.2-0.4,2.2-0.9,3.1-1.6c0.9-0.7,1.7-1.6,2.3-2.6c0.6-1,0.9-2.2,0.9-3.6c0-1.6-0.3-2.9-1-4 c-0.7-1.1-1.5-1.9-2.6-2.6s-2.3-1.3-3.7-1.8c-1.4-0.5-2.8-0.9-4.3-1.4c-1.5-0.5-2.9-1-4.3-1.6c-1.4-0.6-2.6-1.4-3.7-2.3 c-1.1-0.9-2-2.1-2.6-3.5c-0.7-1.4-1-3.2-1-5.3c0-2.2,0.4-4.1,1.3-5.7c0.8-1.6,2-3,3.4-4.1c1.4-1.1,3-1.9,4.7-2.4 c1.8-0.5,3.6-0.8,5.4-0.8c2.6,0,4.9,0.4,7,1.2c2.1,0.8,4.1,2.3,5.9,4.3L34.3,211z" class="st407"/><path d="M64.3,222.8h-8.7v17.8c0,1.1,0.1,2,0.3,2.7c0.2,0.7,0.5,1.3,0.9,1.6c0.4,0.4,0.8,0.7,1.4,0.8 c0.5,0.2,1.1,0.2,1.8,0.2c0.7,0,1.5-0.1,2.3-0.3c0.8-0.2,1.5-0.5,2.1-0.8l0.2,3.9c-1.6,0.7-3.5,1.1-5.7,1.1c-0.8,0-1.7-0.1-2.6-0.3 c-0.9-0.2-1.7-0.6-2.4-1.2c-0.7-0.6-1.3-1.4-1.8-2.5c-0.5-1-0.7-2.4-0.7-4.1v-19h-6.4v-3.9h6.4v-8.5h4.3v8.5h8.7V222.8z" class="st407"/><path d="M91.1,230.6v-0.8c0-5.2-2.6-7.8-7.7-7.8c-3.5,0-6.6,1.2-9.2,3.6l-2.6-3c2.8-2.9,7.1-4.4,12.8-4.4 c1.5,0,2.9,0.2,4.2,0.6c1.4,0.4,2.5,1.1,3.5,2c1,0.9,1.8,2,2.4,3.3c0.6,1.3,0.9,2.9,0.9,4.8v13.5c0,1.2,0.1,2.4,0.2,3.6 c0.1,1.3,0.2,2.3,0.4,3.1h-4.1c-0.1-0.7-0.2-1.5-0.3-2.4s-0.1-1.7-0.1-2.5h-0.1c-1.2,2-2.7,3.5-4.4,4.4c-1.7,0.9-3.8,1.3-6.2,1.3 c-1.3,0-2.6-0.2-3.9-0.5c-1.2-0.4-2.4-0.9-3.3-1.7c-1-0.8-1.7-1.7-2.3-2.8s-0.9-2.4-0.9-3.8c0-2.5,0.6-4.4,1.9-5.8 c1.3-1.4,2.9-2.4,4.8-3.1c1.9-0.7,4-1.1,6.1-1.3c2.2-0.2,4.2-0.3,6-0.3H91.1z M88.9,234.1c-1.1,0-2.4,0.1-4,0.2s-3.2,0.4-4.6,0.8 c-1.5,0.4-2.8,1-3.8,1.9c-1.1,0.9-1.6,2-1.6,3.6c0,1,0.2,1.8,0.6,2.6s1,1.3,1.6,1.7s1.5,0.8,2.3,1c0.8,0.2,1.7,0.3,2.5,0.3 c1.5,0,2.9-0.3,4-0.8c1.1-0.5,2.1-1.2,2.9-2.1c0.8-0.9,1.3-1.9,1.7-3.1c0.4-1.2,0.5-2.4,0.5-3.8v-2.2H88.9z" class="st407"/><path d="M128.8,226c-0.7-1.1-1.8-2.1-3.1-2.8c-1.3-0.8-2.8-1.2-4.5-1.2c-1.8,0-3.3,0.2-4.7,0.8 c-1.4,0.6-2.6,1.4-3.6,2.5c-1,1.1-1.7,2.4-2.3,3.8c-0.5,1.5-0.8,3.1-0.8,4.8c0,1.7,0.3,3.3,0.8,4.8s1.3,2.8,2.3,3.8 c1,1.1,2.2,1.9,3.6,2.5c1.4,0.6,3,0.9,4.7,0.8c1.7,0,3.2-0.4,4.5-1.2c1.3-0.8,2.3-1.7,3.1-2.8l3.5,2.6c-1.5,1.8-3.2,3.1-5.1,3.9 c-1.9,0.8-3.9,1.3-5.9,1.3c-2.5,0-4.7-0.3-6.7-1.1c-2-0.8-3.7-1.9-5.1-3.3c-1.4-1.4-2.5-3.1-3.2-5.1c-0.7-2-1.1-4.1-1.1-6.4 c0-2.3,0.4-4.4,1.1-6.4c0.7-2,1.8-3.6,3.2-5.1c1.4-1.4,3.1-2.5,5.1-3.3c2-0.8,4.2-1.2,6.7-1.1c2.1,0,4,0.5,5.9,1.3 c1.9,0.8,3.6,2.1,5.1,3.9L128.8,226z" class="st407"/><path d="M143.8,232.5l14.3-13.6h6.4l-15,13.8l16.7,16.4h-6.6l-15.7-15.9v15.9h-4.3v-48.8h4.3V232.5z" class="st407"/><path d="M178.5,249.1h-4.6v-45.7h14.1c4.6,0,8.3,1,11,3s4,5.1,4,9.2c0,3.2-1,5.9-3,8c-2,2.2-4.9,3.4-8.7,3.8 l13.2,21.7h-5.7l-12.5-21.2h-7.7V249.1z M178.5,223.6h8.3c2.1,0,3.8-0.2,5.3-0.6c1.4-0.4,2.6-1,3.5-1.7c0.9-0.7,1.5-1.5,1.9-2.5 c0.4-1,0.6-2,0.6-3.1c0-1.1-0.2-2.1-0.6-3.1c-0.4-1-1-1.8-1.9-2.6c-0.9-0.7-2-1.3-3.5-1.7c-1.4-0.4-3.2-0.6-5.3-0.6h-8.3V223.6z" class="st408"/><path d="M242.7,234c0,2.3-0.4,4.4-1.2,6.3c-0.8,1.9-1.9,3.6-3.3,5c-1.4,1.4-3.1,2.5-5.1,3.3c-2,0.8-4.1,1.2-6.5,1.2 c-2.3,0-4.5-0.4-6.4-1.2s-3.6-1.9-5.1-3.3c-1.4-1.4-2.5-3.1-3.3-5c-0.8-1.9-1.2-4-1.2-6.3c0-2.3,0.4-4.4,1.2-6.3 c0.8-1.9,1.9-3.6,3.3-5c1.4-1.4,3.1-2.5,5.1-3.3c2-0.8,4.1-1.2,6.4-1.2c2.4,0,4.5,0.4,6.5,1.2c2,0.8,3.6,1.9,5.1,3.3 c1.4,1.4,2.5,3.1,3.3,5C242.3,229.6,242.7,231.7,242.7,234z M238.1,234c0-1.7-0.3-3.2-0.8-4.7c-0.5-1.5-1.3-2.7-2.3-3.8 s-2.2-1.9-3.6-2.6c-1.4-0.6-3-0.9-4.7-0.9c-1.8,0-3.3,0.3-4.7,0.9c-1.4,0.6-2.6,1.5-3.6,2.6s-1.7,2.3-2.3,3.8 c-0.5,1.5-0.8,3-0.8,4.7s0.3,3.3,0.8,4.7c0.5,1.5,1.3,2.7,2.3,3.8c1,1.1,2.2,1.9,3.6,2.6c1.4,0.6,3,0.9,4.7,0.9 c1.8,0,3.3-0.3,4.7-0.9c1.4-0.6,2.6-1.5,3.6-2.6c1-1.1,1.8-2.3,2.3-3.8C237.8,237.3,238.1,235.7,238.1,234z" class="st408"/><path d="M259.9,233l-11-14.1h5.8l8.4,11.3l8-11.3h5.3L265.9,233l12.7,16.1h-5.8l-10.1-13.2l-9.8,13.2h-5.4L259.9,233 z" class="st408"/></g></svg>