<svg xmlns="http://www.w3.org/2000/svg" xmlns:xlink="http://www.w3.org/1999/xlink" id="tikv_1" x="0" y="0" enable-background="new 0 0 360 178" version="1.1" viewBox="0 0 360 178" xml:space="preserve"><style type="text/css">.st0{fill:#353558}.st1{fill:#ec1a3b}.st2{fill:#fff}</style><g><g><polygon points="273.612 129.985 248.176 129.985 222.54 93.189 212.888 102.941 212.888 129.885 192.479 129.885 192.479 44.63 212.888 44.63 212.888 80.119 246.367 44.63 270.697 44.63 236.414 79.315" class="st0"/><polygon points="306.789 129.985 278.538 44.63 300.958 44.63 317.848 105.052 319.155 105.052 335.04 44.63 357.761 44.63 328.907 129.985" class="st0"/></g><g><polygon points="84.101 3.209 1.761 46.037 1.761 131.594 84.101 174.322 166.139 131.594 166.139 46.037" class="st1"/><g><polygon points="78.471 59.509 78.471 139.436 58.363 128.98 58.363 69.965 32.525 83.437 32.525 62.023 84 35.28 104.51 45.937" class="st2"/><polygon points="119.59 123.752 99.181 134.409 99.181 70.066 119.59 59.509" class="st2"/></g></g></g></svg>