<svg xmlns="http://www.w3.org/2000/svg" xmlns:xlink="http://www.w3.org/1999/xlink" id="图层_1" x="0" y="0" enable-background="new 0 0 300 204.3" version="1.1" viewBox="0 0 300 204.3" xml:space="preserve"><style type="text/css">.st0{fill:url(#SVGID_1_)}.st1{fill:#0f0f0f}</style><switch><g><g><linearGradient id="SVGID_1_" x1="150" x2="150" y1="146.771" y2="0" gradientUnits="userSpaceOnUse"><stop offset="0" stop-color="#EB5520"/><stop offset=".247" stop-color="#EB511F"/><stop offset=".503" stop-color="#EB441D"/><stop offset=".763" stop-color="#EB301A"/><stop offset="1" stop-color="#EB1616"/></linearGradient><path d="M125.8,40.3L106.5,21c-0.4-0.4-0.4-1,0-1.4l19.3-19.3c0.4-0.4,1-0.4,1.4,0l19.3,19.3c0.4,0.4,0.4,1,0,1.4 l-19.3,19.3C126.8,40.7,126.1,40.7,125.8,40.3z M120.6,43.1l-17-17c-0.4-0.4-1-0.4-1.4,0l-17,17c-0.4,0.4-0.4,1,0,1.4l17,17 c0.4,0.4,1,0.4,1.4,0l17-17C121,44.2,121,43.5,120.6,43.1z M167.7,43.1l-17-17c-0.4-0.4-1-0.4-1.4,0l-17,17c-0.4,0.4-0.4,1,0,1.4 l17,17c0.4,0.4,1,0.4,1.4,0l17-17C168.1,44.2,168.1,43.5,167.7,43.1z M94.8,66.7L80.1,52c-0.4-0.4-1-0.4-1.4,0L64,66.7 c-0.4,0.4-0.4,1,0,1.4l14.7,14.7c0.4,0.4,1,0.4,1.4,0l14.7-14.7C95.2,67.7,95.2,67.1,94.8,66.7z M141.9,66.7L127.2,52 c-0.4-0.4-1-0.4-1.4,0l-14.7,14.7c-0.4,0.4-0.4,1,0,1.4l14.7,14.7c0.4,0.4,1,0.4,1.4,0l14.7-14.7 C142.3,67.7,142.3,67.1,141.9,66.7z M188.9,66.7L174.2,52c-0.4-0.4-1-0.4-1.4,0l-14.7,14.7c-0.4,0.4-0.4,1,0,1.4l14.7,14.7 c0.4,0.4,1,0.4,1.4,0l14.7-14.7C189.3,67.7,189.3,67.1,188.9,66.7z M69,90.2L56.6,77.8c-0.4-0.4-1-0.4-1.4,0L42.8,90.2 c-0.4,0.4-0.4,1,0,1.4L55.2,104c0.4,0.4,1,0.4,1.4,0L69,91.6C69.4,91.2,69.4,90.6,69,90.2z M116,90.2l-12.4-12.4 c-0.4-0.4-1-0.4-1.4,0L89.8,90.2c-0.4,0.4-0.4,1,0,1.4l12.4,12.4c0.4,0.4,1,0.4,1.4,0L116,91.6C116.4,91.2,116.4,90.6,116,90.2z M163.1,90.2l-12.4-12.4c-0.4-0.4-1-0.4-1.4,0l-12.4,12.4c-0.4,0.4-0.4,1,0,1.4l12.4,12.4c0.4,0.4,1,0.4,1.4,0l12.4-12.4 C163.5,91.2,163.5,90.6,163.1,90.2z M210.2,90.2l-12.4-12.4c-0.4-0.4-1-0.4-1.4,0L184,90.2c-0.4,0.4-0.4,1,0,1.4l12.4,12.4 c0.4,0.4,1,0.4,1.4,0l12.4-12.4C210.6,91.2,210.6,90.6,210.2,90.2z M43.1,113.7L33,103.6c-0.4-0.4-1-0.4-1.4,0l-10.1,10.1 c-0.4,0.4-0.4,1,0,1.4l10.1,10.1c0.4,0.4,1,0.4,1.4,0l10.1-10.1C43.5,114.8,43.5,114.1,43.1,113.7z M90.2,113.7l-10.1-10.1 c-0.4-0.4-1-0.4-1.4,0l-10.1,10.1c-0.4,0.4-0.4,1,0,1.4l10.1,10.1c0.4,0.4,1,0.4,1.4,0l10.1-10.1 C90.6,114.8,90.6,114.1,90.2,113.7z M137.3,113.7l-10.1-10.1c-0.4-0.4-1-0.4-1.4,0l-10.1,10.1c-0.4,0.4-0.4,1,0,1.4l10.1,10.1 c0.4,0.4,1,0.4,1.4,0l10.1-10.1C137.7,114.8,137.7,114.1,137.3,113.7z M184.3,113.7l-10.1-10.1c-0.4-0.4-1-0.4-1.4,0l-10.1,10.1 c-0.4,0.4-0.4,1,0,1.4l10.1,10.1c0.4,0.4,1,0.4,1.4,0l10.1-10.1C184.7,114.8,184.7,114.1,184.3,113.7z M231.4,113.7l-10.1-10.1 c-0.4-0.4-1-0.4-1.4,0l-10.1,10.1c-0.4,0.4-0.4,1,0,1.4l10.1,10.1c0.4,0.4,1,0.4,1.4,0l10.1-10.1 C231.8,114.8,231.8,114.1,231.4,113.7z M17.3,137.3l-7.8-7.8c-0.4-0.4-1-0.4-1.4,0l-7.8,7.8c-0.4,0.4-0.4,1,0,1.4l7.8,7.8 c0.4,0.4,1,0.4,1.4,0l7.8-7.8C17.7,138.3,17.7,137.7,17.3,137.3z M64.4,137.3l-7.8-7.8c-0.4-0.4-1-0.4-1.4,0l-7.8,7.8 c-0.4,0.4-0.4,1,0,1.4l7.8,7.8c0.4,0.4,1,0.4,1.4,0l7.8-7.8C64.8,138.3,64.8,137.7,64.4,137.3z M111.4,137.3l-7.8-7.8 c-0.4-0.4-1-0.4-1.4,0l-7.8,7.8c-0.4,0.4-0.4,1,0,1.4l7.8,7.8c0.4,0.4,1,0.4,1.4,0l7.8-7.8C111.8,138.3,111.8,137.7,111.4,137.3z M158.5,137.1l-7.8-7.8c-0.4-0.4-1-0.4-1.4,0l-7.8,7.8c-0.4,0.4-0.4,1,0,1.4l7.8,7.8c0.4,0.4,1,0.4,1.4,0l7.8-7.8 C158.9,138.1,158.9,137.5,158.5,137.1z M205.6,137.1l-7.8-7.8c-0.4-0.4-1-0.4-1.4,0l-7.8,7.8c-0.4,0.4-0.4,1,0,1.4l7.8,7.8 c0.4,0.4,1,0.4,1.4,0l7.8-7.8C206,138.1,206,137.5,205.6,137.1z M252.6,137.1l-7.8-7.8c-0.4-0.4-1-0.4-1.4,0l-7.8,7.8 c-0.4,0.4-0.4,1,0,1.4l7.8,7.8c0.4,0.4,1,0.4,1.4,0l7.8-7.8C253,138.1,253,137.5,252.6,137.1z M174.2,40.3L193.5,21 c0.4-0.4,0.4-1,0-1.4L174.2,0.3c-0.4-0.4-1-0.4-1.4,0l-19.3,19.3c-0.4,0.4-0.4,1,0,1.4l19.3,19.3 C173.2,40.7,173.9,40.7,174.2,40.3z M197.8,61.5l17-17c0.4-0.4,0.4-1,0-1.4l-17-17c-0.4-0.4-1-0.4-1.4,0l-17,17 c-0.4,0.4-0.4,1,0,1.4l17,17C196.8,61.9,197.4,61.9,197.8,61.5z M221.3,82.8L236,68.1c0.4-0.4,0.4-1,0-1.4L221.3,52 c-0.4-0.4-1-0.4-1.4,0l-14.7,14.7c-0.4,0.4-0.4,1,0,1.4l14.7,14.7C220.3,83.2,220.9,83.2,221.3,82.8z M244.8,104l12.4-12.4 c0.4-0.4,0.4-1,0-1.4l-12.4-12.4c-0.4-0.4-1-0.4-1.4,0L231,90.2c-0.4,0.4-0.4,1,0,1.4l12.4,12.4 C243.8,104.4,244.5,104.4,244.8,104z M268.4,125.2l10.1-10.1c0.4-0.4,0.4-1,0-1.4l-10.1-10.1c-0.4-0.4-1-0.4-1.4,0l-10.1,10.1 c-0.4,0.4-0.4,1,0,1.4l10.1,10.1C267.4,125.6,268,125.6,268.4,125.2z M291.9,146.3l7.8-7.8c0.4-0.4,0.4-1,0-1.4l-7.8-7.8 c-0.4-0.4-1-0.4-1.4,0l-7.8,7.8c-0.4,0.4-0.4,1,0,1.4l7.8,7.8C290.9,146.7,291.5,146.7,291.9,146.3z" class="st0"/><g><g><g><path d="M85.1,204.3H65.8c-6.1,0-11-4.9-11-11v-5.5c0-6.1,4.9-11,11-11h19.3c6.1,0,11,4.9,11,11v5.5 C96.1,199.4,91.2,204.3,85.1,204.3z M65.8,182.3c-3,0-5.5,2.5-5.5,5.5v5.5c0,3,2.5,5.5,5.5,5.5h19.3c3,0,5.5-2.5,5.5-5.5v-5.5 c0-3-2.5-5.5-5.5-5.5H65.8z" class="st1"/></g><g><path d="M129.2,204.3h-18.8c-6.1,0-11-4.9-11-11v-16c0-0.3,0.2-0.5,0.5-0.5h4.5c0.3,0,0.5,0.2,0.5,0.5v16 c0,3,2.5,5.5,5.5,5.5h18.8c0.3,0,0.5,0.2,0.5,0.5v4.5C129.7,204.1,129.5,204.3,129.2,204.3z" class="st1"/></g><g><path d="M47.9,177l-15.4,21.9c-0.2,0.3-0.6,0.3-0.8,0L16.4,177c-0.1-0.1-0.2-0.2-0.4-0.2h-5.5 c-0.4,0-0.6,0.5-0.4,0.8l18.6,26.5c0.1,0.1,0.2,0.2,0.4,0.2h6.2c0.2,0,0.3-0.1,0.4-0.2l18.6-26.5c0.2-0.3,0-0.8-0.4-0.8h-5.5 C48.2,176.8,48,176.9,47.9,177z" class="st1"/></g><g><path d="M279,204.3h-19.3c-6.1,0-11-4.9-11-11v-5.5c0-6.1,4.9-11,11-11H279c6.1,0,11,4.9,11,11v5.5 C290,199.4,285.1,204.3,279,204.3z M259.7,182.3c-3,0-5.5,2.5-5.5,5.5v5.5c0,3,2.5,5.5,5.5,5.5H279c3,0,5.5-2.5,5.5-5.5v-5.5 c0-3-2.5-5.5-5.5-5.5H259.7z" class="st1"/></g><g><path d="M165.6,204.3H144c-6.1,0-11-4.9-11-11v-5.5c0-6.1,4.9-11,11-11h21.5c0.3,0,0.5,0.2,0.5,0.5v4.5 c0,0.3-0.2,0.5-0.5,0.5H144c-3,0-5.5,2.5-5.5,5.5v5.5c0,3,2.5,5.5,5.5,5.5h21.5c0.3,0,0.5,0.2,0.5,0.5v4.5 C166.1,204.1,165.9,204.3,165.6,204.3z" class="st1"/></g><g><path d="M194.7,176.8H181c-6.1,0-11,4.9-11,11v16c0,0.3,0.2,0.5,0.5,0.5h4.5c0.3,0,0.5-0.2,0.5-0.5v-10 c0-0.3,0.2-0.5,0.5-0.5h23.8c0.3,0,0.5,0.2,0.5,0.5v10c0,0.3,0.2,0.5,0.5,0.5h4.5c0.3,0,0.5-0.2,0.5-0.5v-16 C205.7,181.7,200.8,176.8,194.7,176.8z M176,187.8c-0.3,0-0.5-0.2-0.5-0.5c0.3-2.8,2.6-5,5.5-5h13.8c2.9,0,5.2,2.2,5.5,5 c0,0.3-0.2,0.5-0.5,0.5H176z" class="st1"/></g><g><path d="M239.9,177.3V197c0,0.4-0.5,0.7-0.8,0.4l-22.5-20.4c-0.1-0.1-0.2-0.1-0.3-0.1h-6.2 c-0.3,0-0.5,0.2-0.5,0.5v26.5c0,0.3,0.2,0.5,0.5,0.5h4.5c0.3,0,0.5-0.2,0.5-0.5v-19.7c0-0.4,0.5-0.7,0.8-0.4l22.5,20.4 c0.1,0.1,0.2,0.1,0.3,0.1h6.2c0.3,0,0.5-0.2,0.5-0.5v-26.5c0-0.3-0.2-0.5-0.5-0.5h-4.5C240.1,176.8,239.9,177,239.9,177.3z" class="st1"/></g></g></g></g></g></switch></svg>