<svg xmlns="http://www.w3.org/2000/svg" xmlns:xlink="http://www.w3.org/1999/xlink" id="Layer_1" x="0" y="0" enable-background="new 0 0 5728 1328" version="1.1" viewBox="0 0 5728 1328" xml:space="preserve"><style type="text/css">.st35{fill:url(#Triangle-3_1_)}.st36{fill:#333}</style><g id="Page-1"><g id="Complete-logo-_x28_white-on-black_x29_"><linearGradient id="Triangle-3_1_" x1="123.697" x2="105.532" y1="6820.456" y2="6840.095" gradientTransform="matrix(50.9832 0 0 -45.2264 -4581.4165 310411.1562)" gradientUnits="userSpaceOnUse"><stop offset="0" stop-color="#FFF"/><stop offset="1" stop-color="#000"/></linearGradient><polygon id="Triangle-3" points="717.3 138.2 1333.2 1230.9 101.4 1230.9" class="st35"/><path id="ZEIT" d="M2173.2,959.7h494.1v-85.8h-370.9l364.8-520.7v-74.9h-482v85.8h358.8l-364.8,520.7V959.7z M3184.4,959.7h443.4v-85.8h-343.1V655.2h298.4v-85.8h-298.4V364.1h343.1v-85.8h-443.4V959.7z M4161.7,959.7h432.5v-85.8h-165.5 V364.1h165.5v-85.8h-432.5v85.8h166.7v509.8h-166.7V959.7z M5305.8,959.7H5406V364.1h232v-85.8h-561.8v85.8h229.5V959.7z" class="st36"/></g></g></svg>